<?xml version="1.0" encoding="utf-8"?>
<!-- Generator: Adobe Illustrator 13.0.0, SVG Export Plug-In . SVG Version: 6.00 Build 14948)  -->
<!DOCTYPE svg PUBLIC "-//W3C//DTD SVG 1.1//EN" "http://www.w3.org/Graphics/SVG/1.1/DTD/svg11.dtd">
<svg version="1.1" id="Layer_1" xmlns="http://www.w3.org/2000/svg" xmlns:xlink="http://www.w3.org/1999/xlink" x="0px" y="0px"
	 width="100px" height="100px" viewBox="0 0 100 100" enable-background="new 0 0 100 100" xml:space="preserve">
<g>
	<rect x="0.773" y="10.118" fill="#7A7A7A" width="97.454" height="79.764"/>
	<rect x="4.653" y="13.686" fill="#FFFFFF" width="89.695" height="72.625"/>
	<g>
		<rect x="4.653" y="48.507" fill="#346837" width="89.695" height="2.987"/>
		<rect x="48.104" y="13.686" fill="#346837" width="2.792" height="72.625"/>
	</g>
	<rect x="13.653" y="22.842" fill="#326735" width="71.693" height="54.314"/>
	<g>
		<path fill="#94CA65" d="M47.387,62.804c0,0.373-0.087,0.633-0.26,0.778c-0.173,0.15-0.771,0.31-1.793,0.482
			c-1.02,0.175-0.444,0.262-1.999,0.262c-2.748,0-4.934-0.841-6.557-2.524c-1.625-1.681-2.437-4.031-2.437-7.047v-3.679
			c0-3.019,0.812-5.369,2.437-7.05c1.624-1.682,3.81-2.523,6.557-2.523c1.592,0,1.031,0.09,2.038,0.269
			c1.008,0.18,1.596,0.342,1.763,0.482c0.167,0.142,0.251,0.398,0.251,0.77v2.582c0,0.385-0.239,0.578-0.713,0.578h-0.116
			c-1.463-0.18-1.297-0.269-3.223-0.269c-2.529,0-3.793,1.721-3.793,5.163v3.679c0,3.44,1.264,5.161,3.793,5.161
			c1.22,0,0.328-0.026,1.047-0.079l2.176-0.189h0.116c0.474,0,0.713,0.189,0.713,0.576V62.804z"/>
		<path fill="#94CA65" d="M64.662,63.951c0,0.22-0.078,0.405-0.232,0.56c-0.152,0.152-0.342,0.23-0.559,0.23H60.02
			c-0.219,0-0.404-0.078-0.561-0.23c-0.152-0.153-0.23-0.34-0.23-0.56l0.031-21.436l-4.691,0.019
			c-0.129,0.052-0.287,0.077-0.48,0.077c-0.283,0-0.424-0.159-0.424-0.48v-3.814c0-0.155,0.025-0.26,0.086-0.318
			c0.057-0.058,2.863,0.074,4.58-1.07c0.309-0.207,0.807-0.984,1.967-1.446c1.158-0.464,3.613-0.054,3.613-0.054
			c0.5,0,0.752,0.25,0.752,0.751V63.951z"/>
	</g>
	<g>
		<g>
			<path fill="#94CA65" d="M13.653,51.494h7.948v-2.987h-7.948V51.494z M48.104,30.499h2.792v-7.657h-2.792V30.499z M77.4,48.507
				v2.987h7.945v-2.987H77.4z M48.104,77.156h2.792v-7.653h-2.792V77.156z"/>
		</g>
	</g>
</g>
</svg>
