<?xml version="1.0" encoding="utf-8"?>
<!-- Generator: Adobe Illustrator 13.0.0, SVG Export Plug-In . SVG Version: 6.00 Build 14948)  -->
<!DOCTYPE svg PUBLIC "-//W3C//DTD SVG 1.1//EN" "http://www.w3.org/Graphics/SVG/1.1/DTD/svg11.dtd">
<svg version="1.1" id="Layer_1" xmlns="http://www.w3.org/2000/svg" xmlns:xlink="http://www.w3.org/1999/xlink" x="0px" y="0px"
	 width="100px" height="100px" viewBox="0 0 100 100" enable-background="new 0 0 100 100" xml:space="preserve">
<g>
	<g>
		<path fill="#FFFFFF" d="M14.971,44.678h5.471c-0.508,1.887-1.524,3.337-3.048,4.351c-0.762,0.483-1.651,0.857-2.667,1.122
			c-1.016,0.264-2.233,0.397-3.653,0.397c-2.943,0-5.293-0.798-7.047-2.396c-1.755-1.598-2.632-4.034-2.632-7.31
			c0-3.033,0.923-5.397,2.77-7.093c0.924-0.854,1.991-1.494,3.204-1.919c1.212-0.427,2.591-0.64,4.138-0.64
			c2.724,0,4.923,0.82,6.597,2.459c0.808,0.807,1.457,1.858,1.948,3.151c0.491,1.293,0.736,2.758,0.736,4.398l0.035,0.986H7.005
			c0,1.369,0.36,2.501,1.082,3.399c0.721,0.897,1.798,1.346,3.229,1.346c0.946,0,1.741-0.207,2.381-0.619
			C14.338,45.898,14.762,45.354,14.971,44.678z M7.005,39.172h8.225c0-1.351-0.332-2.416-0.996-3.194
			c-0.664-0.779-1.596-1.168-2.796-1.168c-1.316,0-2.335,0.374-3.056,1.124C7.66,36.684,7.202,37.764,7.005,39.172z"/>
		<path fill="#FFFFFF" d="M29.878,37.683h-5.143c0-2.136,0.782-3.751,2.346-4.848s3.604-1.645,6.121-1.645
			c2.863,0,4.955,0.566,6.277,1.696c1.321,1.131,1.982,2.817,1.982,5.057l-0.104,8.224c0,1.327,0.069,2.208,0.208,2.64
			c0.138,0.433,0.427,0.684,0.866,0.754v0.329h-5.68l-0.467-1.784c-0.704,0.745-1.588,1.338-2.649,1.78
			c-1.062,0.44-2.222,0.662-3.48,0.662c-2.078,0-3.642-0.461-4.692-1.384c-1.051-0.923-1.576-2.197-1.576-3.823
			c0-1.499,0.478-2.703,1.433-3.614s2.706-1.575,5.252-1.989c3.241-0.485,4.975-0.839,5.2-1.064
			c0.226-0.224,0.339-0.556,0.339-0.994v-0.173v-0.313c0-0.68-0.247-1.247-0.74-1.702c-0.493-0.457-1.222-0.684-2.185-0.684
			c-1.033,0-1.843,0.237-2.429,0.709C30.171,35.993,29.878,36.713,29.878,37.683z M36.111,42.427v-1.143l-1.247,0.537l-2.303,0.416
			c-1.131,0.197-1.939,0.493-2.424,0.891c-0.484,0.398-0.727,0.967-0.727,1.707c0,0.715,0.271,1.235,0.813,1.558
			c0.542,0.357,1.195,0.537,1.957,0.537c0.981,0,1.881-0.39,2.701-1.169C35.701,44.981,36.111,43.87,36.111,42.427z"/>
		<path fill="#FFFFFF" d="M46.466,51.311h5.247c0.139,0.668,0.52,1.166,1.143,1.488c0.625,0.355,1.414,0.537,2.373,0.537
			c1.188,0,2.102-0.379,2.734-1.134c0.635-0.757,0.952-1.81,0.952-3.161v-1.784h-0.138c-0.717,0.693-1.521,1.232-2.416,1.62
			c-0.896,0.388-1.892,0.58-2.986,0.58c-2.598,0-4.619-0.791-6.061-2.374c-1.443-1.581-2.164-3.699-2.164-6.354
			c0-2.955,0.741-5.284,2.225-6.986c1.483-1.702,3.506-2.554,6.068-2.554c1.246,0,2.298,0.219,3.149,0.658
			c0.854,0.439,1.595,1.109,2.218,2.009l0.104-1.991h5.385V48.21c0,2.828-0.725,4.993-2.174,6.493c-1.448,1.5-3.759,2.25-6.934,2.25
			c-2.771,0-4.84-0.475-6.208-1.42C47.616,54.588,46.777,53.18,46.466,51.311z M54.898,45.838c1.42,0,2.468-0.448,3.143-1.343
			s1.014-2.23,1.014-4.008c0-1.673-0.389-3.038-1.16-4.095c-0.771-1.056-1.785-1.583-3.031-1.583c-1.27,0-2.271,0.511-3.004,1.531
			c-0.731,1.021-1.1,2.381-1.1,4.079c0,1.8,0.35,3.155,1.049,4.06C52.505,45.385,53.536,45.838,54.898,45.838z"/>
		<path fill="#FFFFFF" d="M68.768,25.06h5.385v24.83h-5.385V25.06z"/>
		<path fill="#FFFFFF" d="M91.363,44.678h5.472c-0.508,1.887-1.522,3.337-3.048,4.351c-0.762,0.483-1.651,0.857-2.666,1.122
			c-1.018,0.264-2.234,0.397-3.654,0.397c-2.943,0-5.292-0.798-7.047-2.396c-1.755-1.598-2.631-4.034-2.631-7.31
			c0-3.033,0.922-5.397,2.77-7.093c0.924-0.854,1.991-1.494,3.203-1.919c1.213-0.427,2.592-0.64,4.139-0.64
			c2.726,0,4.925,0.82,6.599,2.459c0.81,0.807,1.457,1.858,1.946,3.151c0.49,1.293,0.736,2.758,0.736,4.398l0.034,0.986H83.398
			c0,1.369,0.358,2.501,1.082,3.399c0.722,0.897,1.797,1.346,3.229,1.346c0.947,0,1.741-0.207,2.382-0.619
			C90.73,45.898,91.154,45.354,91.363,44.678z M83.398,39.172h8.225c0-1.351-0.332-2.416-0.996-3.194
			c-0.664-0.779-1.596-1.168-2.796-1.168c-1.315,0-2.335,0.374-3.058,1.124C84.055,36.684,83.594,37.764,83.398,39.172z"/>
	</g>
	<rect x="0.373" y="56.877" fill="#EC1C24" width="95.609" height="18.063"/>
	<rect x="95.982" y="56.877" fill="#231F20" width="2.645" height="18.063"/>
	<g>
		<path fill="#FFFFFF" d="M19.406,64.428l-0.037,8.23h-3.102v-13.16h3.139l5.186,8.18l0.056-8.18h3.103v13.164h-3.158L19.406,64.428
			z"/>
		<path fill="#FFFFFF" d="M36.191,64.721h6.426v2.432h-6.426V70.1h7.481v2.563H33.089V59.498H43.48v2.563h-7.289V64.721z"/>
		<path fill="#FFFFFF" d="M56.521,62.939l-2.258,9.723h-3.361l-3.485-13.164h3.274L52.82,69.1l2.285-9.602h2.83L60.23,69.1
			l2.119-9.602h3.269l-3.479,13.164h-3.359L56.521,62.939z"/>
		<path fill="#FFFFFF" d="M69.001,68.393h3.14c0,0.588,0.209,1.09,0.623,1.506c0.453,0.385,1.123,0.576,2.012,0.576
			c0.783,0,1.371-0.105,1.764-0.32c0.393-0.213,0.588-0.557,0.588-1.027c0-0.436-0.182-0.795-0.537-1.082
			c-0.357-0.289-1.357-0.613-3.002-0.979c-1.645-0.363-2.746-0.854-3.311-1.469c-0.563-0.615-0.846-1.477-0.846-2.584
			c0-1.262,0.473-2.23,1.414-2.91c0.473-0.318,1.036-0.561,1.697-0.729c0.661-0.166,1.424-0.252,2.286-0.252
			c1.505,0,2.717,0.365,3.63,1.102c0.915,0.734,1.373,1.695,1.373,2.883h-2.938c0-0.416-0.223-0.758-0.662-1.025
			c-0.392-0.266-0.924-0.396-1.598-0.396c-0.63,0-1.126,0.107-1.486,0.326c-0.359,0.217-0.541,0.527-0.541,0.932
			c0,0.361,0.162,0.666,0.486,0.918c0.307,0.264,1.01,0.496,2.11,0.697c2.05,0.404,3.411,0.922,4.084,1.551
			c0.674,0.631,1.011,1.48,1.011,2.553c0,1.314-0.458,2.375-1.373,3.178c-0.912,0.801-2.313,1.201-4.189,1.201
			c-0.897,0-1.691-0.094-2.377-0.279c-0.687-0.188-1.291-0.48-1.817-0.887C69.516,71.07,69.001,69.912,69.001,68.393z"/>
	</g>
</g>
</svg>
