<?xml version="1.0" encoding="utf-8"?>
<!-- Generator: Adobe Illustrator 13.0.0, SVG Export Plug-In . SVG Version: 6.00 Build 14948)  -->
<!DOCTYPE svg PUBLIC "-//W3C//DTD SVG 1.1//EN" "http://www.w3.org/Graphics/SVG/1.1/DTD/svg11.dtd">
<svg version="1.1" id="Layer_1" xmlns="http://www.w3.org/2000/svg" xmlns:xlink="http://www.w3.org/1999/xlink" x="0px" y="0px"
	 width="100px" height="100px" viewBox="0 0 100 100" enable-background="new 0 0 100 100" xml:space="preserve">
<g>
	<path fill="#8BCD21" d="M59.139,56.381c-2.426,2.439-5.785,3.953-9.498,3.953c-7.396,0-13.393-5.996-13.393-13.393
		c0-7.397,5.996-13.393,13.393-13.393c3.82,0,7.263,1.603,9.703,4.168c0.934-1.684,2.104-3.215,3.467-4.553
		c-3.424-3.273-8.061-5.288-13.168-5.288c-10.528,0-19.064,8.536-19.064,19.065c0,10.528,8.536,19.063,19.064,19.063
		c4.958,0,9.474-1.895,12.866-4.996C61.173,59.643,60.034,58.086,59.139,56.381z"/>
	<path fill="#FFBF1E" d="M30.755,55.904c-2.451,2.719-5.998,4.43-9.945,4.43c-2.241,0-4.351-0.555-6.208-1.527
		c8.722-1.752,15.292-9.451,15.292-18.689c0-1.114-0.102-2.204-0.284-3.266c-0.889-5.113-3.586-8.246-3.586-8.246
		C7.737,24.04-4.929,44.638,5.617,58.453c4.405,5.771,8.99,7.551,15.193,7.551c5.095,0,9.72-2.002,13.14-5.262
		C32.659,59.318,31.575,57.691,30.755,55.904z M10.403,53.504c1.49-1.461,4.13-4.269,6.484-7.906
		c3.519-5.438,5.182-11.387,5.182-11.387s-2.304,6.204-6.782,11.898c-2.687,3.416-5.004,5.634-6.429,6.861
		c-0.917-1.813-1.44-3.859-1.44-6.029c0-7.397,5.995-13.393,13.392-13.393c0.597,0,1.183,0.043,1.758,0.118
		c1.054,1.914,1.652,4.111,1.652,6.45c0,7.397-5.993,13.392-13.391,13.392C10.688,53.51,10.545,53.508,10.403,53.504z"/>
	<path fill="#179AD0" d="M60.842,45.881l0.362-0.478l3.491,1.493c0.025-7.375,6.011-13.347,13.392-13.347
		c0.435,0,0.86,0.023,1.283,0.064l-0.89,3.973l6.658-5.487l-3.699-7.75l-0.824,3.697c-0.828-0.11-1.672-0.171-2.528-0.171
		c-10.528,0-19.063,8.536-19.063,19.065c0,0.429,0.021,0.855,0.049,1.278L60.842,45.881z M85.419,62.227l-0.289-3.893
		c-2.047,1.266-4.46,2-7.043,2c-5.718,0-10.595-3.588-12.515-8.631l4.07-1.072L61.71,47.24l-5.183,6.846l3.539-0.932
		c2.576,7.477,9.666,12.852,18.02,12.852c3.924,0,7.571-1.188,10.602-3.219l-2.679-0.459L85.419,62.227z M85.511,29.376l1.232,2.603
		l0.258,0.542l-2.96,2.424c4.408,2.193,7.438,6.739,7.438,11.996c0,3.073-1.037,5.902-2.775,8.162l-2.561-2.778l0.719,8.597
		l0.82,0.133l2.688,0.461c0.009-0.006,0.015-0.014,0.026-0.02l4.939,0.799l-2.752-2.98c2.846-3.33,4.566-7.648,4.566-12.372
		C97.15,39.045,92.352,32.272,85.511,29.376z"/>
	<g>
		<path fill="#126307" d="M7.675,73.895c-0.125,0.281-0.277,0.523-0.453,0.732c-0.176,0.209-0.389,0.393-0.639,0.555
			c-0.478,0.313-1.014,0.469-1.605,0.469c-0.547,0-1.051-0.125-1.519-0.371c-0.465-0.248-0.836-0.598-1.109-1.049
			c-0.274-0.449-0.412-0.947-0.412-1.494c0-0.52,0.138-1.006,0.415-1.457c0.275-0.447,0.646-0.799,1.11-1.055
			c0.464-0.254,0.958-0.381,1.481-0.381c0.393,0,0.775,0.074,1.147,0.223s0.696,0.357,0.972,0.627
			c0.276,0.271,0.484,0.588,0.622,0.955H6.843c-0.125-0.221-0.283-0.41-0.472-0.563c-0.188-0.152-0.411-0.281-0.67-0.385
			c-0.129-0.047-0.252-0.08-0.371-0.104s-0.243-0.037-0.372-0.037c-0.393,0-0.766,0.094-1.118,0.281s-0.631,0.447-0.838,0.775
			c-0.208,0.334-0.311,0.701-0.311,1.109c0,0.396,0.095,0.764,0.286,1.104c0.19,0.34,0.456,0.607,0.797,0.803
			c0.343,0.195,0.716,0.293,1.12,0.293c0.423,0,0.791-0.084,1.104-0.252c0.314-0.168,0.596-0.428,0.844-0.779H7.675L7.675,73.895z"
			/>
		<path fill="#126307" d="M18.117,68.014h0.752v2.752c0.089-0.174,0.23-0.342,0.422-0.5c0.176-0.135,0.373-0.238,0.591-0.313
			c0.105-0.033,0.216-0.061,0.329-0.08c0.116-0.02,0.23-0.029,0.345-0.029c0.139,0,0.247,0.004,0.323,0.016
			c0.076,0.01,0.138,0.02,0.187,0.029c0.047,0.01,0.11,0.027,0.191,0.053c0.24,0.068,0.464,0.166,0.666,0.295
			c0.205,0.129,0.381,0.281,0.533,0.461c0.216,0.244,0.367,0.523,0.457,0.84c0.036,0.141,0.066,0.307,0.088,0.492
			c0.009,0.094,0.019,0.188,0.025,0.279c0.006,0.096,0.01,0.191,0.01,0.289v2.924h-0.754v-2.924c0-0.57-0.107-1.014-0.327-1.33
			c-0.156-0.225-0.364-0.398-0.625-0.521c-0.263-0.121-0.529-0.186-0.803-0.186c-0.262,0-0.518,0.064-0.767,0.186
			c-0.25,0.121-0.452,0.287-0.608,0.5c-0.115,0.164-0.193,0.352-0.231,0.564c-0.013,0.09-0.026,0.205-0.037,0.348
			c-0.008,0.145-0.015,0.289-0.015,0.439v2.924h-0.752V68.014z"/>
		<path fill="#126307" d="M39.275,75.521h-0.719v-1.047c-0.135,0.248-0.319,0.461-0.548,0.643c-0.231,0.182-0.481,0.314-0.754,0.402
			s-0.558,0.131-0.855,0.131c-0.43,0-0.855-0.096-1.275-0.287c-0.423-0.189-0.813-0.488-1.17-0.893
			c-0.115-0.125-0.236-0.355-0.361-0.695c-0.125-0.338-0.188-0.695-0.188-1.072c0-0.338,0.064-0.672,0.195-1.004
			c0.13-0.332,0.259-0.559,0.384-0.68c0.732-0.783,1.528-1.176,2.395-1.176c0.463,0,0.892,0.102,1.286,0.303
			c0.392,0.201,0.691,0.492,0.892,0.873v-1.057h0.719L39.275,75.521L39.275,75.521z M34.159,72.768c0,0.398,0.1,0.762,0.304,1.086
			c0.204,0.326,0.482,0.586,0.834,0.781s0.718,0.293,1.102,0.293c0.379,0,0.734-0.098,1.062-0.291
			c0.327-0.193,0.592-0.457,0.792-0.791c0.203-0.338,0.304-0.691,0.304-1.068c0-0.395-0.096-0.768-0.285-1.109
			c-0.19-0.344-0.453-0.613-0.786-0.809c-0.334-0.197-0.702-0.297-1.106-0.297c-0.393,0-0.762,0.098-1.106,0.293
			c-0.344,0.195-0.615,0.461-0.814,0.801C34.259,71.992,34.159,72.363,34.159,72.768z"/>
		<path fill="#126307" d="M49.644,69.963h0.715v0.803c0.437-0.615,1.012-0.922,1.725-0.922c0.367,0,0.725,0.078,1.07,0.236
			c0.348,0.154,0.646,0.385,0.896,0.686c0.199,0.248,0.333,0.518,0.403,0.809c0.024,0.123,0.051,0.273,0.073,0.453
			c0.023,0.182,0.035,0.369,0.035,0.57v2.924h-0.754v-2.924c0-0.275-0.021-0.52-0.063-0.736c-0.041-0.215-0.13-0.408-0.268-0.584
			c-0.158-0.229-0.365-0.404-0.617-0.527c-0.256-0.123-0.525-0.188-0.814-0.188c-0.261,0-0.516,0.061-0.759,0.18
			c-0.247,0.119-0.448,0.287-0.606,0.506c-0.063,0.082-0.115,0.164-0.152,0.244c-0.038,0.08-0.065,0.164-0.082,0.246l-0.051,0.416
			v0.443v2.924h-0.752V69.963z"/>
		<path fill="#126307" d="M65.41,69.963h0.713v0.803c0.438-0.615,1.012-0.922,1.727-0.922c0.365,0,0.723,0.078,1.069,0.236
			c0.347,0.154,0.646,0.385,0.897,0.686c0.199,0.248,0.334,0.518,0.401,0.809c0.026,0.123,0.052,0.273,0.074,0.453
			c0.024,0.182,0.035,0.369,0.035,0.57v2.924h-0.755v-2.924c0-0.275-0.021-0.52-0.062-0.736c-0.042-0.215-0.131-0.408-0.265-0.584
			c-0.161-0.229-0.368-0.404-0.62-0.527c-0.254-0.123-0.524-0.188-0.813-0.188c-0.263,0-0.517,0.061-0.763,0.18
			c-0.243,0.119-0.444,0.287-0.604,0.506c-0.063,0.082-0.114,0.164-0.152,0.244c-0.037,0.08-0.063,0.164-0.081,0.246l-0.051,0.416
			v0.443v2.924h-0.752L65.41,69.963L65.41,69.963z"/>
		<path fill="#126307" d="M81.496,73.014c0,0.164,0.025,0.326,0.081,0.484c0.055,0.156,0.134,0.313,0.239,0.463
			c0.205,0.295,0.467,0.527,0.785,0.703c0.155,0.086,0.316,0.15,0.485,0.195c0.169,0.043,0.334,0.066,0.5,0.066
			c0.271,0,0.541-0.049,0.81-0.148c0.136-0.049,0.261-0.107,0.377-0.174c0.115-0.068,0.226-0.152,0.33-0.25
			c0.199-0.176,0.356-0.389,0.473-0.643h0.783c-0.129,0.363-0.332,0.693-0.604,0.988c-0.274,0.293-0.596,0.525-0.964,0.693
			c-0.368,0.172-0.746,0.256-1.134,0.256c-0.521,0-1.009-0.129-1.457-0.387c-0.451-0.256-0.808-0.607-1.067-1.053
			c-0.26-0.443-0.391-0.932-0.391-1.463c0-0.52,0.128-1.006,0.386-1.453c0.258-0.449,0.608-0.805,1.052-1.063
			c0.443-0.262,0.93-0.389,1.459-0.389c0.422,0,0.829,0.094,1.219,0.281c0.392,0.188,0.729,0.453,1.018,0.795
			c0.238,0.295,0.4,0.607,0.491,0.936c0.022,0.076,0.044,0.158,0.061,0.246c0.019,0.088,0.036,0.189,0.054,0.305
			c0.029,0.195,0.043,0.396,0.043,0.605h-5.027V73.014z M85.771,72.334c-0.067-0.33-0.203-0.629-0.404-0.896
			c-0.205-0.266-0.457-0.479-0.758-0.637c-0.299-0.158-0.623-0.238-0.961-0.238c-0.348,0-0.672,0.076-0.978,0.227
			c-0.304,0.148-0.563,0.359-0.771,0.631c-0.211,0.268-0.346,0.572-0.403,0.914H85.771L85.771,72.334z"/>
		<path fill="#126307" d="M96.461,68.014h0.754v7.508h-0.754V68.014z"/>
	</g>
</g>
</svg>
