<?xml version="1.0" encoding="utf-8"?>
<!-- Generator: Adobe Illustrator 13.0.0, SVG Export Plug-In . SVG Version: 6.00 Build 14948)  -->
<!DOCTYPE svg PUBLIC "-//W3C//DTD SVG 1.1//EN" "http://www.w3.org/Graphics/SVG/1.1/DTD/svg11.dtd">
<svg version="1.1" id="Layer_1" xmlns="http://www.w3.org/2000/svg" xmlns:xlink="http://www.w3.org/1999/xlink" x="0px" y="0px"
	 width="100px" height="100px" viewBox="0 0 100 100" enable-background="new 0 0 100 100" xml:space="preserve">
<g>
	<g>
		<path fill="#FFFFFF" d="M69.761,9.854h-13.6c0.15,0.425,0.277,0.868,0.354,1.336c0.055,0.338,0.082,0.687,0.082,1.04
			c0,0.804-0.144,1.62-0.449,2.385c-0.084,0.206-0.183,0.4-0.28,0.591h12.84c2.617,0.007,4.735,2.165,4.741,4.834v37.42l5.589-3.291
			V19.132C79.035,14.007,74.884,9.855,69.761,9.854z M24.918,15.206h5.651l9.092-5.352H19.328v11.97l5.59-3.291L24.918,15.206
			L24.918,15.206z M73.446,78.009H29.657c-2.617-0.006-4.735-2.166-4.739-4.831V47.182l-5.59-9.499v36.4
			c0.001,5.125,4.152,9.275,9.276,9.276h50.433V70.628c-1.446,0.852-3.39,1.994-5.589,3.291v4.09H73.446z"/>
		<path fill="#FFFFFF" d="M43.953,48.54l13.529-7.964c0.027,0.044,0.054,0.088,0.08,0.135c0.226,0.382,0.295,0.626,0.307,0.713
			c0.005,0.051,0.002,0.052,0.004,0.052c-0.002,0-0.008,0.089-0.258,0.356c-0.246,0.263-0.725,0.647-1.452,1.072
			c-5.38,3.167-11.52,6.782-11.53,6.789l2.897,4.92c0.002-0.003,1.537-0.904,3.747-2.205c2.209-1.303,5.094-2.999,7.783-4.584
			c1.811-1.082,3.326-2.306,4.125-4.252c0.383-0.958,0.486-2.048,0.322-3.039c-0.16-0.998-0.538-1.892-1.023-2.72
			c-0.939-1.594-1.524-2.592-1.527-2.593l-1.447-2.46L41.057,43.619L43.953,48.54z M31.818,57.235l11.948,20.299h6.625
			L36.738,54.339L31.818,57.235z M85.435,61.37c-0.158-0.998-0.537-1.892-1.023-2.719c-0.938-1.597-1.526-2.593-1.526-2.595
			l-1.45-2.461l-27.062,15.93L31.34,30.395c1.719-1.012,4.175-2.458,6.822-4.016c4.979-2.931,10.63-6.257,13.317-7.84
			c1.813-1.083,3.332-2.307,4.125-4.253c0.385-0.958,0.486-2.048,0.324-3.04c-0.158-0.999-0.539-1.892-1.025-2.718
			c-0.938-1.596-1.525-2.593-1.526-2.596l-1.448-2.459L13.49,26.1l17.665,30.007l4.919-2.896L21.308,28.123L49.906,11.29
			c0.025,0.043,0.054,0.088,0.08,0.133c0.226,0.383,0.291,0.628,0.304,0.713c0.007,0.054,0.004,0.052,0.006,0.054
			c-0.001,0-0.008,0.088-0.259,0.356c-0.244,0.264-0.725,0.648-1.45,1.072c-5.383,3.169-22.602,13.306-22.602,13.306l-2.461,1.449
			L52.34,77.347l27.071-15.938c0.025,0.047,0.052,0.092,0.078,0.137c0.228,0.384,0.294,0.627,0.307,0.713
			c0.005,0.054,0.003,0.054,0.004,0.055c-0.001-0.001-0.008,0.087-0.258,0.355c-0.246,0.262-0.725,0.646-1.45,1.071
			c-3.459,2.036-15.364,9.044-23.43,13.794h11.255c6.695-3.943,13.287-7.822,15.068-8.871c1.813-1.084,3.33-2.31,4.125-4.256
			C85.495,63.449,85.599,62.36,85.435,61.37z"/>
	</g>
	<g>
		<path fill="#FFFFFF" d="M19.382,96.527v-9.674h4.711v1.329H20.71v2.268c0.415,0.002,0.964,0.002,1.476,0.002l0,0
			c0.578,0,1.06,0.26,1.404,0.568l0,0c0.346,0.313,0.584,0.678,0.735,1.025l0,0c0.099,0.236,0.167,0.453,0.171,0.717l0,0
			c0,0.463,0,0.906,0,1.398l0,0c-0.004,0.271-0.074,0.494-0.177,0.739l0,0c-0.104,0.238-0.249,0.483-0.438,0.718l0,0
			c-0.371,0.454-0.96,0.904-1.75,0.908l0,0L19.382,96.527L19.382,96.527z M20.71,95.198h1.42c0.224,0.004,0.463-0.129,0.68-0.371
			l0,0c0.212-0.229,0.353-0.574,0.357-0.66l0,0c0-0.004,0-0.004,0-0.004l0,0c0-0.494,0-0.938,0-1.398l0,0l0,0
			c-0.002-0.01-0.004-0.021-0.009-0.041l0,0c-0.009-0.036-0.027-0.09-0.053-0.149l0,0c-0.052-0.12-0.135-0.264-0.237-0.39l0,0
			c-0.213-0.26-0.459-0.407-0.682-0.402l0,0c-0.511,0-1.061-0.001-1.476-0.003l0,0V95.198L20.71,95.198z"/>
	</g>
	<g>
		<path fill="#FFFFFF" d="M25.482,93.9l-0.001-4.409c0.002-1.453,1.177-2.627,2.629-2.628l0,0c1.451,0.001,2.627,1.175,2.627,2.628
			l0,0V93.9l0,0c0,1.45-1.176,2.627-2.627,2.627l0,0C26.659,96.527,25.483,95.351,25.482,93.9L25.482,93.9z M26.812,89.491V93.9
			c0,0.718,0.582,1.298,1.299,1.298l0,0c0.717,0,1.297-0.58,1.299-1.298l0,0v-4.409c-0.001-0.717-0.582-1.298-1.299-1.299l0,0
			C27.394,88.193,26.813,88.774,26.812,89.491L26.812,89.491z"/>
	</g>
	<g>
		<path fill="#FFFFFF" d="M31.654,95.198c0,0,0.377,0,0.765,0l0,0c0-0.002,0.012,0,0.04-0.013l0,0
			c0.027-0.011,0.061-0.032,0.087-0.06l0,0c0.057-0.058,0.091-0.114,0.094-0.23l0,0c0-0.301,0-2.123,0-3.871l0,0
			c0-1.746,0-3.413,0-3.417l0,0v-0.663h5.074v9.563l0,0h-1.328l-0.001-8.234h-2.416c0,1.706,0,6.139,0,6.624l0,0
			c0.002,0.489-0.212,0.915-0.502,1.188l0,0c-0.292,0.276-0.649,0.438-1.048,0.442l0,0c-0.388,0-0.765,0-0.765,0l0,0V95.198
			L31.654,95.198z"/>
	</g>
	<g>
		<path fill="#FFFFFF" d="M39.375,93.9v-4.409c0.001-1.453,1.177-2.627,2.627-2.628l0,0c1.452,0.001,2.627,1.175,2.627,2.628l0,0
			V93.9c0,1.45-1.176,2.627-2.627,2.627l0,0C40.552,96.527,39.376,95.351,39.375,93.9L39.375,93.9z M40.704,89.491V93.9
			c0.002,0.718,0.582,1.297,1.299,1.298l0,0c0.717-0.001,1.297-0.58,1.299-1.298l0,0v-4.409c-0.001-0.718-0.582-1.298-1.299-1.299
			l0,0C41.286,88.193,40.707,88.773,40.704,89.491L40.704,89.491z"/>
	</g>
	<g>
		<path fill="#FFFFFF" d="M46.23,96.527v-9.674h0.666c0.001,0,1.108,0,1.692,0l0,0c1.252,0.026,2.237,1.106,2.253,2.426l0,0
			c-0.003,0.634-0.205,1.204-0.499,1.649l0,0c0,0.001-0.003,0.004-0.004,0.006l0,0c0.034,0.027,0.068,0.056,0.1,0.086l0,0
			c0.347,0.313,0.585,0.678,0.736,1.025l0,0c0.1,0.236,0.167,0.453,0.172,0.717l0,0c0,0.463,0,0.906,0,1.398l0,0
			c-0.005,0.271-0.074,0.494-0.177,0.739l0,0c-0.104,0.238-0.25,0.483-0.438,0.718l0,0c-0.373,0.454-0.96,0.904-1.75,0.908l0,0
			L46.23,96.527L46.23,96.527z M47.561,95.198h1.419c0.223,0.004,0.461-0.129,0.68-0.371l0,0c0.213-0.229,0.351-0.574,0.355-0.66
			l0,0c0.002-0.004,0-0.004,0-0.004l0,0c0-0.494,0-0.938,0-1.398l0,0l0,0c-0.002-0.01-0.004-0.021-0.008-0.041l0,0
			c-0.01-0.036-0.029-0.09-0.056-0.149l0,0c-0.05-0.12-0.134-0.264-0.236-0.39l0,0c-0.212-0.26-0.458-0.407-0.682-0.402l0,0
			c-0.511,0-1.06-0.001-1.474-0.003l0,0L47.561,95.198L47.561,95.198z M48.993,90.452c0.008-0.005,0.019-0.012,0.03-0.02l0,0
			c0.054-0.039,0.137-0.123,0.213-0.239l0,0c0.156-0.233,0.279-0.582,0.276-0.914l0,0c0.001-0.304-0.124-0.589-0.313-0.791l0,0
			c-0.188-0.207-0.426-0.309-0.611-0.306l0,0c-0.281,0-0.686,0-1.027,0l0,0v2.268C47.962,90.452,48.494,90.452,48.993,90.452
			L48.993,90.452z"/>
	</g>
	<g>
		<path fill="#FFFFFF" d="M53.147,93.9v-4.409c0-1.453,1.176-2.627,2.627-2.628l0,0c1.451,0.001,2.627,1.175,2.627,2.628l0,0v0.211
			h-1.328v-0.211c0-0.717-0.581-1.298-1.299-1.299l0,0c-0.717,0.001-1.297,0.582-1.299,1.299l0,0V93.9
			c0.002,0.718,0.582,1.298,1.299,1.298l0,0c0.718,0,1.299-0.58,1.299-1.298l0,0v-0.252h1.328V93.9c0,1.45-1.176,2.627-2.627,2.627
			l0,0C54.323,96.527,53.147,95.351,53.147,93.9L53.147,93.9z"/>
	</g>
	<g>
		<path fill="#FFFFFF" d="M60.003,96.527v-9.679h0.664c0.001,0,1.105,0,1.691,0l0,0c0.686-0.006,1.361,0.26,1.816,0.793l0,0
			c0.458,0.529,0.682,1.261,0.68,2.115l0,0c0.004,0.871-0.258,1.598-0.756,2.078l0,0c-0.492,0.48-1.15,0.666-1.777,0.664l0,0h-0.989
			v4.027l0,0L60.003,96.527L60.003,96.527z M62.321,91.171c0.387-0.002,0.664-0.105,0.852-0.287l0,0
			c0.184-0.184,0.35-0.497,0.354-1.127l0,0c-0.002-0.635-0.162-1.025-0.355-1.246l0,0c-0.193-0.219-0.434-0.328-0.813-0.334l0,0
			c-0.28-0.002-0.685-0.002-1.025-0.002l0,0v2.996H62.321L62.321,91.171z"/>
	</g>
	<g>
		<path fill="#FFFFFF" d="M63.071,96.527"/>
	</g>
	<g>
		<path fill="#FFFFFF" d="M66.798,93.9v-4.41c0-1.452,1.178-2.627,2.627-2.627l0,0c1.452,0,2.627,1.175,2.627,2.627l0,0v4.41
			c0,1.45-1.175,2.627-2.627,2.627l0,0C67.976,96.527,66.798,95.351,66.798,93.9L66.798,93.9z M68.127,89.49v4.41
			c0.001,0.718,0.581,1.297,1.298,1.298l0,0c0.717-0.001,1.299-0.58,1.299-1.298l0,0v-4.41c0-0.717-0.582-1.298-1.299-1.298l0,0
			C68.708,88.192,68.128,88.773,68.127,89.49L68.127,89.49z"/>
	</g>
	<g>
		<path fill="#FFFFFF" d="M72.969,96.527v-1.329c0,0,0.378,0,0.767,0l0,0c0-0.001,0.013,0,0.039-0.012l0,0
			c0.026-0.012,0.061-0.032,0.09-0.061l0,0c0.055-0.058,0.09-0.114,0.092-0.23l0,0c0-0.3,0-2.123,0-3.868l0,0
			c0-1.749,0-3.416,0-3.42l0,0v-0.663h5.074v9.563l0,0h-1.328v-8.232h-2.416c0,1.704,0,6.137,0,6.622l0,0
			c0.002,0.489-0.213,0.915-0.504,1.188l0,0c-0.293,0.276-0.646,0.438-1.047,0.442l0,0C73.347,96.527,72.969,96.527,72.969,96.527
			L72.969,96.527z"/>
	</g>
	<g>
		<g>
			<path fill="#FFFFFF" d="M66.194,17.373h2.297c1.449,0.001,2.627,1.176,2.627,2.628l0,0v4.409c0,1.452-1.178,2.628-2.627,2.629
				l0,0l-1.631,0.002l-0.002-0.664l0.002,0.664l-0.666,0.002V17.373L66.194,17.373z M67.522,25.71l0.969-0.002
				c0.717-0.001,1.297-0.582,1.299-1.299l0,0V20c-0.002-0.716-0.582-1.298-1.299-1.299l0,0h-0.969V25.71L67.522,25.71z"/>
		</g>
		<g>
			<g>
				<polygon fill="#FFFFFF" points="59.369,27.042 59.369,17.337 60.698,17.337 60.698,27.042 				"/>
			</g>
			<g>
				<polygon fill="#FFFFFF" points="63.205,27.042 63.205,17.337 64.534,17.337 64.534,27.042 				"/>
			</g>
			<g>
				<polygon fill="#FFFFFF" points="60.034,22.854 60.034,21.524 63.87,21.524 63.87,22.854 				"/>
			</g>
		</g>
	</g>
</g>
</svg>
