<?xml version="1.0" encoding="utf-8"?>
<!-- Generator: Adobe Illustrator 13.0.0, SVG Export Plug-In . SVG Version: 6.00 Build 14948)  -->
<!DOCTYPE svg PUBLIC "-//W3C//DTD SVG 1.1//EN" "http://www.w3.org/Graphics/SVG/1.1/DTD/svg11.dtd">
<svg version="1.1" id="Layer_1" xmlns="http://www.w3.org/2000/svg" xmlns:xlink="http://www.w3.org/1999/xlink" x="0px" y="0px"
	 width="100px" height="100px" viewBox="0 0 100 100" enable-background="new 0 0 100 100" xml:space="preserve">
<g>
	<g>
		<g>
			<path fill="#1246BC" d="M16.798,34.079c-8.792,0-15.921,7.128-15.921,15.922c0,8.793,7.128,15.92,15.921,15.92
				c8.792,0,15.921-7.127,15.921-15.92C32.72,41.208,25.59,34.079,16.798,34.079z M16.715,62.429c-3.493,0-6.669-1.33-9.077-3.495
				c0.545-0.826,1.832-2.744,3.217-4.569c1.829-2.41,6.441-5.61,6.441-5.61l-1.745-2.412l-2.453,1.622c0,0-0.333-0.499-0.499-0.915
				c-0.167-0.416,0.083-1.164,0.083-1.164l-1.287-1.497c0,0-0.333,1.787-0.083,3.076c0.25,1.29,1.289,2.039,1.289,2.039l2.785-1.665
				l0.291,0.583c0,0-3.533,1.994-5.528,3.2c-1.5,0.906-3.962,3.128-5.093,4.175c-1.22-2.037-1.934-4.412-1.934-6.958
				c0-3.51,1.342-6.698,3.525-9.11c0.966,0.623,2.968,1.967,4.234,3.194c1.719,1.663,3.021,3.768,3.021,3.768l2.521-1.857
				l-1.911-2.411c0,0,0.11-0.305,0.858-0.582c0.749-0.278,1.303-0.056,1.303-0.056l1.524-1.025c0,0-0.915-0.693-2.661-0.5
				c-1.746,0.194-2.271,1.664-2.271,1.664l1.523,2.494l-0.665,0.526c0,0-1.025-1.884-2.162-3.52
				c-0.813-1.169-2.315-2.817-3.108-3.662c2.221-1.579,4.929-2.517,7.861-2.517c2.917,0,5.614,0.928,7.828,2.492
				c-0.871,0.516-2.438,1.433-3.982,2.267c-2.202,1.19-4.586,2.951-4.586,2.951l1.946,2.474l2.584-1.684
				c0,0,0.534,0.492,0.575,0.977c0.042,0.486-0.374,0.915-0.374,0.915l1.345,1.302c0,0,0.581-1.205,0-2.826
				c-0.582-1.622-1.22-1.996-1.22-1.996l-2.86,1.836l-0.416-0.541c0,0,2.002-1.462,4.578-2.708c1.63-0.789,3.319-1.108,4.411-1.239
				c2.327,2.439,3.765,5.735,3.765,9.373c0,2.555-0.719,4.938-1.945,6.98c-0.333-0.45-3.465-4.67-5.039-6.44
				c-1.663-1.871-3.616-4.032-3.616-4.032l-2.619,1.912l1.663,2.454c0,0-0.25,0.498-1.206,0.541c-0.956,0.039-1.206-0.25-1.206-0.25
				l-1.412,1.246c0,0,1.828,0.915,3.449,0.334c1.621-0.582,2.204-1.33,2.204-1.33l-1.746-2.828l0.54-0.416c0,0,3.076,4.24,4.24,6.86
				c1.036,2.329,1.806,4.753,1.964,5.261C23.198,61.181,20.105,62.429,16.715,62.429z"/>
		</g>
	</g>
	<g>
		<path fill="#1246BC" d="M45.683,49.468c0,1.646-0.439,2.93-1.318,3.848c-0.879,0.919-2.067,1.377-3.565,1.377
			c-0.7,0-1.35-0.09-1.947-0.27c-0.599-0.181-1.045-0.342-1.345-0.486v-2.215h0.23c0.083,0.074,0.224,0.188,0.424,0.346
			c0.199,0.154,0.396,0.283,0.587,0.385c0.255,0.131,0.526,0.238,0.819,0.321c0.291,0.083,0.612,0.125,0.962,0.125
			c0.276,0,0.565-0.039,0.868-0.118c0.302-0.079,0.58-0.218,0.834-0.414c0.263-0.206,0.483-0.469,0.667-0.79
			c0.182-0.317,0.297-0.737,0.345-1.254h-3.896v-1.867h3.844c-0.065-0.386-0.179-0.713-0.341-0.982
			c-0.162-0.27-0.364-0.491-0.605-0.667c-0.235-0.171-0.49-0.294-0.758-0.372c-0.27-0.076-0.545-0.114-0.825-0.114
			c-0.337,0-0.646,0.042-0.93,0.128c-0.282,0.085-0.549,0.194-0.798,0.325c-0.241,0.131-0.449,0.269-0.624,0.411
			c-0.176,0.142-0.313,0.255-0.415,0.339H37.64v-2.235c0.421-0.206,0.911-0.383,1.472-0.535s1.181-0.227,1.859-0.227
			c1.438,0,2.581,0.443,3.434,1.33C45.255,46.744,45.683,47.948,45.683,49.468z"/>
		<path fill="#1246BC" d="M55.416,54.503h-2.854l-1.879-3.121l-1.919,3.121h-2.722l3.175-4.93l-3.049-4.856h2.847l1.761,2.951
			l1.808-2.951h2.727l-3.066,4.758L55.416,54.503z"/>
		<path fill="#1246BC" d="M69.203,49.612c0,1.582-0.424,2.825-1.27,3.732c-0.846,0.906-2.005,1.36-3.477,1.36
			c-1.478,0-2.636-0.459-3.478-1.377c-0.841-0.919-1.261-2.155-1.261-3.717c0-1.572,0.42-2.816,1.261-3.729
			c0.842-0.914,2-1.37,3.478-1.37c1.472,0,2.631,0.455,3.477,1.363C68.779,46.785,69.203,48.03,69.203,49.612z M66.666,49.605
			c0-0.583-0.063-1.078-0.181-1.488c-0.12-0.41-0.282-0.746-0.483-1.008c-0.211-0.269-0.449-0.459-0.711-0.576
			c-0.268-0.116-0.541-0.174-0.826-0.174c-0.303,0-0.576,0.054-0.821,0.161c-0.245,0.107-0.481,0.299-0.711,0.575
			c-0.2,0.254-0.362,0.592-0.489,1.012c-0.123,0.421-0.188,0.922-0.188,1.505c0,0.602,0.061,1.1,0.178,1.495
			c0.119,0.396,0.279,0.729,0.486,0.996c0.211,0.271,0.449,0.465,0.717,0.581c0.268,0.117,0.543,0.175,0.828,0.175
			c0.287,0,0.568-0.063,0.841-0.188c0.271-0.125,0.506-0.317,0.704-0.582c0.209-0.283,0.371-0.615,0.486-0.994
			C66.608,50.716,66.666,50.22,66.666,49.605z"/>
		<path fill="#1246BC" d="M78.186,47.805c0,0.456-0.072,0.89-0.217,1.301c-0.145,0.412-0.354,0.756-0.625,1.031
			c-0.167,0.172-0.35,0.328-0.549,0.474s-0.42,0.267-0.66,0.368c-0.24,0.101-0.502,0.18-0.785,0.236
			c-0.282,0.058-0.6,0.086-0.949,0.086h-1.288v3.199h-2.458v-9.785h3.799c0.564,0,1.053,0.052,1.461,0.155
			c0.41,0.103,0.781,0.266,1.114,0.489c0.368,0.246,0.652,0.573,0.854,0.983C78.084,46.753,78.186,47.24,78.186,47.805z
			 M75.662,47.864c0-0.276-0.065-0.514-0.197-0.713c-0.131-0.199-0.289-0.336-0.473-0.412c-0.231-0.101-0.455-0.157-0.668-0.174
			c-0.213-0.015-0.5-0.023-0.863-0.023h-0.349v2.931h0.171c0.231,0,0.451-0.004,0.656-0.008c0.206-0.004,0.387-0.02,0.539-0.045
			c0.131-0.022,0.271-0.063,0.418-0.129c0.146-0.063,0.258-0.135,0.338-0.214c0.167-0.162,0.279-0.331,0.34-0.505
			C75.633,48.399,75.662,48.162,75.662,47.864z"/>
		<path fill="#1246BC" d="M88.41,49.612c0,1.582-0.422,2.825-1.268,3.732c-0.846,0.906-2.005,1.36-3.479,1.36
			c-1.476,0-2.633-0.459-3.476-1.377c-0.841-0.919-1.262-2.155-1.262-3.717c0-1.572,0.421-2.816,1.262-3.729
			c0.843-0.914,2-1.37,3.476-1.37c1.474,0,2.633,0.455,3.479,1.363C87.988,46.785,88.41,48.03,88.41,49.612z M85.873,49.605
			c0-0.583-0.061-1.078-0.182-1.488c-0.12-0.41-0.279-0.746-0.482-1.008C85,46.84,84.762,46.65,84.496,46.533
			c-0.266-0.116-0.539-0.174-0.824-0.174c-0.301,0-0.576,0.054-0.82,0.161c-0.246,0.107-0.482,0.299-0.71,0.575
			c-0.202,0.254-0.365,0.592-0.489,1.012c-0.127,0.421-0.188,0.922-0.188,1.505c0,0.602,0.06,1.1,0.177,1.495
			c0.118,0.396,0.28,0.729,0.485,0.996c0.211,0.271,0.449,0.465,0.718,0.581c0.267,0.117,0.543,0.175,0.827,0.175
			c0.289,0,0.57-0.063,0.842-0.188s0.506-0.317,0.703-0.582c0.21-0.283,0.371-0.615,0.486-0.994
			C85.817,50.716,85.873,50.22,85.873,49.605z"/>
		<path fill="#1246BC" d="M98.123,54.503h-2.457v-4.338h-3.345v4.338h-2.459v-9.786h2.459v3.582h3.345v-3.582h2.457V54.503z"/>
	</g>
	<g>
		<path fill="#1246BC" d="M39.148,57.566h-0.37v-0.964l-0.266,0.625h-0.257l-0.267-0.625v0.964h-0.35v-1.438h0.431l0.324,0.721
			l0.321-0.721h0.432L39.148,57.566L39.148,57.566z"/>
		<path fill="#1246BC" d="M41.864,56.847c0,0.229-0.066,0.412-0.197,0.547c-0.132,0.135-0.313,0.201-0.545,0.201
			c-0.229,0-0.412-0.066-0.543-0.201s-0.197-0.317-0.197-0.547c0-0.231,0.066-0.413,0.197-0.549
			c0.131-0.133,0.313-0.201,0.543-0.201c0.231,0,0.412,0.068,0.544,0.201C41.798,56.434,41.864,56.615,41.864,56.847z
			 M41.372,57.212c0.036-0.045,0.063-0.097,0.081-0.154c0.018-0.061,0.026-0.129,0.026-0.211c0-0.086-0.01-0.159-0.03-0.219
			c-0.02-0.063-0.046-0.111-0.078-0.148c-0.033-0.038-0.069-0.064-0.112-0.084c-0.043-0.018-0.088-0.025-0.135-0.025
			s-0.091,0.01-0.132,0.025c-0.042,0.016-0.08,0.044-0.115,0.082c-0.031,0.037-0.058,0.086-0.079,0.15
			c-0.02,0.063-0.03,0.137-0.03,0.221c0,0.085,0.01,0.158,0.028,0.218c0.021,0.062,0.047,0.108,0.078,0.147
			c0.032,0.037,0.07,0.065,0.113,0.084s0.088,0.026,0.136,0.026s0.095-0.009,0.138-0.026C41.304,57.279,41.34,57.251,41.372,57.212z
			"/>
		<path fill="#1246BC" d="M44.388,57.566h-0.371v-0.634h-0.548v0.634h-0.371v-1.438h0.371v0.526h0.548v-0.526h0.371V57.566z"/>
		<path fill="#1246BC" d="M46.741,56.405h-0.667v1.161h-0.37v-1.438h1.037V56.405z"/>
		<path fill="#1246BC" d="M49.313,56.847c0,0.229-0.065,0.412-0.197,0.547c-0.131,0.135-0.313,0.201-0.544,0.201
			c-0.232,0-0.413-0.066-0.544-0.201s-0.197-0.317-0.197-0.547c0-0.231,0.065-0.413,0.197-0.549
			c0.132-0.133,0.313-0.201,0.544-0.201c0.23,0,0.411,0.068,0.543,0.201C49.247,56.434,49.313,56.615,49.313,56.847z M48.821,57.212
			c0.037-0.045,0.063-0.097,0.081-0.154c0.017-0.061,0.025-0.129,0.025-0.211c0-0.086-0.011-0.159-0.031-0.219
			c-0.02-0.063-0.046-0.111-0.078-0.148c-0.032-0.038-0.07-0.064-0.113-0.084c-0.042-0.018-0.087-0.025-0.134-0.025
			c-0.046,0-0.09,0.01-0.133,0.025c-0.041,0.016-0.08,0.044-0.114,0.082c-0.032,0.037-0.058,0.086-0.079,0.15
			c-0.021,0.063-0.03,0.137-0.03,0.221c0,0.085,0.011,0.158,0.029,0.218c0.021,0.062,0.046,0.108,0.078,0.147
			c0.033,0.037,0.07,0.065,0.113,0.084s0.088,0.026,0.136,0.026s0.094-0.009,0.136-0.026C48.751,57.278,48.789,57.251,48.821,57.212
			z"/>
		<path fill="#1246BC" d="M51.852,57.566h-0.37v-1.161h-0.413c-0.003,0.063-0.006,0.112-0.008,0.148
			c-0.001,0.037-0.004,0.084-0.008,0.144c-0.008,0.13-0.021,0.239-0.038,0.328s-0.036,0.162-0.058,0.219
			c-0.022,0.058-0.045,0.104-0.069,0.144c-0.024,0.035-0.05,0.065-0.073,0.089c-0.031,0.03-0.07,0.055-0.117,0.071
			c-0.049,0.021-0.099,0.027-0.15,0.027c-0.032,0-0.064-0.001-0.101-0.003c-0.034-0.004-0.058-0.005-0.066-0.006v-0.322h0.015
			c0.006,0,0.014,0.002,0.02,0.002c0.01,0.001,0.018,0.001,0.026,0.001c0.035,0,0.063-0.003,0.079-0.007
			c0.018-0.005,0.034-0.013,0.047-0.024c0.049-0.043,0.083-0.11,0.102-0.205c0.02-0.094,0.031-0.225,0.041-0.394
			c0.004-0.067,0.008-0.141,0.01-0.219c0.002-0.079,0.005-0.17,0.006-0.271h1.129v1.438H51.852z"/>
		<path fill="#1246BC" d="M54.396,57.104c0,0.068-0.015,0.135-0.04,0.193c-0.025,0.058-0.063,0.106-0.109,0.145
			c-0.059,0.046-0.119,0.079-0.184,0.098c-0.063,0.018-0.141,0.026-0.229,0.026H53.17v-1.438h0.371v0.535h0.297
			c0.101,0,0.184,0.008,0.246,0.022c0.064,0.015,0.121,0.042,0.17,0.079c0.05,0.039,0.086,0.088,0.107,0.146
			C54.383,56.97,54.396,57.034,54.396,57.104z M54.013,57.114c0-0.023-0.005-0.046-0.009-0.066c-0.006-0.021-0.017-0.041-0.034-0.06
			c-0.017-0.019-0.041-0.032-0.071-0.041c-0.029-0.011-0.07-0.017-0.125-0.017h-0.232v0.365h0.232c0.041,0,0.077-0.004,0.109-0.016
			c0.031-0.01,0.059-0.021,0.074-0.039c0.019-0.015,0.03-0.033,0.041-0.055C54.008,57.165,54.013,57.14,54.013,57.114z
			 M54.903,57.566h-0.37v-1.438h0.37V57.566z"/>
		<path fill="#1246BC" d="M57.51,57.566h-0.371v-0.634h-0.547v0.634h-0.371v-1.438h0.371v0.526h0.547v-0.526h0.371V57.566z"/>
		<path fill="#1246BC" d="M61.719,56.128l-0.531,0.881v0.559h-0.369v-0.54l-0.54-0.897h0.423l0.311,0.554l0.3-0.554h0.407V56.128z"
			/>
		<path fill="#1246BC" d="M64.151,57.566h-0.372v-0.634h-0.547v0.634H62.86v-1.438h0.372v0.526h0.547v-0.526h0.372V57.566z"/>
		<path fill="#1246BC" d="M66.879,57.896h-0.34v-0.336h-0.875v0.336h-0.34v-0.609h0.109c0.074-0.157,0.132-0.333,0.171-0.528
			c0.04-0.197,0.06-0.407,0.06-0.631h1.073v1.159h0.144v0.609H66.879z M66.367,57.287v-0.882h-0.359
			c-0.012,0.176-0.037,0.337-0.076,0.484c-0.039,0.15-0.086,0.281-0.143,0.396L66.367,57.287L66.367,57.287z"/>
		<path fill="#1246BC" d="M69.066,56.294c0.064,0.063,0.114,0.139,0.148,0.228c0.033,0.088,0.051,0.19,0.051,0.306
			c0,0.122-0.02,0.233-0.057,0.332c-0.039,0.098-0.09,0.178-0.156,0.24s-0.146,0.109-0.239,0.146
			c-0.093,0.032-0.196,0.049-0.312,0.049c-0.062,0-0.118-0.004-0.172-0.012c-0.052-0.009-0.1-0.018-0.141-0.029
			c-0.045-0.012-0.085-0.024-0.121-0.039c-0.037-0.012-0.063-0.021-0.081-0.03v-0.325h0.035c0.021,0.018,0.042,0.034,0.069,0.055
			c0.027,0.02,0.059,0.037,0.091,0.053c0.04,0.02,0.082,0.035,0.127,0.048c0.044,0.012,0.097,0.019,0.158,0.019
			c0.042,0,0.088-0.007,0.138-0.018c0.051-0.012,0.092-0.032,0.131-0.061c0.041-0.029,0.076-0.068,0.106-0.117
			c0.028-0.049,0.047-0.108,0.054-0.185h-0.641v-0.274h0.633c-0.01-0.058-0.029-0.106-0.055-0.146
			c-0.027-0.038-0.06-0.069-0.097-0.096c-0.036-0.025-0.075-0.044-0.12-0.056c-0.043-0.011-0.086-0.017-0.13-0.017
			c-0.053,0-0.103,0.006-0.147,0.019c-0.045,0.014-0.088,0.028-0.129,0.049c-0.035,0.018-0.067,0.037-0.096,0.058
			c-0.027,0.021-0.052,0.038-0.07,0.054h-0.041v-0.328c0.035-0.018,0.07-0.029,0.101-0.041c0.031-0.012,0.071-0.023,0.119-0.037
			c0.039-0.01,0.086-0.019,0.14-0.025c0.053-0.006,0.108-0.009,0.166-0.009c0.109,0,0.211,0.016,0.301,0.049
			C68.922,56.181,69,56.229,69.066,56.294z"/>
		<path fill="#1246BC" d="M71.149,57.593c-0.106,0-0.206-0.015-0.297-0.047c-0.09-0.031-0.168-0.078-0.231-0.141
			c-0.064-0.063-0.117-0.141-0.15-0.232c-0.037-0.095-0.055-0.203-0.055-0.326c0-0.112,0.018-0.217,0.052-0.31
			s0.083-0.172,0.147-0.239c0.063-0.063,0.141-0.111,0.232-0.146c0.092-0.036,0.193-0.054,0.303-0.054
			c0.061,0,0.115,0.004,0.163,0.01c0.049,0.008,0.095,0.016,0.136,0.027c0.043,0.012,0.082,0.024,0.116,0.041
			c0.036,0.016,0.065,0.029,0.095,0.041v0.35h-0.045c-0.018-0.016-0.039-0.033-0.066-0.055c-0.027-0.021-0.059-0.041-0.094-0.063
			s-0.074-0.038-0.115-0.052c-0.041-0.015-0.084-0.021-0.133-0.021c-0.051,0-0.102,0.008-0.147,0.023
			c-0.048,0.016-0.091,0.043-0.13,0.081c-0.04,0.037-0.07,0.085-0.094,0.146c-0.022,0.062-0.035,0.135-0.035,0.221
			c0,0.09,0.014,0.166,0.039,0.226c0.025,0.062,0.058,0.108,0.097,0.144s0.082,0.062,0.13,0.076
			c0.049,0.015,0.098,0.021,0.145,0.021c0.045,0,0.09-0.007,0.134-0.021c0.044-0.014,0.086-0.031,0.122-0.055
			c0.031-0.018,0.062-0.038,0.089-0.061c0.026-0.021,0.049-0.039,0.065-0.053h0.039v0.344c-0.037,0.018-0.07,0.031-0.104,0.045
			c-0.033,0.016-0.068,0.025-0.104,0.037c-0.049,0.015-0.093,0.023-0.134,0.031C71.277,57.591,71.222,57.593,71.149,57.593z"/>
		<path fill="#1246BC" d="M74.17,57.566h-0.371v-0.634h-0.547v0.634h-0.371v-1.438h0.371v0.526h0.547v-0.526h0.371V57.566z"/>
		<path fill="#1246BC" d="M76.799,57.566h-0.36v-0.958l-0.599,0.958h-0.354v-1.438h0.361v0.866l0.556-0.866h0.396V57.566z"/>
		<path fill="#1246BC" d="M79.422,57.566h-0.361v-0.958l-0.598,0.958H78.11v-1.438h0.361v0.866l0.555-0.866h0.396V57.566z
			 M79.287,55.653c0,0.12-0.047,0.214-0.137,0.281c-0.091,0.068-0.218,0.103-0.382,0.103s-0.291-0.032-0.382-0.103
			c-0.09-0.067-0.137-0.161-0.137-0.281h0.324c0.002,0.068,0.018,0.12,0.045,0.152c0.027,0.029,0.078,0.046,0.148,0.046
			s0.12-0.017,0.148-0.048c0.027-0.03,0.043-0.082,0.043-0.15H79.287z"/>
		<path fill="#1246BC" d="M83.484,56.405h-0.447v1.161h-0.371v-1.161h-0.449v-0.277h1.269L83.484,56.405L83.484,56.405z"/>
		<path fill="#1246BC" d="M85.699,57.566h-1.041v-1.438h1.041v0.277h-0.672v0.249h0.623v0.278h-0.623v0.354h0.672V57.566z"/>
		<path fill="#1246BC" d="M88.265,57.566h-0.371v-1.161h-0.411c-0.004,0.063-0.006,0.112-0.008,0.148
			c-0.003,0.037-0.005,0.084-0.01,0.144c-0.008,0.13-0.021,0.239-0.037,0.328c-0.018,0.089-0.037,0.162-0.059,0.219
			c-0.021,0.058-0.045,0.104-0.068,0.144c-0.024,0.035-0.051,0.065-0.074,0.089c-0.031,0.03-0.07,0.055-0.117,0.071
			c-0.046,0.021-0.098,0.027-0.15,0.027c-0.031,0-0.064-0.001-0.1-0.003c-0.035-0.004-0.056-0.005-0.066-0.006v-0.322h0.015
			c0.006,0,0.012,0.002,0.021,0.002c0.008,0.001,0.017,0.001,0.024,0.001c0.037,0,0.063-0.003,0.08-0.007
			c0.019-0.005,0.032-0.013,0.047-0.024c0.05-0.043,0.083-0.11,0.103-0.205c0.018-0.094,0.03-0.225,0.039-0.394
			c0.004-0.067,0.008-0.141,0.01-0.219c0.004-0.079,0.005-0.17,0.008-0.271h1.128v1.438H88.265z"/>
		<path fill="#1246BC" d="M90.623,57.566h-1.041v-1.438h1.041v0.277h-0.672v0.249h0.623v0.278h-0.623v0.354h0.672V57.566z"/>
		<path fill="#1246BC" d="M93.115,57.126c0,0.068-0.016,0.131-0.044,0.188c-0.026,0.055-0.065,0.1-0.116,0.135
			c-0.056,0.044-0.117,0.073-0.186,0.092s-0.154,0.027-0.259,0.027h-0.63V56.13h0.561c0.116,0,0.2,0.002,0.254,0.01
			c0.055,0.009,0.107,0.025,0.159,0.052c0.056,0.028,0.097,0.065,0.123,0.11c0.026,0.047,0.041,0.102,0.041,0.16
			c0,0.069-0.019,0.133-0.056,0.186c-0.036,0.054-0.088,0.095-0.155,0.124v0.008c0.094,0.021,0.168,0.058,0.224,0.116
			C93.086,56.952,93.115,57.029,93.115,57.126z M92.639,56.534c0-0.023-0.006-0.048-0.02-0.07c-0.012-0.023-0.031-0.043-0.063-0.055
			c-0.027-0.01-0.063-0.016-0.104-0.017c-0.039-0.003-0.096-0.003-0.168-0.003H92.25v0.306h0.059c0.059,0,0.107-0.001,0.15-0.003
			c0.041-0.003,0.072-0.009,0.098-0.02c0.033-0.015,0.055-0.033,0.064-0.059C92.633,56.593,92.639,56.565,92.639,56.534z
			 M92.729,57.12c0-0.046-0.009-0.08-0.025-0.105c-0.02-0.025-0.049-0.043-0.092-0.055c-0.029-0.011-0.068-0.015-0.117-0.015
			c-0.053-0.002-0.104-0.002-0.16-0.002h-0.082v0.358h0.026c0.104,0,0.181-0.002,0.224-0.002c0.047,0,0.088-0.008,0.125-0.023
			c0.039-0.016,0.065-0.038,0.08-0.064C92.721,57.186,92.729,57.154,92.729,57.12z"/>
		<path fill="#1246BC" d="M95.652,57.566h-0.361v-0.958l-0.598,0.958H94.34v-1.438h0.361v0.866l0.555-0.866h0.396V57.566
			L95.652,57.566z"/>
		<path fill="#1246BC" d="M98.072,57.136c0,0.068-0.015,0.133-0.043,0.189C98,57.384,97.959,57.431,97.9,57.47
			c-0.059,0.041-0.129,0.07-0.211,0.093c-0.082,0.021-0.182,0.03-0.3,0.03c-0.104,0-0.2-0.008-0.289-0.025s-0.172-0.039-0.246-0.066
			v-0.324h0.035c0.019,0.01,0.045,0.023,0.082,0.043c0.034,0.02,0.073,0.035,0.108,0.049c0.047,0.019,0.09,0.031,0.131,0.042
			c0.039,0.01,0.084,0.015,0.137,0.015c0.052,0,0.099-0.004,0.14-0.012c0.042-0.01,0.077-0.021,0.105-0.039
			c0.032-0.02,0.055-0.041,0.071-0.066c0.015-0.022,0.021-0.057,0.021-0.095s-0.006-0.067-0.018-0.092
			c-0.012-0.022-0.028-0.041-0.053-0.056c-0.023-0.016-0.054-0.024-0.09-0.028c-0.035-0.007-0.078-0.009-0.126-0.009h-0.266v-0.258
			h0.257c0.047,0,0.089-0.004,0.124-0.011s0.062-0.019,0.078-0.03c0.021-0.017,0.034-0.033,0.042-0.053s0.011-0.042,0.011-0.07
			c0-0.047-0.024-0.082-0.071-0.104c-0.049-0.021-0.113-0.032-0.197-0.032c-0.049,0-0.096,0.006-0.139,0.014
			c-0.041,0.012-0.082,0.021-0.121,0.035c-0.041,0.016-0.074,0.027-0.101,0.041c-0.024,0.012-0.052,0.024-0.08,0.037H96.9v-0.302
			c0.064-0.024,0.146-0.047,0.242-0.065c0.095-0.021,0.193-0.028,0.296-0.028c0.198,0,0.347,0.03,0.445,0.093
			c0.098,0.063,0.147,0.146,0.147,0.255c0,0.083-0.027,0.153-0.08,0.212c-0.054,0.061-0.121,0.1-0.207,0.12v0.015
			c0.035,0.006,0.071,0.016,0.11,0.029c0.038,0.016,0.073,0.035,0.104,0.063s0.059,0.061,0.078,0.1
			C98.062,57.024,98.072,57.074,98.072,57.136z"/>
	</g>
</g>
</svg>
