<?xml version="1.0" encoding="utf-8"?>
<!-- Generator: Adobe Illustrator 13.0.0, SVG Export Plug-In . SVG Version: 6.00 Build 14948)  -->
<!DOCTYPE svg PUBLIC "-//W3C//DTD SVG 1.1//EN" "http://www.w3.org/Graphics/SVG/1.1/DTD/svg11.dtd">
<svg version="1.1" id="Layer_1" xmlns="http://www.w3.org/2000/svg" xmlns:xlink="http://www.w3.org/1999/xlink" x="0px" y="0px"
	 width="100px" height="100px" viewBox="0 0 100 100" enable-background="new 0 0 100 100" xml:space="preserve">
<g>
	
		<radialGradient id="SVGID_1_" cx="279.9443" cy="1087.4766" r="51.124" gradientTransform="matrix(1 0 0 1 -256 -1055.5)" gradientUnits="userSpaceOnUse">
		<stop  offset="0" style="stop-color:#2BBDBE"/>
		<stop  offset="0.1728" style="stop-color:#2ABABB"/>
		<stop  offset="0.3247" style="stop-color:#26AFB0"/>
		<stop  offset="0.4687" style="stop-color:#1F9D9E"/>
		<stop  offset="0.6079" style="stop-color:#168484"/>
		<stop  offset="0.7424" style="stop-color:#0A6464"/>
		<stop  offset="0.8223" style="stop-color:#024D4D"/>
		<stop  offset="1" style="stop-color:#051A20"/>
	</radialGradient>
	<path fill="url(#SVGID_1_)" d="M1.698,44.767c-2.224,17.795,21.689,41.34,35.593,39.67C51.195,82.77,60.092,70.535,65.84,50.699
		c5.747-19.835-8.714-35.222-23.729-35.222C27.096,15.477,3.921,26.971,1.698,44.767z"/>
	<path fill="#FFFFFF" d="M39.887,17.888c0,0-13.162,0.742-24.1,9.455c-10.937,8.712-1.853,10.938,2.411,6.488
		c4.264-4.449,7.044-8.156,12.791-11.308C36.734,19.371,39.887,17.888,39.887,17.888z"/>
	<g>
		<path fill="#FFFFFF" d="M24.983,64.756c-1.134,0.164-4.407,0.08-7.906,0.08c-4.178,0-7.871-1.068-7.871-6.965V47.118
			c0-5.894,3.725-6.931,7.904-6.931c3.498,0,6.853-0.037,7.919,0.009c0.458,0.019,0.649,0.639,0.649,1.06v3.013
			c0,0.356-0.292,0.647-0.648,0.647h-8.244c-1.522,0-2.073,0.518-2.073,2.202v2.393h10.058c0.356,0,0.647,0.291,0.647,0.647v4.188
			c0,0.356-0.292,0.647-0.647,0.647H14.713v2.877c0,1.687,0.551,2.203,2.073,2.203h8.244c0.356,0,0.648,0.291,0.648,0.646v3.016
			C25.679,64.156,25.437,64.693,24.983,64.756z"/>
		<path fill="#FFFFFF" d="M46.684,45.046H38.1v18.853c0,0.355-0.291,0.646-0.647,0.646h-4.244c-0.356,0-0.647-0.291-0.647-0.646
			V45.046h-5.28c-0.357,0-0.648-0.26-0.648-0.616v-3.337c0-0.356,0.292-0.615,0.648-0.615h19.403c0.356,0,0.681,0.258,0.681,0.615
			v3.337C47.364,44.786,47.04,45.046,46.684,45.046z"/>
		<path fill="#FFFFFF" d="M63.893,41.158L57.953,61.24c-0.745,3.109-3.166,3.596-4.23,3.596c-1.07,0-3.522-0.484-4.268-3.596
			l-5.938-20.082c0-0.065-0.032-0.098-0.032-0.162c0-0.291,0.259-0.518,0.583-0.518h4.502c0.324,0,0.584,0.258,0.648,0.582
			l4.05,14.242c0.063,0.354,0.162,0.485,0.455,0.485c0.289,0,0.387-0.131,0.451-0.485l4.051-14.242
			c0.063-0.324,0.291-0.582,0.613-0.582h4.535c0.322,0,0.551,0.195,0.551,0.518C63.924,41.029,63.893,41.093,63.893,41.158z"/>
	</g>
	<g>
		<path fill="#FFFFFF" d="M75.291,50.133l-0.925,4.832h4.87l0.925-4.832h2.077l-2.273,11.977h-2.078l1.014-5.295h-4.887
			l-0.996,5.295h-2.062l2.272-11.977H75.291z"/>
		<path fill="#FFFFFF" d="M84.709,50.311c0.979-0.178,2.042-0.266,3.162-0.266c1.919,0,3.431,0.498,4.391,1.438
			c0.816,0.746,1.367,1.865,1.367,3.518c0,2.259-0.925,4.318-2.436,5.563c-1.387,1.137-3.146,1.617-5.598,1.617
			c-1.263,0-2.436-0.091-3.109-0.179L84.709,50.311z M84.867,60.422c0.408,0.055,0.854,0.07,1.314,0.07
			c1.617,0,2.914-0.516,3.784-1.475c0.941-0.996,1.423-2.418,1.423-3.98c0-1.99-1.049-3.322-3.555-3.322
			c-0.48,0-0.996,0.035-1.333,0.105L84.867,60.422z"/>
	</g>
	<g>
		<path fill="#FFFFFF" d="M67.134,64.764l2.622-17.302h27.691L94.891,64.34l-0.064,0.424H67.134L67.134,64.764z M94.396,64.266
			v-0.498V64.266L94.396,64.266z M68.294,63.768h25.677l2.318-15.31H70.611L68.294,63.768L68.294,63.768z"/>
	</g>
</g>
</svg>
