<?xml version="1.0" encoding="utf-8"?>
<!-- Generator: Adobe Illustrator 13.0.0, SVG Export Plug-In . SVG Version: 6.00 Build 14948)  -->
<!DOCTYPE svg PUBLIC "-//W3C//DTD SVG 1.1//EN" "http://www.w3.org/Graphics/SVG/1.1/DTD/svg11.dtd">
<svg version="1.1" id="Layer_1" xmlns="http://www.w3.org/2000/svg" xmlns:xlink="http://www.w3.org/1999/xlink" x="0px" y="0px"
	 width="100px" height="100px" viewBox="0 0 100 100" enable-background="new 0 0 100 100" xml:space="preserve">
<g>
	<g>
		<g>
			<circle fill="#FFFFFF" cx="49.5" cy="15.051" r="6.897"/>
			<circle fill="#FFFFFF" cx="49.5" cy="27.992" r="5.058"/>
			<circle fill="#FFFFFF" cx="49.498" cy="38.27" r="4.434"/>
			<path fill="#FFFFFF" d="M53.473,47.597c0,2.193-1.776,3.973-3.975,3.973c-2.195,0-3.972-1.779-3.972-3.973
				c0-2.198,1.777-3.977,3.972-3.977C51.696,43.621,53.473,45.399,53.473,47.597z"/>
			<path fill="#FFFFFF" d="M53.18,55.643c0,2.031-1.647,3.678-3.682,3.678c-2.032,0-3.679-1.646-3.679-3.678
				c0-2.034,1.646-3.68,3.679-3.68C51.532,51.965,53.18,53.608,53.18,55.643z"/>
		</g>
		<g>
			<path fill="#FFFFFF" d="M79.89,27.015c-0.986,2.986-4.21,4.605-7.193,3.614c-2.983-0.987-4.604-4.209-3.615-7.196
				c0.988-2.984,4.209-4.604,7.195-3.614C79.263,20.809,80.882,24.029,79.89,27.015z"/>
			<path fill="#FFFFFF" d="M75.091,36.68c-0.725,2.189-3.087,3.376-5.277,2.65c-2.189-0.724-3.375-3.087-2.65-5.276
				c0.726-2.192,3.089-3.379,5.277-2.652C74.628,32.127,75.817,34.491,75.091,36.68z"/>
			<circle fill="#FFFFFF" cx="68.458" cy="43.422" r="3.662"/>
			<circle fill="#FFFFFF" cx="66.036" cy="50.734" r="3.281"/>
			<circle fill="#FFFFFF" cx="63.948" cy="57.041" r="3.037"/>
			<path fill="#FFFFFF" d="M95.421,41.311c-1.51,2.01-4.363,2.415-6.375,0.907c-2.01-1.512-2.418-4.365-0.907-6.375
				c1.511-2.009,4.366-2.416,6.372-0.907C96.524,36.445,96.931,39.298,95.421,41.311z"/>
			<path fill="#FFFFFF" d="M89.321,47.409c-1.104,1.478-3.199,1.772-4.672,0.667c-1.479-1.108-1.775-3.2-0.668-4.675
				c1.106-1.475,3.198-1.772,4.674-0.665C90.129,43.844,90.43,45.936,89.321,47.409z"/>
			<circle fill="#FFFFFF" cx="82.577" cy="50.832" r="2.928"/>
			<path fill="#FFFFFF" d="M80.978,57.33c-0.869,1.16-2.514,1.393-3.672,0.521c-1.161-0.867-1.393-2.512-0.523-3.67
				c0.871-1.162,2.519-1.396,3.674-0.525C81.614,54.527,81.849,56.172,80.978,57.33z"/>
			<path fill="#FFFFFF" d="M77.632,61.463c-0.807,1.07-2.326,1.287-3.396,0.48c-1.076-0.807-1.293-2.326-0.486-3.4
				c0.809-1.07,2.326-1.287,3.402-0.482C78.222,58.867,78.44,60.389,77.632,61.463z"/>
			<circle fill="#FFFFFF" cx="61.558" cy="30.468" r="4.651"/>
			<path fill="#FFFFFF" d="M63.935,40.483c-0.39,2.218-2.505,3.698-4.721,3.31c-2.221-0.392-3.7-2.504-3.313-4.721
				c0.393-2.22,2.506-3.704,4.726-3.31C62.845,36.152,64.325,38.266,63.935,40.483z"/>
			<path fill="#FFFFFF" d="M62.032,48.86c-0.35,1.985-2.246,3.312-4.232,2.962c-1.987-0.348-3.313-2.246-2.967-4.23
				c0.354-1.991,2.244-3.317,4.234-2.968C61.053,44.976,62.383,46.869,62.032,48.86z"/>
			<path fill="#FFFFFF" d="M60.481,56.098c-0.326,1.84-2.074,3.068-3.916,2.744c-1.844-0.326-3.072-2.078-2.748-3.916
				c0.325-1.846,2.077-3.07,3.92-2.746C59.577,52.504,60.808,54.256,60.481,56.098z"/>
			<path fill="#FFFFFF" d="M82.252,41.871c-0.851,1.837-3.028,2.636-4.865,1.78c-1.838-0.85-2.635-3.028-1.781-4.865
				c0.851-1.835,3.03-2.634,4.867-1.779C82.307,37.859,83.105,40.035,82.252,41.871z"/>
			<path fill="#FFFFFF" d="M78.706,48.437c-0.745,1.61-2.653,2.307-4.266,1.559c-1.607-0.746-2.31-2.654-1.563-4.261
				c0.746-1.61,2.654-2.313,4.268-1.563C78.757,44.918,79.452,46.826,78.706,48.437z"/>
			<path fill="#FFFFFF" d="M75.559,54.43c-0.667,1.439-2.379,2.064-3.825,1.396c-1.438-0.667-2.066-2.382-1.396-3.821
				c0.67-1.439,2.38-2.066,3.823-1.398C75.603,51.273,76.229,52.983,75.559,54.43z"/>
			<circle fill="#FFFFFF" cx="70.495" cy="58.501" r="2.666"/>
		</g>
		<g>
			<path fill="#FFFFFF" d="M19.107,27.015c0.989,2.986,4.213,4.605,7.199,3.614c2.982-0.987,4.604-4.209,3.612-7.196
				c-0.989-2.984-4.209-4.604-7.195-3.614C19.737,20.808,18.117,24.029,19.107,27.015z"/>
			<path fill="#FFFFFF" d="M23.906,36.68c0.728,2.189,3.088,3.376,5.28,2.65c2.191-0.724,3.374-3.087,2.653-5.276
				c-0.726-2.192-3.089-3.379-5.28-2.652C24.371,32.127,23.182,34.491,23.906,36.68z"/>
			<circle fill="#FFFFFF" cx="30.541" cy="43.422" r="3.662"/>
			<circle fill="#FFFFFF" cx="32.963" cy="50.734" r="3.28"/>
			<circle fill="#FFFFFF" cx="35.051" cy="57.041" r="3.037"/>
			<path fill="#FFFFFF" d="M3.577,41.311c1.51,2.01,4.365,2.415,6.375,0.907c2.01-1.512,2.418-4.365,0.907-6.375
				c-1.51-2.009-4.363-2.416-6.371-0.907C2.474,36.445,2.068,39.298,3.577,41.311z"/>
			<circle fill="#FFFFFF" cx="12.348" cy="45.405" r="3.338"/>
			<path fill="#FFFFFF" d="M14.08,52.59c0.971,1.289,2.804,1.553,4.098,0.58c1.293-0.97,1.555-2.803,0.586-4.096
				c-0.973-1.293-2.809-1.553-4.1-0.582C13.371,49.463,13.113,51.297,14.08,52.59z"/>
			<path fill="#FFFFFF" d="M18.021,57.33c0.868,1.16,2.512,1.393,3.671,0.521c1.162-0.867,1.393-2.512,0.524-3.67
				c-0.872-1.162-2.515-1.396-3.675-0.525C17.384,54.527,17.15,56.172,18.021,57.33z"/>
			<circle fill="#FFFFFF" cx="23.309" cy="60.002" r="2.429"/>
			<circle fill="#FFFFFF" cx="37.441" cy="30.468" r="4.651"/>
			<circle fill="#FFFFFF" cx="39.078" cy="39.778" r="4.078"/>
			<path fill="#FFFFFF" d="M36.967,48.86c0.348,1.985,2.247,3.312,4.234,2.962c1.987-0.348,3.314-2.246,2.965-4.23
				c-0.353-1.991-2.246-3.317-4.235-2.968C37.945,44.976,36.617,46.869,36.967,48.86z"/>
			<path fill="#FFFFFF" d="M38.519,56.098c0.324,1.84,2.075,3.068,3.915,2.744c1.842-0.326,3.072-2.078,2.748-3.916
				c-0.327-1.846-2.077-3.07-3.92-2.746C39.423,52.504,38.192,54.256,38.519,56.098z"/>
			<path fill="#FFFFFF" d="M16.747,41.871c0.85,1.837,3.03,2.636,4.866,1.78c1.839-0.85,2.634-3.028,1.781-4.865
				c-0.85-1.835-3.028-2.634-4.866-1.779C16.692,37.859,15.893,40.035,16.747,41.871z"/>
			<path fill="#FFFFFF" d="M20.29,48.437c0.749,1.61,2.658,2.307,4.267,1.559c1.612-0.746,2.31-2.654,1.562-4.261
				c-0.747-1.61-2.656-2.313-4.267-1.563C20.242,44.918,19.546,46.826,20.29,48.437z"/>
			<path fill="#FFFFFF" d="M23.441,54.43c0.667,1.439,2.38,2.064,3.825,1.396c1.441-0.667,2.066-2.382,1.396-3.821
				s-2.382-2.066-3.823-1.398C23.396,51.273,22.77,52.983,23.441,54.43z"/>
			<circle fill="#FFFFFF" cx="28.505" cy="58.501" r="2.665"/>
		</g>
	</g>
	<g>
		<path fill="#FFFFFF" d="M8.166,76.479v6.664h2.242v0.531h-7.09v-0.531h2.075V69.981H3.318V69.43h11.638l0.156,4.275h-0.489
			c-0.204-1.391-0.577-2.359-1.121-2.902c-0.546-0.547-1.442-0.821-2.686-0.821h-2.65v6.05h0.26c1.052,0,1.78-0.186,2.191-0.557
			c0.411-0.373,0.667-1.063,0.77-2.07h0.491v5.725h-0.491c-0.095-1.029-0.352-1.729-0.766-2.097
			c-0.415-0.369-1.184-0.554-2.308-0.554H8.166z"/>
		<path fill="#FFFFFF" d="M22.158,83.674v-0.531h2.18l-1.303-3.765h-4.681l-1.283,3.765h2.2v0.531h-4.547v-0.531h1.711l4.911-14.014
			h0.709l5.037,14.014h1.731v0.531H22.158z M18.572,78.824h4.265l-2.022-5.785h-0.238L18.572,78.824z"/>
		<path fill="#FFFFFF" d="M30.721,83.842h-0.429v-4.244h0.604c0.293,1.259,0.756,2.209,1.388,2.851
			c0.632,0.646,1.422,0.965,2.368,0.965c0.973,0,1.762-0.28,2.37-0.842c0.609-0.565,0.915-1.297,0.915-2.203
			c0-0.653-0.2-1.183-0.601-1.589c-0.399-0.407-1.044-0.73-1.932-0.975l-1.344-0.387c-1.294-0.361-2.236-0.883-2.822-1.564
			c-0.589-0.68-0.882-1.592-0.882-2.729c0-1.211,0.352-2.181,1.053-2.905c0.704-0.727,1.643-1.09,2.816-1.09
			c0.619,0,1.165,0.082,1.638,0.245c0.473,0.162,0.923,0.425,1.355,0.786l0.835-0.876h0.311v4.017h-0.49
			c-0.292-1.188-0.748-2.088-1.366-2.697c-0.618-0.606-1.379-0.911-2.284-0.911c-0.821,0-1.491,0.229-2.011,0.684
			c-0.522,0.456-0.78,1.039-0.78,1.748c0,0.548,0.168,0.979,0.509,1.291c0.341,0.313,1,0.603,1.98,0.865l1.522,0.429
			c1.273,0.35,2.198,0.881,2.781,1.604c0.578,0.718,0.87,1.686,0.87,2.904c0,1.43-0.402,2.594-1.204,3.483
			c-0.806,0.896-1.855,1.342-3.156,1.342c-0.585,0-1.131-0.088-1.637-0.262c-0.509-0.173-1.029-0.451-1.564-0.833L30.721,83.842z"/>
		<path fill="#FFFFFF" d="M48.197,83.674h-6.924v-0.531h2.078V69.981h-2.078V69.43h6.924v0.552h-2.138v6.028h5.747v-6.028h-2.14
			V69.43h6.925v0.552h-2.076v13.161h2.076v0.531h-6.925v-0.531h2.14v-6.539h-5.747v6.539h2.138V83.674z"/>
		<path fill="#FFFFFF" d="M64.786,83.674h-6.914v-0.531h2.084V69.981h-2.084V69.43h6.914v0.552h-2.075v13.161h2.075V83.674z"/>
		<path fill="#FFFFFF" d="M66.631,76.582c0-2.139,0.621-3.916,1.862-5.332c1.24-1.414,2.795-2.121,4.664-2.121
			c1.873,0,3.426,0.707,4.662,2.115c1.235,1.413,1.854,3.193,1.854,5.338s-0.619,3.917-1.854,5.324
			c-1.236,1.408-2.789,2.111-4.662,2.111c-1.875,0-3.434-0.705-4.672-2.115C67.249,80.489,66.631,78.719,66.631,76.582z
			 M69.657,78.334c0,1.838,0.271,3.154,0.815,3.955c0.546,0.799,1.435,1.197,2.665,1.197c1.236,0,2.127-0.398,2.669-1.197
			c0.543-0.801,0.813-2.117,0.813-3.955v-3.521c0-1.836-0.271-3.148-0.813-3.945s-1.433-1.193-2.669-1.193
			c-1.23,0-2.119,0.396-2.665,1.193s-0.815,2.109-0.815,3.945V78.334z"/>
		<path fill="#FFFFFF" d="M92.805,78.93h0.208v-8.947H90.95V69.43h4.73v0.553h-2.063v13.932h-0.791l-8.738-13.585h-0.188v12.813
			h2.071v0.531h-4.744v-0.531h2.075V69.981h-2.075V69.43h5.464L92.805,78.93z"/>
	</g>
	<g>
		<path fill="#FFFFFF" d="M33.817,90.473v1.269h-0.208l-0.286-0.233c-0.125,0.11-0.274,0.195-0.444,0.252
			c-0.171,0.059-0.36,0.086-0.571,0.086c-0.289,0-0.555-0.058-0.797-0.168s-0.467-0.285-0.672-0.514
			c-0.207-0.229-0.359-0.465-0.461-0.722c-0.103-0.255-0.154-0.528-0.154-0.817c0-0.285,0.051-0.557,0.154-0.81
			c0.102-0.253,0.26-0.492,0.465-0.718c0.209-0.229,0.437-0.396,0.681-0.51c0.245-0.111,0.514-0.17,0.803-0.17
			c0.179,0,0.348,0.026,0.505,0.076c0.16,0.053,0.311,0.127,0.458,0.229l0.229-0.221h0.212l0.026,1.17h-0.226
			c-0.14-0.375-0.307-0.646-0.497-0.809c-0.19-0.167-0.431-0.25-0.72-0.25c-0.326,0-0.547,0.105-0.663,0.318
			c-0.118,0.217-0.176,0.754-0.176,1.612c0,0.451,0.005,0.793,0.014,1.019c0.011,0.225,0.03,0.386,0.055,0.484
			c0.051,0.211,0.139,0.364,0.26,0.456c0.121,0.095,0.289,0.14,0.509,0.14c0.297,0,0.564-0.108,0.802-0.328
			c0.234-0.217,0.388-0.498,0.458-0.846h0.244V90.473z"/>
		<path fill="#FFFFFF" d="M35.697,91.741V91.53h0.514v-3.823h-0.514V87.52h2.095v0.188h-0.508v1.737h1.419v-1.737h-0.509V87.52
			h2.088v0.188h-0.511v3.823h0.511v0.211h-2.088V91.53h0.509v-1.845h-1.419v1.845h0.507v0.211H35.697z"/>
		<path fill="#FFFFFF" d="M41.807,91.741V91.53h0.26c0.07,0,0.128-0.022,0.176-0.067c0.044-0.048,0.092-0.134,0.143-0.255
			l1.451-3.782h0.252l1.591,4.104h0.374v0.211h-2.048V91.53h0.512l-0.369-0.987h-1.286l-0.28,0.723
			c-0.007,0.013-0.011,0.031-0.015,0.06c-0.003,0.024-0.005,0.06-0.005,0.094c0,0.035,0.016,0.063,0.051,0.085
			c0.031,0.021,0.077,0.028,0.135,0.028h0.379v0.211L41.807,91.741L41.807,91.741z M42.932,90.338h1.146l-0.561-1.484L42.932,90.338
			z"/>
		<path fill="#FFFFFF" d="M47.559,91.741V91.53h0.327c0.084,0,0.143-0.019,0.176-0.056c0.033-0.039,0.052-0.109,0.052-0.217V87.93
			c0-0.095-0.019-0.15-0.056-0.183c-0.037-0.026-0.109-0.042-0.226-0.042h-0.259v-0.193h1.713l1.78,2.436V88.02
			c0-0.129-0.018-0.213-0.059-0.252c-0.038-0.041-0.123-0.063-0.253-0.063H50.48v-0.193h1.354v0.193h-0.248
			c-0.106,0-0.18,0.021-0.217,0.066c-0.041,0.041-0.063,0.123-0.063,0.246v3.816H51.13l-2.765-3.804v3.267
			c0,0.072,0.021,0.131,0.062,0.172s0.103,0.06,0.18,0.06h0.377v0.211L47.559,91.741L47.559,91.741z"/>
		<path fill="#FFFFFF" d="M53.511,91.741V91.53h0.329c0.083,0,0.144-0.019,0.176-0.056c0.033-0.039,0.047-0.109,0.047-0.217V87.93
			c0-0.095-0.017-0.15-0.054-0.183c-0.034-0.026-0.109-0.042-0.225-0.042h-0.26v-0.193h1.711l1.782,2.436V88.02
			c0-0.129-0.021-0.213-0.06-0.252c-0.041-0.041-0.125-0.063-0.254-0.063h-0.271v-0.193h1.354v0.193h-0.25
			c-0.104,0-0.178,0.021-0.219,0.066c-0.039,0.041-0.063,0.123-0.063,0.246v3.816h-0.176l-2.768-3.804v3.267
			c0,0.072,0.021,0.131,0.064,0.172c0.039,0.041,0.099,0.06,0.177,0.06h0.38v0.211L53.511,91.741L53.511,91.741z"/>
		<path fill="#FFFFFF" d="M59.489,91.741V91.53h0.519v-3.823h-0.444v-0.195h3.528l0.011,1.111h-0.212
			c-0.144-0.357-0.289-0.604-0.438-0.727c-0.146-0.129-0.362-0.189-0.646-0.189h-0.729v1.737c0.018,0.002,0.035,0.003,0.058,0.005
			c0.022,0,0.053,0,0.09,0c0.231,0,0.407-0.061,0.524-0.184c0.119-0.121,0.195-0.318,0.23-0.592h0.213v1.805h-0.213
			c-0.021-0.291-0.096-0.502-0.217-0.629S61.454,89.66,61.2,89.66h-0.123v1.87h0.707c0.351,0,0.623-0.091,0.818-0.276
			c0.198-0.184,0.354-0.49,0.467-0.923h0.196l-0.044,1.41H59.489z"/>
		<path fill="#FFFFFF" d="M65.153,91.741V91.53h0.436v-3.823h-0.436v-0.195h2.11v0.195h-0.591v3.823h0.619
			c0.349,0,0.621-0.091,0.816-0.276c0.197-0.184,0.353-0.49,0.465-0.923h0.203l-0.05,1.41H65.153z"/>
	</g>
	<g>
		<line fill="none" stroke="#FFFFFF" x1="2.604" y1="89.403" x2="28.087" y2="89.403"/>
		<line fill="none" stroke="#FFFFFF" x1="70.911" y1="89.403" x2="96.396" y2="89.403"/>
	</g>
</g>
</svg>
