<?xml version="1.0" encoding="utf-8"?>
<!-- Generator: Adobe Illustrator 13.0.0, SVG Export Plug-In . SVG Version: 6.00 Build 14948)  -->
<!DOCTYPE svg PUBLIC "-//W3C//DTD SVG 1.1//EN" "http://www.w3.org/Graphics/SVG/1.1/DTD/svg11.dtd">
<svg version="1.1" id="Layer_1" xmlns="http://www.w3.org/2000/svg" xmlns:xlink="http://www.w3.org/1999/xlink" x="0px" y="0px"
	 width="100px" height="100px" viewBox="0 0 100 100" enable-background="new 0 0 100 100" xml:space="preserve">
<g>
	<path fill="#F2F2F2" d="M48.881,65.572c-0.353-1.184-0.276-2.661-0.276-4.374V44.284h-3.983v-6.316h3.983v-8.483h-4.581V69.41
		h10.914c-1.769-0.127-3.365-0.411-4.283-1.069C49.87,67.777,49.233,66.754,48.881,65.572z M60.543,29.484v8.483h5.1v6.316h-5.1
		v15.141c0,0.991,0.061,1.764,0.182,2.315c0.119,0.553,0.717,1.13,1.428,1.321c0.881,0.238,1.873,0.209,3.058,0.209
		c1.088,0,2.491,0,2.491,0v6.14H78.77L66.628,37.968h10.825l6.781,18.29l6.875-18.29h4.927v-8.483L60.543,29.484L60.543,29.484z
		 M96.036,69.41V53.205L89.795,69.41H96.036z"/>
	<g>
		<g>
			<polygon fill="#37B34A" points="35.212,64.656 40.055,64.656 40.055,29.559 28.266,29.559 28.266,44.596 14.753,44.596 
				14.753,29.559 2.964,29.559 2.964,29.563 7.807,34.406 2.964,34.406 2.964,69.516 14.752,69.516 14.752,54.109 28.265,54.109 
				28.265,69.516 40.055,69.516 40.055,69.5 			"/>
		</g>
	</g>
</g>
</svg>
