<?xml version="1.0" encoding="utf-8"?>
<!-- Generator: Adobe Illustrator 13.0.0, SVG Export Plug-In . SVG Version: 6.00 Build 14948)  -->
<!DOCTYPE svg PUBLIC "-//W3C//DTD SVG 1.1//EN" "http://www.w3.org/Graphics/SVG/1.1/DTD/svg11.dtd">
<svg version="1.1" id="Layer_1" xmlns="http://www.w3.org/2000/svg" xmlns:xlink="http://www.w3.org/1999/xlink" x="0px" y="0px"
	 width="100px" height="100px" viewBox="0 0 100 100" enable-background="new 0 0 100 100" xml:space="preserve">
<g>
	<g>
		<path fill="#F9EC31" d="M-0.25,40.771v18.457h98.124V40.771H-0.25z M97.415,58.77H35.744V41.23h61.671V58.77z"/>
		<g>
			<g>
				<polygon points="25.577,50 32.264,43.313 26.761,43.313 20.073,50 26.761,56.688 32.263,56.688 				"/>
				<path d="M19.272,49.863v-6.551h-6.42L6.165,50l0.033,3.343h9.103v3.345h3.972v-3.345h3.479L19.272,49.863z M15.339,50.058
					h-4.203l4.203-4.203V50.058z"/>
			</g>
			<g>
				<path d="M2.779,56.114c-0.124,0-0.23-0.017-0.322-0.05c-0.093-0.031-0.17-0.08-0.236-0.146c-0.073-0.071-0.124-0.16-0.154-0.263
					c-0.03-0.102-0.045-0.229-0.045-0.377v-1.309H2.3v1.309c0,0.097,0.007,0.179,0.019,0.242c0.011,0.067,0.036,0.127,0.071,0.182
					c0.038,0.056,0.089,0.099,0.153,0.127c0.065,0.027,0.143,0.044,0.236,0.044c0.086,0,0.164-0.017,0.231-0.044
					c0.068-0.028,0.121-0.071,0.157-0.127c0.035-0.055,0.06-0.113,0.072-0.18c0.012-0.063,0.019-0.145,0.019-0.236v-1.314h0.279
					v1.309c0,0.146-0.015,0.271-0.044,0.375c-0.029,0.104-0.082,0.191-0.156,0.265c-0.067,0.063-0.145,0.112-0.232,0.146
					C3.016,56.098,2.907,56.114,2.779,56.114z"/>
				<path d="M5.152,56.068H3.938v-2.096h0.278v1.85h0.937L5.152,56.068L5.152,56.068z"/>
				<path d="M5.633,56.068v-1.848H4.929v-0.248h1.686v0.248H5.911v1.848H5.633z"/>
				<path d="M8.451,56.068H8.089l-0.666-0.832H7.106v0.832H6.828v-2.096h0.54c0.12,0,0.221,0.008,0.301,0.021
					c0.081,0.012,0.159,0.043,0.231,0.091c0.074,0.047,0.132,0.105,0.175,0.184c0.043,0.073,0.064,0.166,0.064,0.274
					c0,0.151-0.039,0.283-0.117,0.388c-0.078,0.104-0.185,0.178-0.319,0.229L8.451,56.068z M7.849,54.564
					c0-0.063-0.012-0.115-0.033-0.162c-0.022-0.049-0.055-0.088-0.1-0.118c-0.04-0.025-0.085-0.043-0.138-0.054
					c-0.053-0.015-0.119-0.02-0.196-0.02H7.106v0.792h0.246c0.079,0,0.151-0.007,0.215-0.021c0.064-0.015,0.119-0.043,0.164-0.088
					c0.04-0.039,0.07-0.086,0.088-0.141C7.838,54.701,7.849,54.639,7.849,54.564z"/>
				<path d="M8.39,56.068l0.707-2.096H9.44l0.707,2.096H9.853l-0.19-0.584H8.861l-0.19,0.584H8.39z M9.585,55.247l-0.324-0.988
					l-0.322,0.988H9.585z"/>
				<path d="M12.768,56.068h-0.279v-1.023h-0.965v1.023h-0.279v-2.096h0.279v0.822h0.965v-0.822h0.279V56.068z"/>
				<path d="M14.845,55.023c0,0.19-0.039,0.365-0.116,0.52c-0.078,0.152-0.182,0.273-0.312,0.359
					c-0.105,0.065-0.213,0.111-0.323,0.135c-0.11,0.021-0.25,0.031-0.419,0.031h-0.483v-2.096h0.477
					c0.197,0,0.351,0.018,0.464,0.045c0.112,0.028,0.208,0.068,0.286,0.123c0.135,0.088,0.24,0.205,0.313,0.354
					C14.808,54.643,14.845,54.818,14.845,55.023z M14.555,55.02c0-0.162-0.026-0.299-0.08-0.412
					c-0.053-0.113-0.133-0.203-0.238-0.269c-0.073-0.045-0.153-0.077-0.238-0.098c-0.083-0.021-0.189-0.029-0.315-0.029h-0.213
					v1.617h0.213c0.124,0,0.232-0.011,0.325-0.028c0.092-0.021,0.178-0.058,0.255-0.109c0.096-0.063,0.169-0.151,0.218-0.264
					C14.532,55.318,14.555,55.184,14.555,55.02z"/>
			</g>
		</g>
		<g>
			<path fill="#F9EC31" d="M43.063,55.629V44.372h3.152v4.729l3.393-4.729h3.699l-4.274,5.45l4.39,5.808H49.48l-3.263-4.842v4.842
				L43.063,55.629L43.063,55.629z"/>
			<path fill="#F9EC31" d="M54.445,44.116h4.678l1.807,7.005l1.791-7.005h4.676v11.513h-2.914v-8.78l-2.244,8.78h-2.637l-2.242-8.78
				v8.78h-2.914V44.116L54.445,44.116z"/>
			<path fill="#F9EC31" d="M74.743,49.101h6.049c0.022,0.267,0.035,0.528,0.035,0.789c0,0.931-0.146,1.847-0.437,2.747
				c-0.305,0.911-0.869,1.688-1.705,2.334c-0.838,0.654-2.002,0.981-3.49,0.981c-0.836,0-1.629-0.125-2.379-0.369
				c-0.754-0.26-1.412-0.638-1.98-1.127c-0.579-0.506-1.027-1.127-1.352-1.866c-0.321-0.74-0.481-1.576-0.481-2.51
				c0-0.891,0.134-1.705,0.399-2.446c0.281-0.737,0.679-1.375,1.193-1.912c0.523-0.537,1.154-0.95,1.896-1.239
				c0.739-0.289,1.565-0.434,2.479-0.434c0.577,0,1.137,0.06,1.672,0.177c0.522,0.107,1.006,0.272,1.445,0.499
				c0.439,0.226,0.842,0.509,1.207,0.853c0.366,0.343,0.665,0.744,0.898,1.205l-2.781,1.305c-0.229-0.419-0.541-0.746-0.948-0.981
				s-0.881-0.354-1.416-0.354c-0.385,0-0.755,0.07-1.106,0.211c-0.355,0.141-0.668,0.35-0.936,0.626
				c-0.268,0.277-0.479,0.62-0.627,1.029c-0.148,0.419-0.227,0.884-0.227,1.397c0,0.708,0.13,1.326,0.387,1.854
				c0.271,0.521,0.634,0.919,1.098,1.188c0.459,0.276,0.969,0.416,1.525,0.416c0.634,0,1.181-0.172,1.643-0.516
				c0.448-0.343,0.738-0.805,0.866-1.382h-2.93L74.743,49.101L74.743,49.101z"/>
		</g>
		<rect x="85.953" y="40.771" width="13.297" height="18.457"/>
	</g>
	<text transform="matrix(1 0 0 1 87.4053 55.0332)" fill="#FFFFFF" font-family="'ArialMTTBold'" font-size="16.0844">1</text>
</g>
</svg>
