<?xml version="1.0" encoding="utf-8"?>
<!-- Generator: Adobe Illustrator 13.0.0, SVG Export Plug-In . SVG Version: 6.00 Build 14948)  -->
<!DOCTYPE svg PUBLIC "-//W3C//DTD SVG 1.1//EN" "http://www.w3.org/Graphics/SVG/1.1/DTD/svg11.dtd">
<svg version="1.1" id="Layer_1" xmlns="http://www.w3.org/2000/svg" xmlns:xlink="http://www.w3.org/1999/xlink" x="0px" y="0px"
	 width="100px" height="100px" viewBox="0 0 100 100" enable-background="new 0 0 100 100" xml:space="preserve">
<g>
	<polygon fill="#0F73D7" points="49.439,5.385 32.896,21.931 49.373,38.408 32.896,54.887 49.439,71.432 82.463,38.408 	"/>
	<polygon fill="#0658C8" points="65.951,38.408 82.463,38.408 49.439,5.385 41.16,13.671 	"/>
	<polygon fill="#0B42A8" points="65.676,38.408 82.477,38.408 49.451,71.432 41.051,63.033 	"/>
	<polygon fill="#068CF0" points="65.949,38.404 49.373,38.408 32.896,54.887 41.158,63.169 	"/>
	<polygon fill="#068CF0" points="32.896,21.934 49.423,5.408 49.421,21.934 	"/>
	<polygon fill="#0F73D7" points="49.42,71.432 32.896,54.906 49.42,54.908 	"/>
	<polygon fill="#0F73D7" points="31.975,53.854 16.524,38.402 31.975,38.404 	"/>
	<polygon fill="#068CF0" points="16.524,38.407 31.975,22.958 31.975,38.407 	"/>
	<polygon fill="#0658C8" points="31.98,22.958 47.432,38.407 31.98,38.407 	"/>
	<polygon fill="#0B42A8" points="47.432,38.41 31.98,53.861 31.98,38.41 	"/>
	<path fill="#E6E6E6" d="M4.796,94.338V78.711h4.722l2.835,10.66l2.804-10.66h4.733v15.627h-2.931V82.037l-3.102,12.301h-3.038
		L7.729,82.037v12.301H4.796z"/>
	<path fill="#E6E6E6" d="M37.119,94.338h-3.434l-1.364-3.549h-6.247l-1.29,3.549h-3.348l6.087-15.627h3.336L37.119,94.338z
		 M31.309,88.154l-2.154-5.799l-2.11,5.799H31.309z"/>
	<path fill="#E6E6E6" d="M37.993,89.254l3.07-0.299c0.185,1.029,0.56,1.787,1.125,2.271c0.565,0.483,1.327,0.725,2.287,0.725
		c1.017,0,1.782-0.215,2.297-0.645c0.516-0.432,0.772-0.934,0.772-1.51c0-0.369-0.108-0.684-0.325-0.943
		c-0.217-0.259-0.596-0.484-1.135-0.677c-0.37-0.128-1.211-0.354-2.527-0.683c-1.691-0.419-2.878-0.934-3.56-1.545
		c-0.959-0.86-1.439-1.908-1.439-3.146c0-0.796,0.226-1.539,0.677-2.232c0.451-0.692,1.102-1.221,1.951-1.582
		c0.85-0.363,1.875-0.545,3.076-0.545c1.961,0,3.438,0.431,4.428,1.291c0.992,0.858,1.513,2.008,1.563,3.441l-3.155,0.141
		c-0.136-0.803-0.425-1.381-0.869-1.732c-0.444-0.354-1.11-0.527-1.999-0.527c-0.917,0-1.635,0.188-2.153,0.564
		c-0.334,0.24-0.501,0.564-0.501,0.97c0,0.37,0.156,0.687,0.469,0.948c0.398,0.335,1.365,0.684,2.9,1.045
		c1.535,0.361,2.67,0.738,3.406,1.125c0.735,0.389,1.311,0.916,1.727,1.588c0.415,0.672,0.624,1.502,0.624,2.49
		c0,0.895-0.249,1.732-0.747,2.516c-0.497,0.781-1.201,1.362-2.11,1.742c-0.91,0.381-2.043,0.57-3.401,0.57
		c-1.976,0-3.493-0.456-4.552-1.369C38.832,92.332,38.199,91.002,37.993,89.254z"/>
	<path fill="#E6E6E6" d="M52.555,89.254l3.068-0.299c0.186,1.029,0.563,1.787,1.125,2.271c0.566,0.482,1.328,0.725,2.287,0.725
		c1.018,0,1.783-0.215,2.297-0.645c0.516-0.432,0.773-0.934,0.773-1.51c0-0.369-0.109-0.684-0.324-0.943
		c-0.217-0.259-0.598-0.484-1.137-0.677c-0.369-0.128-1.211-0.354-2.525-0.683c-1.691-0.419-2.879-0.934-3.561-1.545
		c-0.959-0.86-1.439-1.908-1.439-3.146c0-0.796,0.227-1.539,0.676-2.232c0.451-0.692,1.104-1.221,1.953-1.582
		c0.848-0.363,1.873-0.545,3.074-0.545c1.961,0,3.438,0.431,4.43,1.291c0.992,0.858,1.512,2.008,1.563,3.441l-3.156,0.141
		c-0.135-0.803-0.424-1.381-0.869-1.732c-0.443-0.354-1.109-0.527-1.998-0.527c-0.918,0-1.635,0.188-2.152,0.564
		c-0.334,0.24-0.5,0.564-0.5,0.97c0,0.37,0.154,0.687,0.469,0.948c0.396,0.335,1.365,0.684,2.896,1.045
		c1.537,0.361,2.672,0.738,3.406,1.125c0.736,0.389,1.314,0.916,1.729,1.588c0.416,0.672,0.623,1.502,0.623,2.49
		c0,0.895-0.248,1.732-0.746,2.516c-0.496,0.781-1.201,1.362-2.109,1.742c-0.91,0.381-2.043,0.57-3.4,0.57
		c-1.977,0-3.492-0.456-4.553-1.369C53.393,92.332,52.76,91.002,52.555,89.254z"/>
	<path fill="#0B42A8" d="M71.434,94.338V81.355h-4.637v-2.645h12.418v2.645h-4.627v12.982H71.434z"/>
	<path fill="#0B42A8" d="M85.238,94.338l-5.586-15.627h3.422l3.953,11.566l3.828-11.566h3.348l-5.598,15.627H85.238z"/>
</g>
</svg>
