<?xml version="1.0" encoding="utf-8"?>
<!-- Generator: Adobe Illustrator 13.0.0, SVG Export Plug-In . SVG Version: 6.00 Build 14948)  -->
<!DOCTYPE svg PUBLIC "-//W3C//DTD SVG 1.1//EN" "http://www.w3.org/Graphics/SVG/1.1/DTD/svg11.dtd">
<svg version="1.1" id="Layer_1" xmlns="http://www.w3.org/2000/svg" xmlns:xlink="http://www.w3.org/1999/xlink" x="0px" y="0px"
	 width="100px" height="100px" viewBox="0 0 100 100" enable-background="new 0 0 100 100" xml:space="preserve">
<g>
	<g>
		<rect x="0.041" y="30.84" fill="#EB2426" width="33.418" height="38.32"/>
		<rect x="34.127" y="30.84" fill="#34479B" width="30.746" height="38.32"/>
		<rect x="65.541" y="30.84" fill="#EB2426" width="33.418" height="38.32"/>
		<g>
			<path fill="#FFFFFF" d="M15.232,61.23L9.625,45.19L9.531,61.23H4.235V38.768h7.441l5.357,15.43l5.357-15.43h7.441V61.23h-5.294
				V45.19L18.834,61.23H15.232z"/>
			<path fill="#FFFFFF" d="M45.042,47.18l-0.063,14.052h-5.294V38.768h5.357l8.851,13.957l0.094-13.957h5.295V61.23h-5.389
				L45.042,47.18z"/>
		</g>
	</g>
	<path fill="#FFFFFF" d="M91.107,56.344c-0.881,0.055-9.449,0.025-9.449,0.025c1.57-1.421,2.801-2.536,3.92-3.676
		c1.172-1.206,2.205-2.373,3.098-3.504c0.604-0.752,1.109-1.517,1.52-2.291c0.322-0.624,0.543-1.167,0.66-1.63
		c0.119-0.484,0.178-0.974,0.178-1.469c0-0.754-0.203-1.455-0.613-2.106c-0.406-0.651-1.02-1.221-1.84-1.71
		c-0.816-0.49-1.742-0.837-2.773-1.041c-1.035-0.205-2.115-0.313-3.244-0.307c-4.357,0.021-6.932,0.687-9.74,1.158v5.18
		c1.539-0.487,3.672-1.293,4.357-1.4c0.832-0.129,1.627-0.193,2.381-0.193c0.549,0,1.037,0.049,1.469,0.146
		c0.43,0.097,0.795,0.226,1.098,0.388c0.301,0.161,0.521,0.357,0.66,0.589c0.143,0.232,0.211,0.503,0.211,0.815
		c0,0.237-0.043,0.468-0.129,0.694c-0.119,0.322-0.361,0.727-0.727,1.211c-0.637,0.817-1.42,1.717-2.357,2.695
		c-1.172,1.229-2.518,2.541-4.033,3.939c-0.893,0.82-1.871,1.666-2.93,2.537v4.688c2.375-0.02,5.236-0.029,8.594-0.029
		c2.734,0,6.965,0.01,9.693,0.028v-4.737H91.107z"/>
</g>
</svg>
