<?xml version="1.0" encoding="utf-8"?>
<!-- Generator: Adobe Illustrator 13.0.0, SVG Export Plug-In . SVG Version: 6.00 Build 14948)  -->
<!DOCTYPE svg PUBLIC "-//W3C//DTD SVG 1.1//EN" "http://www.w3.org/Graphics/SVG/1.1/DTD/svg11.dtd">
<svg version="1.1" id="Layer_1" xmlns="http://www.w3.org/2000/svg" xmlns:xlink="http://www.w3.org/1999/xlink" x="0px" y="0px"
	 width="100px" height="100px" viewBox="0 0 100 100" enable-background="new 0 0 100 100" xml:space="preserve">
<g>
	<rect x="0.657" y="31.079" fill="#EB2426" width="33.001" height="37.842"/>
	<rect x="34.319" y="31.079" fill="#34479B" width="30.362" height="37.842"/>
	<rect x="65.341" y="31.079" fill="#EB2426" width="33.002" height="37.842"/>
	<g>
		<path fill="#FFFFFF" d="M15.66,61.093l-5.539-15.842l-0.093,15.842H4.8V38.908h7.349l5.291,15.235l5.291-15.235h7.348v22.185
			h-5.229V45.25l-5.631,15.843H15.66L15.66,61.093z"/>
		<path fill="#FFFFFF" d="M45.096,47.215l-0.061,13.877h-5.229V38.908h5.291l8.74,13.784l0.094-13.784h5.229v22.185h-5.321
			L45.096,47.215z"/>
		<path fill="#FFFFFF" d="M72.405,38.908h11.123c2.33,0,4.055,0.508,5.168,1.524s1.67,2.39,1.67,4.123
			c0,1.113-0.283,2.05-0.851,2.808c-0.567,0.757-1.496,1.364-2.784,1.818c1.506,0.35,2.67,1.018,3.487,2.003
			c0.819,0.982,1.229,2.214,1.229,3.688c0,1.96-0.657,3.487-1.973,4.579c-1.316,1.094-3.486,1.643-6.521,1.643H72.405V38.908z
			 M77.635,43.224v4.424h4.812c0.848,0,1.479-0.211,1.903-0.634c0.197-0.196,0.36-0.433,0.496-0.712
			c0.134-0.279,0.199-0.588,0.199-0.928c0-0.628-0.235-1.145-0.711-1.546c-0.474-0.402-1.177-0.604-2.104-0.604H77.635
			L77.635,43.224z M77.635,51.748v5.026h5.415c0.764,0,1.436-0.207,2.011-0.624c0.577-0.417,0.866-1.045,0.866-1.88
			c0-0.855-0.293-1.49-0.882-1.903c-0.586-0.412-1.476-0.619-2.66-0.619H77.635z"/>
	</g>
</g>
</svg>
