<?xml version="1.0" encoding="utf-8"?>
<!-- Generator: Adobe Illustrator 13.0.0, SVG Export Plug-In . SVG Version: 6.00 Build 14948)  -->
<!DOCTYPE svg PUBLIC "-//W3C//DTD SVG 1.1//EN" "http://www.w3.org/Graphics/SVG/1.1/DTD/svg11.dtd">
<svg version="1.1" id="Layer_1" xmlns="http://www.w3.org/2000/svg" xmlns:xlink="http://www.w3.org/1999/xlink" x="0px" y="0px"
	 width="100px" height="100px" viewBox="0 0 100 100" enable-background="new 0 0 100 100" xml:space="preserve">
<g>
	<g>
		<rect x="0.343" y="31.099" fill="#0067D1" width="30.412" height="29.627"/>
		<rect x="34.294" y="31.099" fill="#0067D1" width="30.411" height="29.627"/>
		<rect x="68.245" y="31.099" fill="#0067D1" width="30.412" height="29.627"/>
	</g>
	<g>
		<path fill="#0067D1" d="M5.092,64.081v4.757H4.407v-3.703l-1.479,1.843H2.817l-1.466-1.843l-0.013,3.703H0.655v-4.757h0.642
			l1.577,1.954l1.583-1.954H5.092z"/>
		<path fill="#0067D1" d="M5.907,66.46c0-0.679,0.232-1.251,0.698-1.715c0.482-0.484,1.102-0.727,1.854-0.727
			c0.766,0,1.391,0.238,1.869,0.719c0.461,0.461,0.69,1.033,0.69,1.723c0,0.67-0.228,1.238-0.684,1.704
			c-0.483,0.491-1.113,0.737-1.89,0.737c-0.758,0-1.376-0.244-1.855-0.731C6.136,67.705,5.907,67.135,5.907,66.46z M6.612,66.46
			c0,0.521,0.175,0.953,0.522,1.297c0.35,0.346,0.79,0.518,1.326,0.518c0.53,0,0.972-0.172,1.325-0.518
			c0.353-0.344,0.53-0.775,0.53-1.297c0-0.525-0.177-0.959-0.527-1.3c-0.351-0.343-0.794-0.515-1.329-0.515
			c-0.53,0-0.971,0.172-1.322,0.515C6.787,65.501,6.612,65.935,6.612,66.46z"/>
		<path fill="#0067D1" d="M16.258,64.081v4.757h-0.586l-3.18-3.661v3.661H11.85v-4.757h0.544l3.223,3.684v-3.684H16.258z"/>
		<path fill="#0067D1" d="M21.476,66.495v2.016c-0.592,0.262-1.195,0.391-1.814,0.391c-0.73,0-1.334-0.228-1.813-0.684
			c-0.479-0.455-0.719-1.031-0.719-1.729s0.244-1.283,0.732-1.758c0.487-0.476,1.096-0.711,1.82-0.711
			c0.278,0,0.538,0.027,0.777,0.084c0.24,0.055,0.544,0.162,0.918,0.32v0.688c-0.569-0.309-1.138-0.467-1.71-0.467
			c-0.516,0-0.95,0.176-1.304,0.523c-0.354,0.35-0.531,0.781-0.531,1.297c0,0.526,0.181,0.958,0.542,1.299
			c0.359,0.338,0.822,0.51,1.383,0.51c0.164,0,0.332-0.019,0.503-0.051c0.171-0.031,0.349-0.078,0.529-0.139v-0.979h-0.913v-0.612
			L21.476,66.495L21.476,66.495z"/>
		<path fill="#0067D1" d="M22.257,66.46c0-0.679,0.231-1.251,0.696-1.715c0.483-0.484,1.102-0.727,1.855-0.727
			c0.768,0,1.392,0.238,1.869,0.719c0.461,0.461,0.691,1.033,0.691,1.723c0,0.67-0.229,1.238-0.685,1.704
			c-0.482,0.491-1.111,0.737-1.89,0.737c-0.757,0-1.376-0.244-1.854-0.731C22.483,67.705,22.257,67.135,22.257,66.46z M22.96,66.46
			c0,0.521,0.175,0.953,0.524,1.297c0.349,0.346,0.789,0.518,1.324,0.518c0.53,0,0.973-0.172,1.324-0.518
			c0.354-0.344,0.532-0.775,0.532-1.297c0-0.525-0.177-0.959-0.528-1.3c-0.35-0.343-0.794-0.515-1.328-0.515
			c-0.529,0-0.97,0.172-1.321,0.515C23.136,65.501,22.96,65.935,22.96,66.46z"/>
		<path fill="#0067D1" d="M28.882,64.081v4.145h2.149v0.612h-2.832v-4.757H28.882z"/>
		<path fill="#0067D1" d="M32.315,64.081v4.757h-0.685v-4.757H32.315z"/>
		<path fill="#0067D1" d="M35.369,64.062l2.127,4.776h-0.698l-0.635-1.401h-2.022l-0.6,1.401h-0.696l2.042-4.776H35.369z
			 M35.117,65.106l-0.711,1.715h1.479L35.117,65.106z"/>
		<path fill="#0067D1" d="M42.421,64.081v4.757h-0.586l-3.18-3.661v3.661h-0.643v-4.757h0.545l3.222,3.684v-3.684H42.421z"/>
		<path fill="#0067D1" d="M49.807,64.081v4.757H49.22l-3.179-3.661v3.661h-0.643v-4.757h0.545l3.221,3.684v-3.684H49.807z"/>
		<path fill="#0067D1" d="M53.553,64.081v0.615h-2.018v1.437h1.947v0.612h-1.947v1.479h2.079v0.613h-2.763V64.08L53.553,64.081
			L53.553,64.081z"/>
		<path fill="#0067D1" d="M61.078,64.081l-1.932,4.8h-0.133l-1.563-3.894l-1.576,3.894h-0.131l-1.926-4.8h0.684l1.311,3.279
			l1.318-3.279h0.648l1.327,3.279l1.296-3.279H61.078z"/>
		<path fill="#0067D1" d="M63.868,64.354v0.773c-0.19-0.182-0.378-0.309-0.565-0.383c-0.186-0.076-0.367-0.112-0.551-0.112
			c-0.223,0-0.404,0.052-0.544,0.152c-0.139,0.103-0.209,0.239-0.209,0.413c0,0.24,0.177,0.472,0.53,0.689
			c0.65,0.403,0.98,0.611,0.99,0.621c0.357,0.303,0.537,0.669,0.537,1.102c0,0.377-0.127,0.688-0.377,0.929
			c-0.252,0.242-0.568,0.362-0.957,0.362c-0.496,0-0.939-0.147-1.33-0.439v-0.863c0.356,0.459,0.773,0.689,1.256,0.689
			c0.246,0,0.438-0.063,0.57-0.186c0.135-0.123,0.203-0.262,0.203-0.414c0-0.267-0.178-0.522-0.531-0.769
			c-0.33-0.214-0.659-0.43-0.989-0.649c-0.358-0.287-0.538-0.615-0.538-0.981c0-0.392,0.132-0.7,0.393-0.929
			c0.26-0.228,0.61-0.342,1.053-0.342C63.18,64.021,63.533,64.131,63.868,64.354z"/>
		<path fill="#0067D1" d="M70.797,64.409v0.73c-0.568-0.326-1.115-0.494-1.641-0.494c-0.545,0-0.997,0.174-1.357,0.521
			c-0.359,0.348-0.539,0.779-0.539,1.3c0,0.536,0.176,0.97,0.528,1.306c0.354,0.334,0.819,0.502,1.396,0.502
			c0.554,0,1.106-0.178,1.66-0.537v0.746c-0.262,0.136-0.525,0.238-0.795,0.312c-0.271,0.072-0.578,0.106-0.929,0.106
			c-0.817,0-1.47-0.27-1.952-0.808c-0.408-0.462-0.613-0.983-0.613-1.563c0-0.729,0.244-1.33,0.735-1.803
			c0.49-0.472,1.114-0.707,1.872-0.707C69.627,64.021,70.172,64.149,70.797,64.409z"/>
		<path fill="#0067D1" d="M75.713,64.081v4.757h-0.685v-2.071h-2.664v2.071h-0.683v-4.757h0.683v2.072h2.664v-2.072H75.713z"/>
		<path fill="#0067D1" d="M78.766,64.062l2.129,4.776h-0.697l-0.637-1.401h-2.022l-0.599,1.401h-0.697l2.042-4.776H78.766z
			 M78.516,65.106l-0.711,1.715h1.479L78.516,65.106z"/>
		<path fill="#0067D1" d="M85.818,64.081v4.757h-0.586l-3.18-3.661v3.661H81.41v-4.757h0.545l3.223,3.684v-3.684H85.818z"/>
		<path fill="#0067D1" d="M91.266,64.081v4.757H90.68l-3.182-3.661v3.661h-0.641v-4.757H87.4l3.223,3.684v-3.684H91.266z"/>
		<path fill="#0067D1" d="M95.012,64.081v0.615h-2.017v1.437h1.946v0.612h-1.946v1.479h2.078v0.613h-2.763V64.08L95.012,64.081
			L95.012,64.081z"/>
		<path fill="#0067D1" d="M96.477,64.081v4.145h2.146v0.612h-2.831v-4.757H96.477z"/>
	</g>
	<g>
		<path fill="#FFFFFF" d="M24.513,36.179v19.467h-2.797V40.488l-6.051,7.536h-0.456l-5.995-7.536L9.157,55.646H6.361V36.179h2.626
			l6.449,7.991l6.479-7.991H24.513z"/>
		<path fill="#FFFFFF" d="M58.932,36.179v19.467h-2.396L43.521,40.659v14.984h-2.627V36.179h2.227L56.309,51.25V36.179H58.932z"/>
		<path fill="#FFFFFF" d="M92.012,37.521v2.998c-2.322-1.352-4.557-2.026-6.707-2.026c-2.226,0-4.076,0.709-5.551,2.127
			c-1.476,1.417-2.212,3.191-2.212,5.321c0,2.188,0.724,3.968,2.169,5.338c1.444,1.371,3.348,2.056,5.707,2.056
			c2.264,0,4.529-0.731,6.793-2.196v3.051c-1.064,0.554-2.15,0.977-3.254,1.271c-1.104,0.294-2.367,0.441-3.795,0.441
			c-3.35,0-6.014-1.103-7.99-3.311c-1.676-1.885-2.512-4.015-2.512-6.395c0-2.986,1.002-5.446,3.01-7.378
			c2.008-1.931,4.562-2.896,7.663-2.896C87.237,35.922,89.463,36.456,92.012,37.521z"/>
	</g>
</g>
</svg>
