<?xml version="1.0" encoding="utf-8"?>
<!-- Generator: Adobe Illustrator 16.0.0, SVG Export Plug-In . SVG Version: 6.00 Build 0)  -->
<!DOCTYPE svg PUBLIC "-//W3C//DTD SVG 1.1//EN" "http://www.w3.org/Graphics/SVG/1.1/DTD/svg11.dtd">
<svg version="1.1" id="Layer_1" xmlns="http://www.w3.org/2000/svg" xmlns:xlink="http://www.w3.org/1999/xlink" x="0px" y="0px"
	 width="100px" height="100px" viewBox="0 0 100 100" enable-background="new 0 0 100 100" xml:space="preserve">
<g>
	<path fill-rule="evenodd" clip-rule="evenodd" fill="#FFFFFF" d="M31.036,44.606c-0.242,0-0.205-0.023-0.295,0.196
		c-0.767,1.852-1.532,3.703-2.298,5.555c-0.378,0.917-0.758,1.833-1.135,2.751c-0.04,0.097-0.076,0.187-0.22,0.123
		c-0.027-0.063-0.06-0.134-0.089-0.204c-1.137-2.744-2.274-5.487-3.411-8.23c-0.087-0.211-0.056-0.19-0.28-0.19
		c-1.457,0-2.913,0-4.37,0c-0.069,0-0.137,0.006-0.204,0.01v10.778h2.554c0.003-0.077,0.009-0.147,0.009-0.217
		c0.001-0.687,0-1.371,0-2.058c0-2.038,0-4.075,0.001-6.113c0-0.082,0.008-0.163,0.013-0.247h0.329
		c1.23,2.88,2.461,5.758,3.69,8.635h3.669c1.234-2.88,2.468-5.757,3.699-8.63h0.347v8.625h2.565V44.606h-0.222
		C33.937,44.606,32.486,44.606,31.036,44.606z M75.918,44.781c-0.552-0.123-1.108-0.172-1.672-0.173
		c-1.613-0.005-3.226-0.005-4.839,0c-0.588,0.001-1.173,0.047-1.75,0.177c-1.117,0.25-1.794,0.928-2.025,2.052
		c-0.093,0.449-0.141,0.903-0.143,1.361c-0.005,1.234-0.005,2.469,0,3.703c0.001,0.432,0.048,0.86,0.152,1.28
		c0.183,0.735,0.557,1.337,1.237,1.705c0.218,0.118,0.45,0.21,0.687,0.283c0.592,0.182,1.205,0.227,1.819,0.23
		c0.823,0.006,1.646,0.002,2.469,0.002c0.811,0,1.619,0.003,2.43-0.002c0.596-0.004,1.188-0.049,1.768-0.192
		c1.04-0.255,1.686-0.892,1.91-1.946c0.083-0.385,0.137-0.773,0.139-1.166c0.006-1.338,0.006-2.677,0-4.017
		c-0.002-0.425-0.06-0.846-0.155-1.261C77.69,45.72,77.03,45.03,75.918,44.781z M75.519,51.557
		c-0.001,0.247-0.034,0.495-0.078,0.738c-0.09,0.502-0.407,0.794-0.904,0.873c-0.301,0.047-0.609,0.073-0.915,0.081
		c-0.601,0.013-1.202,0.003-1.802,0.003c-0.608,0-1.216,0.008-1.823-0.003c-0.272-0.004-0.549-0.026-0.817-0.073
		c-0.65-0.11-0.972-0.447-1.065-1.099c-0.026-0.187-0.043-0.377-0.044-0.565c-0.003-0.96-0.001-1.92-0.002-2.88
		c0-0.315,0.04-0.626,0.125-0.93c0.123-0.449,0.406-0.745,0.865-0.835c0.312-0.062,0.634-0.105,0.95-0.109
		c1.188-0.013,2.378-0.009,3.566-0.002c0.255,0.002,0.509,0.029,0.761,0.068c0.696,0.109,1.044,0.469,1.142,1.169
		c0.026,0.187,0.043,0.377,0.044,0.565C75.525,49.558,75.528,50.558,75.519,51.557z M49.879,46.935
		c-0.225-1.168-0.899-1.91-2.085-2.162c-0.54-0.114-1.084-0.163-1.633-0.164c-1.62-0.004-3.239-0.005-4.86,0
		c-0.587,0.001-1.172,0.048-1.75,0.18c-1.081,0.248-1.76,0.9-1.99,1.991c-0.073,0.344-0.132,0.696-0.137,1.046
		c-0.021,1.345-0.024,2.691-0.018,4.035c0.001,0.358,0.037,0.719,0.097,1.072c0.205,1.212,0.904,1.979,2.104,2.277
		c0.561,0.14,1.133,0.188,1.709,0.192c0.816,0.003,1.632,0,2.448,0c0.817,0,1.633,0.005,2.45-0.002
		c0.627-0.006,1.25-0.055,1.86-0.224c0.957-0.265,1.552-0.871,1.78-1.838c0.086-0.37,0.146-0.745,0.148-1.124
		c0.005-1.404,0.012-2.809-0.002-4.212C49.998,47.646,49.947,47.286,49.879,46.935z M47.441,51.476
		c-0.002,0.301-0.024,0.601-0.102,0.894c-0.108,0.408-0.36,0.67-0.773,0.773c-0.319,0.08-0.644,0.106-0.972,0.108
		c-0.621,0.003-1.241,0.001-1.861,0.001l0,0c-0.621,0-1.241,0.001-1.862,0c-0.327-0.001-0.652-0.031-0.97-0.115
		c-0.428-0.112-0.716-0.377-0.814-0.811c-0.061-0.266-0.102-0.541-0.105-0.813c-0.012-0.96-0.012-1.92,0-2.88
		c0.003-0.278,0.049-0.559,0.103-0.834c0.108-0.569,0.474-0.884,1.037-0.97c0.264-0.041,0.532-0.072,0.798-0.073
		c1.189-0.008,2.377-0.012,3.566,0.001c0.318,0.003,0.639,0.048,0.951,0.109c0.49,0.097,0.799,0.408,0.901,0.896
		c0.06,0.292,0.097,0.594,0.101,0.892C47.451,49.595,47.445,50.535,47.441,51.476z M52.619,44.856c0,2.103,0.001,4.206,0,6.31
		c-0.001,0.386-0.015,0.771-0.097,1.149c-0.125,0.573-0.4,0.826-0.98,0.901c-0.16,0.021-0.321,0.034-0.488,0.051v2.106
		c0.032,0.014,0.043,0.023,0.055,0.023c0.522-0.01,1.049,0.016,1.566-0.04c0.959-0.102,1.676-0.591,2.079-1.482
		c0.132-0.288,0.224-0.599,0.298-0.907c0.127-0.51,0.144-1.034,0.144-1.558c0.002-1.463,0.001-2.927,0.001-4.39v-0.242
		c0.248-0.044,5.911-0.034,6.048,0.005c0.002,0.007,0.004,0.013,0.005,0.02c0.003,0.012,0.005,0.025,0.005,0.038
		c0.001,2.802,0.002,5.604,0.002,8.406c0,0.02,0.001,0.039,0.001,0.059c0,0.006,0,0.014,0.001,0.021
		c0.003,0.012,0.005,0.025,0.009,0.037c0.001,0.006,0.008,0.011,0.012,0.016s0.009,0.009,0.013,0.012h2.535V44.62H52.619V44.856z
		 M90.722,46.898c-0.251-1.124-0.915-1.85-2.051-2.123c-0.557-0.136-1.122-0.168-1.689-0.169c-2.339-0.001-4.678,0-7.016,0h-0.232
		v10.784h2.568v-3.178h4.699c0.504,0,1.005-0.028,1.499-0.137c1.196-0.264,1.947-0.977,2.216-2.182
		c0.09-0.41,0.133-0.825,0.145-1.243C90.878,48.063,90.85,47.476,90.722,46.898z M88.273,48.666
		c-0.017,0.187-0.048,0.376-0.097,0.558c-0.104,0.385-0.359,0.638-0.742,0.732c-0.251,0.063-0.516,0.104-0.772,0.105
		c-1.404,0.01-2.809,0.005-4.213,0.005c-0.039,0-0.077-0.006-0.137-0.011v-3.291c0.066-0.005,0.123-0.012,0.18-0.012
		c1.372,0,2.744-0.001,4.115,0.001c0.281,0,0.56,0.027,0.832,0.105c0.377,0.108,0.618,0.352,0.734,0.722
		C88.285,47.935,88.31,48.299,88.273,48.666z"/>
	<path fill-rule="evenodd" clip-rule="evenodd" fill="#FFCC00" d="M11.825,40.84c-0.295-0.97-0.964-1.573-1.948-1.822
		c-0.106-0.026-0.214-0.047-0.321-0.07H9.006C8.924,38.965,8.843,38.981,8.762,39c-1.011,0.235-1.708,0.838-2.013,1.828
		c-0.305,0.992-0.07,1.884,0.64,2.643c0.209,0.224,0.433,0.436,0.65,0.651c0.03,0.03,0.066,0.056,0.109,0.092
		c0.29-0.292,0.571-0.573,0.851-0.855c0.022-0.022,0.039-0.05,0.064-0.082c-0.048-0.051-0.092-0.098-0.138-0.145
		c-0.198-0.198-0.401-0.392-0.594-0.597c-0.327-0.348-0.445-0.76-0.342-1.229c0.144-0.65,0.772-1.094,1.448-1.023
		c0.648,0.068,1.164,0.629,1.18,1.281c0.01,0.409-0.145,0.747-0.433,1.033c-1.077,1.073-2.151,2.151-3.228,3.226
		c-0.051,0.05-0.115,0.086-0.156,0.117c0.336,0.336,0.643,0.642,0.955,0.953c0.003-0.003,0.025-0.017,0.043-0.034
		c1.141-1.141,2.295-2.267,3.416-3.427C11.916,42.704,12.12,41.81,11.825,40.84z M16.798,50.925
		c-0.205-0.219-0.423-0.426-0.636-0.638c-0.027-0.027-0.057-0.05-0.056-0.049c-0.315,0.315-0.621,0.622-0.951,0.953
		c0.03,0.022,0.088,0.057,0.134,0.102c0.191,0.188,0.383,0.375,0.567,0.567c0.384,0.401,0.492,0.979,0.26,1.471
		c-0.247,0.521-0.667,0.787-1.247,0.786c-0.38-0.001-0.689-0.164-0.955-0.431c-1.078-1.081-2.159-2.16-3.239-3.24
		c-0.05-0.05-0.102-0.098-0.142-0.136c-0.315,0.315-0.619,0.618-0.939,0.938c0.117,0.115,0.234,0.228,0.349,0.343
		c1.025,1.024,2.044,2.055,3.076,3.072c0.676,0.667,1.498,0.922,2.425,0.722c1.014-0.216,1.702-0.843,1.998-1.838
		C17.737,52.563,17.503,51.678,16.798,50.925z M5.162,53.262c-0.168,0.174-0.336,0.348-0.513,0.511
		c-0.398,0.37-0.973,0.469-1.456,0.236c-0.512-0.245-0.776-0.661-0.778-1.232c-0.001-0.388,0.165-0.702,0.436-0.972
		c1.077-1.073,2.151-2.15,3.227-3.226c0.05-0.05,0.099-0.102,0.122-0.126c-0.316-0.317-0.624-0.623-0.933-0.933
		c0.01-0.007-0.003-0.002-0.012,0.007c-1.154,1.154-2.319,2.298-3.457,3.467c-0.601,0.618-0.813,1.388-0.675,2.24
		c0.31,1.902,2.493,2.848,4.095,1.778c0.394-0.264,0.688-0.633,1.016-0.944c-0.313-0.313-0.617-0.615-0.96-0.959
		C5.239,53.156,5.207,53.215,5.162,53.262z M13.715,49.713c0.302-0.301,0.602-0.601,0.889-0.889c-1.38-1.38-2.759-2.759-4.109-4.108
		c-0.291,0.291-0.597,0.598-0.904,0.903C10.075,46.157,13.582,49.637,13.715,49.713z"/>
	<path fill-rule="evenodd" clip-rule="evenodd" fill="#FFFFFF" d="M10.514,55.807c-0.319,0.32-0.625,0.627-0.945,0.946
		c0.224,0.22,0.467,0.446,0.696,0.688c0.335,0.351,0.458,0.771,0.345,1.245c-0.149,0.637-0.742,1.073-1.395,1.015
		c-0.701-0.063-1.218-0.617-1.229-1.295c-0.006-0.4,0.146-0.733,0.428-1.015c1.092-1.089,2.181-2.181,3.27-3.27
		c0.049-0.05,0.095-0.102,0.125-0.134c-0.315-0.315-0.618-0.618-0.933-0.933c-0.038,0.037-0.089,0.086-0.139,0.135
		c-0.651,0.651-1.302,1.303-1.954,1.955c-0.457,0.457-0.925,0.903-1.368,1.374c-0.712,0.754-0.942,1.651-0.633,2.642
		c0.307,0.983,0.996,1.585,2.001,1.817c0.088,0.021,0.174,0.05,0.262,0.074c0.183,0,0.366,0,0.548,0
		c0.087-0.025,0.173-0.057,0.261-0.074c1.863-0.381,2.735-2.556,1.649-4.118C11.222,56.455,10.833,56.151,10.514,55.807z
		 M3.785,45.848c0.355,0.021,0.647,0.176,0.898,0.427c1.069,1.074,2.142,2.144,3.213,3.215c0.05,0.05,0.102,0.098,0.125,0.119
		c0.315-0.315,0.622-0.621,0.933-0.933c-0.025-0.027-0.069-0.075-0.115-0.121c-1.066-1.067-2.133-2.134-3.2-3.2
		c-0.055-0.056-0.11-0.112-0.17-0.163c-0.781-0.658-1.666-0.857-2.633-0.522c-0.959,0.332-1.533,1.025-1.749,2.016
		c-0.017,0.075-0.05,0.146-0.075,0.219c0,0.183,0,0.366,0,0.549c0.025,0.072,0.061,0.143,0.075,0.218
		c0.076,0.398,0.217,0.773,0.478,1.082c0.307,0.362,0.648,0.696,0.956,1.023c0.325-0.324,0.633-0.631,0.946-0.942
		c-0.031-0.033-0.076-0.08-0.121-0.126c-0.203-0.203-0.411-0.402-0.608-0.611c-0.381-0.403-0.475-0.978-0.247-1.473
		C2.719,46.121,3.225,45.814,3.785,45.848z M17.452,46.633c-0.215-1.006-0.837-1.691-1.821-1.993
		c-0.993-0.305-1.882-0.067-2.641,0.643c-0.181,0.17-0.353,0.35-0.527,0.525c-0.036,0.036-0.067,0.076-0.086,0.099
		c0.313,0.313,0.615,0.615,0.927,0.928c0.034-0.031,0.081-0.073,0.126-0.118c0.182-0.179,0.352-0.37,0.544-0.535
		c0.427-0.364,0.914-0.446,1.424-0.215s0.773,0.646,0.784,1.21c0.007,0.396-0.157,0.718-0.434,0.993
		c-1.087,1.083-2.17,2.169-3.257,3.253c-0.051,0.051-0.116,0.087-0.162,0.12c0.334,0.334,0.638,0.638,0.958,0.957
		c0.044-0.042,0.096-0.091,0.146-0.141c0.753-0.752,1.505-1.505,2.258-2.258c0.351-0.351,0.708-0.696,1.052-1.054
		C17.395,48.367,17.648,47.552,17.452,46.633z M9.021,54.378c-1.366-1.365-2.745-2.743-4.116-4.113
		c-0.289,0.29-0.593,0.593-0.878,0.88c1.375,1.375,2.752,2.753,4.114,4.113C8.427,54.973,8.729,54.67,9.021,54.378z M7.776,52.354
		c1.28-1.279,2.57-2.569,3.837-3.836c-0.293-0.294-0.599-0.599-0.881-0.88c-1.272,1.271-2.562,2.56-3.838,3.836
		C7.183,51.762,7.486,52.065,7.776,52.354z"/>
	<path fill-rule="evenodd" clip-rule="evenodd" fill="#FFCC00" d="M95.499,47.722c0-1.052,0-2.08,0-3.118
		c0.063-0.004,0.113-0.01,0.165-0.01c0.75-0.001,1.501-0.002,2.251,0.001c0.124,0.001,0.247,0.015,0.37,0.036
		c0.412,0.071,0.686,0.357,0.701,0.773c0.018,0.508,0.018,1.018,0,1.526c-0.017,0.456-0.321,0.734-0.818,0.79
		c-0.077,0.01-0.155,0.01-0.233,0.01c-0.758,0.001-1.515,0.001-2.271,0.001C95.611,47.731,95.561,47.726,95.499,47.722z
		 M96.248,47.093c0.548,0,1.081,0.015,1.613-0.006c0.275-0.011,0.389-0.149,0.404-0.434c0.016-0.266,0.009-0.533,0.008-0.801
		c0-0.084-0.008-0.169-0.02-0.253c-0.027-0.188-0.139-0.306-0.325-0.343c-0.107-0.021-0.22-0.035-0.329-0.036
		c-0.397-0.004-0.795-0.002-1.192-0.001c-0.051,0-0.101,0.007-0.159,0.012C96.248,45.853,96.248,46.463,96.248,47.093z"/>
	<path fill-rule="evenodd" clip-rule="evenodd" fill="#FFCC00" d="M91.557,44.599c0.248,0,0.475,0,0.728,0
		c0.019,0.392-0.001,0.78,0.012,1.166c0.144,0.045,1.541,0.061,1.914,0.021c0.025-0.194,0.01-0.395,0.013-0.594
		c0.003-0.194,0-0.387,0-0.587c0.265,0,0.503,0,0.75,0c0,1.04,0,2.068,0,3.121c-0.241,0.012-0.479,0.005-0.739,0.005
		c0-0.432,0-0.853,0-1.267c-0.159-0.046-1.544-0.062-1.932-0.024c0,0.418,0,0.838,0,1.279c-0.257,0.025-0.494,0.007-0.745,0.013
		C91.557,46.684,91.557,45.65,91.557,44.599z"/>
</g>
</svg>
