<?xml version="1.0" encoding="utf-8"?>
<!-- Generator: Adobe Illustrator 13.0.0, SVG Export Plug-In . SVG Version: 6.00 Build 14948)  -->
<!DOCTYPE svg PUBLIC "-//W3C//DTD SVG 1.1//EN" "http://www.w3.org/Graphics/SVG/1.1/DTD/svg11.dtd">
<svg version="1.1" id="Layer_1" xmlns="http://www.w3.org/2000/svg" xmlns:xlink="http://www.w3.org/1999/xlink" x="0px" y="0px"
	 width="100px" height="100px" viewBox="0 0 100 100" enable-background="new 0 0 100 100" xml:space="preserve">
<g>
	<rect x="62.393" y="25.14" fill="#FD0100" width="35.396" height="28.82"/>
	<polygon fill="#FFFFFF" points="91.424,49.915 91.424,26.15 81.186,27.5 81.186,30.259 86.453,30.28 86.453,49.915 81.311,49.915 
		81.311,53.37 86.453,53.37 91.424,53.37 96.566,53.37 96.566,49.915 	"/>
	<rect x="53.797" y="48.397" opacity="0.4" enable-background="new    " width="31.182" height="26.463"/>
	<g>
		<rect x="1.211" y="36.358" width="72.978" height="27.475"/>
		<g>
			<path fill="#FFFFFF" d="M12.844,60.009V40.181h4.393l8.033,12.123h0.044V40.181h4.397v19.828h-4.385l-8.041-12.147h-0.044v12.147
				H12.844z"/>
			<path fill="#FFFFFF" d="M41.382,60.009h-7.891V40.181h7.316c3.901,0,5.851,1.717,5.851,5.149c0,1.961-0.722,3.309-2.167,4.045
				v0.052c1.351,0.18,2.358,0.708,3.02,1.585c0.664,0.877,0.995,2.037,0.995,3.476c0,1.916-0.682,3.316-2.053,4.198
				C45.085,59.569,43.395,60.009,41.382,60.009z M38.617,44.123v3.84h0.574c0.824,0,1.492-0.129,2-0.386
				c0.511-0.258,0.764-0.771,0.764-1.54c0-0.789-0.266-1.307-0.801-1.554c-0.273-0.122-0.584-0.21-0.932-0.27
				c-0.348-0.06-0.765-0.09-1.248-0.09H38.617z M38.617,51.802v4.265h0.648c1.243,0,2.23-0.129,2.965-0.385
				c0.734-0.258,1.103-0.831,1.103-1.722c0-0.898-0.305-1.482-0.913-1.754c-0.607-0.269-1.408-0.404-2.403-0.404h-0.879H38.617z"/>
			<path fill="#FFFFFF" d="M62.287,41.284l-1.83,3.995c-0.945-0.882-1.961-1.322-3.043-1.322c-0.48,0-0.93,0.149-1.346,0.449
				c-0.416,0.3-0.625,0.703-0.625,1.208c0,0.522,0.182,0.905,0.539,1.149c0.359,0.243,0.857,0.494,1.5,0.751l1.166,0.398
				c1.363,0.445,2.432,1.085,3.203,1.921c0.77,0.833,1.154,2,1.154,3.5c0,2.377-0.605,4.156-1.818,5.328
				c-1.316,1.25-2.992,1.875-5.021,1.875c-2.197,0-4.264-0.754-6.201-2.26l1.968-4.16c0.693,0.692,1.375,1.209,2.043,1.547
				c0.666,0.338,1.344,0.508,2.029,0.508c0.588,0,1.107-0.168,1.557-0.502s0.676-0.836,0.676-1.502c0-0.633-0.238-1.09-0.715-1.366
				c-0.479-0.279-1.17-0.578-2.078-0.894c-1.127-0.353-2.016-0.713-2.658-1.081c-0.645-0.368-1.158-0.914-1.545-1.638
				c-0.387-0.722-0.578-1.684-0.578-2.883c0-1.317,0.26-2.483,0.777-3.492c0.52-1.011,1.244-1.79,2.174-2.339
				c0.932-0.547,1.979-0.821,3.146-0.821c0.93,0,1.879,0.145,2.852,0.436c0.26,0.077,0.5,0.157,0.73,0.237
				c0.229,0.083,0.461,0.179,0.697,0.29C61.48,40.798,61.896,41.019,62.287,41.284z"/>
		</g>
	</g>
</g>
</svg>
