<?xml version="1.0" encoding="utf-8"?>
<!-- Generator: Adobe Illustrator 13.0.0, SVG Export Plug-In . SVG Version: 6.00 Build 14948)  -->
<!DOCTYPE svg PUBLIC "-//W3C//DTD SVG 1.1//EN" "http://www.w3.org/Graphics/SVG/1.1/DTD/svg11.dtd">
<svg version="1.1" id="Layer_1" xmlns="http://www.w3.org/2000/svg" xmlns:xlink="http://www.w3.org/1999/xlink" x="0px" y="0px"
	 width="100px" height="100px" viewBox="0 0 100 100" enable-background="new 0 0 100 100" xml:space="preserve">
<g>
	<rect x="-0.112" y="33.417" fill="#2E378D" width="99.225" height="33.166"/>
	<g>
		<path fill="#FFFFFF" d="M61.279,57.678v1.793H50.43v-1.793h1.137c0.604,0,1.054-0.154,1.349-0.464
			c0.296-0.307,0.444-0.758,0.444-1.348V48.04c0-1.336-0.305-2.359-0.911-3.074c-0.606-0.711-1.404-1.068-2.39-1.068
			c-1.341,0-2.435,0.505-3.278,1.514c-0.844,1.01-1.266,2.482-1.266,4.424v6.031c0,0.592,0.15,1.041,0.453,1.35
			c0.302,0.309,0.689,0.463,1.166,0.463h1.367v1.793h-12.37v-1.793h1.465c0.564,0,0.993-0.154,1.281-0.463
			c0.289-0.309,0.435-0.758,0.435-1.35V45.132c0-0.617-0.209-1.108-0.626-1.476c-0.417-0.366-0.967-0.55-1.647-0.55h-0.772v-1.971
			l8.632-0.11c0.27,1.105,0.475,2.422,0.616,3.95c1.051-1.426,2.171-2.492,3.361-3.199c1.192-0.706,2.447-1.06,3.768-1.06
			c1.793,0,3.209,0.598,4.246,1.792c1.024,1.195,1.537,2.859,1.537,4.992v8.363c0,0.643,0.147,1.105,0.443,1.389
			c0.295,0.281,0.766,0.424,1.406,0.424L61.279,57.678L61.279,57.678z"/>
		<path fill="#FFFFFF" d="M64.922,36.752h2.812v4.679h5.956l-0.034,1.705H67.7l0.033,11.844c0,0.759,0.194,1.348,0.581,1.764
			c0.388,0.418,0.896,0.627,1.527,0.627c0.661,0,1.404-0.847,1.586-2.436h2.535c-0.037,1.785-0.238,2.124-0.582,2.706
			c-0.611,1.041-0.787,1.089-1.771,1.679c-0.982,0.592-2.394,0.729-3.627,0.729c-1.079,0-2.015-0.219-2.804-0.654
			c-0.791-0.436-1.42-1.089-1.89-1.957c-0.469-0.867-0.703-1.809-0.703-2.822V43.513h-3.198v-1.771
			c1.959-0.259,2.514-0.433,3.906-1.335C64.85,39.402,64.667,38.488,64.922,36.752z"/>
		<path fill="#FFFFFF" d="M73.469,41.431h12.418v1.716H85c-0.707,0-1.189,0.09-1.445,0.271c-0.258,0.18-0.387,0.437-0.387,0.771
			c0,0.359,0.143,0.797,0.426,1.31l2.989,8.578l2.916-8.02c0.209-0.396,0.313-0.796,0.313-1.194c0-1.091,0.185-1.664-1.641-1.715
			v-1.716h7.883v1.716c-0.721,0.077-1.271,0.247-1.656,0.512c-0.387,0.264-0.732,0.695-1.041,1.3L88.01,60.106h-5.773l-6.149-15.32
			c-0.37-0.683-0.7-1.125-0.989-1.33c-0.291-0.206-0.672-0.31-1.146-0.31h-0.482V41.431L73.469,41.431z"/>
	</g>
	<rect x="1.259" y="34.239" fill="#FFFFFF" width="30.15" height="30.15"/>
	<g>
		<g>
			
				<radialGradient id="SVGID_1_" cx="213.8125" cy="-312.3896" r="17.4388" gradientTransform="matrix(1 0 0 -1 -196 -266.5)" gradientUnits="userSpaceOnUse">
				<stop  offset="0.2" style="stop-color:#F3E912"/>
				<stop  offset="1" style="stop-color:#E76E34"/>
			</radialGradient>
			<path fill="url(#SVGID_1_)" d="M13.182,38.351c-4.77,0-9.033,2.126-11.923,5.474v20.575c0.077,0.092,0.16,0.176,0.239,0.266
				h23.366c2.526-2.795,4.078-6.488,4.078-10.554C28.942,45.407,21.886,38.351,13.182,38.351z"/>
		</g>
	</g>
</g>
</svg>
