<?xml version="1.0" encoding="utf-8"?>
<!-- Generator: Adobe Illustrator 13.0.0, SVG Export Plug-In . SVG Version: 6.00 Build 14948)  -->
<!DOCTYPE svg PUBLIC "-//W3C//DTD SVG 1.1//EN" "http://www.w3.org/Graphics/SVG/1.1/DTD/svg11.dtd">
<svg version="1.1" id="Layer_1" xmlns="http://www.w3.org/2000/svg" xmlns:xlink="http://www.w3.org/1999/xlink" x="0px" y="0px"
	 width="100px" height="100px" viewBox="0 0 100 100" enable-background="new 0 0 100 100" xml:space="preserve">
<g>
	<g>
		<g>
			<path fill="#FFFFFF" d="M9.542,37.244c-4.548,0-8.235,3.688-8.235,8.236c0,4.547,3.688,8.235,8.235,8.235
				s8.235-3.688,8.235-8.235C17.777,40.932,14.091,37.244,9.542,37.244z M9.542,50.066c-2.533,0-4.586-2.056-4.586-4.586
				c0-2.534,2.053-4.587,4.586-4.587s4.587,2.053,4.587,4.587C14.129,48.013,12.076,50.066,9.542,50.066z"/>
		</g>
	</g>
	<g>
		<g>
			<path fill="#FFFFFF" d="M38.159,37.244c-4.549,0-8.236,3.688-8.236,8.236c0,4.547,3.688,8.235,8.236,8.235
				c4.547,0,8.234-3.688,8.234-8.235C46.394,40.932,42.706,37.244,38.159,37.244z M38.159,50.066c-2.533,0-4.586-2.056-4.586-4.586
				c0-2.534,2.054-4.587,4.586-4.587c2.531,0,4.586,2.053,4.586,4.587C42.745,48.013,40.69,50.066,38.159,50.066z"/>
		</g>
	</g>
	<g>
		<g>
			<path fill="#F16722" d="M55.723,37.244c-4.547,0-8.235,3.688-8.235,8.236c0,4.547,3.688,8.235,8.235,8.235
				c4.551,0,8.236-3.688,8.236-8.235C63.959,40.932,60.271,37.244,55.723,37.244z M55.723,50.066c-2.531,0-4.588-2.056-4.588-4.586
				c0-2.534,2.057-4.587,4.588-4.587c2.533,0,4.588,2.053,4.588,4.587C60.311,48.013,58.256,50.066,55.723,50.066z"/>
		</g>
	</g>
	<rect x="19.16" y="31.928" fill="#FFFFFF" width="3.752" height="21.787"/>
	<rect x="24.735" y="31.928" fill="#FFFFFF" width="3.753" height="21.787"/>
	<path fill="#F16722" d="M36.15,58.066l3.649,3.021c0,0-6.776,6.984-15.534,6.984c-8.757,0-16.053-6.984-16.053-6.984l3.439-3.229
		c0,0,4.586,5.105,12.509,5.105C32.086,62.967,36.15,58.066,36.15,58.066z"/>
	<g>
		<path fill="#F16722" d="M92.529,57.197h-20.25c-2.711,0-4.913-2.203-4.913-4.911V38.92c0-2.71,2.202-4.913,4.913-4.913h25.063
			l0.1,18.28C97.441,54.994,95.238,57.197,92.529,57.197L92.529,57.197z"/>
		<path fill="#973620" d="M97.591,33.757l0.103,18.528c0,2.851-2.313,5.162-5.164,5.162h-20.25c-2.852,0-5.162-2.313-5.162-5.162
			V38.92c0-2.852,2.313-5.164,5.162-5.164L97.591,33.757 M97.094,34.257H72.279c-2.57,0-4.663,2.092-4.663,4.664v13.365
			c0,2.571,2.093,4.663,4.663,4.663h20.248c2.572,0,4.666-2.092,4.666-4.663L97.094,34.257L97.094,34.257z"/>
	</g>
	<g>
		<path fill="#FFFFFF" stroke="#973620" stroke-width="0.5" d="M78.337,38.003v3.752h2.082v2.768h-2.082v3.497
			c0,0.42,0.042,0.697,0.121,0.834c0.125,0.211,0.341,0.314,0.649,0.314c0.279,0,0.67-0.08,1.172-0.241l0.277,2.609
			c-0.936,0.204-1.808,0.308-2.619,0.308c-0.94,0-1.636-0.121-2.082-0.361c-0.443-0.24-0.773-0.605-0.987-1.101
			c-0.214-0.491-0.321-1.288-0.321-2.388v-3.471h-1.393v-2.768h1.393v-1.811L78.337,38.003z"/>
		<path fill="#FFFFFF" stroke="#973620" stroke-width="0.5" d="M81.105,41.755h3.934l1.913,6.25l1.987-6.25h3.813l-4.191,9.865
			h-3.354L81.105,41.755z"/>
	</g>
</g>
</svg>
