<?xml version="1.0" encoding="utf-8"?>
<!-- Generator: Adobe Illustrator 13.0.0, SVG Export Plug-In . SVG Version: 6.00 Build 14948)  -->
<!DOCTYPE svg PUBLIC "-//W3C//DTD SVG 1.1//EN" "http://www.w3.org/Graphics/SVG/1.1/DTD/svg11.dtd">
<svg version="1.1" id="Layer_1" xmlns="http://www.w3.org/2000/svg" xmlns:xlink="http://www.w3.org/1999/xlink" x="0px" y="0px"
	 width="100px" height="100px" viewBox="0 0 100 100" enable-background="new 0 0 100 100" xml:space="preserve">
<g>
	<g>
		<path fill-rule="evenodd" clip-rule="evenodd" fill="#BDBFC1" d="M36.086,14.689c0.29,0,0.579,0,0.868,0
			c-1.359,1.751-2.691,3.584-4.011,5.318c-0.189,0.251-0.477,0.425-0.678,0.678c-0.301,0.376-0.483,0.847-0.772,1.257
			c-0.867,1.227-1.776,2.357-2.708,3.481c0.663,1.915,2.142,3.014,3.047,4.688c-0.47,0.066-0.854,0.211-1.258,0.34
			c-1.196-1.481-2.266-3.085-3.383-4.641C29.843,21.792,33.035,18.312,36.086,14.689z"/>
		<path fill-rule="evenodd" clip-rule="evenodd" fill="#BDBFC1" d="M37.536,14.689c0.209,0,0.419,0,0.628,0c0,0.018,0,0.034,0,0.049
			C37.972,14.707,37.65,14.801,37.536,14.689z"/>
		<path fill-rule="evenodd" clip-rule="evenodd" fill="#F03232" d="M38.164,14.739c0-0.015,0-0.032,0-0.049
			c11.103,0,22.207,0,33.311,0c0,11.039,0,22.078,0,33.117c-0.018,0-0.031,0-0.049,0c-0.104-3.136-0.67-5.81-1.402-8.315
			c-0.08-0.307-0.156-0.619-0.291-0.87c-0.172-0.697-0.443-1.297-0.678-1.934c-0.227-0.562-0.432-1.147-0.725-1.644
			c-0.061-0.213-0.146-0.4-0.24-0.579c-0.168-0.302-0.289-0.647-0.484-0.919c-0.049-0.241-0.199-0.383-0.289-0.582
			c-0.305-0.565-0.594-1.145-0.967-1.642c-0.146-0.373-0.408-0.625-0.582-0.967c-0.363-0.525-0.693-1.077-1.113-1.547
			c-0.326-0.526-0.74-0.965-1.111-1.451c-0.617-0.733-1.223-1.482-1.932-2.126c-0.156-0.199-0.336-0.376-0.533-0.531
			c-0.266-0.297-0.525-0.602-0.869-0.823c-0.146-0.223-0.379-0.361-0.578-0.533c-0.244-0.272-0.551-0.482-0.824-0.725
			c-0.201-0.136-0.352-0.325-0.58-0.435c-0.158-0.195-0.385-0.322-0.58-0.483c-0.709-0.516-1.412-1.039-2.176-1.499
			c-0.4-0.307-0.871-0.546-1.305-0.821c-0.49-0.251-0.936-0.548-1.449-0.772c-0.426-0.253-0.879-0.479-1.355-0.678
			c-0.518-0.238-1.02-0.493-1.594-0.677c-0.482-0.259-1.061-0.422-1.594-0.627c-0.439-0.109-0.802-0.297-1.261-0.387
			c-0.147-0.112-0.395-0.122-0.577-0.193c-0.257-0.066-0.49-0.156-0.775-0.194c-0.204-0.102-0.47-0.144-0.726-0.193
			c-0.113,0-0.141-0.083-0.288-0.051c-0.268-0.134-0.654-0.151-0.969-0.241c-0.151,0.024-0.17-0.087-0.338-0.047
			c-1.265-0.268-2.604-0.459-4.062-0.533c-0.063,0-0.128,0-0.191,0c-0.147-0.112-0.499-0.018-0.726-0.048
			C38.229,14.739,38.198,14.739,38.164,14.739z"/>
		<path fill-rule="evenodd" clip-rule="evenodd" fill="#BDBFC1" d="M74.471,14.689c0.854,0,1.707,0,2.563,0c0,1.273,0,2.546,0,3.82
			c1.436,0,2.867,0,4.303,0c0,0.804,0,1.612,0,2.417c-1.436,0-2.867,0-4.303,0c0.309,3.232-0.881,8.204,1.303,9.379
			c1.332,0.715,3.379-0.191,4.352-0.677c0.133,0.837,0.379,1.556,0.533,2.369c-1.537,0.89-3.904,1.311-5.705,0.677
			c-1.49-0.524-2.662-1.915-2.949-4.013c-0.271-1.986-0.096-4.432-0.096-6.863C74.471,19.375,74.471,16.798,74.471,14.689z"/>
		<path fill-rule="evenodd" clip-rule="evenodd" fill="#BDBFC1" d="M38.262,14.739c0.227,0.031,0.578-0.063,0.726,0.048
			c-0.098,0-0.195,0-0.291,0c0.884,1.695,2.009,3.536,3.045,5.318c0.29,0.498,0.952,1.334,1.016,1.837
			c0.08,0.627-0.527,1.588-0.772,2.126c-0.85,1.863-1.683,3.89-2.468,5.61c-0.128-0.003-0.274,0.018-0.338-0.05
			c-0.088-0.204,0.143-0.438,0.243-0.676c0.343-0.823,0.418-1.938,0.967-2.514c0.238-1.164,0.791-2.014,1.111-3.095
			c0.862-0.666-0.125-1.602-0.484-2.369c-0.626-1.34-1.228-2.394-1.739-3.577c-0.425-0.979-0.45-1.963-1.015-2.611
			C38.262,14.771,38.262,14.755,38.262,14.739z"/>
		<path fill-rule="evenodd" clip-rule="evenodd" fill="#BDBFC1" d="M39.179,14.787c1.458,0.074,2.797,0.265,4.062,0.533
			c0.582,0.447,1.271,0.79,1.837,1.256c-0.63,1.608-1.559,2.919-2.126,4.594C41.592,19.143,40.382,16.969,39.179,14.787z"/>
		<path fill-rule="evenodd" clip-rule="evenodd" fill="#BDBFC1" d="M33.185,14.885c-0.04,0.928-0.519,1.666-0.435,2.56
			c-0.75-0.635-1.566-1.459-1.982-2.271C31.595,15.1,32.317,14.919,33.185,14.885z"/>
		<path fill-rule="evenodd" clip-rule="evenodd" fill="#BDBFC1" d="M32.555,17.785c-0.067,0.237-0.215,0.396-0.387,0.531
			c-1.092-0.727-1.674-1.967-2.609-2.852c0.202-0.122,0.533-0.113,0.771-0.193C31.132,16.05,31.85,16.914,32.555,17.785z"/>
		<path fill-rule="evenodd" clip-rule="evenodd" fill="#BDBFC1" d="M29.22,15.512c-0.451,0.355-0.889,0.724-1.449,0.966
			c-0.05-0.063-0.08-0.146-0.146-0.193C27.952,15.823,28.522,15.603,29.22,15.512z"/>
		<path fill-rule="evenodd" clip-rule="evenodd" fill="#BDBFC1" d="M29.367,15.658c-0.14,0.423-0.924,0.624-1.308,0.966
			c-0.069-0.178,0.339-0.331,0.582-0.484C28.896,15.979,29.172,15.785,29.367,15.658z"/>
		<path fill-rule="evenodd" clip-rule="evenodd" fill="#BDBFC1" d="M44.835,15.658c0.256,0.049,0.521,0.091,0.726,0.193
			c-0.089,0.006-0.029,0.164-0.098,0.194c-0.291-0.032-0.357-0.288-0.628-0.34C44.835,15.69,44.835,15.673,44.835,15.658z"/>
		<path fill-rule="evenodd" clip-rule="evenodd" fill="#BDBFC1" d="M27.818,15.851c-0.06,0.101-0.247,0.222-0.337,0.146
			C27.525,15.879,27.676,15.867,27.818,15.851z"/>
		<path fill-rule="evenodd" clip-rule="evenodd" fill="#BDBFC1" d="M37.632,15.899c0.85,2.262,1.969,4.253,3.046,6.284
			c-0.89,2.527-1.897,4.936-2.9,7.349c-0.287,0.028-0.43-0.085-0.726-0.048c0.642-1.671,1.423-3.881,2.078-5.802
			c0.101-0.29,0.279-0.613,0.292-0.82c0.025-0.457-0.362-0.865-0.532-1.209c-0.104-0.212-0.15-0.558-0.289-0.869
			c-0.113-0.251-0.305-0.484-0.387-0.728c-0.275-0.805-0.067-1.914-1.354-1.691c-1.335,2.351-2.925,4.547-4.352,6.962
			c-0.156,0.267-0.424,0.604-0.436,0.726c-0.052,0.517,0.933,1.53,1.208,1.837c0.546,0.604,0.972,1.067,1.307,1.739
			c-0.52,0.012-0.979,0.084-1.402,0.193c-1.012-1.305-2.018-2.625-2.949-4.011C32.661,22.465,35.067,19.103,37.632,15.899z"/>
		<path fill-rule="evenodd" clip-rule="evenodd" fill="#BDBFC1" d="M26.079,18.703c0.111,0.146,0.387,0.128,0.579,0.193
			c0.181,0.861,0.628-0.043,0.967-0.386c0.406-0.41,0.916-0.77,1.16-0.967c0.244,0.094,0.369,0.309,0.532,0.484
			c-0.194,0.612-0.825,0.785-1.112,1.306c0.145,0.241,0.465,0.308,0.628,0.532c0.412-0.233,0.964-1.266,1.45-0.532
			c-0.387,0.418-0.645,0.964-1.063,1.353c0.111,0.294,0.753,0.401,0.437,0.82c-0.421-0.014-0.557-0.313-0.823-0.481
			c0.107-0.443,0.462-0.634,0.582-1.064c-0.013-0.052-0.097-0.033-0.098-0.096c-0.246-0.09-0.369,0.245-0.532,0.387
			c-0.355-0.226-0.646-0.514-1.015-0.726c0.209-0.516,0.672-0.777,0.919-1.258c-0.365-0.157-0.658,0.337-0.919,0.581
			c-0.305,0.284-0.611,0.577-0.871,0.82c-0.405-0.38-0.845-0.736-1.112-1.255c0.42-0.582,0.806-1.193,1.452-1.548
			c-0.08-0.179-0.264-0.251-0.387-0.387c-0.214,0.062-0.399,0.149-0.581,0.244c-0.141-0.06-0.304-0.278-0.24-0.39
			c0.334,0.01,0.739-0.23,1.111-0.336C28.494,16.999,26.441,17.776,26.079,18.703z"/>
		<path fill-rule="evenodd" clip-rule="evenodd" fill="#BDBFC1" d="M46.336,16.045c0.183,0.071,0.43,0.081,0.577,0.193
			c0.87,1.889,2.472,3.716,3.336,5.607c-0.516-0.042-0.747-0.625-1.062-1.015c-0.638-0.789-1.178-1.636-1.739-2.466
			c-0.312-0.454-0.502-0.973-0.776-1.353C46.407,16.642,46.09,16.443,46.336,16.045z"/>
		<path fill-rule="evenodd" clip-rule="evenodd" fill="#BDBFC1" d="M29.945,16.238c-0.652,0.562-1.352,1.203-2.077,1.74
			c-0.374,0.275-0.745,0.604-1.161,0.725c0.663-1.015,2.011-1.757,2.998-2.611C29.856,16.07,29.833,16.221,29.945,16.238z"/>
		<path fill-rule="evenodd" clip-rule="evenodd" fill="#BDBFC1" d="M26.127,16.817c0.356-0.057,0.625-0.314,0.918-0.047
			c-0.443,0.541-1.01,0.956-1.4,1.546c0.303,0.565,0.65,1.09,1.11,1.499c0.673-0.359,1.142-0.92,1.644-1.45
			c-0.074,0.362-0.534,0.757-0.773,1.112c0.34,0.354,0.686,0.701,1.16,0.918c0.255-0.004,0.188-0.326,0.435-0.338
			c-0.19,0.311-0.396,0.602-0.578,0.919c0.199,0.269,0.502,0.434,0.773,0.629c-0.726,1.321-1.768,2.326-2.563,3.577
			c-0.375-0.478-1.342-1.241-1.547-1.933c-0.251-0.833-0.175-3.464-0.29-4.834c-0.038-0.448-0.076-1.169-0.097-1.691
			C25.374,16.61,25.979,16.186,26.127,16.817z"/>
		<path fill-rule="evenodd" clip-rule="evenodd" fill="#BDBFC1" d="M30.235,16.672c-0.229,0.384-0.694,0.53-1.063,0.772
			c-0.185-0.586,0.558-0.667,0.822-0.966C30.176,16.443,30.158,16.606,30.235,16.672z"/>
		<path fill-rule="evenodd" clip-rule="evenodd" fill="#BDBFC1" d="M30.33,16.865c0.14,0.341-0.594,0.879-0.963,0.871
			C29.337,17.284,30.047,17.165,30.33,16.865z"/>
		<path fill-rule="evenodd" clip-rule="evenodd" fill="#BDBFC1" d="M24.771,22.475c-1.095-1.384-2.066-2.896-2.997-4.448
			c0.877-0.382,1.738-0.777,2.66-1.113C24.588,18.724,24.668,20.611,24.771,22.475z"/>
		<path fill-rule="evenodd" clip-rule="evenodd" fill="#BDBFC1" d="M30.525,17.109c0.062,0.02,0.101,0.062,0.097,0.143
			c-0.375,0.189-0.582,0.546-1.015,0.677C29.912,17.654,30.228,17.389,30.525,17.109z"/>
		<path fill-rule="evenodd" clip-rule="evenodd" fill="#BDBFC1" d="M45.706,17.35c0.041-0.01,0.046,0.018,0.048,0.048
			c0.484,0.719,0.967,1.479,1.451,2.223c0.478,0.738,1.066,1.396,1.402,2.129c-0.36-0.013-0.666-0.078-1.064-0.049
			c-0.634-1.234-1.411-2.328-2.176-3.433C45.454,17.933,45.635,17.698,45.706,17.35z"/>
		<path fill-rule="evenodd" clip-rule="evenodd" fill="#BDBFC1" d="M30.865,17.398c-0.674,0.699-1.362,1.377-2.224,1.884
			C29.199,18.472,29.894,17.796,30.865,17.398z"/>
		<path fill-rule="evenodd" clip-rule="evenodd" fill="#BDBFC1" d="M31.106,17.978c-0.306,0.177-0.649,0.318-0.823,0.63
			c-0.762-0.023-0.793,0.688-1.4,0.82c0.635-0.683,1.345-1.297,2.173-1.788c0.103,0.222,0.275,0.372,0.387,0.581
			c-0.362,0.261-0.649,0.605-1.062,0.82c-0.026-0.07-0.075-0.118-0.146-0.146C30.435,18.5,30.88,18.346,31.106,17.978z"/>
		<path fill-rule="evenodd" clip-rule="evenodd" fill="#BDBFC1" d="M51.361,17.929c0.477,0.199,0.93,0.425,1.355,0.678
			c0.484,1.092,1.215,2.358,1.836,3.48c-0.199,0.006-0.303-0.086-0.531-0.049C53.271,20.532,52.193,19.354,51.361,17.929z"/>
		<path fill-rule="evenodd" clip-rule="evenodd" fill="#BDBFC1" d="M21.341,18.221c0.805,1.209,1.633,2.395,2.417,3.624
			c-0.342,0.659-0.544,1.454-0.871,2.129c-0.891-0.076-1.817-0.118-2.753-0.146c0.266-0.578-0.258-0.719-0.484-1.064
			c0.168-0.442,0.416-0.809,0.579-1.258c0.199,0.013,0.206,0.213,0.436,0.194c0.547-0.226,0.648-0.899,1.016-1.306
			c-0.123-0.537-0.447-0.876-0.582-1.401c-0.402,0.082-0.698,0.683-1.062,0.967c0.244,0.992-0.433,1.538-0.727,2.271
			c-0.161,0.138-0.151-0.206-0.386-0.144c-0.197,0.012-0.104,0.314-0.194,0.435c-0.648-0.303-1.242-0.661-1.884-0.967
			c0.133-0.157,0.227-0.353,0.386-0.483C17.143,21,17,20.98,16.846,20.975C18.153,19.867,19.794,19.089,21.341,18.221z"/>
		<path fill-rule="evenodd" clip-rule="evenodd" fill="#BDBFC1" d="M31.832,18.607c-0.708,0.741-1.44,1.458-2.225,2.125
			c0.333-1.084,1.377-1.458,2.03-2.223C31.77,18.476,31.734,18.605,31.832,18.607z"/>
		<path fill-rule="evenodd" clip-rule="evenodd" fill="#BDBFC1" d="M86.314,18.51c1.328,3.781,2.727,7.49,4.061,11.263
			c1.424-3.7,2.766-7.483,4.109-11.263c0.887,0,1.773,0,2.658,0c-1.139,3.26-2.514,6.719-3.723,10.056
			c-0.412,1.14-0.725,2.385-1.256,3.336c-0.604,1.082-2.225,1.632-3.191,0.434c-0.66-0.821-1.006-2.292-1.402-3.336
			c-1.275-3.373-2.623-7.17-3.818-10.345c-0.025-0.039-0.051-0.077-0.047-0.145C84.574,18.51,85.445,18.51,86.314,18.51z"/>
		<path fill-rule="evenodd" clip-rule="evenodd" fill="#BDBFC1" d="M27.191,18.654c0.132,0.104-0.063,0.289-0.195,0.292
			C26.955,18.742,27.128,18.752,27.191,18.654z"/>
		<path fill-rule="evenodd" clip-rule="evenodd" fill="#BDBFC1" d="M44.835,19.235c0.54,0.782,1.194,1.448,1.548,2.417
			c-0.236,0.011-0.366-0.086-0.629-0.048c-0.104-0.913-0.676-1.355-1.111-1.935C44.724,19.542,44.754,19.362,44.835,19.235z"/>
		<path fill-rule="evenodd" clip-rule="evenodd" fill="#BDBFC1" d="M54.166,19.38c0.434,0.275,0.904,0.515,1.305,0.821
			c0.258,0.597,0.844,1.285,1.16,1.982c-0.301-0.004-0.531-0.079-0.871-0.047C55.189,21.255,54.676,20.319,54.166,19.38z"/>
		<path fill-rule="evenodd" clip-rule="evenodd" fill="#BDBFC1" d="M30.961,19.621c0.087-0.014,0.1,0.047,0.048,0.048
			c-0.319,0.519-0.63,1.046-1.208,1.306C29.954,20.292,30.638,20.135,30.961,19.621z"/>
		<path fill-rule="evenodd" clip-rule="evenodd" fill="#BDBFC1" d="M37.198,20.394c0.224,0.742,0.899,1.325,0.918,2.129
			c0.01,0.444-0.336,1.139-0.531,1.691c-0.551,1.552-1.26,3.372-1.742,4.833c-0.653-0.544-1.184-1.215-1.787-1.982
			c-0.162-0.204-0.516-0.539-0.532-0.724c-0.03-0.349,0.341-0.494,0.481-0.774c0.055-0.102,0.003-0.271,0.051-0.387
			c0.147-0.359,0.517-0.75,0.772-1.16c0.246-0.391,0.536-0.771,0.773-1.159C36.166,21.941,36.72,21.119,37.198,20.394z
			 M36.616,25.085c0.258-0.574,1.144-1.17,1.016-1.935c-0.06-0.365-0.912-0.881-1.207-0.532c-0.412,0.492-0.746,1.513-1.159,2.321
			c-0.191,0.371-0.641,0.851-0.582,1.257c0.06,0.41,0.454,0.574,1.063,0.532C36.291,26.285,36.295,25.801,36.616,25.085z"/>
		<path fill-rule="evenodd" clip-rule="evenodd" fill="#BDBFC1" d="M44.063,20.686c0.347,0.185,0.55,0.514,0.726,0.87
			c-0.337,0.064-0.785,0.02-1.112,0.096C43.742,21.268,44.001,21.074,44.063,20.686z"/>
		<path fill-rule="evenodd" clip-rule="evenodd" fill="#BDBFC1" d="M20.134,21.024c0.19,0.545-0.415,1.088-0.679,1.499
			C19.566,21.911,19.985,21.603,20.134,21.024z"/>
		<path fill-rule="evenodd" clip-rule="evenodd" fill="#BDBFC1" d="M18.729,22.764c-0.782-0.038-1.402-0.659-2.224-0.821
			c-0.012-0.141,0.093-0.167,0.145-0.242C17.363,22.036,18.101,22.347,18.729,22.764z"/>
		<path fill-rule="evenodd" clip-rule="evenodd" fill="#BDBFC1" d="M57.646,21.7c0.195,0.161,0.422,0.288,0.58,0.483
			c-0.195,0-0.385,0-0.58,0C57.646,22.022,57.646,21.861,57.646,21.7z"/>
		<path fill-rule="evenodd" clip-rule="evenodd" fill="#BDBFC1" d="M23.903,22.039c0.125,0.657-0.292,1.19-0.435,1.741
			C23.142,23.099,23.799,22.608,23.903,22.039z"/>
		<path fill-rule="evenodd" clip-rule="evenodd" fill="#BDBFC1" d="M18.683,23.103c-0.075,0.359-0.052,0.819-0.243,1.063
			c0.08,0.129,0.189,0.229,0.339,0.289c-0.614,0.337-1.338,0.566-1.98,0.871c-0.313-0.06-0.319-0.422-0.484-0.627
			c-0.607,0.34-1.15,1.197-0.871,1.98c-0.739,0.325-1.326,0.803-2.128,1.064c-0.18-0.578-0.655-1.115-0.628-1.74
			c0.011-0.171-0.226-0.095-0.193-0.291c0.561-1.148,1.14-2.278,2.031-3.095c-0.421,1.046-1.29,2.064-1.788,3.192
			c0.829-0.863,1.359-2.446,2.224-3.434c0.563,0.231,1.068,0.221,1.304-0.289C17.091,22.405,17.886,22.754,18.683,23.103z"/>
		<path fill-rule="evenodd" clip-rule="evenodd" fill="#BDBFC1" d="M44.886,22.088c1.42,0.16,2.811-0.035,4.108,0.144
			c0.195,0.028,0.383,0.138,0.579,0.146c0.246,0.012,0.475-0.087,0.726-0.096c1.281-0.049,2.572,0.289,3.914,0.289
			c0.051,0.236-0.277,0.457-0.48,0.725c-1.357,1.786-3.109,3.444-4.498,5.222c0.33-1.604,1.16-3.127,1.787-4.594
			c-1.721-0.873-4.127-1.06-6.041-1.74C44.899,22.202,44.89,22.146,44.886,22.088z"/>
		<path fill-rule="evenodd" clip-rule="evenodd" fill="#BDBFC1" d="M24.145,22.425c0.99,0.489,0.707,1.953,0.822,3.673
			c0.036,0.564,0.195,1.032,0.096,1.451c-0.877,1.184-1.726,2.4-2.563,3.627c-0.695-0.465-1.134-1.188-1.691-1.791
			c0.162-0.326,0.528-0.814,0.193-1.207c0.426-0.638,1.151-0.974,1.693-1.5c0.219,0.136,0.35,0.359,0.529,0.531
			c0.397-0.838,1.101-2.27,0.34-3.142C23.739,23.504,23.963,22.984,24.145,22.425z"/>
		<path fill-rule="evenodd" clip-rule="evenodd" fill="#FFFFFF" d="M35.747,26.729c-0.609,0.042-1.004-0.123-1.063-0.532
			c-0.059-0.406,0.391-0.886,0.582-1.257c0.413-0.809,0.747-1.83,1.159-2.321c0.295-0.349,1.147,0.167,1.207,0.532
			c0.128,0.765-0.758,1.361-1.016,1.935C36.295,25.801,36.291,26.285,35.747,26.729z"/>
		<path fill-rule="evenodd" clip-rule="evenodd" fill="#BDBFC1" d="M69.055,36.688c-0.604,1.764-1.066,3.67-1.498,5.608
			c-2.271-3.061-3.93-6.484-6.09-9.621c-1.072-1.553-2.039-3.209-2.998-4.882c-0.955-1.666-2.07-3.306-2.709-5.174
			c0.969-0.034,1.789,0.081,2.758,0.049c0.854,4.636,2.902,8.281,6.043,10.587c1.092,0.8,2.357,1.458,3.77,1.789
			C68.623,35.54,68.828,36.125,69.055,36.688z"/>
		<path fill-rule="evenodd" clip-rule="evenodd" fill="#BDBFC1" d="M12.3,25.424c-0.03-0.198-0.094-0.358-0.192-0.484
			c0.288-0.469,0.748-0.766,1.11-1.16c0.056-0.007,0.087,0.01,0.097,0.048C13.028,24.411,12.802,25.055,12.3,25.424z"/>
		<path fill-rule="evenodd" clip-rule="evenodd" fill="#BDBFC1" d="M25.354,23.974c0.391,0.51,0.775,1.028,1.16,1.545
			c-0.222,0.538-0.665,0.851-0.919,1.355C25.382,26.015,25.357,24.904,25.354,23.974z"/>
		<path fill-rule="evenodd" clip-rule="evenodd" fill="#BDBFC1" d="M19.985,24.021c0.944,0.009,1.826,0.079,2.758,0.098
			c0.01,0.188-0.104,0.25-0.145,0.387c-0.859-0.108-1.861-0.074-2.613-0.291C19.985,24.151,19.985,24.085,19.985,24.021z"/>
		<path fill-rule="evenodd" clip-rule="evenodd" fill="#BDBFC1" d="M19.89,24.553c0.894,0.01,1.698,0.108,2.563,0.146
			c-0.076,0.181-0.216,0.3-0.292,0.482c0.086,0.334,0.197,0.642,0.292,0.969c-0.61,0.438-1.119,0.976-1.692,1.448
			c-0.189,0.031-0.124-0.196-0.241-0.241C19.995,27.8,19.706,28.479,19.263,29c0.242,0.563,0.552,1.059,0.871,1.547
			c0.217-0.104,0.273-0.369,0.386-0.579c0.504,0.576,0.885,1.274,1.4,1.837c-0.255,0.406-0.54,0.781-0.822,1.159
			c-0.893-0.265-1.74-0.578-2.561-0.918c0.021-0.746-0.257-1.192-0.823-1.353c-0.207-0.596-0.236-1.273-0.387-1.983
			c-0.135-0.648-0.537-1.371-0.481-1.886c0.039-0.388,0.525-0.617,0.241-1.013c0.607-0.312,1.253-0.585,1.935-0.823
			c0.326,0.218,0.493,0.6,0.82,0.823C19.915,25.449,19.887,24.983,19.89,24.553z"/>
		<path fill-rule="evenodd" clip-rule="evenodd" fill="#BDBFC1" d="M18.924,24.699c-0.195,0.308-0.616,0.436-0.966,0.58
			c-0.355,0.143-0.742,0.285-1.112,0.387c0.386-0.564,1.314-0.588,1.884-0.966C18.795,24.699,18.858,24.699,18.924,24.699z"/>
		<path fill-rule="evenodd" clip-rule="evenodd" fill="#BDBFC1" d="M43.723,25.906c0.212-0.048,0.462-0.056,0.629-0.146
			c0.517,0.823,0.841,1.837,1.307,2.708c0,0.178-0.172,0.185-0.242,0.291c0.181,0.446,0.394,0.861,0.629,1.258
			c0.124-0.053,0.237-0.118,0.435-0.098c0.283,0.718,0.732,1.266,1.016,1.983c0.148-0.033,0.415,0.061,0.483-0.05
			c0.34,0.564,0.617,1.19,0.918,1.79c-0.381-0.313-0.893-0.493-1.063-1.014c-0.968,0.176-1.107-1.224-1.547-1.888
			c-0.155,0.059-0.331,0.09-0.438,0.194c-0.37-0.658-0.722-1.341-1.062-2.03c0.028-0.198,0.252-0.198,0.339-0.337
			c-0.27-0.7-0.624-1.311-0.967-1.935c-0.204,0.069-0.385,0.164-0.63,0.192c-0.272-0.595-0.534-1.207-0.82-1.787
			c0.043-0.199,0.32-0.164,0.387-0.338C43.442,24.964,43.509,25.509,43.723,25.906z"/>
		<path fill-rule="evenodd" clip-rule="evenodd" fill="#BDBFC1" d="M16.216,35.72c-0.228,0.099-0.582-0.094-0.822-0.145
			c-1.637-2.971-3.396-5.821-4.494-9.331c0.09-0.349,0.562-0.722,0.868-1.015C13.288,28.689,14.679,32.276,16.216,35.72z"/>
		<path fill-rule="evenodd" clip-rule="evenodd" fill="#BDBFC1" d="M30.141,30.596c-1.571,0.542-3,1.224-4.257,2.078
			c-0.144-1.121,0.028-2.536-0.048-3.722c-0.028-0.48-0.191-0.929-0.096-1.306c0.188-0.745,0.918-0.93,1.112-1.548
			C28.043,27.503,29.067,29.072,30.141,30.596z"/>
		<path fill-rule="evenodd" clip-rule="evenodd" fill="#BDBFC1" d="M22.548,26.245c0.048,0.002,0.04,0.06,0.051,0.097
			c-0.361,0.719-1.16,1.258-1.79,1.547c0.073-0.341,0.484-0.561,0.775-0.823c0.29-0.264,0.607-0.522,0.869-0.773
			C22.509,26.3,22.538,26.282,22.548,26.245z"/>
		<path fill-rule="evenodd" clip-rule="evenodd" fill="#BDBFC1" d="M41.55,26.292c0.481,0.5,0.646,1.368-0.05,1.741
			c-0.233-0.071-0.324-0.287-0.484-0.437C41.19,27.161,41.36,26.717,41.55,26.292z"/>
		<path fill-rule="evenodd" clip-rule="evenodd" fill="#BDBFC1" d="M15.588,26.824c-0.199,0.293-0.561,0.435-0.871,0.63
			c-0.395,0.247-0.745,0.478-1.207,0.676c-0.068-0.436,0.505-0.508,0.82-0.676c0.358-0.191,0.71-0.436,1.017-0.58
			c0.012-0.054,0.096-0.034,0.096-0.098C15.522,26.763,15.525,26.823,15.588,26.824z"/>
		<path fill-rule="evenodd" clip-rule="evenodd" fill="#BDBFC1" d="M10.174,26.921c0.04-0.009,0.044,0.019,0.048,0.048
			c1.12,3.023,2.587,5.697,4.156,8.267c-0.303-0.036-0.562-0.113-0.773-0.242c-0.573-1.307-1.203-2.573-1.98-3.723
			c-0.788-1.164-1.123-2.546-1.935-3.723C9.824,27.314,10.03,27.15,10.174,26.921z"/>
		<path fill-rule="evenodd" clip-rule="evenodd" fill="#BDBFC1" d="M15.733,27.115c0.127,0.225,0.116,0.592,0.339,0.726
			c0.29-0.096,0.335-0.439,0.53-0.63c0.167,0.335,0.227,0.773,0.338,1.163c-1.08,0.224-1.833,0.776-2.949,0.966
			c-0.121-0.33-0.313-0.591-0.387-0.966C14.274,27.912,14.858,27.368,15.733,27.115z"/>
		<path fill-rule="evenodd" clip-rule="evenodd" fill="#BDBFC1" d="M42.323,27.889c0.175,0.145,0.238,0.402,0.387,0.579
			c-0.111,0.308-0.354,0.486-0.532,0.726c-0.241-0.129-0.321-0.421-0.484-0.628C41.821,28.259,42.153,28.155,42.323,27.889z"/>
		<path fill-rule="evenodd" clip-rule="evenodd" fill="#BDBFC1" d="M9.351,27.936c0.042-0.008,0.046,0.02,0.05,0.048
			c0.801,1.016,1.062,2.332,1.739,3.434c0.665,1.082,1.404,2.142,1.74,3.335c-0.442-0.089-0.781-0.28-1.207-0.385
			c-0.806-1.34-1.5-2.786-2.272-4.159c-0.042-0.195-0.008-0.166,0-0.387c-0.409-0.14-0.395-0.704-0.677-0.966
			C8.862,28.48,9.154,28.253,9.351,27.936z"/>
		<path fill-rule="evenodd" clip-rule="evenodd" fill="#BDBFC1" d="M40.727,28.274c0.48,0.391,0.751,0.992,1.112,1.499
			c-0.381,0.505-1.122,0.066-1.74,0C40.292,29.26,40.542,28.799,40.727,28.274z"/>
		<path fill-rule="evenodd" clip-rule="evenodd" fill="#BDBFC1" d="M17.087,28.661C16.989,28.96,16.6,28.935,16.361,29
			c-0.743,0.204-1.54,0.654-2.321,0.679c0.35-0.369,0.983-0.426,1.498-0.63C16.041,28.852,16.585,28.49,17.087,28.661z"/>
		<path fill-rule="evenodd" clip-rule="evenodd" fill="#BDBFC1" d="M17.134,29c0.106,0.459,0.187,0.945,0.291,1.404
			c-0.211-0.048-0.349-0.17-0.532-0.244c-0.116,0.449-0.604,1.148-0.531,1.645c0.057,0.384,0.444,0.38,0.579,0.726
			c-0.307,0.416-0.759,0.691-1.111,1.064c-0.551-1.176-1.103-2.347-1.546-3.626C15.115,29.528,16.056,29.196,17.134,29z"/>
		<path fill-rule="evenodd" clip-rule="evenodd" fill="#BDBFC1" d="M43.53,29.919c-0.095,0.259-0.462,0.502-0.628,0.533
			c-0.221-0.167-0.324-0.449-0.436-0.726c0.157-0.214,0.435-0.307,0.582-0.532C43.293,29.351,43.359,29.689,43.53,29.919z"/>
		<path fill-rule="evenodd" clip-rule="evenodd" fill="#BDBFC1" d="M20.761,29.773c0.538,0.495,0.984,1.078,1.546,1.548
			c-0.052,0.125-0.174,0.18-0.192,0.337C21.575,31.116,21.073,30.54,20.761,29.773z"/>
		<path fill-rule="evenodd" clip-rule="evenodd" fill="#BDBFC1" d="M9.158,30.208c0.244,0.223,0.326,0.607,0.531,0.871
			c-0.196,0.316-0.563,0.659-0.966,1.016c-0.402,0.353-0.921,0.96-1.499,0.725c0.455-0.771,1.483-1.384,2.224-2.03
			c-1.168,0.187-1.531,1.591-2.806,1.837C7.233,31.764,8.277,30.941,9.158,30.208z"/>
		<path fill-rule="evenodd" clip-rule="evenodd" fill="#BDBFC1" d="M9.932,31.756c-0.61,0.444-1.08,1.467-2.031,1.258
			c0.548-0.582,1.271-0.987,1.837-1.549C9.912,31.453,9.848,31.679,9.932,31.756z"/>
		<path fill-rule="evenodd" clip-rule="evenodd" fill="#BDBFC1" d="M59,32.577c-0.582,1.407-1.664,2.521-2.318,3.918
			c-0.119,0.252-0.137,0.558-0.244,0.82c-0.234,0.572-0.551,1.081-0.773,1.693c-0.213,0.586-0.422,1.187-0.678,1.789
			c-0.227-0.16-0.303-0.471-0.48-0.678c0.422-2.315,0.922-4.555,1.449-6.766c-1.221-0.411-3.008-0.546-4.594-0.776
			c-1.053-0.151-1.825-0.171-2.127-0.966c0.019-0.056,0.087-0.122,0.098-0.048C52.738,31.718,55.377,32.641,59,32.577z"/>
		<path fill-rule="evenodd" clip-rule="evenodd" fill="#BDBFC1" d="M10.222,32.143c-0.474,0.478-0.722,1.182-1.693,1.159
			c0.227-0.502,1.03-0.838,1.45-1.305c0.102-0.02,0.129,0.034,0.195,0.048C10.166,32.103,10.184,32.133,10.222,32.143z"/>
		<path fill-rule="evenodd" clip-rule="evenodd" fill="#BDBFC1" d="M18.537,32.336c0.819,0.275,1.628,0.564,2.417,0.871
			c-0.195,0.402-0.781,0.028-1.16-0.098c-0.458-0.15-0.9-0.324-1.257-0.435C18.537,32.562,18.537,32.45,18.537,32.336z"/>
		<path fill-rule="evenodd" clip-rule="evenodd" fill="#BDBFC1" d="M10.415,32.53c0.329,0.338-0.852,1.33-1.354,0.918
			C9.525,33.155,9.804,32.674,10.415,32.53z"/>
		<path fill-rule="evenodd" clip-rule="evenodd" fill="#BDBFC1" d="M17.185,32.674c-0.331,0.525-0.75,0.961-1.26,1.306
			c-0.056-0.595,0.837-0.785,1.064-1.306C17.055,32.674,17.118,32.674,17.185,32.674z"/>
		<path fill-rule="evenodd" clip-rule="evenodd" fill="#BDBFC1" d="M18.392,33.834c0.129-0.226,0.044-0.663,0.146-0.919
			c0.747,0.174,1.368,0.469,2.127,0.63c-0.662,1.028-1.363,2.021-2.029,3.044c-0.662-0.256-1.343-0.197-1.789-0.58
			c-0.494-0.422-0.449-1.213-0.823-1.789c0.372-0.467,0.874-0.801,1.209-1.306C17.68,33.161,17.991,33.544,18.392,33.834z"/>
		<path fill-rule="evenodd" clip-rule="evenodd" fill="#BDBFC1" d="M60.16,33.014c-0.648,2.41-1.799,4.742-2.705,7.057
			c0.578,0.367,1.326,0.321,2.027,0.434c0.688,0.111,1.396,0.26,2.08,0.387c1.398,0.264,2.781,0.506,3.916,1.017
			c-3.059-0.162-6.068-0.669-9.041-1.064C57.148,37.897,58.641,35.311,60.16,33.014z"/>
		<path fill-rule="evenodd" clip-rule="evenodd" fill="#BDBFC1" d="M10.752,33.353c-0.299,0.165-0.475,0.457-1.015,0.387
			C9.923,33.478,10.61,32.763,10.752,33.353z"/>
		<path fill-rule="evenodd" clip-rule="evenodd" fill="#BDBFC1" d="M10.947,33.545c0.144,0.164,0.191,0.418,0.339,0.58
			c-0.342,0.114-0.649-0.221-1.016-0.242C10.424,33.697,10.638,33.576,10.947,33.545z"/>
		<path fill-rule="evenodd" clip-rule="evenodd" fill="#BDBFC1" d="M11.382,35.333c-1.345,2.04-2.86,3.955-4.204,5.995
			c-1.352,2.042-2.799,4.009-4.111,6.091c-0.229-0.576-0.142-1.173-0.193-1.789c-0.02-0.248-0.164-0.503-0.146-0.773
			c0.051-0.786,0.853-1.378,1.307-2.03c0.43-0.615,0.729-1.406,1.209-2.127c0.429-0.642,0.954-1.268,1.4-1.934
			c1.006-1.496,2.056-2.851,2.806-4.108C10.071,34.902,10.717,35.128,11.382,35.333z"/>
		<path fill-rule="evenodd" clip-rule="evenodd" fill="#BDBFC1" d="M14.862,36.543c0.705,0.13,1.305,0.37,1.886,0.627
			c-1.99,2.885-4.19,5.601-6.188,8.508c-1.733,2.524-3.568,4.954-5.221,7.64c-0.44,0.714-0.889,1.394-1.403,2.126
			c0.007-0.841-0.46-2.032-0.339-2.997c0.08-0.625,0.85-1.396,1.354-2.03c0.533-0.669,1.003-1.444,1.353-2.03
			c0.861-1.432,1.758-2.79,2.66-4.061c0.965-1.359,2.033-2.523,2.9-3.82c0.442-0.657,1.046-1.235,1.5-1.884
			C13.88,37.882,14.255,37.136,14.862,36.543z"/>
		<path fill-rule="evenodd" clip-rule="evenodd" fill="#BDBFC1" d="M17.376,37.315c0.206,0.066,0.416,0.132,0.629,0.194
			c-0.096,0.179-0.159,0.388-0.387,0.434C17.53,37.74,17.419,37.562,17.376,37.315z"/>
		<path fill-rule="evenodd" clip-rule="evenodd" fill="#BDBFC1" d="M19.552,37.993c0.298,1.225-0.459,1.791-0.773,2.563
			c-0.359-0.411-0.61-1.756-0.387-2.516C18.559,37.471,19.071,37.878,19.552,37.993z"/>
		<path fill-rule="evenodd" clip-rule="evenodd" fill="#BDBFC1" d="M69.732,38.621c0.135,0.251,0.211,0.563,0.291,0.87
			c-0.279,0.125-0.398,0.41-0.582,0.628C69.4,39.672,69.604,39.055,69.732,38.621z"/>
		<path fill-rule="evenodd" clip-rule="evenodd" fill="#BDBFC1" d="M17.618,39.2c0.315,0.617,1.028,1.718,0.58,2.468
			C18.011,40.839,17.76,40.075,17.618,39.2z"/>
		<path fill-rule="evenodd" clip-rule="evenodd" fill="#BDBFC1" d="M17.376,39.393c0.294,0.875,0.9,2.021,0.629,3
			C17.666,41.554,17.252,40.536,17.376,39.393z"/>
		<path fill-rule="evenodd" clip-rule="evenodd" fill="#BDBFC1" d="M17.087,39.926c0.356,0.789,0.456,1.833,0.822,2.611
			c-0.045,0.247-0.171,0.409-0.195,0.677C17.479,42.231,16.595,41.006,17.087,39.926z"/>
		<path fill-rule="evenodd" clip-rule="evenodd" fill="#BDBFC1" d="M16.7,40.505c0.324,0.985,0.727,2.136,0.871,3.143
			C17.306,42.631,16.513,41.655,16.7,40.505z"/>
		<path fill-rule="evenodd" clip-rule="evenodd" fill="#BDBFC1" d="M16.361,40.941c0.077-0.013,0.084,0.047,0.145,0.048
			c0.256,1.05,0.642,1.969,0.968,2.949c-0.052,0.173-0.122,0.328-0.146,0.532C17.08,43.251,16.311,42.299,16.361,40.941z"/>
		<path fill-rule="evenodd" clip-rule="evenodd" fill="#BDBFC1" d="M16.022,41.424c0.05,0,0.098,0,0.145,0
			c0.334,1.259,1.112,2.493,0.967,3.917c-0.56-1.102-0.988-2.333-1.209-3.771C15.972,41.534,16,41.481,16.022,41.424z"/>
		<path fill-rule="evenodd" clip-rule="evenodd" fill="#BDBFC1" d="M15.686,41.956c0.056-0.007,0.084,0.013,0.095,0.048
			c0.275,0.873,0.794,2.007,0.726,2.901c-0.218-0.043-0.279-0.376-0.339-0.579C15.981,43.712,15.632,42.61,15.686,41.956z"/>
		<path fill-rule="evenodd" clip-rule="evenodd" fill="#BDBFC1" d="M55.713,42.102c3.65,0.265,7.205,1.046,10.975,1.353
			c-1.35,1.879-2.881,3.838-4.303,5.752c-0.143,0.191-0.387,0.666-0.727,0.484c-0.047-0.935,0.348-1.891,0.629-2.803
			c0.283-0.913,0.658-1.785,1.016-2.563c-0.906-0.454-2.117-0.502-3.285-0.628c-1.193-0.129-2.416-0.251-3.58-0.338
			C56.154,42.983,55.932,42.544,55.713,42.102z"/>
		<path fill-rule="evenodd" clip-rule="evenodd" fill="#BDBFC1" d="M15.394,42.393c0.403,0.754,0.522,1.797,0.87,2.609
			c-0.082,0.078-0.176,0.146-0.339,0.144C15.842,44.172,15.143,43.389,15.394,42.393z"/>
		<path fill-rule="evenodd" clip-rule="evenodd" fill="#BDBFC1" d="M71.426,47.806c0.018,0,0.031,0,0.049,0c0,0.355,0,0.71,0,1.065
			c-0.088,0.155-0.182-0.083-0.195-0.099c-0.566-0.628-1.076-1.375-1.451-2.176c-0.432-0.928-1.049-1.981-1.16-2.948
			c-0.031-0.285-0.07-0.857,0.293-0.967C69.438,44.7,70.359,46.536,71.426,47.806z"/>
		<path fill-rule="evenodd" clip-rule="evenodd" fill="#BDBFC1" d="M15.056,42.923c0.382,0.569,0.431,1.469,0.678,2.176
			c0.06,0.221-0.171,0.153-0.195,0.29c0.134,0.965,0.604,1.845,0.582,2.804c-0.268-0.237-0.327-0.691-0.435-1.112
			c-0.208-0.796-0.345-1.629-0.534-2.563C15.02,43.865,14.752,43.357,15.056,42.923z"/>
		<path fill-rule="evenodd" clip-rule="evenodd" fill="#BDBFC1" d="M14.717,43.504c0.454,1.495,0.674,3.227,1.112,4.737
			c-0.569-0.38-0.519-1.297-0.726-2.176C14.911,45.248,14.358,44.081,14.717,43.504z"/>
		<path fill-rule="evenodd" clip-rule="evenodd" fill="#BDBFC1" d="M14.33,44.034c0.438,1.335,0.722,2.824,1.112,4.208
			c-0.43-0.136-0.351-0.594-0.482-1.015c-0.128-0.398-0.307-0.839-0.436-1.305C14.326,45.207,13.926,44.63,14.33,44.034z"/>
		<path fill-rule="evenodd" clip-rule="evenodd" fill="#BDBFC1" d="M68.574,44.034c0.111,0.752,1.064,2.077,1.207,2.854
			c0.303,1.648-0.221,3.303,0,5.125c-0.451-0.051-0.811-0.19-1.207-0.292C68.574,49.159,68.574,46.597,68.574,44.034z"/>
		<path fill-rule="evenodd" clip-rule="evenodd" fill="#BDBFC1" d="M13.943,44.664c0.188,0.742,0.686,1.656,0.581,2.37
			C14.172,46.432,13.887,45.518,13.943,44.664z"/>
		<path fill-rule="evenodd" clip-rule="evenodd" fill="#BDBFC1" d="M13.653,45.146c0.31,0.546,0.354,1.353,0.63,1.935
			c-0.084,0.096-0.226,0.129-0.387,0.146C13.736,46.61,13.251,45.737,13.653,45.146z"/>
		<path fill-rule="evenodd" clip-rule="evenodd" fill="#BDBFC1" d="M16.94,46.258c-0.143-0.192-0.175-0.5-0.338-0.674
			c-0.228-0.051-0.275,0.079-0.387,0.145c0.115,1.013,0.488,1.768,0.484,2.9c-0.612,0.113-1.168,0.283-1.789,0.387
			c-0.131-0.449-0.334-0.828-0.484-1.258c-0.22,0.053-0.439,0.109-0.628,0.195c-0.018,0.341,0.085,0.558,0.05,0.919
			c-0.279,0.029-1.248,0.656-1.646,0.58c-0.404-0.078-0.446-0.71-0.481-1.112c0.251,0.104,0.191,0.517,0.434,0.627
			c0.492-0.072,0.854-0.275,1.355-0.338c0.004-0.104,0.039-0.606-0.048-0.773c0.278-0.268,0.725-0.369,1.111-0.533
			c0.285,0.327,0.306,0.92,0.53,1.306c0.484-0.048,0.917-0.147,1.402-0.194c-0.223-0.936-0.37-1.95-0.629-2.85
			c0.245-0.191,0.494-0.376,0.871-0.438C16.791,45.539,17.08,45.834,16.94,46.258z"/>
		<path fill-rule="evenodd" clip-rule="evenodd" fill="#BDBFC1" d="M67.992,45.244c0.111,2.015,0.014,4.239,0.049,6.333
			c-0.35-0.149-0.762-0.237-1.162-0.34C66.791,48.781,67.615,47.238,67.992,45.244z"/>
		<path fill-rule="evenodd" clip-rule="evenodd" fill="#BDBFC1" d="M16.459,45.728c0.481,0.325,0.443,1.035,0.339,1.74
			C16.634,46.976,16.275,46.25,16.459,45.728z"/>
		<path fill-rule="evenodd" clip-rule="evenodd" fill="#BDBFC1" d="M13.267,45.776c0.219,0.475,0.358,1.026,0.484,1.594
			c-0.108,0.038-0.189,0.101-0.339,0.098C13.298,46.983,12.911,46.281,13.267,45.776z"/>
		<path fill-rule="evenodd" clip-rule="evenodd" fill="#BDBFC1" d="M56.342,45.776c0.113,0.078,0.102,0.283,0.191,0.387
			c0.15,0.035,0.178-0.049,0.291-0.048c0.16,0.5,0.379,0.941,0.484,1.499c-0.262-0.189-0.377-0.526-0.484-0.871
			c-0.08-0.085-0.16,0.044-0.338,0C56.469,46.39,56.381,46.104,56.342,45.776z"/>
		<path fill-rule="evenodd" clip-rule="evenodd" fill="#BDBFC1" d="M66.492,45.776c-0.191,1.629-0.881,3.179-1.063,4.98
			c-0.646-0.066-1.465-0.373-2.127-0.58c-0.039-0.198,0.178-0.366,0.291-0.532C64.467,48.37,65.533,46.987,66.492,45.776z"/>
		<path fill-rule="evenodd" clip-rule="evenodd" fill="#BDBFC1" d="M12.88,46.355c0.432,0.501,0.204,1.22,0.338,1.886
			C12.967,47.764,12.632,47.029,12.88,46.355z"/>
		<path fill-rule="evenodd" clip-rule="evenodd" fill="#BDBFC1" d="M12.541,46.888c0.236,0.442,0.377,0.978,0.435,1.596
			C12.648,48.161,12.374,47.398,12.541,46.888z"/>
		<path fill-rule="evenodd" clip-rule="evenodd" fill="#BDBFC1" d="M12.3,47.37c0.17,0.3,0.321,0.871,0.339,1.161
			C12.321,48.374,12.031,47.659,12.3,47.37z"/>
		<path fill-rule="evenodd" clip-rule="evenodd" fill="#BDBFC1" d="M12.011,47.757c0.122,0.265,0.287,0.488,0.289,0.871
			C12,48.493,11.768,48.024,12.011,47.757z"/>
		<path fill-rule="evenodd" clip-rule="evenodd" fill="#BDBFC1" d="M70.313,47.806c0.096,0.361,1.047,1.088,1.162,1.499
			c0.275,1.008-0.23,2.035-0.098,3.143c-0.279,0.013-0.791-0.137-1.064-0.291C70.313,50.707,70.313,49.257,70.313,47.806z"/>
		<path fill-rule="evenodd" clip-rule="evenodd" fill="#BDBFC1" d="M14.813,49.159c0.688-0.07,1.237-0.279,1.887-0.387
			c0,0.307,0,0.612,0,0.919c-1.603,0.412-3.263,0.767-4.738,1.305c-0.423-0.366-0.785-0.792-1.258-1.112
			c0.204-0.44,0.486-0.803,0.725-1.208c0.24,0.26,0.403,0.597,0.582,0.918c0.704-0.165,1.312-0.426,2.029-0.579
			c0.039-0.391-0.068-0.641-0.049-1.015C14.566,47.773,14.563,48.763,14.813,49.159z"/>
		<path fill-rule="evenodd" clip-rule="evenodd" fill="#BDBFC1" d="M1.857,49.74c0-0.146,0-0.289,0-0.435
			C1.97,48.966,1.872,48.418,1.906,48c0.25,0.087,0.411,0.265,0.628,0.387c-0.048,1.062,0.184,1.846,0.292,2.756
			c-0.359-0.191-0.571-0.526-0.92-0.726C1.875,50.205,1.969,49.87,1.857,49.74z"/>
		<path fill-rule="evenodd" clip-rule="evenodd" fill="#BDBFC1" d="M56.682,49.402c0.201,0.021,0.373,0.076,0.529,0.144
			c-0.123,0.313-0.363,0.508-0.482,0.823C56.617,50.142,56.711,49.708,56.682,49.402z"/>
		<path fill-rule="evenodd" clip-rule="evenodd" fill="#BDBFC1" d="M58.031,49.74c-0.234,0.446-0.59,1.25-1.207,0.87
			C57.035,50.061,57.301,49.368,58.031,49.74z"/>
		<path fill-rule="evenodd" clip-rule="evenodd" fill="#BDBFC1" d="M58.613,49.933c-0.248,0.415-0.512,0.809-0.869,1.112
			c-0.143,0.014-0.15-0.108-0.289-0.096C57.799,50.581,57.957,49.689,58.613,49.933z"/>
		<path fill-rule="evenodd" clip-rule="evenodd" fill="#BDBFC1" d="M59.244,50.126c-0.314,0.461-0.643,0.907-1.115,1.208
			c-0.031-0.064-0.102-0.089-0.193-0.098c0.193-0.516,0.607-0.809,0.871-1.255C58.965,50.019,59.105,50.068,59.244,50.126z"/>
		<path fill-rule="evenodd" clip-rule="evenodd" fill="#BDBFC1" d="M59.822,50.271c-0.082,0.483-0.391,0.74-0.629,1.064
			c0.318,0.281,0.842,0.352,1.354,0.435c0,0.161-0.156,0.165-0.143,0.339c-0.707-0.15-1.299-0.412-1.936-0.628
			C58.857,51.042,59.064,50.18,59.822,50.271z"/>
		<path fill-rule="evenodd" clip-rule="evenodd" fill="#BDBFC1" d="M16.603,50.319c0.195,0.08,0.056,0.492,0.146,0.677
			c-1.275,0.353-2.554,0.701-3.82,1.064c-0.255-0.153-0.642-0.412-0.628-0.678C13.793,51.089,15.176,50.682,16.603,50.319z"/>
		<path fill-rule="evenodd" clip-rule="evenodd" fill="#BDBFC1" d="M59.967,50.465c0.109,0.036,0.145,0.145,0.193,0.242
			c-0.055,0.202-0.203,0.313-0.291,0.483c0.172,0.249,0.758,0.084,0.822,0.437c-0.436-0.08-0.775-0.259-1.209-0.339
			C59.623,50.991,59.838,50.772,59.967,50.465z"/>
		<path fill-rule="evenodd" clip-rule="evenodd" fill="#BDBFC1" d="M60.645,50.512c0.172,0.101,0.439,0.108,0.627,0.195
			c-0.035,0.19-0.188,0.262-0.24,0.436C60.816,51.017,60.734,50.762,60.645,50.512z"/>
		<path fill-rule="evenodd" clip-rule="evenodd" fill="#BDBFC1" d="M60.209,50.901c0.119,0.042,0.211,0.111,0.195,0.289
			c-0.154,0.024-0.191-0.068-0.293-0.097C60.137,51.023,60.184,50.971,60.209,50.901z"/>
		<path fill-rule="evenodd" clip-rule="evenodd" fill="#BDBFC1" d="M65.092,51.77c-0.281,1.575-0.727,2.979-1.113,4.448
			c-0.918-1.128-1.502-2.589-2.32-3.817c0.289-0.455,0.572-0.913,0.922-1.307C63.408,51.326,64.262,51.539,65.092,51.77z"/>
		<path fill-rule="evenodd" clip-rule="evenodd" fill="#BDBFC1" d="M16.7,51.19c0.077,0.131,0.099,0.318,0.098,0.531
			c-0.467,0.168-1.081,0.216-1.742,0.387c-0.744,0.194-1.67,0.762-1.982,0.098C14.291,51.875,15.538,51.577,16.7,51.19z"/>
		<path fill-rule="evenodd" clip-rule="evenodd" fill="#BDBFC1" d="M56.584,51.675c0.137,0.008,0.201,0.088,0.336,0.095
			c-0.068,0.352-0.322,0.517-0.434,0.823C56.426,52.388,56.537,51.935,56.584,51.675z"/>
		<path fill-rule="evenodd" clip-rule="evenodd" fill="#BDBFC1" d="M60.209,52.303c-0.053,0.125-0.123,0.233-0.242,0.29
			c-0.66-0.146-1.178-0.433-1.691-0.726c-0.014-0.077,0.045-0.083,0.047-0.146C58.941,51.738,59.533,52.185,60.209,52.303z"/>
		<path fill-rule="evenodd" clip-rule="evenodd" fill="#BDBFC1" d="M16.748,52.014c0.366,1.388,0.6,2.912,1.063,4.204
			c-0.725-0.512-1.453-1.13-2.176-1.692c-0.72-0.558-1.501-1.069-1.982-1.738C14.622,52.464,15.674,52.227,16.748,52.014z"/>
		<path fill-rule="evenodd" clip-rule="evenodd" fill="#BDBFC1" d="M59.822,52.834c0.004,0.148-0.104,0.188-0.145,0.291
			c-0.711-0.146-1.232-0.478-1.885-0.678c0.004-0.203,0.174-0.245,0.238-0.387C58.646,52.303,59.219,52.583,59.822,52.834z"/>
		<path fill-rule="evenodd" clip-rule="evenodd" fill="#BDBFC1" d="M71.23,53.607c0.039,0.199-0.072,0.248-0.047,0.436
			c-1.543-0.345-2.973-0.797-4.254-1.402c-0.438,1.132-0.717,2.327-1.016,3.627c-0.154,0.666-0.438,1.304-0.338,2.271
			c1.813-0.378,3.332-1.05,5.027-1.548c0.109,0.194-0.09,0.49-0.098,0.728c-1.639,0.425-3.326,0.799-4.93,1.256
			c-0.199-0.297-0.609-0.556-0.678-0.918c-0.139-0.763,0.447-1.886,0.678-2.852c0.281-1.195,0.471-2.192,0.725-2.998
			C67.955,52.663,69.652,53.075,71.23,53.607z"/>
		<path fill-rule="evenodd" clip-rule="evenodd" fill="#BDBFC1" d="M59.482,53.318c-0.027,0.18-0.135,0.282-0.191,0.435
			c-0.633-0.269-1.211-0.595-1.836-0.871c0.059-0.102,0.131-0.188,0.191-0.289C58.293,52.8,58.85,53.098,59.482,53.318z"/>
		<path fill-rule="evenodd" clip-rule="evenodd" fill="#BDBFC1" d="M59.049,53.897c0.008,0.121-0.076,0.149-0.096,0.242
			c-0.662-0.194-1.156-0.554-1.791-0.773c0.021-0.125,0.145-0.146,0.146-0.291C57.961,53.279,58.518,53.573,59.049,53.897z"/>
		<path fill-rule="evenodd" clip-rule="evenodd" fill="#BDBFC1" d="M23.371,65.064c-0.297,0.067-0.597-0.317-0.918-0.532
			c-2.236-1.496-4.361-3.237-6.624-4.785c-2.604-1.78-5.575-3.092-7.831-5.222c0.178-0.402,0.437-0.723,0.579-1.159
			c0.056-0.009,0.087,0.011,0.098,0.047c4.528,3.113,8.664,6.923,13.343,10.058c0.269,0.179,0.687,0.42,1.015,0.676
			C23.28,64.339,23.821,64.64,23.371,65.064z"/>
		<path fill-rule="evenodd" clip-rule="evenodd" fill="#BDBFC1" d="M58.758,54.333c-0.02,0.171-0.121,0.265-0.191,0.387
			c-0.566-0.29-1.129-0.58-1.791-0.774c-0.021-0.215,0.133-0.254,0.195-0.387C57.711,53.673,58.139,54.1,58.758,54.333z"/>
		<path fill-rule="evenodd" clip-rule="evenodd" fill="#BDBFC1" d="M58.371,54.865c-0.008,0.217-0.125,0.326-0.242,0.434
			c-0.604-0.249-1.143-0.562-1.738-0.82c0.031-0.162,0.148-0.237,0.193-0.387C57.307,54.224,57.793,54.587,58.371,54.865z"/>
		<path fill-rule="evenodd" clip-rule="evenodd" fill="#BDBFC1" d="M57.984,55.493c0.014,0.141-0.107,0.147-0.096,0.29
			c-0.693-0.178-1.199-0.542-1.838-0.773c-0.021-0.183,0.096-0.228,0.146-0.339C56.848,54.891,57.426,55.181,57.984,55.493z"/>
		<path fill-rule="evenodd" clip-rule="evenodd" fill="#BDBFC1" d="M55.857,55.155c0.656,0.23,1.211,0.562,1.789,0.869
			c-0.057,0.153-0.164,0.257-0.191,0.436c-0.613-0.227-1.168-0.512-1.742-0.774C55.74,55.487,55.852,55.375,55.857,55.155z"/>
		<path fill-rule="evenodd" clip-rule="evenodd" fill="#BDBFC1" d="M7.368,55.638c0.043-0.008,0.047,0.02,0.048,0.048
			c2.427,1.854,5.424,3.399,7.978,5.223c0.763,0.544,1.621,0.987,2.32,1.546c0.44,0.351,0.777,0.771,1.21,1.111
			c1.033,0.819,2.218,1.555,3.335,2.37c0.157,0.112,0.561,0.205,0.484,0.531c-0.283,0.076-0.638-0.288-0.921-0.531
			c-0.854-0.742-1.875-1.395-2.852-2.078c-3.791-2.656-7.929-5.213-11.941-7.688C7.052,55.901,7.196,55.758,7.368,55.638z"/>
		<path fill-rule="evenodd" clip-rule="evenodd" fill="#BDBFC1" d="M2.486,55.831c0.229,0.255,0.57,0.396,0.773,0.678
			c-0.004,1.021,0.143,1.887,0.387,2.657C2.783,58.725,2.771,57.017,2.486,55.831z"/>
		<path fill-rule="evenodd" clip-rule="evenodd" fill="#BDBFC1" d="M55.617,55.929c0.582,0.175,1.057,0.457,1.594,0.675
			c-0.08,0.163-0.16,0.323-0.24,0.484c-0.564-0.161-1.016-0.434-1.549-0.628C55.51,56.303,55.568,56.122,55.617,55.929z"/>
		<path fill-rule="evenodd" clip-rule="evenodd" fill="#BDBFC1" d="M60.355,56.17c0.666,0.477,1.555,0.732,2.123,1.305
			c-0.258,0.692-0.787,1.114-1.012,1.837C60.967,58.394,60.656,57.285,60.355,56.17z"/>
		<path fill-rule="evenodd" clip-rule="evenodd" fill="#BDBFC1" d="M55.373,56.654c0.428,0.248,0.99,0.362,1.402,0.628
			c-0.029,0.227-0.217,0.296-0.242,0.531c-0.529-0.13-0.846-0.476-1.352-0.628C55.203,56.965,55.307,56.825,55.373,56.654z"/>
		<path fill-rule="evenodd" clip-rule="evenodd" fill="#BDBFC1" d="M6.304,57.428c1.585,1.493,3.186,2.972,4.546,4.688
			c-2.086-0.587-4.143-1.206-6.14-1.884c0.041-0.187,0.144-0.308,0.194-0.484c1.701,0.359,3.062,1.063,4.688,1.5
			c0.11-0.49-0.468-0.606-0.726-0.871c-0.13-0.138-0.163-0.351-0.289-0.484c-0.192-0.203-0.516-0.291-0.725-0.482
			C7.229,58.834,6.739,58.122,6.304,57.428z"/>
		<path fill-rule="evenodd" clip-rule="evenodd" fill="#BDBFC1" d="M56.342,57.959c-0.014,0.147-0.105,0.217-0.145,0.339
			c-0.496-0.102-0.82-0.374-1.305-0.484C55.084,56.989,55.84,57.924,56.342,57.959z"/>
		<path fill-rule="evenodd" clip-rule="evenodd" fill="#BDBFC1" d="M54.795,57.959c0.395,0.152,0.697,0.396,1.209,0.435
			c-0.061,0.294-0.172,0.54-0.436,0.629c-0.314-0.171-0.67-0.298-1.016-0.436C54.564,58.311,54.756,58.21,54.795,57.959z"/>
		<path fill-rule="evenodd" clip-rule="evenodd" fill="#BDBFC1" d="M5.727,58.298c0.446,0.261,0.705,0.711,1.111,1.014
			c-0.43,0.011-0.936-0.32-1.402-0.434C5.501,58.652,5.623,58.485,5.727,58.298z"/>
		<path fill-rule="evenodd" clip-rule="evenodd" fill="#BDBFC1" d="M64.705,58.685c0.105,0.133,0.229,0.253,0.242,0.481
			c-0.184-0.035-0.232,0.061-0.387,0.051C64.611,59.043,64.619,58.822,64.705,58.685z"/>
		<path fill-rule="evenodd" clip-rule="evenodd" fill="#BDBFC1" d="M54.408,58.732c0.383,0.133,0.707,0.324,1.111,0.434
			c0.002,0.214-0.121,0.299-0.193,0.438c-0.406-0.11-0.744-0.288-1.16-0.387C54.234,59.04,54.377,58.945,54.408,58.732z"/>
		<path fill-rule="evenodd" clip-rule="evenodd" fill="#BDBFC1" d="M69.441,61.247c-0.424-0.526-0.725-1.176-1.16-1.694
			c0.516-0.227,1.199-0.283,1.742-0.481C70.172,59.515,69.605,60.612,69.441,61.247z"/>
		<path fill-rule="evenodd" clip-rule="evenodd" fill="#BDBFC1" d="M55.084,59.747c-0.021,0.255-0.205,0.342-0.289,0.531
			c-0.318-0.117-0.648-0.224-1.016-0.289C53.844,59.135,54.561,59.556,55.084,59.747z"/>
		<path fill-rule="evenodd" clip-rule="evenodd" fill="#BDBFC1" d="M68.041,60.183c-0.234,0.074-0.434,0.179-0.775,0.146
			c-0.051-0.206-0.236-0.278-0.24-0.533C67.525,59.599,67.967,59.641,68.041,60.183z"/>
		<path fill-rule="evenodd" clip-rule="evenodd" fill="#BDBFC1" d="M68.766,63.034c-0.131,0.238-0.238,0.502-0.338,0.772
			c-0.834-1.177-1.553-2.477-2.322-3.722c0.217-0.107,0.516-0.129,0.773-0.193C67.393,61.058,68.176,61.948,68.766,63.034z"/>
		<path fill-rule="evenodd" clip-rule="evenodd" fill="#BDBFC1" d="M54.697,60.424c-0.014,0.149-0.105,0.217-0.145,0.339
			c-0.473,0.022-0.758-0.146-1.16-0.193C53.488,59.828,54.199,60.36,54.697,60.424z"/>
		<path fill-rule="evenodd" clip-rule="evenodd" fill="#BDBFC1" d="M68.428,60.714c-0.125,0.198-0.516,0.128-0.676,0.289
			c-0.188-0.104-0.299-0.282-0.34-0.531C67.908,60.402,68.313,60.217,68.428,60.714z"/>
		<path fill-rule="evenodd" clip-rule="evenodd" fill="#BDBFC1" d="M65.092,60.376c-0.361,0.752-0.873,1.352-1.211,2.126
			c-0.139-0.719,0.215-1.367,0.387-1.933C64.518,60.479,64.801,60.424,65.092,60.376z"/>
		<path fill-rule="evenodd" clip-rule="evenodd" fill="#BDBFC1" d="M65.768,60.569c0.717,0.559-0.115,1.357-0.578,2.03
			c-0.379,0.552-0.762,1.015-1.064,1.305c-0.16-0.736,0.357-1.28,0.725-1.884C65.209,61.428,65.477,60.974,65.768,60.569z"/>
		<path fill-rule="evenodd" clip-rule="evenodd" fill="#BDBFC1" d="M12.252,60.714c0.167,0.027,0.258,0.131,0.435,0.146
			c-0.24,0.952-0.626,1.961-1.014,2.852c-0.118,0.267-0.153,0.659-0.436,0.725c-0.202-0.107,0.013-0.603,0.097-0.871
			C11.616,62.658,12.07,61.706,12.252,60.714z"/>
		<path fill-rule="evenodd" clip-rule="evenodd" fill="#BDBFC1" d="M54.311,61.003c-0.275,0.191-0.879,0.059-1.305,0.098
			C53.121,60.458,53.885,60.88,54.311,61.003z"/>
		<path fill-rule="evenodd" clip-rule="evenodd" fill="#BDBFC1" d="M10.899,62.696c-0.136,0.511-0.351,0.939-0.484,1.45
			c-2.061-0.905-4.334-1.599-6.382-2.513c-0.098-0.346,0.183-0.586,0.338-0.823C6.759,61.229,8.629,62.161,10.899,62.696z"/>
		<path fill-rule="evenodd" clip-rule="evenodd" fill="#BDBFC1" d="M68.525,60.908c0.119,0.186,0.299,0.313,0.338,0.579
			c-0.215,0.094-0.42,0.194-0.676,0.241c-0.193-0.115-0.287-0.326-0.34-0.579C68.051,61.048,68.299,60.989,68.525,60.908z"/>
		<path fill-rule="evenodd" clip-rule="evenodd" fill="#BDBFC1" d="M56.342,78.166c0.16-0.566,0.266-1.184,0.578-1.594
			c-0.088-0.623,0.326-1.41,0.535-2.176c0.166-0.615,0.369-1.14,0.576-1.692c0.449-1.178,0.521-2.435,1.111-3.434
			c0.275-1.343,0.893-2.48,1.262-3.77c0.168-0.601,0.23-1.214,0.385-1.789c0.219-0.827,0.73-1.521,0.869-2.515
			c0.414-0.038,0.758-0.148,1.111-0.241c-1.283,5.533-3.383,10.667-4.881,16.147C57.375,77.428,56.824,77.973,56.342,78.166z"/>
		<path fill-rule="evenodd" clip-rule="evenodd" fill="#BDBFC1" d="M13.218,61.295c0.382,0.199,0.662,0.498,1.065,0.677
			c0.635,0.98,1.335,1.917,2.03,2.9c0.205,0.29,0.609,0.591,0.532,1.016c-0.696-0.425-1.199-1.248-1.886-2.03
			c-0.271-0.311-0.565-0.676-0.92-1.112C13.705,62.328,13.056,61.885,13.218,61.295z"/>
		<path fill-rule="evenodd" clip-rule="evenodd" fill="#BDBFC1" d="M54.068,61.295c-0.029,0.245-0.215,0.332-0.289,0.531
			c-0.434,0-0.871,0-1.307,0C52.561,61.204,53.334,61.267,54.068,61.295z"/>
		<path fill-rule="evenodd" clip-rule="evenodd" fill="#BDBFC1" d="M66.35,61.439c0.121,0.089,0.119,0.299,0.24,0.387
			c-0.268,0.511-0.633,1.024-0.967,1.499c-0.307,0.435-0.641,1.063-1.307,1.111C64.789,63.425,65.58,62.314,66.35,61.439z"/>
		<path fill-rule="evenodd" clip-rule="evenodd" fill="#BDBFC1" d="M59.725,61.682c-0.266,1.246-0.824,2.623-1.207,3.915
			c-0.793-0.278-0.238-1.353,0.049-2.176c0.217-0.626,0.453-1.191,0.627-1.595C59.367,61.772,59.586,61.767,59.725,61.682z"/>
		<path fill-rule="evenodd" clip-rule="evenodd" fill="#BDBFC1" d="M68.668,62.552c-0.111-0.228-0.305-0.372-0.338-0.678
			C69.008,61.194,69.533,62.442,68.668,62.552z"/>
		<path fill-rule="evenodd" clip-rule="evenodd" fill="#BDBFC1" d="M58.904,61.874c0.08-0.018,0.09,0.038,0.096,0.098
			c-0.465,0.869-0.768,1.907-1.158,2.852c-0.643-0.631-1.145-1.402-1.695-2.127C56.988,62.345,58.055,62.22,58.904,61.874z"/>
		<path fill-rule="evenodd" clip-rule="evenodd" fill="#BDBFC1" d="M53.584,62.021c-0.375,0.349-1.137,0.311-1.641,0.531
			C51.807,62.073,52.818,61.915,53.584,62.021z"/>
		<path fill-rule="evenodd" clip-rule="evenodd" fill="#BDBFC1" d="M66.688,62.115c0.176,0.068,0.178,0.307,0.338,0.387
			c-0.254,0.412-0.557,0.871-0.871,1.305c-0.26,0.358-0.551,1.005-1.111,0.919C65.416,63.681,66.164,63.012,66.688,62.115z"/>
		<path fill-rule="evenodd" clip-rule="evenodd" fill="#BDBFC1" d="M15.009,62.552c0.031,0,0.063,0,0.095,0
			c0.729,0.64,1.622,1.118,2.37,1.739c-0.09,0.425-0.338,0.693-0.438,1.112C16.355,64.458,15.703,63.481,15.009,62.552z"/>
		<path fill-rule="evenodd" clip-rule="evenodd" fill="#BDBFC1" d="M12.446,63.904c0.06-0.472,0.278-0.785,0.338-1.257
			c0.785,0.602,1.203,1.566,1.933,2.225C13.866,64.835,13.158,64.237,12.446,63.904z"/>
		<path fill-rule="evenodd" clip-rule="evenodd" fill="#BDBFC1" d="M55.471,62.794c0.098,0,0.193,0,0.289,0
			c0.814,1.103,1.768,2.067,2.563,3.189c-0.02,0.155-0.09,0.263-0.096,0.437C57.26,65.29,56.229,63.969,55.471,62.794z"/>
		<path fill-rule="evenodd" clip-rule="evenodd" fill="#BDBFC1" d="M4.615,62.986c0.307,0.128,0.656,0.212,0.964,0.339
			c0.003,0.486-0.144,0.821-0.239,1.207C5.021,64.092,4.834,63.523,4.615,62.986z"/>
		<path fill-rule="evenodd" clip-rule="evenodd" fill="#BDBFC1" d="M6.354,63.179c0.108,0.038,0.189,0.104,0.336,0.098
			c-0.146,0.979-0.454,1.798-0.578,2.805C5.411,65.354,6.257,64.134,6.354,63.179z"/>
		<path fill-rule="evenodd" clip-rule="evenodd" fill="#BDBFC1" d="M57.695,67.819c-2.176,0.313-4.387-0.15-6.188-0.531
			c0.781-1.472,1.885-2.702,2.754-4.061c0.004-0.007,0.041,0.006,0.049,0C55.525,64.671,56.545,66.312,57.695,67.819z"/>
		<path fill-rule="evenodd" clip-rule="evenodd" fill="#BDBFC1" d="M8.287,63.904c-0.324,1.271-1.108,2.083-1.597,3.19
			c-0.171-1.189,0.438-2.429,0.726-3.48C7.773,63.646,7.966,63.841,8.287,63.904z"/>
		<path fill-rule="evenodd" clip-rule="evenodd" fill="#BDBFC1" d="M38.987,82.857c-0.193-0.52-0.443-0.977-0.678-1.451
			c2.901-3.85,5.691-7.813,8.604-11.651c0.555-1.147,1.432-2.208,2.177-3.24c0.667-0.922,1.341-1.802,2.08-2.61
			c0.514,0.03,0.816-0.148,1.207-0.241c0.039-0.01,0.047,0.018,0.047,0.049C48.011,70.158,43.879,76.887,38.987,82.857z"/>
		<path fill-rule="evenodd" clip-rule="evenodd" fill="#BDBFC1" d="M67.801,63.807c0.154,0.134,0.23,0.349,0.338,0.532
			c-0.063,0.213-0.15,0.4-0.244,0.58c-0.207-0.082-0.426-0.151-0.629-0.241C67.438,64.384,67.535,64.011,67.801,63.807z"/>
		<path fill-rule="evenodd" clip-rule="evenodd" fill="#BDBFC1" d="M63.352,63.857c0.094,0.763,0.295,1.904,0.482,2.898
			c0.191,1.027,0.246,2.036,0.387,2.901c0.041,0.243,0.219,0.553,0.193,0.773c-0.039,0.354-0.76,1.098-1.063,1.45
			c-1.121,1.305-2.105,2.393-3.432,3.482c-0.047,0.037-0.117,0.283-0.242,0.145C60.816,71.536,62.168,67.783,63.352,63.857z
			 M63.207,67.87c0.49-0.11,0.326-1.484-0.389-1.161C62.309,66.94,62.639,67.993,63.207,67.87z M62.674,68.885
			c0.098,0.717,0.072,1.952,0.82,2.176c-0.055-0.735-0.234-1.346-0.287-2.081C63.068,68.907,62.904,68.864,62.674,68.885z
			 M61.998,71.061c-0.701,0.035-0.473,1.497,0.434,1.159C62.682,71.733,62.459,71.034,61.998,71.061z"/>
		<path fill-rule="evenodd" clip-rule="evenodd" fill="#BDBFC1" d="M8.964,64.195c0.042,0.036,0.11,0.053,0.194,0.049
			c-0.432,1.276-1.271,2.563-1.934,3.77c-0.335-0.272,0-0.655,0.144-0.919c0.48-0.865,1.104-1.869,1.547-2.756
			C8.942,64.301,8.967,64.262,8.964,64.195z"/>
		<path fill-rule="evenodd" clip-rule="evenodd" fill="#BDBFC1" d="M13.604,65.79c-0.928-0.165-2.159-0.45-3.142-0.726
			c-0.328,0.295-0.196,0.839-0.241,1.45c-0.111,1.555-0.677,3.059-0.773,4.593c-0.171-0.056-0.178-0.273-0.338-0.339
			c0.346-2.036,0.307-4.46,0.868-6.283C11.048,65.063,12.489,65.264,13.604,65.79z"/>
		<path fill-rule="evenodd" clip-rule="evenodd" fill="#BDBFC1" d="M17.958,64.63c0.284,0.182,0.558,0.375,0.868,0.532
			c-0.837,1.803-1.654,3.63-2.32,5.606c-0.399,0.084-0.781,0.186-1.257,0.194C16.191,68.893,17.036,66.724,17.958,64.63z"/>
		<path fill-rule="evenodd" clip-rule="evenodd" fill="#BDBFC1" d="M64.221,64.726c1.053,0.369,2.16,0.68,3.191,1.064
			c-0.041,0.265-0.236,0.376-0.289,0.63c-0.934-0.311-1.893-0.593-2.807-0.919C64.25,65.277,64.197,65.043,64.221,64.726z"/>
		<path fill-rule="evenodd" clip-rule="evenodd" fill="#BDBFC1" d="M9.062,65.017c-0.018,1.612-0.335,3.34-0.533,4.932
			c-0.49-0.287-0.431-1.143-0.434-1.789c-0.31,0.012-0.268,0.377-0.387,0.58c-0.157-0.132-0.252-0.329-0.34-0.533
			C7.902,67.113,8.526,66.109,9.062,65.017z"/>
		<path fill-rule="evenodd" clip-rule="evenodd" fill="#BDBFC1" d="M19.213,65.501c0.249,0.138,0.53,0.243,0.726,0.435
			c-0.574,1.646-1.451,2.996-2.08,4.593c-0.248,0.04-0.487,0.091-0.725,0.146C17.738,68.86,18.511,67.216,19.213,65.501z"/>
		<path fill-rule="evenodd" clip-rule="evenodd" fill="#BDBFC1" d="M11.091,65.79c1.355,0.205,2.733,0.773,3.918,1.209
			c0.397,0.146,0.903,0.16,1.158,0.533c-1.123,0.073-2.279-0.654-3.48-0.823c0.374,1.121,1.206,1.933,1.74,2.996
			c0.146,0.286,0.478,0.7,0.29,1.063C13.406,69.211,12.274,67.476,11.091,65.79z"/>
		<path fill-rule="evenodd" clip-rule="evenodd" fill="#BDBFC1" d="M64.365,65.838c0.855,0.275,1.74,0.518,2.564,0.823
			c-0.082,0.271-0.236,0.474-0.387,0.677c-0.748-0.188-1.346-0.526-2.031-0.774C64.506,66.277,64.412,66.081,64.365,65.838z"/>
		<path fill-rule="evenodd" clip-rule="evenodd" fill="#BDBFC1" d="M13.849,65.983c0.825,0.126,1.944,0.374,2.657,0.772
			C15.669,66.829,14.678,66.236,13.849,65.983z"/>
		<path fill-rule="evenodd" clip-rule="evenodd" fill="#BDBFC1" d="M25.547,66.128c0.45,0.275,0.888,0.562,1.353,0.823
			c-0.203,0.408-0.418,0.805-0.579,1.255c1.098,0.246,2.151-0.705,3.047-0.095c-1.228,0.35-2.559,0.6-3.87,0.868
			C25.462,67.979,25.561,67.11,25.547,66.128z"/>
		<path fill-rule="evenodd" clip-rule="evenodd" fill="#BDBFC1" d="M47.543,66.274c0.323,0.771-0.041,1.914-0.531,2.029
			c0.041-0.575,0.145-1.05,0.047-1.643C47.146,66.455,47.42,66.441,47.543,66.274z"/>
		<path fill-rule="evenodd" clip-rule="evenodd" fill="#BDBFC1" d="M20.954,66.756c-0.506,1.188-1.095,2.291-1.597,3.481
			c-0.271,0.053-0.562,0.084-0.82,0.145c0.509-1.44,1.221-2.678,1.787-4.06C20.626,66.378,20.769,66.587,20.954,66.756z"/>
		<path fill-rule="evenodd" clip-rule="evenodd" fill="#FFFFFF" d="M62.818,66.709c0.715-0.323,0.879,1.051,0.389,1.161
			C62.639,67.993,62.309,66.94,62.818,66.709z"/>
		<path fill-rule="evenodd" clip-rule="evenodd" fill="#BDBFC1" d="M10.802,66.807c1.396,1.194,2.333,2.853,3.434,4.349
			c-0.487,0.104-0.789-0.447-1.064-0.773c-0.602-0.711-1.013-1.381-1.645-2.223C11.219,67.749,10.66,67.243,10.802,66.807z"/>
		<path fill-rule="evenodd" clip-rule="evenodd" fill="#BDBFC1" d="M64.561,66.901c0.557,0.266,1.18,0.467,1.836,0.631
			c0,0.209-0.154,0.262-0.193,0.434c-0.545-0.179-1.088-0.363-1.596-0.58C64.617,67.198,64.609,67.029,64.561,66.901z"/>
		<path fill-rule="evenodd" clip-rule="evenodd" fill="#BDBFC1" d="M46.432,66.951c0.087,0.65,0.072,1.618,0,2.272
			c-0.471,0.158-1.1,0.157-1.741,0.146c0.019-0.513-0.046-1.112,0.05-1.55c0.17-0.056,0.261-0.188,0.484-0.192
			c0.02,0.332-0.101,0.807,0.289,0.773c0.284-0.102,0.085-0.688,0.145-1.015C45.881,67.208,46.208,67.131,46.432,66.951z"/>
		<path fill-rule="evenodd" clip-rule="evenodd" fill="#BDBFC1" d="M21.244,66.999c0.307,0.174,0.585,0.381,0.822,0.628
			c-0.271,0.89-0.796,1.526-1.112,2.37c-0.318,0.035-0.653,0.056-0.918,0.145C20.313,69.161,20.862,68.035,21.244,66.999z"/>
		<path fill-rule="evenodd" clip-rule="evenodd" fill="#BDBFC1" d="M27.045,67.048c0.496,0.213,0.907,0.51,1.451,0.677
			c-0.551,0.207-1.277,0.237-1.887,0.387C26.713,67.715,26.882,67.384,27.045,67.048z"/>
		<path fill-rule="evenodd" clip-rule="evenodd" fill="#BDBFC1" d="M13.171,67.143c0.896,0.313,1.965,0.452,2.754,0.871
			c-0.638,0.272-1.152-0.384-1.885-0.339c0.183,0.95,1.096,1.417,0.969,2.515C14.371,69.199,13.765,68.175,13.171,67.143z"/>
		<path fill-rule="evenodd" clip-rule="evenodd" fill="#BDBFC1" d="M10.657,67.481c1.051,1.156,1.863,2.551,2.9,3.723
			c-0.446,0.438-0.842-0.301-1.111-0.676c-0.603-0.827-1.33-1.992-1.886-2.658C10.573,67.718,10.608,67.595,10.657,67.481z"/>
		<path fill-rule="evenodd" clip-rule="evenodd" fill="#BDBFC1" d="M14.476,68.014c0.412,0.133,0.768,0.328,1.258,0.387
			c-0.128,0.391-0.372,0.659-0.436,1.112C14.991,69.046,14.661,68.604,14.476,68.014z"/>
		<path fill-rule="evenodd" clip-rule="evenodd" fill="#BDBFC1" d="M44.207,68.062c0.037,0.521-0.078,0.889-0.047,1.402
			c-0.383-0.149-0.268-0.797-0.291-1.305C44.021,68.167,44.031,68.031,44.207,68.062z"/>
		<path fill-rule="evenodd" clip-rule="evenodd" fill="#BDBFC1" d="M43.578,68.257c0.136,0.328-0.006,0.797,0,1.159
			c-0.729,0.076-1.515,0.098-2.224,0.194c0-0.227,0-0.453,0-0.679c0.275-0.047,0.534-0.111,0.773-0.192
			c0.279,0.077,0.283,0.428,0.582,0.484C43.136,69.035,43.112,68.4,43.578,68.257z"/>
		<path fill-rule="evenodd" clip-rule="evenodd" fill="#BDBFC1" d="M64.803,68.257c0.355,0.077,0.693,0.175,1.014,0.288
			c-0.258,0.418-0.563,0.791-0.822,1.21C64.826,69.359,64.814,68.806,64.803,68.257z"/>
		<path fill-rule="evenodd" clip-rule="evenodd" fill="#BDBFC1" d="M10.463,68.304c0.899,0.857,1.68,2.091,2.224,3.144
			c-0.919,0.079-1.881,0.371-2.708,0.386C10.146,70.664,10.348,69.526,10.463,68.304z"/>
		<path fill-rule="evenodd" clip-rule="evenodd" fill="#BDBFC1" d="M50.686,68.4c0.729,1.462,1.297,3.089,1.982,4.593
			c-1.672,0.108-2.777-0.77-4.399-0.871C48.969,70.777,49.899,69.661,50.686,68.4z"/>
		<path fill-rule="evenodd" clip-rule="evenodd" fill="#BDBFC1" d="M31.348,68.885c0.548,0.981,1.025,2.036,1.546,3.044
			c-2.195,3.077-4.419,6.274-6.862,9.187c-0.322,0.383-0.578,0.908-1.064,1.111c0-4.141,0.327-7.953,0.482-11.942
			C27.338,69.743,29.405,69.374,31.348,68.885z M25.981,71.061c-0.098,1.789-0.054,3.52-0.194,5.316
			c-0.043,0.563-0.213,1.121-0.24,1.693c-0.025,0.529,0.038,1.066,0,1.594c-0.021,0.313-0.255,1.074,0.193,1.111
			c0.289,0.027,0.614-0.711,0.773-0.965c0.26-0.412,0.534-0.758,0.726-1.016c0.611-0.832,0.872-1.479,1.402-2.078
			c0.107-0.125,0.35-0.244,0.434-0.34c0.275-0.316,0.475-0.756,0.726-1.109c0.546-0.775,1.028-1.326,1.595-2.129
			c0.224-0.315,0.717-0.871,0.726-1.16c0.019-0.594-0.997-1.994-1.16-2.273C29.257,70.113,27.457,70.424,25.981,71.061z"/>
		<path fill-rule="evenodd" clip-rule="evenodd" fill="#FFFFFF" d="M63.207,68.979c0.053,0.735,0.232,1.346,0.287,2.081
			c-0.748-0.224-0.723-1.459-0.82-2.176C62.904,68.864,63.068,68.907,63.207,68.979z"/>
		<path fill-rule="evenodd" clip-rule="evenodd" fill="#BDBFC1" d="M32.024,68.932c0.14,0.052,0.279,0.107,0.483,0.098
			c0.286,0.568,0.597,1.11,0.87,1.692c0.65-0.251,0.627-1.386,1.45-1.306c-0.476,0.715-1.019,1.365-1.498,2.078
			C32.781,70.751,32.419,69.827,32.024,68.932z"/>
		<path fill-rule="evenodd" clip-rule="evenodd" fill="#BDBFC1" d="M40.775,69.077c0.073,1.018-0.076,2.694-0.098,4.014
			c-0.711-0.036-1.3,0.052-1.981,0.048c-0.111-0.696-0.017-1.594-0.048-2.37c0.437-0.479,0.852-0.981,1.207-1.545
			C40.218,69.23,40.451,69.109,40.775,69.077z M40.194,70.817c-0.649-0.658-1.498,0.578-0.772,1.209
			C40.306,72.289,40.557,71.184,40.194,70.817z"/>
		<path fill-rule="evenodd" clip-rule="evenodd" fill="#BDBFC1" d="M33.378,69.224c0.205,0.035,0.424,0.06,0.627,0.095
			c-0.063,0.128-0.203,0.184-0.24,0.339C33.571,69.579,33.442,69.433,33.378,69.224z"/>
		<path fill-rule="evenodd" clip-rule="evenodd" fill="#BDBFC1" d="M58.322,69.513c-1.467,0.304-3.021,0.523-4.494,0.822
			c0.611,1.315,1.344,2.544,2.078,3.771c0.232,0.387,0.596,0.811,0.531,1.305c-0.164,0.07-0.342-0.314-0.482-0.531
			c-1.049-1.601-2.07-3.594-2.9-5.463c1.225,0.093,2.789-0.22,4.107-0.146C57.543,69.293,58.037,69.294,58.322,69.513z"/>
		<path fill-rule="evenodd" clip-rule="evenodd" fill="#BDBFC1" d="M38.841,69.369c0.083,0.145-0.225,0.343-0.388,0.53
			c-0.57,0.66-1.17,1.531-1.837,2.127c-0.21,0.653-0.89,1.04-1.304,1.546c-0.225,0.275-0.28,0.684-0.677,0.777
			c-0.049-0.227-0.144-0.404-0.244-0.582c1.203-1.506,2.451-2.967,3.772-4.352C38.401,69.409,38.674,69.442,38.841,69.369z"/>
		<path fill-rule="evenodd" clip-rule="evenodd" fill="#BDBFC1" d="M37.68,69.464c0.021,0.172-0.169,0.345-0.289,0.484
			c-0.952,1.109-2.1,2.378-3.046,3.53c-0.191-0.45-0.763-0.789-0.773-1.259c-0.01-0.521,1.363-2.059,1.789-2.609
			c0.034-0.045,0.067-0.136,0.146-0.146C36.253,69.489,36.948,69.542,37.68,69.464z"/>
		<path fill-rule="evenodd" clip-rule="evenodd" fill="#FFFFFF" d="M30.961,69.705c0.163,0.279,1.179,1.68,1.16,2.273
			c-0.009,0.289-0.502,0.845-0.726,1.16c-0.566,0.803-1.049,1.354-1.595,2.129c-0.251,0.354-0.45,0.793-0.726,1.109
			c-0.084,0.096-0.326,0.215-0.434,0.34c-0.53,0.6-0.791,1.246-1.402,2.078c-0.191,0.258-0.466,0.604-0.726,1.016
			c-0.159,0.254-0.484,0.992-0.773,0.965c-0.448-0.037-0.215-0.799-0.193-1.111c0.038-0.527-0.025-1.064,0-1.594
			c0.027-0.572,0.197-1.131,0.24-1.693c0.141-1.797,0.097-3.527,0.194-5.316C27.457,70.424,29.257,70.113,30.961,69.705z"/>
		<path fill-rule="evenodd" clip-rule="evenodd" fill="#BDBFC1" d="M58.18,69.997c-0.104,0.252-0.115,0.595-0.291,0.771
			c-0.969,0.049-2.045-0.014-2.805,0.241c0.09,0.654,0.568,1.236,0.871,1.888c0.287,0.616,0.789,1.243,0.676,1.933
			c-0.91-1.33-1.645-2.835-2.418-4.302C55.328,70.173,56.842,69.969,58.18,69.997z"/>
		<path fill-rule="evenodd" clip-rule="evenodd" fill="#BDBFC1" d="M24.771,70.431c0.285,0.129,0.114,0.651,0.098,0.969
			c-0.174,3.423-0.481,6.946-0.484,10.634c-0.457-0.121-0.844-0.314-1.255-0.48c0.303-3.412,0.825-6.781,0.966-10.203
			c-0.439,0.675-0.736,1.448-1.063,2.176c-0.979,2.186-1.991,4.385-3.094,6.479c-0.177-0.064-0.3-0.184-0.483-0.242
			c1.271-3.031,2.663-6.361,4.303-9.186C24.095,70.526,24.453,70.496,24.771,70.431z"/>
		<path fill-rule="evenodd" clip-rule="evenodd" fill="#BDBFC1" d="M23.273,70.674c0.041-0.01,0.048,0.018,0.048,0.048
			c-0.847,1.725-1.687,3.515-2.513,5.366c-0.541,1.207-1.005,2.451-1.692,3.432c-0.16,0.002-0.164-0.156-0.338-0.143
			c1.155-2.973,2.521-5.729,3.867-8.511C22.847,70.796,23.12,70.792,23.273,70.674z"/>
		<path fill-rule="evenodd" clip-rule="evenodd" fill="#FFFFFF" d="M39.422,72.026c-0.726-0.631,0.123-1.867,0.772-1.209
			C40.557,71.184,40.306,72.289,39.422,72.026z"/>
		<path fill-rule="evenodd" clip-rule="evenodd" fill="#BDBFC1" d="M45.225,70.963c-0.024,0.154-0.186,0.171-0.195,0.339
			c-1.264-0.027-2.521-0.059-3.675-0.194c0.004-0.075-0.024-0.183,0.048-0.192C42.63,70.787,44.018,70.911,45.225,70.963z"/>
		<path fill-rule="evenodd" clip-rule="evenodd" fill="#BDBFC1" d="M21.774,71.01c0.017,0.335-0.148,0.689-0.288,1.017
			c-0.962,2.243-2.31,4.628-3.19,7.011c-0.311-0.158-0.567-0.367-0.871-0.531c1.18-2.48,2.35-4.967,3.577-7.398
			C21.311,71.128,21.512,71.036,21.774,71.01z"/>
		<path fill-rule="evenodd" clip-rule="evenodd" fill="#BDBFC1" d="M57.793,71.061c-0.154,1.168-0.688,1.956-0.92,3.045
			c-0.57-0.896-1.102-1.83-1.451-2.95C56.199,71.112,57.033,71.124,57.793,71.061z"/>
		<path fill-rule="evenodd" clip-rule="evenodd" fill="#FFFFFF" d="M62.432,72.22c-0.906,0.338-1.135-1.124-0.434-1.159
			C62.459,71.034,62.682,71.733,62.432,72.22z"/>
		<path fill-rule="evenodd" clip-rule="evenodd" fill="#BDBFC1" d="M20.229,71.302c-1.04,2.327-2.168,4.569-3.239,6.864
			c-0.495-0.324-1.021-0.621-1.401-1.063c0.111,0.014,0.186-0.008,0.241-0.049c-0.383-0.631-0.709-1.32-1.256-1.787
			c-0.184,0.188-0.15,0.59-0.195,0.918c-0.701-0.668-1.621-1.117-2.028-2.08c-0.625-0.107-1.004-0.773-1.402-1.259
			C14.1,72.391,17.132,71.813,20.229,71.302z M17.134,72.704c-0.433,0.448-1.215,0.741-1.209,1.45
			c0.581,0.145,1.345,0.107,1.934,0.242c0.17-0.629-0.134-1.557-0.192-2.274c-0.01-0.036-0.039-0.056-0.095-0.047
			C17.346,72.229,17.331,72.501,17.134,72.704z M13.267,73.091c0.184,0.593,0.669,0.88,0.821,1.499
			c0.384-0.348,0.786-1.119,0.629-1.692C14.245,72.973,13.685,72.961,13.267,73.091z M16.748,76.814
			c0.12-0.623,0.659-0.824,0.772-1.451c-0.555,0.006-0.831-0.266-1.4-0.242C16.331,75.684,16.271,76.514,16.748,76.814z"/>
		<path fill-rule="evenodd" clip-rule="evenodd" fill="#BDBFC1" d="M44.69,71.64c-0.319,0.552-0.659,1.081-1.112,1.499
			c-0.853-0.076-1.543,0.039-2.271,0c-0.024-0.588,0.086-1.042,0.048-1.645C42.473,71.347,43.614,71.588,44.69,71.64z M41.741,72.46
			c0.492,0.084,1.213,0.16,1.741,0.051C43.551,72.064,41.776,71.634,41.741,72.46z"/>
		<path fill-rule="evenodd" clip-rule="evenodd" fill="#BDBFC1" d="M38.066,71.494c0.046,1.842,0.133,3.639,0.339,5.32
			c-0.45-0.033-0.718,0.119-1.159,0.094c-0.288-1.15-0.16-2.367-0.194-3.43c-0.006-0.209-0.087-0.422-0.048-0.632
			C37.094,72.375,37.879,71.831,38.066,71.494z"/>
		<path fill-rule="evenodd" clip-rule="evenodd" fill="#FFFFFF" d="M43.482,72.511c-0.528,0.109-1.249,0.033-1.741-0.051
			C41.776,71.634,43.551,72.064,43.482,72.511z"/>
		<path fill-rule="evenodd" clip-rule="evenodd" fill="#FFFFFF" d="M17.571,72.075c0.056-0.009,0.085,0.011,0.095,0.047
			c0.059,0.718,0.362,1.646,0.192,2.274c-0.589-0.135-1.353-0.098-1.934-0.242c-0.006-0.709,0.776-1.002,1.209-1.45
			C17.331,72.501,17.346,72.229,17.571,72.075z"/>
		<path fill-rule="evenodd" clip-rule="evenodd" fill="#BDBFC1" d="M52.764,73.381c-1.662,0-3.271-0.468-4.979-0.581
			c0.077-0.18,0.171-0.345,0.339-0.435C49.819,72.557,51.078,73.181,52.764,73.381z"/>
		<path fill-rule="evenodd" clip-rule="evenodd" fill="#BDBFC1" d="M37.585,84.305c-0.097,0-0.194,0-0.292,0
			c0.188-0.342,0.45-0.613,0.679-0.918c-1.711-2.865-2.914-6.238-4.787-8.943c-1.185,1.395-2.335,2.93-3.577,4.352
			c-0.932,1.066-1.984,2.006-2.9,3.047c-0.258,0.289-0.58,0.904-1.112,0.676c2.656-3.191,5.065-6.635,7.59-9.96
			c1.495,2.894,3.296,6.304,4.834,9.382c0.188,0.373,0.642,1.104,0.63,1.398C38.632,83.684,38.042,84.379,37.585,84.305z"/>
		<path fill-rule="evenodd" clip-rule="evenodd" fill="#FFFFFF" d="M14.717,72.897c0.157,0.573-0.245,1.345-0.629,1.692
			c-0.152-0.619-0.638-0.906-0.821-1.499C13.685,72.961,14.245,72.973,14.717,72.897z"/>
		<path fill-rule="evenodd" clip-rule="evenodd" fill="#BDBFC1" d="M36.665,73.091c-0.033,1.126,0.457,2.603,0.146,3.771
			C36.46,75.936,36.261,74.029,36.665,73.091z"/>
		<path fill-rule="evenodd" clip-rule="evenodd" fill="#BDBFC1" d="M43.387,73.332c-0.09,0.316-0.299,0.508-0.484,0.725
			c-1.369,0-2.74,0-4.11,0c0.011-0.238-0.203-0.447-0.049-0.676C40.207,73.182,41.78,73.391,43.387,73.332z"/>
		<path fill-rule="evenodd" clip-rule="evenodd" fill="#BDBFC1" d="M23.66,73.43c0.124,0.33-0.203,0.635-0.191,1.014
			C23.321,74.09,23.645,73.781,23.66,73.43z"/>
		<path fill-rule="evenodd" clip-rule="evenodd" fill="#BDBFC1" d="M36.134,73.865c0.164,0.781,0.092,2.1,0.242,3.043
			c-0.497,0.244-0.629-0.451-0.822-0.867c-0.183-0.395-0.353-0.723-0.483-0.92C35.479,74.754,35.858,74.359,36.134,73.865z"/>
		<path fill-rule="evenodd" clip-rule="evenodd" fill="#BDBFC1" d="M48.025,74.105c1.436,0.049,2.711,0.461,4.158,0.338
			c-0.146,1.113-0.504,2.43-0.676,3.676c-0.178-0.035-0.236-0.184-0.389-0.242c0.07-1.076,0.346-1.941,0.58-2.854
			c-1.176-0.02-2.246-0.385-3.287-0.385C48.31,74.434,48.105,74.332,48.025,74.105z"/>
		<path fill-rule="evenodd" clip-rule="evenodd" fill="#BDBFC1" d="M38.841,74.252c1.307,0,2.611,0,3.916,0
			c-0.225,0.484-0.586,0.83-0.87,1.256c-0.971,0.059-1.969,0.094-2.997,0.096C38.915,75.137,38.788,74.586,38.841,74.252z
			 M39.422,74.686c0.016,0.113,0.075,0.18,0.047,0.338c0.714-0.092,1.878,0.266,2.031-0.385
			C40.836,74.59,39.956,74.439,39.422,74.686z"/>
		<path fill-rule="evenodd" clip-rule="evenodd" fill="#BDBFC1" d="M52.184,80.682c-0.359,0.137-0.686,0.313-1.014,0.48
			c-1.546-1.771-3.204-3.432-4.447-5.508c-0.195-0.191-0.482-0.297-0.582-0.582c0.207-0.197,0.351-0.455,0.531-0.676
			c0.042-0.01,0.046,0.018,0.051,0.047c0.032,0,0.063,0,0.096,0c1.269,1.623,2.674,3.352,4.156,4.836
			C51.412,79.717,51.891,80.148,52.184,80.682z"/>
		<path fill-rule="evenodd" clip-rule="evenodd" fill="#FFFFFF" d="M41.5,74.639c-0.153,0.65-1.317,0.293-2.031,0.385
			c0.028-0.158-0.031-0.225-0.047-0.338C39.956,74.439,40.836,74.59,41.5,74.639z"/>
		<path fill-rule="evenodd" clip-rule="evenodd" fill="#BDBFC1" d="M23.564,74.83c0.012,2.221-0.396,4.439-0.532,6.672
			c-0.209-0.064-0.388-0.158-0.579-0.242C22.794,79.088,23.346,77.125,23.564,74.83z"/>
		<path fill-rule="evenodd" clip-rule="evenodd" fill="#BDBFC1" d="M53.682,74.879c0.078-0.014,0.084,0.045,0.146,0.049
			c0.381,0.43,0.732,0.932,1.064,1.449c0.311,0.488,0.787,0.988,0.82,1.596c-0.133,0.031-0.309-0.225-0.434-0.387
			c-0.398-0.51-0.822-1.244-1.258-1.74c-0.385,0.07-0.352,0.549-0.438,0.822c-0.26,0.852-0.773,1.75-0.916,2.756
			c-0.457-0.119-0.223-0.727-0.146-1.064C52.781,77.234,53.307,75.846,53.682,74.879z"/>
		<path fill-rule="evenodd" clip-rule="evenodd" fill="#BDBFC1" d="M48.703,74.977c0.741,0.049,1.77,0.229,2.609,0.338
			c-0.109,0.775-0.279,1.492-0.385,2.271C50.022,76.912,49.364,75.736,48.703,74.977z"/>
		<path fill-rule="evenodd" clip-rule="evenodd" fill="#FFFFFF" d="M16.12,75.121c0.569-0.023,0.846,0.248,1.4,0.242
			c-0.113,0.627-0.652,0.828-0.772,1.451C16.271,76.514,16.331,75.684,16.12,75.121z"/>
		<path fill-rule="evenodd" clip-rule="evenodd" fill="#BDBFC1" d="M36.473,84.305c-0.243,0-0.484,0-0.726,0
			c0.06-0.506,0.797-0.756,0.82-1.305c0.015-0.295-0.276-0.496-0.434-0.773c-0.247-0.432-0.389-0.98-0.678-1.498
			c-0.748-1.348-1.71-3.008-2.415-4.207c-0.812,0.82-1.463,1.688-2.224,2.516c-1.268,1.377-2.782,2.473-4.013,3.82
			c-0.056-0.18,0.146-0.328,0.24-0.438c0.951-1.107,2.026-2.049,2.998-3.092c1.133-1.221,2.152-2.525,3.094-3.867
			c0.815,0.977,1.339,2.316,1.98,3.867c0.264,0.627,0.666,1.252,1.017,1.932c0.195,0.381,0.939,1.615,0.918,2.031
			C37.031,83.689,36.438,83.947,36.473,84.305z"/>
		<path fill-rule="evenodd" clip-rule="evenodd" fill="#BDBFC1" d="M23.225,75.748c-0.081,1.838-0.649,3.605-0.918,5.414
			c-0.548-0.141-0.123-0.871-0.048-1.207C22.562,78.596,22.951,77.121,23.225,75.748z"/>
		<path fill-rule="evenodd" clip-rule="evenodd" fill="#BDBFC1" d="M38.938,75.846c0.917-0.018,1.81,0.029,2.611,0
			c-0.243,0.854-1.639,0.555-2.468,0.822C38.994,76.432,38.997,76.109,38.938,75.846z"/>
		<path fill-rule="evenodd" clip-rule="evenodd" fill="#BDBFC1" d="M45.561,76.041c1.335,2.016,3.085,3.617,4.399,5.654
			c-0.298-0.027-0.625,0.395-0.966,0.338c-0.297-0.047-0.921-0.973-1.112-1.207c-1.004-1.227-2.1-2.768-2.853-3.965
			C45.156,76.535,45.401,76.33,45.561,76.041z"/>
		<path fill-rule="evenodd" clip-rule="evenodd" fill="#BDBFC1" d="M53.924,76.33c0.395,0.162,0.553,0.676,0.92,1.16
			c0.279,0.369,0.746,0.799,0.676,1.16c-0.059,0.307-0.791,0.611-1.063,0.773c-0.465,0.275-0.801,0.438-1.162,0.678
			c-0.236-0.117-0.414-0.295-0.531-0.533C53.139,78.475,53.539,77.41,53.924,76.33z"/>
		<path fill-rule="evenodd" clip-rule="evenodd" fill="#BDBFC1" d="M22.84,76.428c-0.174,1.471-0.725,2.982-0.967,4.543
			c-0.17-0.008-0.218-0.139-0.387-0.145C21.919,79.342,22.396,77.902,22.84,76.428z"/>
		<path fill-rule="evenodd" clip-rule="evenodd" fill="#BDBFC1" d="M40.968,76.668c-1.16,0.709-3.11,0.627-4.543,1.064
			c-0.109-0.166-0.224-0.326-0.244-0.58C38.05,77.264,39.354,76.811,40.968,76.668z"/>
		<path fill-rule="evenodd" clip-rule="evenodd" fill="#BDBFC1" d="M32.846,76.959c1.166,1.992,2.296,4.021,3.384,6.09
			c-0.169,0.457-0.467,0.791-0.676,1.209c-0.273,0-0.548,0-0.823,0c0.09-0.461,0.787-0.615,0.823-1.111
			c0.027-0.381-0.381-0.629-0.531-0.92c-0.324-0.619-0.701-1.406-1.064-2.078c-0.261-0.484-0.833-1.852-1.255-1.885
			c-0.31-0.025-0.763,0.662-1.065,0.967c-1.339,1.34-2.737,2.504-3.867,3.916c-0.188-0.086-0.454-0.094-0.628-0.195
			C28.896,80.809,31.362,79.377,32.846,76.959z"/>
		<path fill-rule="evenodd" clip-rule="evenodd" fill="#BDBFC1" d="M40.534,77.248c-0.149,0.303-0.38,0.523-0.631,0.725
			c-1.164,0.014-2.144,0.209-3.188,0.338c-0.094-0.115-0.128-0.293-0.195-0.434C37.959,77.768,39.119,77.381,40.534,77.248z"/>
		<path fill-rule="evenodd" clip-rule="evenodd" fill="#BDBFC1" d="M47.784,82.42c-0.167,0.203-0.565,0.176-0.772,0.34
			c-1.202-1.279-2.185-2.779-3.238-4.207c0.076-0.293,0.311-0.428,0.434-0.676C45.499,79.293,46.477,81.021,47.784,82.42z"/>
		<path fill-rule="evenodd" clip-rule="evenodd" fill="#BDBFC1" d="M39.469,78.6c0.128,0.182-0.188,0.326-0.241,0.484
			c-0.771-0.029-1.272,0.209-2.029,0.195c-0.008-0.17-0.14-0.217-0.146-0.387C37.819,78.756,38.746,78.781,39.469,78.6z"/>
		<path fill-rule="evenodd" clip-rule="evenodd" fill="#BDBFC1" d="M34.005,84.209c-0.136-0.104-0.502,0.021-0.627-0.098
			c-0.122-0.406,0.707-0.633,0.725-1.111c0.014-0.336-0.507-0.963-0.725-1.4c-0.262-0.527-0.517-0.99-0.675-1.402
			c-1.194,1.08-2.297,2.248-3.531,3.287c-0.237-0.053-0.45-0.129-0.726-0.146c1.377-1.475,2.838-2.865,4.304-4.254
			c0.445,0.502,1.147,2.025,1.642,2.949c0.189,0.354,0.498,0.729,0.487,0.967C34.851,83.523,34.192,83.707,34.005,84.209z"/>
		<path fill-rule="evenodd" clip-rule="evenodd" fill="#BDBFC1" d="M43.049,79.52c0.876,1.234,1.865,2.357,2.754,3.578
			c-0.126,0.018-0.264,0.023-0.34,0.096c-0.992-0.971-1.771-2.158-2.801-3.092C42.766,79.883,42.885,79.678,43.049,79.52z"/>
		<path fill-rule="evenodd" clip-rule="evenodd" fill="#BDBFC1" d="M33.137,84.111c-0.237,0.012-0.366-0.082-0.629-0.047
			c0.175-0.469,0.597-0.693,0.87-1.064c-0.27-0.537-0.329-1.281-0.823-1.594c-0.813,0.732-1.526,1.566-2.367,2.271
			c-0.275-0.016-0.486-0.094-0.726-0.145c1.053-0.947,2.102-1.896,3.046-2.949c0.259,0.258,1.334,1.781,1.257,2.416
			C33.708,83.469,33.2,83.596,33.137,84.111z"/>
		<path fill-rule="evenodd" clip-rule="evenodd" fill="#BDBFC1" d="M42.371,81.357c0.618,0.688,1.253,1.355,1.789,2.127
			c-0.452,0.08-0.85,0.215-1.355,0.24C42.697,82.9,42.486,82.176,42.371,81.357z"/>
		<path fill-rule="evenodd" clip-rule="evenodd" fill="#BDBFC1" d="M42.08,81.889c0.362,0.396,0.313,1.203,0.435,1.836
			c-0.563,0.035-0.927-0.135-1.499-0.094C41.358,83.039,41.749,82.494,42.08,81.889z"/>
		<path fill-rule="evenodd" clip-rule="evenodd" fill="#BDBFC1" d="M32.266,82.76c-0.001,0.516-0.177,1.502-0.967,1.111
			C31.566,83.447,31.953,83.139,32.266,82.76z"/>
		<path fill-rule="evenodd" clip-rule="evenodd" fill="#BDBFC1" d="M41.645,83.92c-0.457,0.08-1.043,0.213-1.497,0.145
			C40.47,83.826,41.151,83.844,41.645,83.92z"/>
		<path fill-rule="evenodd" clip-rule="evenodd" fill="#BDBFC1" d="M43.578,15.367c0.314,0.09,0.701,0.106,0.969,0.241
			c0.008,0.284,0.697,0.302,0.726,0.725C44.547,16.172,44.172,15.662,43.578,15.367z"/>
		<path fill-rule="evenodd" clip-rule="evenodd" fill="#BDBFC1" d="M48.174,16.625c0.533,0.205,1.111,0.369,1.594,0.627
			c0.982,1.597,2.244,2.911,2.996,4.738c-0.35-0.053-0.748-0.056-1.16-0.048C50.426,20.203,49.237,18.476,48.174,16.625z"/>
		<path fill-rule="evenodd" clip-rule="evenodd" fill="#BDBFC1" d="M58.807,22.618c0.273,0.243,0.58,0.453,0.824,0.725
			c0.271,3.183,2.248,5.669,3.963,7.783c0.566,0.7,0.904,0.951,1.691,1.451c0.668,0.425,1.393,0.752,2.32,0.969
			c0.195,0.272,0.316,0.617,0.484,0.919c-0.904-0.194-1.506-0.429-2.176-0.823c-2.52-1.481-3.822-3.293-5.223-5.898
			c-0.814-1.519-1.455-3.214-1.738-4.979C58.881,22.737,58.832,22.688,58.807,22.618z"/>
		<path fill-rule="evenodd" clip-rule="evenodd" fill="#BDBFC1" d="M60.209,23.876c0.344,0.221,0.604,0.526,0.869,0.823
			c0.939,3.027,2.828,5.101,5.271,6.623c0.373,0.497,0.662,1.077,0.967,1.642c-1.021-0.37-1.996-0.722-2.805-1.448
			c-0.479-0.431-0.857-1.091-1.305-1.645c-0.455-0.562-0.863-1.112-1.258-1.691C61.033,26.834,60.564,25.432,60.209,23.876z"/>
		<path fill-rule="evenodd" clip-rule="evenodd" fill="#BDBFC1" d="M64.654,28.807c0.42,0.47,0.75,1.022,1.113,1.547
			c-1.127-0.805-2.072-1.652-2.803-2.852c-0.457-0.752-0.725-1.676-1.354-2.272c0.709,0.644,1.314,1.394,1.932,2.126
			c-0.041-0.021-0.084-0.042-0.096-0.095C63.689,27.743,64.137,28.44,64.654,28.807z"/>
		<path fill-rule="evenodd" clip-rule="evenodd" fill="#FFFFFF" d="M59.631,23.343c0.199,0.171,0.432,0.31,0.578,0.533
			c0.355,1.556,0.824,2.958,1.74,4.303c0.395,0.58,0.803,1.13,1.258,1.691c0.447,0.553,0.826,1.213,1.305,1.645
			c0.809,0.727,1.783,1.078,2.805,1.448c0.09,0.199,0.24,0.341,0.289,0.582c-0.928-0.217-1.652-0.544-2.32-0.969
			c-0.787-0.5-1.125-0.75-1.691-1.451C61.879,29.012,59.902,26.526,59.631,23.343z"/>
		<path fill-rule="evenodd" clip-rule="evenodd" fill="#BDBFC1" d="M29.656,15.899c-1.011,0.875-2.103,1.667-3.096,2.563
			c0.161-0.742,1.125-1.102,1.547-1.739C28.67,16.521,29.131,15.975,29.656,15.899z"/>
		<path fill-rule="evenodd" clip-rule="evenodd" fill="#BDBFC1" d="M31.493,18.414c-0.055,0.253-0.549,0.48-0.773,0.725
			C30.721,18.832,31.224,18.611,31.493,18.414z"/>
		<path fill-rule="evenodd" clip-rule="evenodd" fill="#BDBFC1" d="M48.123,31.708c-0.115,0.028-0.351-0.062-0.386,0.048
			c-0.525-0.524-0.814-1.282-1.163-1.983c-0.228-0.038-0.311,0.076-0.529,0.048c-0.172-0.327-0.333-0.666-0.484-1.014
			c0.01-0.151,0.261-0.063,0.242-0.241c-0.278-1.142-0.874-1.965-1.304-2.949c-0.23,0.027-0.467,0.049-0.63,0.144
			c-0.271-0.354-0.415-0.841-0.58-1.305c-0.264,0.109-0.464,0.279-0.677,0.437c0.165,0.819,0.569,1.395,0.87,2.078
			c0.231-0.028,0.371-0.146,0.63-0.146c0.303,0.502,0.541,1.069,0.82,1.597c-0.016,0.227-0.286,0.195-0.339,0.387
			c0.339,0.823,0.754,1.566,1.209,2.272c0.171-0.006,0.217-0.138,0.385-0.146c0.246,0.401,0.428,0.865,0.679,1.257
			c-0.599-0.127-1.181-0.688-1.886-0.869c-0.788-1.162-1.74-2.662-2.368-4.255c-0.079-0.198-0.201-0.5-0.337-0.773
			c-0.122-0.241-0.369-0.508-0.389-0.676c-0.055-0.457,0.44-1.113,0.628-1.548c0.242-0.555,0.424-1.006,0.677-1.45
			c2.73,4.41,5.503,8.775,8.17,13.246c0.068,0.059,0.004,0.021-0.049,0c-0.633-0.701-1.328-1.344-2.078-1.932
			C48.89,33.163,48.416,32.524,48.123,31.708z"/>
		<path fill-rule="evenodd" clip-rule="evenodd" fill="#BDBFC1" d="M54.844,23.682c-1.1,2.061-2.793,3.946-4.209,5.851
			c1.086,0.571,2.447,0.654,3.871,0.773c1.334,0.113,2.545,0.705,3.674,0.918c-1.088,0.317-2.012-0.269-3.047-0.434
			c-1.803-0.289-4.055-0.213-5.945-0.484C50.936,27.962,53.027,25.961,54.844,23.682z"/>
		<path fill-rule="evenodd" clip-rule="evenodd" fill="#FFFFFF" d="M61.078,24.699c0.197,0.155,0.377,0.332,0.533,0.531
			c0.629,0.596,0.896,1.521,1.354,2.272c0.73,1.199,1.676,2.046,2.803,2.852c0.174,0.342,0.436,0.595,0.582,0.967
			C63.906,29.8,62.018,27.726,61.078,24.699z"/>
		<path fill-rule="evenodd" clip-rule="evenodd" fill="#FFFFFF" d="M64.654,28.807c-0.518-0.367-0.965-1.064-1.207-1.546
			c0.012,0.053,0.055,0.074,0.096,0.095C63.914,27.842,64.328,28.281,64.654,28.807z"/>
		<path fill-rule="evenodd" clip-rule="evenodd" fill="#BDBFC1" d="M8.577,29.048c-0.014,0.174,0.146,0.178,0.146,0.338
			c-0.398,0.344-0.773,0.711-1.159,1.065C7.731,30.195,8.182,29.396,8.577,29.048z"/>
		<path fill-rule="evenodd" clip-rule="evenodd" fill="#BDBFC1" d="M8.819,29.532c0.433,0.542-0.494,1.088-0.869,1.451
			c-0.479,0.463-1.022,0.917-1.451,1.258C6.928,31.186,7.963,30.317,8.819,29.532z"/>
		<path fill-rule="evenodd" clip-rule="evenodd" fill="#BDBFC1" d="M43.578,30.739c0.074-0.119,0.168-0.218,0.339-0.241
			c0.042,0.167,0.15,0.269,0.243,0.387C44.031,30.965,43.798,30.734,43.578,30.739z"/>
		<path fill-rule="evenodd" clip-rule="evenodd" fill="#BDBFC1" d="M5.822,33.399c0.289,0.033,0.485,0.16,0.726,0.242
			c-0.691,1.208-1.626,2.177-2.319,3.384C4.57,35.823,5.261,34.546,5.822,33.399z"/>
		<path fill-rule="evenodd" clip-rule="evenodd" fill="#BDBFC1" d="M59.143,48.918c-0.771-0.08-1.719-0.406-2.512-0.629
			c0.055-0.511-0.17-0.982-0.047-1.401c0.328,0.188,0.402,0.627,0.578,0.966c0.066-0.05,0.182-0.048,0.244-0.098
			c0.088-0.638-0.33-1.183-0.486-1.74c-0.02-0.108-0.236-0.021-0.336-0.048c-0.539-0.865-0.604-2.2-1.064-3.142
			c0.158-0.067,0.15,0.17,0.193,0.241C56.838,44.897,58.088,46.986,59.143,48.918z"/>
		<path fill-rule="evenodd" clip-rule="evenodd" fill="#BDBFC1" d="M57.162,51.722c-0.182-0.105-0.395-0.185-0.578-0.29
			c0.02-0.22,0.072-0.408,0.047-0.676c0.531,0.257,1.072,0.508,1.498,0.871c-0.65,1.039-1.436,1.944-2.078,2.996
			C56.141,53.569,56.594,52.456,57.162,51.722z"/>
		<path fill-rule="evenodd" clip-rule="evenodd" fill="#BDBFC1" d="M9.351,52.254c0.191-0.47,0.441-0.881,0.676-1.305
			c0.896,0.528,1.319,1.446,2.033,2.126c1.727,1.647,3.749,3.134,5.701,4.691c0.393,0.308,0.913,0.614,1.163,0.918
			c0.438,0.533,0.548,1.313,1.062,1.787c-1.813-1.199-3.582-2.614-5.316-4.061C12.936,54.964,10.881,53.889,9.351,52.254z"/>
		<path fill-rule="evenodd" clip-rule="evenodd" fill="#FFFFFF" d="M61.225,59.409c-0.311-1.025-0.67-2.006-1.016-2.998
			c-0.355,0.51-0.73,1.132-1.016,1.742c-0.078,0.167-0.061,0.516-0.34,0.531c-0.256-0.197,0.043-0.53,0.146-0.726
			c0.363-0.681,0.838-1.521,1.209-2.224c0.803,0.613,1.744,1.09,2.609,1.645c-0.332,0.843-1.068,1.283-1.16,2.367
			c-0.607-0.004-0.928-0.296-1.352-0.483C60.176,59.204,60.93,59.42,61.225,59.409z M61.467,59.312
			c0.225-0.723,0.754-1.145,1.012-1.837c-0.568-0.572-1.457-0.828-2.123-1.305C60.656,57.285,60.967,58.394,61.467,59.312z"/>
		<path fill-rule="evenodd" clip-rule="evenodd" fill="#BDBFC1" d="M7.514,57.767c1.304,0.742,2.736,1.776,4.254,2.465
			c-0.131,0.481-0.288,0.935-0.434,1.402c-0.604-0.301-0.859-0.893-1.258-1.402C9.354,59.308,8.203,58.729,7.514,57.767z"/>
		<path fill-rule="evenodd" clip-rule="evenodd" fill="#BDBFC1" d="M5.097,59.458c0.237-0.474,0.799-0.104,1.16,0.048
			c0.402,0.169,0.814,0.447,1.257,0.29c-0.081-0.324-0.44-0.533-0.676-0.773c-0.203-0.205-0.271-0.404-0.483-0.629
			c-0.138-0.143-0.54-0.227-0.387-0.532c0.362,0.031,0.534,0.438,0.773,0.677c0.715,0.714,1.528,1.499,2.273,2.225
			C7.735,60.493,6.406,59.855,5.097,59.458z"/>
		<path fill-rule="evenodd" clip-rule="evenodd" fill="#BDBFC1" d="M3.503,60.085c0.066-0.077,0.224,0.161,0.289,0.244
			c0.02,0.115-0.09,0.103-0.051,0.24C3.574,60.497,3.633,60.197,3.503,60.085z"/>
		<path fill-rule="evenodd" clip-rule="evenodd" fill="#BDBFC1" d="M12.976,62.068c1.211,1.027,2.247,2.653,3.386,3.915
			c-1.543-0.264-2.84-0.771-4.159-1.258c-0.031-0.193,0.049-0.275,0.05-0.435c0.921,0.319,1.942,0.536,2.899,0.823
			C14.618,64.1,13.46,63.293,12.976,62.068z"/>
		<path fill-rule="evenodd" clip-rule="evenodd" fill="#BDBFC1" d="M65.719,64.97c0.373-0.806,0.865-1.489,1.404-2.129
			c0.164,0.017,0.191,0.162,0.24,0.291c0.043,0.155-0.156,0.067-0.193,0.145c-0.15,0.71-1.35,1.639-0.145,2.031
			C66.807,65.359,66.158,65.02,65.719,64.97z"/>
		<path fill-rule="evenodd" clip-rule="evenodd" fill="#BDBFC1" d="M8.724,64.099C8.329,65.252,7.5,66.39,6.935,67.532
			c-0.265-0.244,0.056-0.619,0.192-0.871c0.142-0.258,0.326-0.529,0.484-0.823C7.914,65.28,8.284,64.322,8.724,64.099z"/>
		<path fill-rule="evenodd" clip-rule="evenodd" fill="#BDBFC1" d="M49.621,64.726c-0.396,0.764-1.057,1.682-1.739,2.322
			c0.101-0.339-0.123-0.627-0.048-0.871c0.089-0.289,0.644-0.517,0.916-0.726C49.108,65.18,49.401,64.949,49.621,64.726z"/>
		<path fill-rule="evenodd" clip-rule="evenodd" fill="#BDBFC1" d="M45.706,70.284c0.068,0.136-0.216,0.334-0.339,0.438
			c-0.937,0.004-2.02-0.055-2.949-0.098c-0.342-0.017-0.841,0.13-1.063-0.145C42.539,70.151,44.419,70.356,45.706,70.284z"/>
		<path fill-rule="evenodd" clip-rule="evenodd" fill="#BDBFC1" d="M20.229,80.148c-0.255-0.172,0.119-0.623,0.243-0.869
			c1.016-2.057,2.136-4.334,3.093-6.479c-0.014-0.086,0.046-0.1,0.047-0.048c-0.792,2.252-1.952,4.422-2.9,6.625
			C20.603,79.627,20.595,80.107,20.229,80.148z"/>
		<path fill-rule="evenodd" clip-rule="evenodd" fill="#BDBFC1" d="M20.858,80.486c-0.124-0.039-0.191-0.133-0.339-0.145
			c0.536-1.543,1.411-3.164,2.126-4.688c-0.007-0.119,0.06-0.084,0.05,0C22.081,77.264,21.46,78.865,20.858,80.486z"/>
		<path fill-rule="evenodd" clip-rule="evenodd" fill="#BDBFC1" d="M21.341,80.729c-0.174,0.012-0.178-0.145-0.339-0.145
			c0.569-1.639,1.199-3.215,1.838-4.787c-0.007-0.119,0.06-0.082,0.047,0C22.321,77.389,21.851,79.08,21.341,80.729z"/>
		<path fill-rule="evenodd" clip-rule="evenodd" fill="#BDBFC1" d="M38.89,79.377c-0.081,0.463-0.632,0.883-0.871,1.352
			c-0.215-0.381-0.444-0.748-0.58-1.209C37.948,79.5,38.44,79.457,38.89,79.377z"/>
		<path fill-rule="evenodd" clip-rule="evenodd" fill="#BDBFC1" d="M61.369,52.834c0.85,1.327,1.605,2.747,2.418,4.109
			c-0.17,0.928-0.377,1.814-0.631,2.66c-2.578,0.659-5.18,1.297-7.734,1.98C57.371,58.632,59.311,55.674,61.369,52.834z
			 M60.307,59.264c0.424,0.188,0.744,0.479,1.352,0.483c0.092-1.084,0.828-1.524,1.16-2.367c-0.865-0.555-1.807-1.031-2.609-1.645
			c-0.371,0.703-0.846,1.543-1.209,2.224c-0.104,0.195-0.402,0.528-0.146,0.726c0.279-0.016,0.262-0.364,0.34-0.531
			c0.285-0.61,0.66-1.232,1.016-1.742c0.346,0.992,0.705,1.973,1.016,2.998C60.93,59.42,60.176,59.204,60.307,59.264z"/>
	</g>
</g>
</svg>
