<?xml version="1.0" encoding="utf-8"?>
<!-- Generator: Adobe Illustrator 13.0.0, SVG Export Plug-In . SVG Version: 6.00 Build 14948)  -->
<!DOCTYPE svg PUBLIC "-//W3C//DTD SVG 1.1//EN" "http://www.w3.org/Graphics/SVG/1.1/DTD/svg11.dtd">
<svg version="1.1" id="Layer_1" xmlns="http://www.w3.org/2000/svg" xmlns:xlink="http://www.w3.org/1999/xlink" x="0px" y="0px"
	 width="100px" height="100px" viewBox="0 0 100 100" enable-background="new 0 0 100 100" xml:space="preserve">
<g>
	<path d="M12.294,2.298c-5.004,0-9.207,3.422-10.401,8.055l32.206-8.055H12.294z M55.989,27.85c1.14-5.37-1.79-12.205-3.744-14.483
		c-1.95-2.279-6.833-3.092-10.902-2.116c-4.068,0.977-31.247,7.648-31.247,7.648l6.511,24.736c0,0,23.761-6.021,27.504-6.996
		C47.851,35.661,54.852,33.22,55.989,27.85z M57.942,2.298h-1.813c3.225,1.479,6.086,3.91,7.59,7.813
		c4.395,11.391,4.395,17.088,2.442,23.596c-1.955,6.51-9.116,10.09-11.882,11.394c-0.544,0.254,8.898,10.307,14.402,16.094V13.041
		C68.682,7.108,63.874,2.298,57.942,2.298z M1.554,68.943c0,5.929,4.808,10.74,10.74,10.74h1.459l-12.2-49.587L1.554,68.943
		L1.554,68.943z M18.967,54.864l6.671,24.819h32.305c3.575,0,6.743-1.753,8.692-4.44L43.052,48.679L18.967,54.864z"/>
	<g>
		<g>
			<path d="M81.68,2.997l-0.846,4.817h-4.625l0.848-4.817h-3.334L71.545,15.35h3.336l0.903-5.136h4.624l-0.904,5.136h3.332
				l2.178-12.353H81.68z M97.439,5.247c-0.035-0.571-0.167-1.008-0.395-1.313c-0.162-0.215-0.359-0.381-0.593-0.505
				c-0.231-0.123-0.478-0.219-0.739-0.281c-0.27-0.065-0.539-0.106-0.818-0.125c-0.281-0.017-0.545-0.025-0.791-0.025h-7.596
				l-0.424,2.4h3.646l0,0h0.22c0.199,0,2.957,0.015,3.204,0.043c0.248,0.03,0.456,0.14,0.622,0.327
				c0.197,0.225,0.281,0.477,0.265,0.759c-0.022,0.284-0.052,0.535-0.091,0.759l-0.65,3.688c-0.111,0.636-0.305,1.123-0.574,1.463
				c-0.272,0.343-0.733,0.513-1.381,0.513h-3.539l1.117-6.333h-3.054l-1.539,8.733h6.731c0.234,0,0.521-0.004,0.859-0.008
				c0.334-0.008,0.685-0.041,1.049-0.098c0.362-0.06,0.725-0.149,1.088-0.266c0.361-0.118,0.691-0.295,0.992-0.53
				c0.244-0.188,0.453-0.401,0.623-0.636s0.312-0.478,0.418-0.723c0.109-0.248,0.195-0.495,0.266-0.74
				c0.066-0.248,0.119-0.478,0.156-0.689l0.722-4.094C97.407,6.591,97.471,5.818,97.439,5.247z"/>
		</g>
	</g>
	<g>
		<path d="M1.554,97.451V82.74h6.252c1.572,0,2.715,0.134,3.427,0.396c0.712,0.264,1.283,0.734,1.709,1.41
			c0.428,0.676,0.643,1.449,0.643,2.316c0,1.105-0.325,2.02-0.974,2.736c-0.648,0.718-1.619,1.171-2.911,1.361
			c0.644,0.371,1.175,0.783,1.592,1.23c0.417,0.449,0.981,1.246,1.691,2.389l1.796,2.87h-3.555l-2.146-3.202
			c-0.763-1.144-1.283-1.865-1.565-2.16c-0.282-0.299-0.579-0.502-0.893-0.612c-0.314-0.111-0.813-0.166-1.496-0.166h-0.6v6.142
			L1.554,97.451L1.554,97.451z M4.524,88.962h2.199c1.423,0,2.313-0.061,2.667-0.18c0.354-0.121,0.632-0.33,0.835-0.622
			c0.198-0.295,0.3-0.663,0.3-1.104c0-0.493-0.132-0.896-0.396-1.197c-0.267-0.307-0.639-0.499-1.119-0.579
			c-0.243-0.032-0.965-0.049-2.169-0.049H4.524V88.962z"/>
		<path d="M15.783,90.186c0-1.497,0.224-2.755,0.672-3.772c0.336-0.75,0.792-1.423,1.369-2.016c0.578-0.596,1.214-1.037,1.903-1.325
			c0.916-0.389,1.973-0.581,3.171-0.581c2.168,0,3.904,0.671,5.204,2.016c1.301,1.346,1.952,3.215,1.952,5.608
			c0,2.376-0.647,4.234-1.938,5.577c-1.29,1.339-3.018,2.01-5.178,2.01c-2.187,0-3.928-0.667-5.218-2.001
			C16.429,94.366,15.783,92.526,15.783,90.186z M18.844,90.089c0,1.664,0.386,2.928,1.154,3.787
			c0.768,0.858,1.747,1.289,2.929,1.289c1.186,0,2.157-0.428,2.917-1.279c0.758-0.854,1.138-2.133,1.138-3.84
			c0-1.686-0.369-2.942-1.11-3.771c-0.737-0.832-1.72-1.245-2.945-1.245c-1.223,0-2.21,0.419-2.96,1.261
			C19.22,87.126,18.844,88.394,18.844,90.089z"/>
		<path d="M36.235,97.451v-6.19l-5.389-8.521h3.484l3.461,5.821l3.39-5.821h3.422l-5.406,8.541v6.17H36.235z"/>
		<path d="M57.459,97.451h-3.23l-1.285-3.34h-5.878l-1.214,3.34h-3.15l5.727-14.711h3.143L57.459,97.451z M51.988,91.63
			l-2.025-5.457l-1.989,5.457H51.988z"/>
		<path d="M59.115,97.451v-14.59h2.971v12.11h7.385v2.479H59.115z"/>
	</g>
</g>
<g>
	<path fill="#FFFFFF" d="M12.292,2.297c-5.001,0-9.208,3.42-10.401,8.054l32.207-8.054H12.292z M55.989,27.849
		c1.139-5.372-1.791-12.206-3.742-14.484c-1.955-2.279-6.837-3.094-10.904-2.116c-4.067,0.976-31.247,7.649-31.247,7.649
		l6.51,24.736c0,0,23.76-6.021,27.503-6.998C47.852,35.658,54.849,33.217,55.989,27.849z M57.941,2.297h-1.813
		c3.224,1.478,6.086,3.908,7.591,7.812c4.393,11.392,4.393,17.088,2.44,23.598c-1.951,6.508-9.113,10.089-11.881,11.39
		c-0.543,0.257,8.899,10.308,14.403,16.095V13.038C68.682,7.107,63.872,2.297,57.941,2.297z M1.552,68.938
		c0,5.935,4.81,10.744,10.74,10.744h1.459L1.552,30.095V68.938z M18.964,54.862l6.671,24.818h32.306c3.577,0,6.743-1.75,8.694-4.441
		L43.049,48.679L18.964,54.862z"/>
	<g>
		<g>
			<path fill="#FFFFFF" d="M81.68,2.995l-0.849,4.817h-4.625l0.851-4.817h-3.336l-2.177,12.354h3.336l0.902-5.135h4.625
				l-0.904,5.135h3.332l2.182-12.354H81.68z M97.44,5.247c-0.035-0.571-0.168-1.01-0.395-1.316
				c-0.166-0.211-0.361-0.379-0.594-0.502c-0.229-0.123-0.479-0.218-0.742-0.282c-0.267-0.065-0.539-0.107-0.817-0.125
				c-0.276-0.019-0.542-0.027-0.792-0.027h-7.596l-0.424,2.4h3.646l0,0h0.221c0.198,0,2.957,0.016,3.203,0.045
				c0.247,0.029,0.454,0.139,0.623,0.325c0.196,0.226,0.283,0.477,0.262,0.761c-0.021,0.282-0.047,0.535-0.09,0.759l-0.647,3.686
				c-0.111,0.636-0.306,1.125-0.578,1.465c-0.271,0.341-0.729,0.514-1.378,0.514h-3.537l1.117-6.333h-3.055l-1.541,8.732h6.734
				c0.23,0,0.518-0.004,0.855-0.009c0.336-0.005,0.688-0.038,1.049-0.097c0.365-0.058,0.726-0.146,1.087-0.264
				c0.36-0.117,0.692-0.294,0.993-0.529c0.246-0.189,0.453-0.401,0.625-0.636c0.171-0.235,0.311-0.478,0.421-0.723
				c0.106-0.248,0.192-0.495,0.26-0.743c0.067-0.246,0.119-0.477,0.158-0.687l0.723-4.094C97.405,6.588,97.473,5.815,97.44,5.247z"
				/>
		</g>
	</g>
	<g>
		<path fill="#FFFFFF" d="M1.552,97.45V82.737h6.252c1.572,0,2.713,0.132,3.426,0.397c0.714,0.265,1.283,0.733,1.713,1.407
			c0.427,0.679,0.642,1.452,0.642,2.32c0,1.104-0.324,2.014-0.975,2.732c-0.647,0.721-1.619,1.174-2.909,1.36
			c0.641,0.375,1.171,0.788,1.589,1.233c0.42,0.451,0.983,1.248,1.692,2.391l1.796,2.869h-3.552L9.08,94.247
			c-0.763-1.145-1.287-1.865-1.567-2.163c-0.28-0.298-0.578-0.501-0.893-0.612c-0.316-0.111-0.813-0.164-1.496-0.164H4.521v6.142
			L1.552,97.45L1.552,97.45z M4.521,88.961H6.72c1.425,0,2.316-0.062,2.67-0.181c0.354-0.12,0.633-0.328,0.833-0.622
			c0.201-0.298,0.3-0.665,0.3-1.105c0-0.493-0.132-0.894-0.396-1.196c-0.264-0.307-0.638-0.498-1.12-0.578
			c-0.241-0.034-0.963-0.051-2.168-0.051H4.521V88.961z"/>
		<path fill="#FFFFFF" d="M15.782,90.185c0-1.498,0.226-2.754,0.674-3.772c0.333-0.748,0.791-1.421,1.37-2.017
			c0.578-0.595,1.212-1.037,1.9-1.324c0.918-0.389,1.974-0.584,3.171-0.584c2.168,0,3.901,0.673,5.203,2.019
			c1.302,1.345,1.95,3.215,1.95,5.608c0,2.373-0.643,4.234-1.935,5.574c-1.292,1.344-3.018,2.015-5.179,2.015
			c-2.188,0-3.926-0.667-5.217-2.004C16.426,94.364,15.782,92.526,15.782,90.185z M18.844,90.085c0,1.667,0.383,2.927,1.152,3.787
			c0.771,0.859,1.746,1.29,2.931,1.29c1.184,0,2.154-0.427,2.915-1.279c0.759-0.854,1.141-2.131,1.141-3.838
			c0-1.687-0.373-2.944-1.11-3.772c-0.741-0.83-1.722-1.246-2.945-1.246c-1.225,0-2.211,0.423-2.961,1.259
			C19.218,87.126,18.844,88.392,18.844,90.085z"/>
		<path fill="#FFFFFF" d="M36.233,97.45v-6.192l-5.388-8.521h3.48l3.461,5.822l3.394-5.822h3.422l-5.41,8.541v6.172H36.233z"/>
		<path fill="#FFFFFF" d="M57.456,97.45h-3.229l-1.282-3.342h-5.884l-1.214,3.342h-3.151l5.73-14.713h3.141L57.456,97.45z
			 M51.989,91.63l-2.025-5.46l-1.988,5.46H51.989z"/>
		<path fill="#FFFFFF" d="M59.114,97.45V82.856h2.969V94.97h7.387v2.479L59.114,97.45L59.114,97.45z"/>
	</g>
</g>
</svg>
