<?xml version="1.0" encoding="utf-8"?>
<!-- Generator: Adobe Illustrator 13.0.0, SVG Export Plug-In . SVG Version: 6.00 Build 14948)  -->
<!DOCTYPE svg PUBLIC "-//W3C//DTD SVG 1.1//EN" "http://www.w3.org/Graphics/SVG/1.1/DTD/svg11.dtd">
<svg version="1.1" id="Layer_1" xmlns="http://www.w3.org/2000/svg" xmlns:xlink="http://www.w3.org/1999/xlink" x="0px" y="0px"
	 width="100px" height="100px" viewBox="0 0 100 100" enable-background="new 0 0 100 100" xml:space="preserve">
<g>
	<g>
		<g>
			<path fill="#DB2727" d="M97.258,43.787C95.697,31.79,73.052,24.844,46.674,28.275C20.297,31.706,0.181,44.214,1.742,56.215
				c1.56,11.995,24.208,18.94,50.584,15.512C78.703,68.295,98.82,55.787,97.258,43.787z M53.718,69.934
				c-25.06,3.261-46.576-3.34-48.058-14.736c-0.71-5.456,3.3-11.021,10.417-15.7c-4.252,3.719-6.512,7.855-6.074,11.991
				c1.21,11.431,22.563,18.54,47.693,15.879c9.056-0.96,17.363-3.057,24.231-5.879C74.474,65.442,64.664,68.512,53.718,69.934z
				 M82.922,60.502c4.252-3.721,6.512-7.854,6.074-11.99c-1.211-11.431-22.563-18.541-47.693-15.879
				c-9.055,0.959-17.363,3.056-24.231,5.88c7.455-3.956,17.265-7.024,28.211-8.448c25.06-3.258,46.575,3.339,48.057,14.738
				C94.049,50.258,90.041,55.824,82.922,60.502z"/>
		</g>
	</g>
	<g>
		<path fill="#FFFFFF" d="M36.368,49.938c-0.999-0.711-2.458-1.065-4.376-1.065h-9.473c-0.562,0-0.979-0.082-1.252-0.247
			c-0.272-0.164-0.409-0.449-0.409-0.854c0-0.406,0.137-0.686,0.409-0.843c0.273-0.156,0.69-0.234,1.252-0.234h14.908l0.018-4.071
			H22.894c-1.186,0-2.205,0.117-3.054,0.351c-0.851,0.234-1.545,0.561-2.083,0.982c-0.538,0.421-0.936,0.933-1.194,1.533
			c-0.257,0.601-0.386,1.268-0.386,2.001c0,0.67,0.117,1.283,0.352,1.836c0.233,0.554,0.593,1.025,1.076,1.417
			c0.483,0.39,1.092,0.694,1.826,0.912c0.732,0.219,1.606,0.328,2.621,0.328h9.473c0.577,0,0.999,0.086,1.264,0.257
			c0.265,0.173,0.398,0.461,0.398,0.866s-0.133,0.7-0.398,0.877c-0.265,0.181-0.687,0.271-1.264,0.271H16.422l0.148,4.024h14.579
			c1.185,0,2.203-0.117,3.053-0.351c0.851-0.234,1.548-0.57,2.094-1.006c0.547-0.438,0.944-0.977,1.194-1.615
			c0.25-0.641,0.375-1.357,0.375-2.153C37.865,51.719,37.366,50.646,36.368,49.938z M57.688,50.229
			c0.264-0.094,0.525-0.23,0.782-0.41c0.259-0.179,0.483-0.405,0.679-0.678s0.354-0.589,0.48-0.947
			c0.125-0.36,0.188-0.773,0.188-1.241c0-0.718-0.145-1.346-0.434-1.883c-0.289-0.539-0.702-0.992-1.24-1.358
			c-0.537-0.367-1.186-0.638-1.941-0.819c-0.757-0.18-1.604-0.269-2.537-0.269l-13.665-0.01l0.018,15.665h13.762
			c1.23,0,2.258-0.117,3.075-0.352c0.819-0.233,1.472-0.553,1.954-0.961c0.484-0.404,0.827-0.884,1.029-1.438
			c0.203-0.555,0.306-1.158,0.306-1.813c0-0.938-0.237-1.701-0.713-2.295C58.953,50.83,58.373,50.433,57.688,50.229z M44.852,46.696
			h9.021c0.342,0,0.654,0.07,0.936,0.211s0.422,0.406,0.422,0.795c0,0.405-0.138,0.684-0.41,0.831
			c-0.271,0.147-0.588,0.222-0.947,0.222h-9.02L44.852,46.696L44.852,46.696z M54.949,53.973c-0.234,0.188-0.617,0.281-1.146,0.281
			h-8.917V52.1h8.917c0.529,0,0.912,0.092,1.146,0.271c0.233,0.18,0.352,0.439,0.352,0.783
			C55.299,53.512,55.183,53.787,54.949,53.973z M76.688,42.624v9.197l-9.594-8.612c-0.391-0.36-0.738-0.588-1.041-0.691
			c-0.305-0.1-0.604-0.151-0.901-0.151c-0.344,0-0.674,0.056-0.993,0.164c-0.32,0.11-0.602,0.281-0.844,0.516
			c-0.242,0.234-0.438,0.537-0.585,0.912c-0.147,0.374-0.224,0.819-0.224,1.334V58.28h4.4v-9.197l9.592,8.612
			c0.377,0.359,0.717,0.59,1.021,0.689c0.306,0.103,0.612,0.152,0.925,0.152c0.344,0,0.68-0.055,1.006-0.164
			c0.328-0.109,0.612-0.283,0.854-0.525c0.241-0.241,0.437-0.551,0.585-0.924c0.148-0.375,0.222-0.82,0.222-1.336V42.624H76.688z"/>
	</g>
</g>
</svg>
