<?xml version="1.0" encoding="utf-8"?>
<!-- Generator: Adobe Illustrator 13.0.0, SVG Export Plug-In . SVG Version: 6.00 Build 14948)  -->
<!DOCTYPE svg PUBLIC "-//W3C//DTD SVG 1.1//EN" "http://www.w3.org/Graphics/SVG/1.1/DTD/svg11.dtd">
<svg version="1.1" id="Layer_1" xmlns="http://www.w3.org/2000/svg" xmlns:xlink="http://www.w3.org/1999/xlink" x="0px" y="0px"
	 width="100px" height="100px" viewBox="0 0 100 100" enable-background="new 0 0 100 100" xml:space="preserve">
<g>
	<g>
		<polygon fill="#EBEBEB" points="76.186,69.244 58.316,52.986 58.316,2.685 76.186,18.944 		"/>
	</g>
	<g>
		
			<linearGradient id="SVGID_1_" gradientUnits="userSpaceOnUse" x1="278.3291" y1="-274.4331" x2="314.3164" y2="-274.4331" gradientTransform="matrix(1 0 0 -1 -256 -263.5)">
			<stop  offset="0" style="stop-color:#F7F7F7"/>
			<stop  offset="0.3019" style="stop-color:#F4F4F4"/>
			<stop  offset="0.5199" style="stop-color:#EBEBEB"/>
			<stop  offset="0.7115" style="stop-color:#DBDBDB"/>
			<stop  offset="0.8869" style="stop-color:#C5C5C5"/>
			<stop  offset="1" style="stop-color:#B2B2B2"/>
		</linearGradient>
		<polygon fill="url(#SVGID_1_)" points="40.619,19.17 58.316,19.17 58.316,2.696 22.329,2.696 		"/>
	</g>
	<g>
		<polygon fill="#EBEBEB" points="21.989,3.023 39.856,19.283 39.856,69.584 21.989,53.326 		"/>
	</g>
	<g>
		
			<linearGradient id="SVGID_2_" gradientUnits="userSpaceOnUse" x1="-297.9268" y1="-3712.834" x2="-261.9375" y2="-3712.834" gradientTransform="matrix(-1 0 0 1 -222.0811 3774.1699)">
			<stop  offset="0" style="stop-color:#FAFAFA"/>
			<stop  offset="0.2978" style="stop-color:#F7F7F7"/>
			<stop  offset="0.5128" style="stop-color:#EEEEEE"/>
			<stop  offset="0.7017" style="stop-color:#DEDEDE"/>
			<stop  offset="0.8747" style="stop-color:#C8C8C8"/>
			<stop  offset="1" style="stop-color:#B2B2B2"/>
		</linearGradient>
		<polygon fill="url(#SVGID_2_)" points="57.555,53.098 39.856,53.098 39.856,69.574 75.846,69.574 		"/>
	</g>
	<g>
		<path fill="#EBEBEB" d="M32.104,83.557c0,0.471-0.108,0.938-0.329,1.396c-0.219,0.459-0.526,0.849-0.922,1.168
			c-0.433,0.348-0.938,0.617-1.514,0.813c-0.577,0.196-1.272,0.294-2.083,0.294c-0.872,0-1.655-0.082-2.352-0.244
			c-0.694-0.163-1.404-0.403-2.125-0.724v-2.014h0.113c0.613,0.509,1.319,0.9,2.12,1.176c0.802,0.275,1.555,0.416,2.258,0.416
			c0.997,0,1.771-0.188,2.326-0.561c0.554-0.373,0.833-0.873,0.833-1.496c0-0.535-0.132-0.93-0.395-1.185
			c-0.263-0.254-0.662-0.453-1.197-0.593c-0.405-0.107-0.847-0.198-1.32-0.27c-0.473-0.068-0.975-0.158-1.506-0.267
			c-1.072-0.228-1.866-0.617-2.382-1.166c-0.52-0.55-0.777-1.267-0.777-2.147c0-1.014,0.428-1.842,1.284-2.488
			s1.94-0.971,3.256-0.971c0.851,0,1.629,0.08,2.34,0.243c0.709,0.161,1.335,0.362,1.884,0.601v1.9h-0.115
			c-0.459-0.391-1.064-0.714-1.813-0.972c-0.749-0.257-1.518-0.386-2.303-0.386c-0.861,0-1.553,0.18-2.075,0.537
			s-0.784,0.816-0.784,1.379c0,0.504,0.13,0.9,0.39,1.187c0.261,0.288,0.717,0.508,1.374,0.658c0.345,0.077,0.839,0.167,1.476,0.276
			c0.64,0.107,1.181,0.217,1.625,0.332c0.899,0.238,1.575,0.599,2.031,1.08C31.878,82.016,32.104,82.69,32.104,83.557z"/>
		<path fill="#EBEBEB" d="M42.653,87.008h-7.967V74.916h7.967v1.429h-6.357v3.313h6.357v1.43h-6.357v4.492h6.357V87.008z"/>
		<path fill="#EBEBEB" d="M54.736,74.916l-4.4,12.092h-2.145l-4.399-12.092h1.72l3.792,10.638l3.794-10.638H54.736z"/>
		<path fill="#EBEBEB" d="M64.539,87.008h-7.967V74.916h7.967v1.429h-6.357v3.313h6.357v1.43h-6.357v4.492h6.357V87.008z"/>
		<path fill="#EBEBEB" d="M76.314,87.008h-1.987l-5.733-10.816v10.816H67.09V74.916h2.494l5.229,9.875v-9.875h1.504v12.092H76.314z"
			/>
	</g>
	<g>
		<path fill="#EBEBEB" d="M28.535,90.933v1.04c-0.807-0.469-1.583-0.703-2.329-0.703c-0.773,0-1.417,0.246-1.93,0.739
			c-0.512,0.489-0.768,1.106-0.768,1.849c0,0.76,0.25,1.376,0.753,1.854c0.503,0.477,1.163,0.715,1.982,0.715
			c0.785,0,1.572-0.256,2.358-0.764v1.061c-0.37,0.189-0.745,0.339-1.128,0.439c-0.383,0.104-0.824,0.153-1.319,0.153
			c-1.163,0-2.088-0.382-2.774-1.147c-0.582-0.654-0.872-1.396-0.872-2.223c0-1.037,0.348-1.891,1.045-2.563
			c0.697-0.67,1.584-1.006,2.662-1.006C26.877,90.377,27.648,90.562,28.535,90.933z"/>
		<path fill="#EBEBEB" d="M37.01,90.466v6.762h-0.971v-2.946h-3.787v2.946H31.28v-6.762h0.972v2.944h3.787v-2.944H37.01z"/>
		<path fill="#EBEBEB" d="M42.84,90.436l3.022,6.792h-0.991l-0.902-1.994h-2.875l-0.854,1.994h-0.991l2.904-6.792H42.84z
			 M42.482,91.924l-1.011,2.438h2.102L42.482,91.924z"/>
		<path fill="#EBEBEB" d="M54.35,90.466v6.762h-0.834l-4.521-5.206v5.206h-0.91v-6.762h0.772l4.58,5.233v-5.233H54.35z"/>
		<path fill="#EBEBEB" d="M63.578,90.466v6.762h-0.832l-4.521-5.206v5.206h-0.91v-6.762h0.771l4.58,5.233v-5.233H63.578z"/>
		<path fill="#EBEBEB" d="M70.389,90.466v0.873h-2.865v2.041h2.767v0.872h-2.767v2.102h2.953v0.874h-3.926v-6.762H70.389z"/>
		<path fill="#EBEBEB" d="M73.956,90.466v5.888h3.055v0.874h-4.026v-6.762H73.956z"/>
	</g>
</g>
</svg>
