<?xml version="1.0" encoding="utf-8"?>
<!-- Generator: Adobe Illustrator 16.0.0, SVG Export Plug-In . SVG Version: 6.00 Build 0)  -->
<!DOCTYPE svg PUBLIC "-//W3C//DTD SVG 1.0//EN" "http://www.w3.org/TR/2001/REC-SVG-20010904/DTD/svg10.dtd">
<svg version="1.0" id="Layer_1" xmlns="http://www.w3.org/2000/svg" xmlns:xlink="http://www.w3.org/1999/xlink" x="0px" y="0px"
	 width="100px" height="100px" viewBox="0 0 100 100" enable-background="new 0 0 100 100" xml:space="preserve">
<g>
	<linearGradient id="SVGID_1_" gradientUnits="userSpaceOnUse" x1="57.3662" y1="17.1245" x2="19.405" y2="82.8752">
		<stop  offset="0.0612" style="stop-color:#003399;stop-opacity:0.5"/>
		<stop  offset="0.4847" style="stop-color:#003399"/>
	</linearGradient>
	<circle fill="url(#SVGID_1_)" cx="38.385" cy="50" r="37.955"/>
	<linearGradient id="SVGID_2_" gradientUnits="userSpaceOnUse" x1="64.1563" y1="29.5527" x2="87.7676" y2="70.4488">
		<stop  offset="0.1429" style="stop-color:#FF0000;stop-opacity:0.5"/>
		<stop  offset="0.4847" style="stop-color:#FF0000"/>
	</linearGradient>
	<circle fill="url(#SVGID_2_)" cx="75.962" cy="50" r="23.608"/>
	<path fill="#003399" d="M68.922,27.466c-9.6,2.994-16.568,11.953-16.568,22.539s6.969,19.545,16.568,22.54
		c4.66-6.304,7.418-14.099,7.418-22.54C76.34,41.564,73.582,33.769,68.922,27.466z"/>
	<path fill="#FFFFFF" d="M38.696,58.561L32.415,40.96h-6.659l7.509,20.214c0,0,1.181,4.062,5.431,4.062
		c4.251,0,5.196-4.298,5.196-4.298l7.415-19.978h-6.423L38.696,58.561z M87.672,40.96l-6.188,17.601L75.203,40.96h-10.91v-6.864
		l-6.631,0.99v22.451c0,0,0.635,7.698,8.236,7.698c0,0,1.844,0.284,5.951-0.944l-1.889-5.384c0,0-4.439,2.03-5.619-2.125V46.485
		h6.256l5.457,14.688c0,0,1.18,4.062,5.43,4.062c4.252,0,5.195-4.298,5.195-4.298l7.416-19.978H87.672z"/>
</g>
</svg>
