<?xml version="1.0" encoding="utf-8"?>
<!-- Generator: Adobe Illustrator 13.0.0, SVG Export Plug-In . SVG Version: 6.00 Build 14948)  -->
<!DOCTYPE svg PUBLIC "-//W3C//DTD SVG 1.1//EN" "http://www.w3.org/Graphics/SVG/1.1/DTD/svg11.dtd">
<svg version="1.1" id="Layer_1" xmlns="http://www.w3.org/2000/svg" xmlns:xlink="http://www.w3.org/1999/xlink" x="0px" y="0px"
	 width="100px" height="100px" viewBox="0 0 100 100" enable-background="new 0 0 100 100" xml:space="preserve">
<g>
	<path fill="#022A56" d="M19.403,53.945c0,2.057,1.667,3.725,3.723,3.725h53.521c2.059,0,3.725-1.668,3.725-3.725v-4.417
		c0-2.055-1.666-3.723-3.725-3.723H23.126c-2.056,0-3.723,1.668-3.723,3.723V53.945z"/>
	<path fill="#043E7E" d="M76.646,45.807H23.126c-1.292,0-2.428,0.658-3.096,1.657c6.005,3.597,18.509,6.07,32.96,6.07
		c10.877,0,20.649-1.402,27.381-3.629v-0.373C80.371,47.475,78.703,45.807,76.646,45.807z"/>
	<path fill="#FFFFFF" d="M45.55,53.787c0,0.713-0.142,1.197-0.428,1.453c-0.267,0.24-0.763,0.359-1.485,0.359h-4.735
		c-0.772,0-1.289-0.146-1.552-0.436c-0.24-0.273-0.36-0.801-0.36-1.584l1.571-0.326v0.906h5.417v-1.754H39.2
		c-0.709,0-1.199-0.123-1.469-0.369c-0.286-0.262-0.431-0.74-0.431-1.439V49.75c0-0.695,0.145-1.177,0.431-1.438
		c0.272-0.249,0.764-0.373,1.469-0.373h4.347c0.727,0,1.223,0.125,1.486,0.373c0.274,0.256,0.413,0.745,0.413,1.467l-1.572,0.373
		v-0.877h-5.016v1.649h4.778c0.723,0,1.217,0.119,1.483,0.357c0.288,0.254,0.43,0.736,0.43,1.449V53.787z"/>
	<path fill="#FFFFFF" d="M56.399,49.306h-3.532v6.295h-1.779v-6.295h-3.52v-1.367h8.831V49.306z"/>
	<path fill="#FFFFFF" d="M66.246,55.602H64.24l-0.92-1.68h-4.854l-0.893,1.68h-1.763l4.315-7.662h1.726L66.246,55.602z
		 M62.592,52.541l-1.657-3.114l-1.692,3.114H62.592z"/>
	<path fill="#FFFFFF" d="M77.537,55.602h-2.555l-3.087-2.896h-1.69v2.896h-1.752v-7.662h6.545c0.582,0,1.006,0.099,1.272,0.296
		c0.31,0.234,0.463,0.629,0.463,1.189v1.798c0,0.607-0.194,1.025-0.586,1.254c-0.278,0.158-0.722,0.236-1.334,0.236
		c-0.091,0-0.228,0-0.405-0.002c-0.187-0.006-0.319-0.008-0.401-0.008L77.537,55.602z M75.013,50.791v-0.92
		c0-0.256-0.076-0.428-0.231-0.516c-0.113-0.063-0.301-0.094-0.57-0.094h-4.006V51.4h4.006c0.271,0,0.457-0.031,0.57-0.094
		C74.937,51.219,75.013,51.047,75.013,50.791z"/>
	<path fill="#E6E6E6" d="M90.192,47.744v7.92h-1.524v-3.387h-3.69v3.387h-1.522v-7.92h1.522v3.249h3.69v-3.249H90.192z"/>
	<path fill="#E6E6E6" d="M91.822,55.664v-7.92h3.803c0.605,0,1.104,0.069,1.496,0.204c0.393,0.137,0.707,0.354,0.94,0.65
		c0.233,0.298,0.401,0.677,0.506,1.136c0.103,0.461,0.154,1.034,0.154,1.723c0,0.816-0.052,1.488-0.154,2.014
		c-0.104,0.525-0.274,0.951-0.518,1.271c-0.239,0.324-0.565,0.557-0.979,0.705c-0.41,0.145-0.932,0.217-1.566,0.217H91.822z
		 M93.357,54.385h1.874c0.396,0,0.716-0.035,0.962-0.107c0.247-0.072,0.44-0.203,0.584-0.393c0.145-0.188,0.246-0.449,0.307-0.795
		c0.063-0.342,0.095-0.801,0.095-1.379c0-0.756-0.05-1.319-0.147-1.694c-0.099-0.375-0.266-0.632-0.5-0.768
		c-0.236-0.137-0.582-0.203-1.035-0.203h-2.138L93.357,54.385L93.357,54.385z"/>
	<polygon fill="#AEDFEC" points="18.499,33.214 24.863,54.035 18.084,42.318 	"/>
	<polygon fill="#71C8F0" points="18.499,33.266 14.154,45.578 18.24,41.698 	"/>
	<polygon fill="#2BB2E0" points="18.292,41.024 24.863,54.035 14.102,45.524 	"/>
	<polygon fill="#0692CA" points="36.188,45.784 24.863,54.035 28.042,49.431 	"/>
	<polygon fill="#98DAF5" points="36.188,45.784 22.241,45.77 27.447,49.855 	"/>
	<polygon fill="#307FC1" points="28.133,49.562 22.365,45.839 24.863,54.035 	"/>
	<polygon fill="#AEDFEC" points="14.102,45.542 24.863,54.035 21.619,56.611 	"/>
	<polygon fill="#88D5F3" points="24.863,54.035 29.395,66.785 21.619,56.611 	"/>
	<polygon fill="#148ACB" points="29.395,66.785 18.24,58.889 21.619,56.611 	"/>
	<polygon fill="#307FC1" points="18.24,58.889 14.102,45.524 21.619,56.611 	"/>
	<polygon fill="#71C8F0" points="7.701,66.605 14.102,45.524 13.175,59.32 	"/>
	<polygon fill="#307FC1" points="7.73,66.563 18.26,58.846 12.697,59.744 	"/>
	<polygon fill="#40C5F1" points="12.274,60.271 14.102,45.524 18.273,58.916 	"/>
	<polygon fill="#2BB2E0" points="0.278,45.491 11.604,53.742 8.425,49.138 	"/>
	<polygon fill="#97D9F2" points="0.278,45.491 14.102,45.546 9.02,49.562 	"/>
	<polygon fill="#21ACE3" points="8.333,49.267 14.102,45.546 11.604,53.742 	"/>
</g>
</svg>
