<?xml version="1.0" encoding="utf-8"?>
<!-- Generator: Adobe Illustrator 13.0.0, SVG Export Plug-In . SVG Version: 6.00 Build 14948)  -->
<!DOCTYPE svg PUBLIC "-//W3C//DTD SVG 1.1//EN" "http://www.w3.org/Graphics/SVG/1.1/DTD/svg11.dtd">
<svg version="1.1" id="Layer_1" xmlns="http://www.w3.org/2000/svg" xmlns:xlink="http://www.w3.org/1999/xlink" x="0px" y="0px"
	 width="100px" height="100px" viewBox="0 0 100 100" enable-background="new 0 0 100 100" xml:space="preserve">
<g>
	<g opacity="0.1">
		<path fill-rule="evenodd" clip-rule="evenodd" d="M7.636,49.312c0.287,0.296,0.464,0.701,0.795,0.955
			c0.765-0.869,0.927-2.035,0.795-3.102c-0.286-2.329-2.75-4.1-1.432-6.125c-2.541,1.567,1.842,5.137,0.238,7.317
			c-1.386-0.376-1.516-1.974-3.102-1.988c-1.914-0.016-2.465,2.645-2.785,4.694c-1.182-3.297-4.253-11.628,2.068-11.138
			c-1.145-0.71-3.371,0.61-3.739-0.875c-0.381-1.542,1.165-2.679,2.705-2.783c-0.575-0.32-1.806-0.139-1.83-1.194
			C1.31,33.184,4.45,34.71,6.044,34.596c3.35-0.24,6.484-2.576,8.67-3.58c-4.074-0.811-5.388,3.062-9.386,3.023
			c-1.934-0.019-3.718-1.536-3.103-3.978c0.636-0.528,1.379-0.269,2.148-0.238c2.814,0.113,6.437-0.42,7.874-1.59
			c0.425-0.345,0.925-0.97,1.034-1.512c0.428-2.128-1.617-3.925-3.261-2.784c-0.434,0.301-1.139,2.272,0,2.228
			c0.866-0.034,0.198-1.233,0.636-1.671c1.26-0.628,2.42,0.538,2.068,1.988c-0.126,0.523-0.813,1.126-1.193,1.353
			c-2.155,1.294-6.161-0.107-5.966-3.103c0.102-1.568,1.717-1.473,2.705-2.625c1.693-1.974-0.409-5.621,0.954-8.272
			c-0.974,2.024,0.784,4.263,0.478,6.762c-0.182,1.478-1.693,2.979-1.83,4.295c-0.148,1.429,0.836,2.368,1.83,2.545
			c2.185,0.389,3.645-2.013,1.511-2.705c-0.49,0.828-0.091,1.927-1.353,1.83c-0.57-0.043-1.216-0.774-0.955-1.75
			c0.217-0.803,1.134-1.333,1.671-1.432c2.778-0.513,4.924,3.09,3.181,5.011c-0.948,1.046-2.697,1.335-4.692,1.83
			c1.313,0.069,3.288-0.423,5.17-0.318c1.15,0.064,2.681,0.207,3.261,0.715c0.393,0.344,0.695,1.325,0.557,1.99
			c-0.434,2.104-5.4,1.858-8.033,2.148c2.322,0.702,5.521-0.573,7.397,0.955c0.987,0.802,2.136,4.561,0.636,5.568
			c-0.736,0.494-1.985,0.161-3.102,0.396c1.061,0.346,2.87-0.059,3.261,0.956c-0.319,2.843-2.574,5.348-5.329,5.887
			c-0.477,0.092-0.986,0.079-1.511,0.079c0.563,0.486,1.947,0.497,2.704,0.398c2.935-0.388,5.211-3.967,5.489-7.398
			c0.217-2.696-0.47-5.096-1.512-7.08c1.764,1.89,2.479,4.739,2.307,8.193c-0.143,2.859-1.029,5.887-1.033,8.83
			c-0.009,3.889,1.222,7.004,2.227,10.102c-0.809-0.578-1.351-1.118-2.227-1.511c-0.867-0.387-1.905-0.421-2.786-0.875
			c-3.366-1.736-1.853-7.698-5.409-9.307c0.639,1.167,1.435,2.562,1.909,4.136c0.469,1.557,1.267,3.006,1.511,4.455
			c-0.604,0.475-2.022,0.107-2.705,0.716c-1.039,0.927-0.723,6.665-0.636,8.592c0.263,5.786,0.103,12.653-0.636,17.181
			c-0.082-1.041-0.009-2.195,0.08-3.262c0.874-10.682-2.338-18.924-2.307-28.795c0.199-0.385,0.884-0.282,1.114-0.636
			c-0.388-0.846-1.812-0.661-2.865-0.638c0.427,1.834,1.793,3.822,1.432,6.444c-1.452,1.015-4.222,1.136-5.33,2.228
			c0.067-0.817,0.26-1.656,0.32-2.784c0.092-1.819-0.702-4.174-0.081-5.093c0.275-0.406,0.858-0.233,1.113-0.635
			c-0.078-0.453-1.012-0.05-1.194-0.397c-0.358-1.317,0.585-4.465,1.99-4.535c1.539-0.076,2.651,2.458,3.659,3.103
			C8.301,50.319,7.992,49.396,7.636,49.312z M7.715,49.709c0.192,0.155,0.365,0.745,0.636,0.557
			C8.143,50.157,7.66,49.563,7.715,49.709z M6.124,48.596c-0.668-0.02-1.218,0.838-1.113,1.432c0.178,1.017,2.188,0.906,3.103,0.478
			C7.704,50.056,6.946,48.619,6.124,48.596z M12.169,33.323c0.559-0.185,1.9-0.65,1.75-0.955
			C13.374,32.725,12.633,32.886,12.169,33.323z M9.306,34.039c1.415-0.203,2.481-0.753,3.42-1.432
			C11.599,33.096,10.491,33.605,9.306,34.039z M8.987,39.606c1.906,0.358,4.22,0.72,5.966,0.557
			c1.349-0.124,1.828-1.609,0.955-2.704c-0.831-1.043-2.96-0.797-4.693-0.717c-2.811,0.132-5.711,0.109-6.92,1.035
			C5.087,38.909,7.12,39.256,8.987,39.606z M1.431,38.891c-0.053-0.504,0.104-1.218-0.08-1.592
			C1.158,37.63,1.043,38.682,1.431,38.891z M1.351,39.448c-0.248-0.439-0.306-1.072-0.477-1.592
			C0.681,38.463,0.771,39.361,1.351,39.448z M5.806,42.471c0.012-0.784,0.284-1.308,0.636-1.75
			C5.532,40.31,5.341,41.95,5.806,42.471z M6.521,43.664c-0.124-0.717-0.115-1.509,0.079-1.989c0.156-0.379,0.672-0.572,0.478-0.794
			C5.947,40.874,6.02,42.986,6.521,43.664z M16.704,45.414c0.282-0.712,0.516-2.188,0.159-3.022
			C16.947,43.484,16.602,44.569,16.704,45.414z M17.181,44.777c0.279-0.341,0.536-1.518,0.159-1.987
			C17.474,43.587,17.082,44.28,17.181,44.777z M20.124,59.493c-0.697-2.803-1.37-5.628-1.273-9.227
			c-0.018-0.062-0.066-0.092-0.159-0.079C18.145,53.774,18.961,57.115,20.124,59.493z M6.839,52.971
			c-0.27-0.34-0.222-0.996-0.635-1.192C6.362,52.178,6.637,52.88,6.839,52.971z M6.521,53.051c-0.075-0.404-0.277-1.1-0.557-1.034
			C6.182,52.239,6.498,53.156,6.521,53.051z M6.761,56.869c0.473-0.12,0.435-0.822,0.398-1.272c-0.098-1.214-0.885-2.44-1.194-3.421
			c-0.105-0.002-0.073-0.141-0.159-0.159C5.066,52.879,5.565,57.172,6.761,56.869z M3.101,59.493
			c0.62-1.014,0.584-3.296,0.317-4.693C3.233,56.283,3.457,58.179,3.101,59.493z M19.488,59.414c-0.35-1.215-0.743-2.387-1.035-3.66
			C18.397,57.375,18.631,58.706,19.488,59.414z M3.737,58.937c0.235-0.388,0.432-1.622,0.081-2.067
			C3.991,57.678,3.47,58.554,3.737,58.937z M10.976,65.301c-0.178-2.098-0.15-5.076,0.477-6.364
			C9.953,59.924,10.688,63.527,10.976,65.301z M10.499,63.311c-0.212-1.312-0.503-3.338,0.239-4.295
			C9.127,59.49,10.178,62.186,10.499,63.311z"/>
	</g>
	<rect x="67.232" y="39.05" fill="#FD0100" width="15.55" height="14.938"/>
	<path fill="#FFFFFF" d="M66.253,53.987H26.581c-2.028,0-3.673-1.644-3.673-3.672v-7.593c0-2.027,1.645-3.672,3.673-3.672h39.672
		V53.987z"/>
	<g>
		<path fill="#FFFFFF" d="M70.913,51.404v-7.657h-2.346v-1.025h5.644v1.025h-2.356v7.657H70.913z"/>
		<path fill="#FFFFFF" d="M75.129,51.404v-8.682h2.675c0.54,0,0.97,0.085,1.285,0.252c0.317,0.167,0.574,0.428,0.777,0.784
			c0.2,0.355,0.303,0.748,0.303,1.177c0,0.399-0.088,0.758-0.262,1.078c-0.173,0.319-0.419,0.576-0.734,0.77
			c0.413,0.149,0.738,0.406,0.977,0.767c0.237,0.362,0.356,0.807,0.356,1.336c0,0.525-0.107,0.987-0.322,1.384
			c-0.216,0.396-0.503,0.686-0.862,0.865s-0.853,0.27-1.48,0.27H75.129z M76.07,46.371h1.543c0.403,0,0.69-0.028,0.859-0.083
			c0.246-0.083,0.435-0.222,0.568-0.417c0.132-0.196,0.197-0.461,0.197-0.796c0-0.313-0.06-0.572-0.182-0.779
			c-0.12-0.208-0.28-0.351-0.479-0.43c-0.2-0.079-0.559-0.118-1.077-0.118h-1.43V46.371z M76.07,50.379h1.773
			c0.392,0,0.681-0.035,0.866-0.107c0.269-0.102,0.474-0.271,0.614-0.505s0.21-0.53,0.21-0.886c0-0.327-0.067-0.604-0.201-0.832
			c-0.135-0.227-0.316-0.393-0.544-0.497c-0.227-0.105-0.582-0.158-1.069-0.158H76.07V50.379z"/>
	</g>
	<g>
		<path fill="#FFFFFF" d="M83.563,46.76h2.233v2.53h2.441v-2.53h2.242v7.227h-2.242v-2.923h-2.441v2.923h-2.233V46.76z"/>
		<path fill="#FFFFFF" d="M91.994,46.76h3.318c0.654,0,1.183,0.089,1.585,0.266c0.403,0.177,0.736,0.432,0.998,0.764
			c0.264,0.332,0.454,0.718,0.573,1.158c0.117,0.441,0.177,0.908,0.177,1.401c0,0.771-0.088,1.371-0.265,1.796
			c-0.176,0.426-0.419,0.782-0.731,1.07c-0.312,0.287-0.647,0.479-1.006,0.574c-0.49,0.131-0.934,0.196-1.331,0.196h-3.318V46.76z
			 M94.229,48.397v3.948h0.547c0.466,0,0.799-0.051,0.996-0.155c0.196-0.104,0.352-0.284,0.463-0.542s0.167-0.677,0.167-1.255
			c0-0.766-0.124-1.29-0.374-1.572s-0.664-0.424-1.242-0.424H94.229z"/>
	</g>
	<path d="M42.512,42.385c-0.323,0.58-0.657,1.189-1.002,1.829c-0.346,0.64-0.681,1.258-1.002,1.854l-1.979-3.682h-2.029l3.188,5.264
		v3.525h1.666v-3.525l3.188-5.264H42.512z M59.064,49.617v-7.232h-5.029v3.767c0,0.909-0.146,1.666-0.439,2.27
		c-0.294,0.604-0.706,1.029-1.237,1.279v1.473h7.396v-1.558H59.064z M57.398,49.617h-2.663c0.113-0.145,0.221-0.332,0.326-0.561
		c0.104-0.229,0.189-0.441,0.254-0.634c0.186-0.645,0.278-1.409,0.278-2.295v-2.186h1.805V49.617z M46.146,46.732v0.543
		c0,0.781-0.06,1.355-0.182,1.727V48.99c-0.145,0.475-0.394,0.712-0.748,0.712c-0.065,0-0.161-0.01-0.289-0.03
		c-0.129-0.02-0.286-0.066-0.472-0.139v1.558c0.193,0.072,0.365,0.123,0.513,0.151c0.149,0.028,0.284,0.042,0.404,0.042
		c0.386,0,0.737-0.088,1.05-0.266c0.314-0.178,0.572-0.426,0.773-0.748c0.145-0.243,0.265-0.544,0.362-0.906
		c0.097-0.362,0.166-0.761,0.206-1.195c0.017-0.186,0.029-0.451,0.036-0.797c0.007-0.347,0.012-0.769,0.012-1.269v-2.162h1.915
		v7.233h1.666v-8.79h-5.246V46.732z M32.516,43.738c0.571,0,1.042,0.142,1.412,0.428c0.371,0.286,0.624,0.722,0.76,1.31h1.654
		c-0.145-1.086-0.56-1.911-1.244-2.476c-0.684-0.563-1.545-0.845-2.583-0.845c-1.191,0-2.17,0.466-2.934,1.4
		c-0.693,0.862-1.039,1.895-1.039,3.103c0,0.726,0.087,1.375,0.26,1.951s0.44,1.076,0.802,1.502c0.725,0.863,1.695,1.292,2.91,1.292
		c1.078,0,1.956-0.338,2.632-1.014c0.635-0.604,1.034-1.522,1.194-2.753h-1.69c-0.088,0.7-0.314,1.231-0.676,1.593h0.013
		c-0.411,0.395-0.902,0.593-1.473,0.593c-0.299,0-0.574-0.064-0.829-0.194c-0.252-0.128-0.48-0.31-0.68-0.543
		c-0.21-0.282-0.378-0.632-0.508-1.05s-0.193-0.877-0.193-1.376c0-0.845,0.208-1.541,0.628-2.088
		C31.353,44.015,31.88,43.738,32.516,43.738z"/>
	<g>
		<path fill-rule="evenodd" clip-rule="evenodd" fill="#FFFFFF" d="M7.819,49.449c0.287,0.295,0.464,0.702,0.795,0.956
			c0.765-0.869,0.927-2.035,0.796-3.102c-0.286-2.33-2.75-4.1-1.432-6.126c-2.541,1.569,1.842,5.138,0.238,7.319
			c-1.386-0.376-1.516-1.976-3.102-1.99C3.201,46.489,2.65,49.151,2.331,51.2c-1.182-3.297-4.253-11.626,2.067-11.137
			c-1.145-0.711-3.371,0.609-3.739-0.875c-0.381-1.542,1.165-2.679,2.705-2.784c-0.575-0.32-1.806-0.138-1.83-1.193
			c-0.042-1.89,3.1-0.364,4.693-0.477c3.348-0.24,6.484-2.577,8.67-3.58c-4.073-0.813-5.389,3.06-9.385,3.023
			c-1.934-0.019-3.718-1.535-3.103-3.978c0.636-0.53,1.38-0.269,2.148-0.238c2.814,0.113,6.436-0.42,7.874-1.59
			c0.425-0.346,0.925-0.97,1.034-1.512c0.428-2.129-1.618-3.925-3.26-2.785c-0.434,0.301-1.14,2.272,0,2.228
			c0.865-0.034,0.198-1.233,0.636-1.67c1.26-0.628,2.42,0.538,2.068,1.988c-0.126,0.523-0.814,1.125-1.193,1.353
			c-2.155,1.292-6.161-0.108-5.966-3.104c0.103-1.568,1.717-1.473,2.705-2.625c1.694-1.974-0.409-5.62,0.955-8.271
			c-0.974,2.024,0.784,4.262,0.477,6.761c-0.182,1.478-1.692,2.979-1.83,4.295c-0.148,1.429,0.836,2.369,1.83,2.545
			c2.186,0.389,3.646-2.013,1.511-2.705c-0.49,0.829-0.091,1.927-1.353,1.831c-0.569-0.044-1.216-0.775-0.955-1.75
			c0.218-0.803,1.134-1.333,1.671-1.432c2.777-0.513,4.923,3.089,3.181,5.012c-0.948,1.045-2.698,1.334-4.692,1.83
			c1.313,0.067,3.288-0.424,5.169-0.318c1.15,0.064,2.681,0.206,3.261,0.716c0.393,0.342,0.695,1.324,0.557,1.988
			c-0.434,2.105-5.4,1.858-8.033,2.147c2.322,0.702,5.521-0.572,7.397,0.955c0.987,0.802,2.136,4.562,0.636,5.568
			c-0.736,0.494-1.985,0.161-3.102,0.398c1.061,0.343,2.87-0.06,3.262,0.955c-0.32,2.842-2.575,5.348-5.33,5.886
			c-0.477,0.094-0.986,0.081-1.511,0.081c0.563,0.485,1.947,0.497,2.704,0.397c2.934-0.387,5.211-3.967,5.489-7.398
			c0.217-2.695-0.471-5.095-1.513-7.08c1.764,1.891,2.479,4.74,2.307,8.194c-0.143,2.858-1.028,5.887-1.033,8.831
			c-0.009,3.889,1.222,7.003,2.227,10.102c-0.809-0.58-1.351-1.119-2.227-1.512c-0.868-0.387-1.905-0.42-2.785-0.875
			c-3.366-1.736-1.853-7.699-5.409-9.307c0.639,1.166,1.435,2.563,1.909,4.137c0.469,1.555,1.267,3.006,1.511,4.453
			c-0.604,0.475-2.022,0.109-2.705,0.717c-1.04,0.927-0.723,6.664-0.636,8.592c0.263,5.787,0.104,12.654-0.636,17.182
			c-0.082-1.042-0.009-2.195,0.079-3.262c0.874-10.684-2.338-18.925-2.307-28.795c0.199-0.385,0.884-0.283,1.113-0.637
			c-0.388-0.846-1.811-0.66-2.863-0.637c0.427,1.832,1.792,3.821,1.432,6.443c-1.451,1.014-4.222,1.135-5.329,2.229
			c0.067-0.819,0.26-1.656,0.318-2.785c0.093-1.819-0.701-4.174-0.08-5.092c0.275-0.406,0.858-0.234,1.113-0.637
			c-0.078-0.453-1.012-0.049-1.193-0.397c-0.359-1.316,0.585-4.465,1.989-4.533c1.539-0.076,2.652,2.457,3.66,3.102
			C8.485,50.458,8.176,49.533,7.819,49.449z M7.899,49.848c0.192,0.154,0.365,0.744,0.636,0.557
			C8.326,50.295,7.842,49.7,7.899,49.848z M6.307,48.734c-0.668-0.02-1.217,0.838-1.113,1.431c0.178,1.018,2.187,0.907,3.103,0.479
			C7.888,50.194,7.13,48.757,6.307,48.734z M12.353,33.46c0.559-0.184,1.9-0.651,1.75-0.954
			C13.558,32.862,12.817,33.022,12.353,33.46z M9.489,34.177c1.415-0.205,2.481-0.755,3.42-1.432
			C11.782,33.236,10.674,33.743,9.489,34.177z M9.171,39.745c1.906,0.357,4.22,0.718,5.966,0.557
			c1.349-0.125,1.828-1.608,0.955-2.704c-0.831-1.042-2.96-0.797-4.693-0.716c-2.81,0.131-5.712,0.109-6.921,1.034
			C5.271,39.045,7.303,39.395,9.171,39.745z M1.615,39.029c-0.053-0.504,0.104-1.219-0.081-1.592
			C1.342,37.767,1.227,38.82,1.615,39.029z M1.535,39.586c-0.249-0.44-0.306-1.073-0.476-1.592
			C0.865,38.601,0.955,39.499,1.535,39.586z M5.99,42.609c0.011-0.784,0.284-1.308,0.636-1.75
			C5.716,40.448,5.524,42.087,5.99,42.609z M6.705,43.802c-0.124-0.719-0.115-1.51,0.08-1.988c0.155-0.38,0.672-0.573,0.477-0.796
			C6.131,41.011,6.204,43.125,6.705,43.802z M16.888,45.552c0.282-0.712,0.515-2.188,0.159-3.023
			C17.131,43.623,16.786,44.708,16.888,45.552z M17.365,44.916c0.279-0.342,0.536-1.519,0.159-1.989
			C17.657,43.725,17.266,44.418,17.365,44.916z M20.308,59.631c-0.697-2.803-1.371-5.628-1.273-9.227
			c-0.017-0.062-0.066-0.092-0.159-0.08C18.328,53.912,19.145,57.252,20.308,59.631z M7.022,53.109
			c-0.27-0.34-0.222-0.997-0.636-1.193C6.545,52.315,6.82,53.018,7.022,53.109z M6.705,53.188c-0.075-0.402-0.278-1.098-0.557-1.034
			C6.366,52.377,6.681,53.295,6.705,53.188z M6.944,57.006c0.473-0.12,0.434-0.822,0.398-1.272c-0.099-1.214-0.885-2.439-1.194-3.42
			c-0.105-0.001-0.073-0.141-0.159-0.16C5.25,53.016,5.749,57.311,6.944,57.006z M3.285,59.631c0.62-1.014,0.584-3.297,0.318-4.693
			C3.417,56.422,3.641,58.316,3.285,59.631z M19.672,59.552c-0.35-1.216-0.744-2.386-1.035-3.659
			C18.582,57.512,18.815,58.844,19.672,59.552z M3.921,59.074c0.235-0.387,0.432-1.622,0.081-2.068
			C4.174,57.815,3.653,58.691,3.921,59.074z M11.159,65.438c-0.178-2.097-0.15-5.075,0.478-6.364
			C10.136,60.061,10.872,63.666,11.159,65.438z M10.682,63.449c-0.212-1.313-0.503-3.339,0.239-4.295
			C9.311,59.628,10.361,62.324,10.682,63.449z"/>
	</g>
</g>
</svg>
