<?xml version="1.0" encoding="utf-8"?>
<!-- Generator: Adobe Illustrator 13.0.0, SVG Export Plug-In . SVG Version: 6.00 Build 14948)  -->
<!DOCTYPE svg PUBLIC "-//W3C//DTD SVG 1.1//EN" "http://www.w3.org/Graphics/SVG/1.1/DTD/svg11.dtd">
<svg version="1.1" id="Layer_1" xmlns="http://www.w3.org/2000/svg" xmlns:xlink="http://www.w3.org/1999/xlink" x="0px" y="0px"
	 width="100px" height="100px" viewBox="0 0 100 100" enable-background="new 0 0 100 100" xml:space="preserve">
<path fill="#141DD0" d="M82.835,43.155l-0.003-0.009c0.002,0.022,0.006,0.043,0.01,0.066c-8.439-12.795-22.938-21.24-39.413-21.24
	c-17.209,0-32.264,9.216-40.505,22.981c-0.009,0.067-0.013,0.135-0.02,0.203l0.002,0.049c5.811,19.404,23.8,33.55,45.097,33.55
	c11.593,0,22.206-4.196,30.407-11.146c0.557-0.688,1.093-1.389,1.609-2.108c2.129-4.91,3.313-10.329,3.313-16.024
	C83.332,47.325,83.16,45.215,82.835,43.155z"/>
<defs>
	<filter id="Adobe_OpacityMaskFilter" filterUnits="userSpaceOnUse" x="10.011" y="9.349" width="68.706" height="68.706">
		<feColorMatrix  type="matrix" values="1 0 0 0 0  0 1 0 0 0  0 0 1 0 0  0 0 0 1 0"/>
	</filter>
</defs>
<mask maskUnits="userSpaceOnUse" x="10.011" y="9.349" width="68.706" height="68.706" id="SVGID_1_">
	<g filter="url(#Adobe_OpacityMaskFilter)">
		
			<linearGradient id="SVGID_2_" gradientUnits="userSpaceOnUse" x1="18.0479" y1="-659.7847" x2="70.6804" y2="-615.6205" gradientTransform="matrix(1 0 0 -1 0 -594)">
			<stop  offset="0" style="stop-color:#FFFFFF"/>
			<stop  offset="0.0041" style="stop-color:#F6F6F6"/>
			<stop  offset="0.0262" style="stop-color:#C8C8C8"/>
			<stop  offset="0.0511" style="stop-color:#9D9D9D"/>
			<stop  offset="0.078" style="stop-color:#777777"/>
			<stop  offset="0.1072" style="stop-color:#575757"/>
			<stop  offset="0.1394" style="stop-color:#3B3B3B"/>
			<stop  offset="0.1758" style="stop-color:#252525"/>
			<stop  offset="0.2184" style="stop-color:#141414"/>
			<stop  offset="0.2709" style="stop-color:#090909"/>
			<stop  offset="0.3447" style="stop-color:#020202"/>
			<stop  offset="0.5495" style="stop-color:#000000"/>
		</linearGradient>
		<circle fill="url(#SVGID_2_)" cx="44.364" cy="43.702" r="34.353"/>
	</g>
</mask>
<circle opacity="0.3" mask="url(#SVGID_1_)" fill="#FFFFFF" enable-background="new    " cx="44.364" cy="43.702" r="34.353"/>
<defs>
	<filter id="Adobe_OpacityMaskFilter_1_" filterUnits="userSpaceOnUse" x="22.556" y="16.959" width="56.312" height="56.313">
		<feColorMatrix  type="matrix" values="1 0 0 0 0  0 1 0 0 0  0 0 1 0 0  0 0 0 1 0"/>
	</filter>
</defs>
<mask maskUnits="userSpaceOnUse" x="22.556" y="16.959" width="56.312" height="56.313" id="SVGID_3_">
	<g filter="url(#Adobe_OpacityMaskFilter_1_)">
		
			<linearGradient id="SVGID_4_" gradientUnits="userSpaceOnUse" x1="72.2813" y1="-621.0161" x2="29.1426" y2="-657.2137" gradientTransform="matrix(1 0 0 -1 0 -594)">
			<stop  offset="0" style="stop-color:#FFFFFF"/>
			<stop  offset="0.0089" style="stop-color:#F9F9F9"/>
			<stop  offset="0.0859" style="stop-color:#C5C5C5"/>
			<stop  offset="0.1683" style="stop-color:#979797"/>
			<stop  offset="0.2543" style="stop-color:#6F6F6F"/>
			<stop  offset="0.3446" style="stop-color:#4D4D4D"/>
			<stop  offset="0.4405" style="stop-color:#323232"/>
			<stop  offset="0.5441" style="stop-color:#1C1C1C"/>
			<stop  offset="0.6589" style="stop-color:#0D0D0D"/>
			<stop  offset="0.7941" style="stop-color:#050505"/>
			<stop  offset="1" style="stop-color:#020202"/>
		</linearGradient>
		<circle fill="url(#SVGID_4_)" cx="50.712" cy="45.115" r="28.156"/>
	</g>
</mask>
<circle opacity="0.96" mask="url(#SVGID_3_)" fill="#FFFFFF" enable-background="new    " cx="50.712" cy="45.115" r="28.156"/>
<g>
	<path fill="#FAFAFA" d="M43.439,21.986c16.474,0,30.973,8.444,39.413,21.24c-3.011-19.3-19.703-34.068-39.849-34.068
		c-20.749,0-37.834,15.67-40.077,35.82C11.166,31.207,26.225,21.986,43.439,21.986z"/>
	<path fill="#FAFAFA" d="M42.16,84.948c-13.078,0-24.896-5.388-33.361-14.063c7.129,11.383,19.782,18.956,34.205,18.956
		c16.59,0,30.837-10.018,37.03-24.333C71.574,77.282,57.766,84.948,42.16,84.948z"/>
	<path fill="#FF7400" d="M48.012,78.768c-21.303,0-39.296-14.148-45.101-33.563c-0.151,1.42-0.231,2.86-0.231,4.321
		c0,7.852,2.247,15.177,6.128,21.375c8.463,8.676,20.282,14.064,33.361,14.064c14.673,0,27.761-6.783,36.304-17.385
		C70.262,74.559,59.63,78.768,48.012,78.768z"/>
</g>
<g>
	
		<linearGradient id="SVGID_5_" gradientUnits="userSpaceOnUse" x1="96.4014" y1="-654.0039" x2="75.4303" y2="-636.4072" gradientTransform="matrix(1 0 0 -1 0 -594)">
		<stop  offset="0" style="stop-color:#FFEA00"/>
		<stop  offset="0.7395" style="stop-color:#FF9501"/>
		<stop  offset="1" style="stop-color:#FF7601"/>
	</linearGradient>
	<path fill="url(#SVGID_5_)" d="M95.445,40.768H81.042c0,0-9.79,0.496-9.403,10.925c0.381,10.271,8.043,11.197,8.043,11.197h14.297
		c0,0,1.738-4.24,2.229-9.621C96.695,47.889,95.445,40.768,95.445,40.768z"/>
	<g>
		<path fill="#FFFFFF" d="M77.727,47.686v2.795h4.269v-2.795c0-0.399,0.09-0.697,0.271-0.898c0.178-0.199,0.416-0.3,0.705-0.3
			c0.299,0,0.538,0.099,0.725,0.297c0.185,0.199,0.277,0.498,0.277,0.901v7.684c0,0.401-0.098,0.705-0.281,0.903
			c-0.188,0.199-0.426,0.3-0.721,0.3c-0.296,0-0.531-0.103-0.713-0.304c-0.175-0.201-0.264-0.502-0.264-0.899v-3.28h-4.268v3.279
			c0,0.402-0.093,0.705-0.277,0.904c-0.186,0.199-0.426,0.299-0.721,0.299s-0.533-0.104-0.711-0.303
			c-0.178-0.201-0.268-0.502-0.268-0.9v-7.684c0-0.399,0.087-0.697,0.266-0.898c0.176-0.199,0.414-0.3,0.713-0.3
			s0.539,0.099,0.725,0.297C77.637,46.983,77.727,47.282,77.727,47.686z"/>
		<path fill="#FFFFFF" d="M87.313,46.654h2.574c0.67,0,1.243,0.063,1.723,0.186c0.479,0.125,0.914,0.358,1.307,0.699
			c1.018,0.869,1.521,2.191,1.521,3.963c0,0.588-0.053,1.121-0.151,1.604c-0.104,0.484-0.261,0.92-0.476,1.311
			c-0.211,0.391-0.482,0.732-0.815,1.042c-0.265,0.231-0.546,0.424-0.854,0.563c-0.313,0.144-0.646,0.24-1,0.299
			c-0.359,0.061-0.764,0.089-1.209,0.089h-2.574c-0.358,0-0.629-0.058-0.813-0.164s-0.306-0.263-0.354-0.458
			c-0.058-0.197-0.082-0.452-0.082-0.77v-7.149c0-0.425,0.096-0.734,0.285-0.926C86.579,46.751,86.889,46.654,87.313,46.654z
			 M88.078,48.217v6.621h1.497c0.327,0,0.586-0.011,0.771-0.027c0.188-0.019,0.379-0.063,0.578-0.133s0.372-0.17,0.52-0.299
			c0.66-0.561,0.992-1.521,0.992-2.887c0-0.963-0.146-1.686-0.438-2.164s-0.646-0.782-1.074-0.914
			c-0.426-0.131-0.939-0.197-1.543-0.197H88.078z"/>
	</g>
</g>
<g>
	<path fill="#FFFFFF" d="M34.594,40.639h-6.619v21.757c0,1.254-0.279,2.184-0.837,2.787c-0.559,0.605-1.281,0.906-2.165,0.906
		c-0.9,0-1.632-0.305-2.196-0.917c-0.566-0.612-0.848-1.54-0.848-2.776V40.639H15.31c-1.035,0-1.804-0.228-2.309-0.684
		c-0.504-0.457-0.757-1.059-0.757-1.809c0-0.774,0.263-1.389,0.788-1.838c0.524-0.45,1.284-0.675,2.278-0.675h19.284
		c1.048,0,1.828,0.231,2.339,0.695c0.511,0.462,0.767,1.069,0.767,1.817c0,0.75-0.26,1.352-0.776,1.809
		C36.405,40.411,35.628,40.639,34.594,40.639z"/>
	<path fill="#FFFFFF" d="M51.407,61.064l-4.802-19.079V62.66c0,1.145-0.256,2.001-0.766,2.572c-0.512,0.572-1.188,0.855-2.033,0.855
		c-0.817,0-1.484-0.281-2.002-0.847c-0.518-0.564-0.776-1.427-0.776-2.584V38.964c0-1.308,0.342-2.189,1.022-2.646
		c0.679-0.456,1.599-0.685,2.757-0.685h1.878c1.131,0,1.952,0.104,2.461,0.307c0.512,0.204,0.889,0.571,1.135,1.104
		c0.247,0.53,0.524,1.396,0.838,2.593l4.352,16.404l4.354-16.404c0.313-1.197,0.592-2.063,0.837-2.593
		c0.243-0.532,0.624-0.899,1.135-1.104c0.511-0.203,1.33-0.307,2.461-0.307h1.88c1.156,0,2.077,0.229,2.76,0.685
		c0.681,0.456,1.021,1.338,1.021,2.646v23.697c0,1.144-0.257,2.001-0.769,2.573c-0.51,0.572-1.192,0.854-2.055,0.854
		c-0.803,0-1.463-0.282-1.979-0.854c-0.52-0.572-0.776-1.43-0.776-2.573V41.988l-4.801,19.077c-0.313,1.242-0.567,2.15-0.769,2.729
		c-0.195,0.579-0.562,1.104-1.092,1.583c-0.531,0.479-1.269,0.714-2.207,0.714c-0.709,0-1.307-0.153-1.799-0.458
		c-0.488-0.308-0.871-0.697-1.145-1.173c-0.271-0.479-0.487-1.005-0.646-1.586C51.729,62.296,51.568,61.693,51.407,61.064z"/>
</g>
</svg>
