<?xml version="1.0" encoding="utf-8"?>
<!-- Generator: Adobe Illustrator 13.0.0, SVG Export Plug-In . SVG Version: 6.00 Build 14948)  -->
<!DOCTYPE svg PUBLIC "-//W3C//DTD SVG 1.1//EN" "http://www.w3.org/Graphics/SVG/1.1/DTD/svg11.dtd">
<svg version="1.1" id="Layer_1" xmlns="http://www.w3.org/2000/svg" xmlns:xlink="http://www.w3.org/1999/xlink" x="0px" y="0px"
	 width="100px" height="100px" viewBox="0 0 100 100" enable-background="new 0 0 100 100" xml:space="preserve">
<g>
	<g>
		<path fill="#003399" d="M93.587,64.368c0,2.012-1.63,3.642-3.642,3.642H43.995c-2.012,0-3.642-1.63-3.642-3.642V34.717
			c0-2.011,1.63-3.641,3.642-3.641h45.951c2.012,0,3.642,1.63,3.642,3.641V64.368z"/>
		<path fill="#EC1C24" d="M45.902,67.923H9.054c-2.01,0-3.641-1.629-3.641-3.641V34.631c0-2.011,1.631-3.641,3.641-3.641h36.848
			V67.923z"/>
	</g>
	<g>
		<g>
			<path fill="#FFFFFF" d="M55.675,58.424v4.027v0.065v0.527l-0.067,0.596c-0.088,0.382-0.295,0.733-0.621,1.055
				c-0.326,0.324-0.88,0.484-1.664,0.484h-1.744h-0.24h-0.242c-0.426,0-0.84-0.16-1.243-0.484c-0.402-0.324-0.604-1.073-0.604-2.252
				V49.071v-0.308V48.43c0-0.518,0.146-0.999,0.438-1.443c0.263-0.443,0.884-0.665,1.862-0.665h1.773c0.83,0,1.405,0.162,1.73,0.484
				c0.324,0.325,0.531,0.692,0.622,1.104v0.532v0.463v0.088v3.621h-2.618v-4.306c0-0.133-0.043-0.245-0.128-0.334l-0.276-0.223
				h-0.106h-0.106c-0.141,0-0.268,0.058-0.381,0.176c-0.113,0.089-0.178,0.206-0.191,0.353v0.067v14.563v0.11
				c0.028,0.104,0.088,0.207,0.181,0.31s0.222,0.154,0.392,0.154c0.143,0,0.28-0.055,0.414-0.166
				c0.135-0.109,0.203-0.244,0.203-0.406v-4.489H55.675z"/>
			<path fill="#FFFFFF" d="M57.281,63.441h0.615c0.499,0,0.855-0.085,1.067-0.254c0.213-0.168,0.355-0.37,0.43-0.606l0.044-0.22
				c0.014-0.103,0.028-0.169,0.044-0.198l0.176-1.432l-2.86-14.344h2.817l1.32,9.571l1.056-9.571h2.619l-2.576,15.994
				c-0.219,1.351-0.597,2.156-1.133,2.412c-0.535,0.257-1.229,0.385-2.079,0.385h-1.54V63.441z"/>
			<path fill="#FFFFFF" d="M66.148,46.388h3.873c0.852,0,1.445,0.168,1.784,0.507c0.321,0.294,0.534,0.661,0.637,1.103l0.066,0.552
				v0.485v0.044v4.104c0,0.662-0.146,1.14-0.437,1.434s-0.623,0.5-1.002,0.617L70.635,55.3h-0.371v0.176l0.374,0.022l0.397,0.065
				c0.396,0.089,0.755,0.271,1.077,0.552c0.323,0.278,0.484,0.69,0.484,1.235v4.984c0,0.853-0.166,1.452-0.495,1.798
				c-0.33,0.346-0.708,0.562-1.133,0.65l-0.507,0.089h-0.461h-3.853V46.388z M69.032,54.396c0.321,0,0.561-0.069,0.715-0.208
				c0.153-0.14,0.23-0.35,0.23-0.628v-4.556c0-0.278-0.095-0.502-0.286-0.671c-0.189-0.167-0.403-0.253-0.637-0.253h-0.287v6.315
				H69.032z M69.055,63.177c0.219,0,0.428-0.072,0.627-0.221c0.198-0.146,0.296-0.396,0.296-0.75v-5.055
				c0-0.396-0.092-0.685-0.274-0.86c-0.184-0.177-0.385-0.266-0.605-0.266h-0.33v7.151H69.055z"/>
			<path fill="#FFFFFF" d="M76.073,46.388h3.938l1.849,18.484l-2.588,0.001l-0.426-5.151h-1.782l-0.397,5.15h-2.53L76.073,46.388z
				 M78.722,58.027l-0.698-9.417l-0.131-0.001l-0.719,9.419L78.722,58.027z"/>
			<path fill="#FFFFFF" d="M82.785,46.388h5.303v1.693h-2.685v16.791h-2.618V46.388z"/>
		</g>
		<g>
			<path fill="#FFFFFF" d="M14.077,38.287h-3.165v-2.708h10.516v2.708h-3.166v26.836h-4.186V38.287z"/>
			<path fill="#FFFFFF" d="M23.643,35.579h6.19c1.36,0,2.309,0.271,2.849,0.812c0.516,0.47,0.856,1.058,1.02,1.763l0.105,0.882
				v0.775v0.071v6.557c0,1.058-0.231,1.822-0.697,2.292c-0.464,0.47-0.999,0.8-1.601,0.987l-0.698,0.105H30.22v0.282l0.599,0.035
				l0.633,0.104c0.633,0.142,1.208,0.436,1.723,0.882s0.774,1.105,0.774,1.975v7.967c0,1.363-0.264,2.32-0.792,2.873
				c-0.527,0.553-1.13,0.899-1.811,1.04l-0.81,0.142h-0.738h-6.155V35.579z M28.25,48.381c0.516,0,0.897-0.111,1.143-0.333
				c0.246-0.223,0.369-0.557,0.369-1.003v-7.28c0-0.445-0.152-0.803-0.456-1.072c-0.305-0.27-0.645-0.405-1.02-0.405h-0.458v10.094
				H28.25z M28.287,62.415c0.351,0,0.685-0.118,1.001-0.354c0.316-0.234,0.474-0.636,0.474-1.2v-8.078
				c0-0.635-0.146-1.093-0.439-1.375c-0.293-0.283-0.615-0.424-0.967-0.424h-0.527v11.431H28.287z"/>
			<path fill="#FFFFFF" d="M42.846,65.123h-4.186V41.734l-0.316,0.211l-0.387,0.211l-0.844,0.352l-1.196,0.246v-3.271
				c1.032,0,1.899-0.41,2.604-1.23c0.702-0.82,1.055-1.712,1.055-2.674h3.271V65.123z"/>
		</g>
		<g>
			<path fill="#FFFFFF" d="M53.163,35.683h1.231v7.324h-1.09L53.303,38.8l-0.73,4.207h-0.867L50.973,38.8v4.207h-1.09v-7.324h1.23
				l1.025,4.915L53.163,35.683z"/>
			<path fill="#FFFFFF" d="M56.247,40.414v1.72c0,0.074,0.025,0.135,0.077,0.187c0.043,0.028,0.097,0.051,0.162,0.065h0.032h0.045
				h0.043l0.109-0.076c0.021-0.03,0.04-0.084,0.055-0.165v-2.451h-0.959v-0.74h0.959v-2.408c0-0.058-0.021-0.109-0.065-0.153
				l-0.119-0.076h-0.045h-0.033h-0.043c-0.065,0.007-0.114,0.027-0.146,0.06c-0.032,0.033-0.058,0.09-0.071,0.17v1.427h-1.09V36.74
				v-0.229c0-0.102,0.018-0.218,0.055-0.349c0.036-0.131,0.121-0.269,0.256-0.415c0.135-0.145,0.365-0.217,0.692-0.217h0.729
				c0.305,0,0.525,0.067,0.66,0.206c0.134,0.139,0.224,0.295,0.267,0.471l0.032,0.282v0.229v5.349c0,0.398-0.061,0.668-0.184,0.802
				c-0.124,0.134-0.265,0.224-0.425,0.268l-0.173,0.022h-0.141h-0.044h-0.727h-0.012h-0.173c-0.088,0-0.152-0.008-0.195-0.022
				c-0.159-0.022-0.303-0.106-0.43-0.253s-0.189-0.414-0.189-0.802v-1.669H56.247z"/>
			<path fill="#FFFFFF" d="M59.561,44.249h-1.09v-2.026h0.315l0.589-6.54h1.689l0.588,6.54h0.316v2.026h-1.091v-1.242h-1.317V44.249
				z M60.52,42.223l-0.297-5.756l-0.31,5.755L60.52,42.223z"/>
			<path fill="#FFFFFF" d="M63.517,40.414v1.72c0,0.074,0.024,0.135,0.076,0.187c0.043,0.028,0.099,0.051,0.163,0.065h0.032h0.044
				h0.043l0.11-0.076c0.021-0.03,0.039-0.084,0.054-0.165v-2.451H63.08v-0.74h0.959v-2.408c0-0.058-0.021-0.109-0.064-0.153
				l-0.121-0.076h-0.043h-0.032h-0.044c-0.066,0.007-0.115,0.027-0.147,0.06c-0.032,0.033-0.056,0.09-0.07,0.17v1.427h-1.091V36.74
				v-0.229c0-0.102,0.018-0.218,0.055-0.349c0.036-0.131,0.122-0.269,0.256-0.415c0.136-0.145,0.366-0.217,0.692-0.217h0.731
				c0.305,0,0.523,0.067,0.658,0.206c0.134,0.139,0.224,0.295,0.267,0.471l0.033,0.282v0.229v5.349c0,0.398-0.062,0.668-0.185,0.802
				s-0.265,0.224-0.423,0.268l-0.174,0.022h-0.142h-0.044h-0.727h-0.012H63.24c-0.086,0-0.152-0.008-0.195-0.022
				c-0.159-0.022-0.303-0.106-0.429-0.253s-0.19-0.414-0.19-0.802v-1.669H63.517z"/>
			<path fill="#FFFFFF" d="M66.982,40.414v1.72c0,0.074,0.025,0.135,0.075,0.187c0.044,0.028,0.099,0.051,0.164,0.065h0.032h0.044
				h0.043l0.11-0.076c0.021-0.03,0.039-0.084,0.054-0.165v-2.451h-0.959v-0.74h0.959v-2.408c0-0.058-0.021-0.109-0.065-0.153
				l-0.12-0.076h-0.043h-0.032H67.2c-0.066,0.007-0.114,0.027-0.147,0.06c-0.032,0.033-0.057,0.09-0.07,0.17v1.427h-1.091V36.74
				v-0.229c0-0.102,0.018-0.218,0.055-0.349s0.122-0.269,0.256-0.415c0.135-0.145,0.366-0.217,0.692-0.217h0.73
				c0.306,0,0.524,0.067,0.658,0.206c0.136,0.139,0.224,0.295,0.268,0.471l0.032,0.282v0.229v5.349c0,0.398-0.062,0.668-0.184,0.802
				c-0.123,0.134-0.265,0.224-0.424,0.268l-0.173,0.022H67.66h-0.042H66.89h-0.009h-0.175c-0.086,0-0.152-0.008-0.196-0.022
				c-0.158-0.022-0.302-0.106-0.428-0.253c-0.127-0.146-0.19-0.414-0.19-0.802v-1.669H66.982z"/>
			<path fill="#FFFFFF" d="M69.205,42.343h0.021c0.124,0,0.215-0.026,0.273-0.076c0.057-0.052,0.104-0.117,0.141-0.196l0.021-0.088
				l0.012-0.087l0.697-6.213h1.755l0.501,7.324h-1.178l-0.261-6.441h-0.065l-0.36,5.513v0.143l-0.021,0.153
				c-0.045,0.188-0.144,0.371-0.297,0.545c-0.074,0.073-0.182,0.132-0.324,0.175c-0.144,0.044-0.313,0.066-0.51,0.066h-0.406V42.343
				z"/>
			<path fill="#FFFFFF" d="M73.009,42.343h0.021c0.124,0,0.214-0.026,0.272-0.076c0.058-0.052,0.105-0.117,0.143-0.196l0.021-0.088
				l0.012-0.087l0.697-6.213h1.754l0.501,7.324h-1.176l-0.262-6.441h-0.065l-0.359,5.513v0.143l-0.022,0.153
				c-0.044,0.188-0.144,0.371-0.296,0.545c-0.073,0.073-0.182,0.132-0.324,0.175c-0.143,0.044-0.313,0.066-0.511,0.066h-0.405
				V42.343z"/>
			<path fill="#FFFFFF" d="M77.116,35.683h1.091l0.001,3.544l0.787-3.543l1.086-0.001v7.324h-1.09v-3.978l-0.784,3.978h-1.091
				V35.683z"/>
			<path fill="#FFFFFF" d="M80.996,35.683h1.091l0.001,3.544l0.788-3.543l1.085-0.001v7.324h-1.09v-3.978l-0.784,3.978h-1.091
				V35.683z M82.151,33.82v0.672c0,0.095,0.031,0.174,0.093,0.236c0.063,0.062,0.141,0.093,0.235,0.093
				c0.087,0,0.163-0.032,0.228-0.099c0.066-0.066,0.099-0.144,0.099-0.23V33.82h0.938v0.686v0.133l-0.021,0.144
				c-0.022,0.118-0.092,0.229-0.209,0.331c-0.052,0.046-0.127,0.086-0.227,0.122c-0.098,0.037-0.213,0.055-0.346,0.055h-0.12h-0.11
				h-0.133h-0.109h-0.109h-0.111h-0.121h-0.108c-0.133,0-0.248-0.017-0.347-0.049c-0.099-0.033-0.185-0.082-0.259-0.149
				c-0.109-0.111-0.176-0.229-0.198-0.354v-0.122v-0.11V33.82H82.151z"/>
			<path fill="#FFFFFF" d="M84.877,35.683h1.09v3.248h0.522v-3.248h1.091v7.324h-1.091v-3.291h-0.522v3.291h-1.09V35.683z"/>
		</g>
	</g>
</g>
</svg>
