<?xml version="1.0" encoding="utf-8"?>
<!-- Generator: Adobe Illustrator 13.0.0, SVG Export Plug-In . SVG Version: 6.00 Build 14948)  -->
<!DOCTYPE svg PUBLIC "-//W3C//DTD SVG 1.1//EN" "http://www.w3.org/Graphics/SVG/1.1/DTD/svg11.dtd">
<svg version="1.1" id="Layer_1" xmlns="http://www.w3.org/2000/svg" xmlns:xlink="http://www.w3.org/1999/xlink" x="0px" y="0px"
	 width="100px" height="100px" viewBox="0 0 100 100" enable-background="new 0 0 100 100" xml:space="preserve">
<g>
	<path fill="#B92026" d="M15.179,53.261c0-9.143,20.88-16.554,46.635-16.554c9.83,0,18.944,1.082,26.463,2.925
		c-8.961-3.879-22.635-6.36-37.961-6.36c-26.996,0-48.879,7.69-48.879,17.178c0,7.569,13.938,13.99,33.282,16.279
		C22.894,63.726,15.179,58.814,15.179,53.261z"/>
	<g>
		<path fill="#EC1C24" d="M27.593,64.615c-3.929-1.506-7.076-3.271-9.22-5.214c-3.505-2.851-5.497-6.114-5.497-9.587
			c0-5.53,5.052-10.536,13.222-14.168C11.37,38.604,1.437,44.174,1.437,50.564c0,7.448,13.502,13.783,32.368,16.164
			C31.597,66.102,29.517,65.396,27.593,64.615z"/>
	</g>
	<g>
		<path fill="#EC1C24" d="M49.136,43.87v6.243h-7.152v14.903h-8.112V50.112h-7.153V43.87H49.136z"/>
		<path fill="#EC1C24" d="M56.562,65.016L49.017,43.87h8.693l3.939,12.663h0.061l3.964-12.663h8.308l-7.818,21.146H56.562z"/>
		<g>
			<path fill="#EC1C24" d="M96.823,44.062l0.063,5.587H80.974v2.987h8.563c2.611,0,4.602,0.485,5.972,1.46
				c1.37,0.974,2.056,2.445,2.056,4.415c0,2.204-0.717,3.928-2.151,5.169c-1.435,1.242-3.778,1.863-7.032,1.863H74.481l-0.03-5.523
				h14.44c0.771,0,1.344-0.122,1.719-0.369c0.373-0.246,0.562-0.646,0.562-1.204c0-0.557-0.188-0.952-0.562-1.188
				c-0.375-0.234-0.947-0.354-1.719-0.354H74.39V44.062H96.823z"/>
		</g>
	</g>
</g>
</svg>
