<?xml version="1.0" encoding="utf-8"?>
<!-- Generator: Adobe Illustrator 13.0.0, SVG Export Plug-In . SVG Version: 6.00 Build 14948)  -->
<!DOCTYPE svg PUBLIC "-//W3C//DTD SVG 1.1//EN" "http://www.w3.org/Graphics/SVG/1.1/DTD/svg11.dtd">
<svg version="1.1" id="Layer_1" xmlns="http://www.w3.org/2000/svg" xmlns:xlink="http://www.w3.org/1999/xlink" x="0px" y="0px"
	 width="100px" height="100px" viewBox="0 0 100 100" enable-background="new 0 0 100 100" xml:space="preserve">
<g>
	<path fill="#B068FF" d="M93.24,34.004V64.67c0,0-0.334,6.834-6.5,6.5c-6.166-0.333-28.834-3.332-33-4.166s-5.833-3.167-5.833-7.167
		s0.167-18.167,0.167-20.167s1.333-4,4.833-5s33.333-6.666,33.333-6.666S93.24,26.171,93.24,34.004z"/>
	<path fill="#C692FF" d="M85.773,28.577c0,0-29.394,5.521-32.842,6.495c-3.447,0.974-4.762,2.923-4.762,4.872
		c0,0.336-0.005,1.029-0.014,1.956c0,0.649,0.205,0.772,1.244,0.967c2.945,0.552,38.918,4.628,38.918,4.628s3.447,0.649,4.352,3.143
		V34.422C92.67,26.791,85.773,28.577,85.773,28.577z"/>
	<g>
		<path fill="#652D90" d="M65.357,41.799c1.34,0,2.242,0.258,2.707,0.773c0.463,0.516,0.695,1.471,0.695,2.865v1.688
			c0,1.078-0.211,1.887-0.633,2.426s-1.162,0.932-2.221,1.177c1.096,0.152,1.902,0.527,2.418,1.125s0.773,1.459,0.773,2.584v1.951
			c0,1.512-0.266,2.555-0.795,3.129s-1.475,0.861-2.834,0.861h-9.492c-1.35,0-2.287-0.284-2.813-0.853s-0.787-1.614-0.787-3.138
			v-1.951c0-1.113,0.258-1.972,0.773-2.575s1.313-0.981,2.391-1.134c-1.049-0.257-1.787-0.656-2.215-1.195
			c-0.426-0.539-0.639-1.342-0.639-2.408v-1.688c0-1.395,0.23-2.35,0.695-2.865s1.365-0.773,2.707-0.773H65.357z M64.527,52.311
			H56.92c-0.563,0-0.938,0.111-1.125,0.334s-0.281,0.68-0.281,1.371v1.354c0,0.68,0.088,1.128,0.268,1.345
			c0.178,0.217,0.557,0.325,1.139,0.325h7.607c0.572,0,0.949-0.108,1.133-0.325c0.182-0.217,0.273-0.665,0.273-1.345v-1.354
			c0-0.691-0.094-1.148-0.281-1.371S65.09,52.311,64.527,52.311z M64.203,44.963h-6.932c-0.572,0-0.957,0.114-1.154,0.343
			c-0.195,0.229-0.295,0.683-0.295,1.362V47.6c0,0.668,0.1,1.116,0.295,1.345c0.197,0.229,0.582,0.343,1.154,0.343h6.932
			c0.563,0,0.941-0.111,1.133-0.334s0.289-0.674,0.289-1.354v-0.932c0-0.691-0.098-1.148-0.289-1.371S64.766,44.963,64.203,44.963z"
			/>
		<path fill="#652D90" d="M71.344,60.379v-7.226h1.346v2.803h4.199v-2.803h1.357v7.226h-1.357v-3.11h-4.199v3.11H71.344z"/>
		<path fill="#652D90" d="M80.199,60.379v-7.226h3.719c1.061,0,1.877,0.31,2.447,0.93s0.855,1.499,0.855,2.639
			c0,0.675-0.111,1.282-0.334,1.821c-0.223,0.541-0.535,0.965-0.939,1.275c-0.252,0.195-0.564,0.338-0.939,0.428
			c-0.373,0.088-0.852,0.133-1.436,0.133H80.199z M81.545,59.019h1.738c0.926,0,1.582-0.181,1.969-0.54s0.58-0.955,0.58-1.784
			c0-0.738-0.16-1.298-0.482-1.679c-0.32-0.38-0.795-0.57-1.422-0.57h-2.383V59.019z"/>
	</g>
	<g>
		<path fill="#CCCCCC" d="M5.76,44.663h6.819V59.92h3.46V44.663h6.849V41.34H5.76V44.663z M27.5,41.34h-3.952l8.593,18.58h4.225
			L27.5,41.34z"/>
	</g>
	<g>
		<path fill="#FFFFFF" d="M64.69,41.34c1.341,0,2.243,0.258,2.707,0.773s0.696,1.471,0.696,2.865v1.688
			c0,1.078-0.211,1.887-0.633,2.426s-1.163,0.932-2.222,1.178c1.097,0.152,1.902,0.527,2.418,1.125s0.773,1.459,0.773,2.584v1.951
			c0,1.512-0.265,2.555-0.794,3.129c-0.53,0.574-1.475,0.861-2.834,0.861h-9.492c-1.35,0-2.287-0.283-2.813-0.852
			s-0.787-1.615-0.787-3.139v-1.951c0-1.113,0.258-1.971,0.773-2.574s1.313-0.982,2.391-1.134c-1.05-0.258-1.788-0.656-2.215-1.195
			s-0.64-1.342-0.64-2.408v-1.688c0-1.395,0.231-2.35,0.695-2.865c0.465-0.516,1.366-0.773,2.707-0.773H64.69z M63.86,51.852h-7.607
			c-0.563,0-0.938,0.111-1.125,0.334s-0.281,0.68-0.281,1.371v1.354c0,0.68,0.089,1.129,0.268,1.346
			c0.178,0.217,0.558,0.324,1.139,0.324h7.607c0.572,0,0.949-0.107,1.133-0.324c0.183-0.217,0.273-0.666,0.273-1.346v-1.354
			c0-0.691-0.094-1.148-0.281-1.371S64.423,51.852,63.86,51.852z M63.537,44.504h-6.933c-0.572,0-0.956,0.115-1.153,0.344
			c-0.196,0.229-0.295,0.682-0.295,1.361v0.932c0,0.668,0.099,1.117,0.295,1.346c0.197,0.229,0.581,0.342,1.153,0.342h6.933
			c0.563,0,0.94-0.111,1.132-0.334c0.192-0.223,0.289-0.674,0.289-1.354v-0.932c0-0.691-0.097-1.148-0.289-1.371
			C64.478,44.616,64.1,44.504,63.537,44.504z"/>
		<path fill="#FFFFFF" d="M70.678,59.92v-7.225h1.346v2.803h4.199v-2.803h1.356v7.225h-1.356v-3.109h-4.199v3.109H70.678z"/>
		<path fill="#FFFFFF" d="M79.532,59.92v-7.225h3.719c1.061,0,1.877,0.31,2.447,0.93c0.57,0.619,0.855,1.499,0.855,2.639
			c0,0.674-0.111,1.281-0.333,1.821c-0.223,0.54-0.536,0.965-0.94,1.274c-0.252,0.196-0.564,0.339-0.938,0.428
			s-0.853,0.133-1.436,0.133H79.532z M80.878,58.561h1.738c0.927,0,1.583-0.181,1.969-0.541c0.387-0.359,0.58-0.954,0.58-1.783
			c0-0.738-0.16-1.299-0.481-1.679c-0.32-0.38-0.795-0.571-1.422-0.571h-2.384V58.561z"/>
	</g>
	<polygon fill="#CCCCCC" points="41.578,41.34 34.573,56.023 34.573,59.92 36.938,59.92 45.531,41.34 	"/>
</g>
</svg>
