<?xml version="1.0" encoding="utf-8"?>
<!-- Generator: Adobe Illustrator 13.0.0, SVG Export Plug-In . SVG Version: 6.00 Build 14948)  -->
<!DOCTYPE svg PUBLIC "-//W3C//DTD SVG 1.1//EN" "http://www.w3.org/Graphics/SVG/1.1/DTD/svg11.dtd">
<svg version="1.1" id="Layer_1" xmlns="http://www.w3.org/2000/svg" xmlns:xlink="http://www.w3.org/1999/xlink" x="0px" y="0px"
	 width="100px" height="100px" viewBox="0 0 100 100" enable-background="new 0 0 100 100" xml:space="preserve">
<g>
	
		<ellipse transform="matrix(-0.4005 -0.9163 0.9163 -0.4005 23.5093 115.3819)" fill="#FFAC27" cx="49.5" cy="50" rx="27.556" ry="51.075"/>
	<path fill="#DA7409" d="M96.301,29.542c6.095,13.944-9.917,34.406-35.765,45.707C34.689,86.546,8.794,84.399,2.7,70.455
		c-6.095-13.942,32.586-14.887,52.825-24.836C80.841,33.177,90.205,15.598,96.301,29.542z"/>
	<path fill="#FCFDC4" d="M20.224,44.032c0,0-12.719,9.47-9.938,11.562C13.066,57.686,22,55.068,22,55.068s-3.353,0.105-2.588-3.941
		C20.177,47.078,20.224,44.032,20.224,44.032z"/>
	<g>
		<g>
			<path fill="#9B4B09" d="M55.599,25.89c-3.199-2.76-14.016-2.007-24.099,4.264c-7.892,4.908-18.197,19.062-11.558,24.33
				c6.64,5.267,15.493-2.76,15.493-2.76s-0.738,5.519-4.181,8.528c-5.284,4.621-14.509,4.515-14.509,4.515l-2.213,5.519
				c0,0,27.788,5.519,38.852-15.801C64.449,33.163,58.797,28.649,55.599,25.89z M36.909,44.831
				c-3.429,3.491-7.575,4.925-9.262,3.201c-1.688-1.721-0.276-5.949,3.152-9.44c3.429-3.492,7.575-4.925,9.263-3.201
				C41.749,37.113,40.336,41.34,36.909,44.831z M76.271,58.233l-5.662,8.526l-1.407-8.526h-6.337l0.008,0.038h-2.525l1.01-4.143
				c-2.112,0.824-4.248,1.458-6.408,1.895l-0.547,2.248h-1.988l-0.348,1.428h1.986l-2.062,8.45
				c-0.479,1.972,0.772,2.956,3.759,2.956c2.509,0,4.159-0.665,4.951-1.994l-1.663-0.128c-0.159,0.38-0.406,0.567-0.742,0.567
				c-0.467,0-0.631-0.28-0.493-0.846l2.196-9.006h2.638l0.287-1.178l2.539,12.443h4.137l8.627-12.732L76.271,58.233L76.271,58.233z"
				/>
		</g>
	</g>
	<path fill="#9C5100" d="M95.757,28.957c-0.313-0.713-0.635-1.339-0.967-1.892c5.893,13.854-10.037,34.08-35.703,45.268
		C34.408,83.089,9.694,81.574,2.324,69.244c0.048,0.123,0.093,0.246,0.146,0.373c6.074,13.855,31.883,15.988,57.643,4.76
		C85.871,63.149,101.831,42.814,95.757,28.957z"/>
	<path fill="#FCFDC4" d="M81.938,24.008c-6.803,1.133-7.891,6.86-10.978,9.261c-3.088,2.401-3.088,5.146,1.028,3.088
		c4.117-2.058,18.182-4.46,17.494-7.89C88.8,25.037,86.056,23.323,81.938,24.008z"/>
	<g>
		<g>
			<path fill="#FFFFFF" d="M56.97,24.946c-3.197-2.706-14.016-1.967-24.098,4.181c-7.892,4.811-18.197,18.689-11.558,23.852
				c6.64,5.164,15.493-2.704,15.493-2.704s-0.738,5.409-4.181,8.36c-5.284,4.529-14.509,4.427-14.509,4.427l-2.213,5.41
				c0,0,27.788,5.409,38.853-15.493C65.821,32.077,60.167,27.652,56.97,24.946z M38.28,43.516c-3.429,3.422-7.575,4.828-9.262,3.139
				c-1.687-1.688-0.275-5.833,3.153-9.257c3.428-3.423,7.575-4.828,9.262-3.138C43.122,35.949,41.708,40.093,38.28,43.516z
				 M77.644,56.658l-5.662,8.356l-1.408-8.356h-6.336l0.008,0.035h-2.527l1.012-4.061c-2.113,0.809-4.25,1.429-6.41,1.855
				l-0.545,2.205h-1.989l-0.347,1.397h1.986l-2.063,8.286c-0.48,1.932,0.772,2.897,3.759,2.897c2.51,0,4.157-0.651,4.95-1.956
				l-1.662-0.125c-0.16,0.371-0.405,0.557-0.743,0.557c-0.465,0-0.63-0.274-0.492-0.828l2.196-8.831h2.639l0.287-1.154l2.536,12.202
				h4.138l8.629-12.482h-1.955V56.658z"/>
		</g>
	</g>
</g>
</svg>
