<?xml version="1.0" encoding="utf-8"?>
<!-- Generator: Adobe Illustrator 13.0.0, SVG Export Plug-In . SVG Version: 6.00 Build 14948)  -->
<!DOCTYPE svg PUBLIC "-//W3C//DTD SVG 1.1//EN" "http://www.w3.org/Graphics/SVG/1.1/DTD/svg11.dtd">
<svg version="1.1" id="Layer_1" xmlns="http://www.w3.org/2000/svg" xmlns:xlink="http://www.w3.org/1999/xlink" x="0px" y="0px"
	 width="100px" height="100px" viewBox="0 0 100 100" enable-background="new 0 0 100 100" xml:space="preserve">
<g>
	<g>
		<path fill="#FFFFFF" stroke="#231F20" stroke-width="0.25" d="M3.161,65.125H3.81v2.826c0,0.492-0.056,0.885-0.167,1.174
			S3.33,69.648,3.04,69.83c-0.291,0.182-0.672,0.271-1.144,0.271c-0.458,0-0.834-0.078-1.125-0.236
			c-0.292-0.158-0.5-0.385-0.625-0.686s-0.188-0.709-0.188-1.229v-2.826h0.648v2.822c0,0.426,0.039,0.74,0.118,0.941
			c0.078,0.199,0.215,0.355,0.407,0.465c0.192,0.107,0.429,0.164,0.706,0.164c0.478,0,0.815-0.107,1.019-0.324
			s0.303-0.631,0.303-1.246v-2.822H3.161z"/>
		<path fill="#FFFFFF" stroke="#231F20" stroke-width="0.25" d="M4.797,70.02v-4.895h0.601v4.895H4.797z"/>
		<path fill="#FFFFFF" stroke="#231F20" stroke-width="0.25" d="M8.644,69.582c-0.224,0.189-0.438,0.322-0.643,0.4
			C7.795,70.061,7.574,70.1,7.338,70.1c-0.39,0-0.688-0.098-0.898-0.285c-0.208-0.191-0.313-0.436-0.313-0.73
			c0-0.174,0.04-0.332,0.118-0.475c0.08-0.145,0.183-0.26,0.312-0.348c0.128-0.086,0.271-0.152,0.433-0.195
			c0.117-0.031,0.295-0.063,0.534-0.09c0.484-0.059,0.842-0.127,1.07-0.209c0.002-0.08,0.004-0.135,0.004-0.156
			c0-0.244-0.058-0.418-0.171-0.516c-0.152-0.137-0.381-0.205-0.684-0.205c-0.283,0-0.492,0.049-0.627,0.146
			c-0.134,0.102-0.233,0.275-0.298,0.527l-0.588-0.08c0.054-0.252,0.142-0.455,0.265-0.609c0.121-0.154,0.298-0.273,0.53-0.355
			c0.231-0.084,0.5-0.127,0.806-0.127c0.302,0,0.548,0.037,0.737,0.107c0.188,0.07,0.328,0.16,0.417,0.27
			c0.089,0.105,0.15,0.244,0.187,0.41c0.021,0.1,0.03,0.285,0.03,0.553v0.801c0,0.559,0.013,0.912,0.039,1.063
			c0.025,0.145,0.076,0.287,0.151,0.424H8.764C8.701,69.895,8.661,69.748,8.644,69.582z M8.593,68.24
			c-0.218,0.088-0.545,0.164-0.981,0.227c-0.247,0.035-0.422,0.076-0.523,0.121c-0.102,0.043-0.182,0.107-0.236,0.193
			c-0.057,0.086-0.083,0.182-0.083,0.287c0,0.16,0.062,0.291,0.182,0.398c0.122,0.107,0.299,0.16,0.533,0.16
			c0.231,0,0.438-0.051,0.617-0.15c0.18-0.104,0.313-0.24,0.397-0.416c0.065-0.135,0.097-0.336,0.097-0.602V68.24H8.593z"/>
		<path fill="#FFFFFF" stroke="#231F20" stroke-width="0.25" d="M12.445,69.582c-0.222,0.189-0.438,0.322-0.644,0.4
			c-0.205,0.078-0.427,0.117-0.662,0.117c-0.39,0-0.688-0.098-0.897-0.285c-0.209-0.191-0.314-0.436-0.314-0.73
			c0-0.174,0.04-0.332,0.119-0.475c0.079-0.145,0.184-0.26,0.312-0.348c0.127-0.086,0.271-0.152,0.432-0.195
			c0.118-0.031,0.295-0.063,0.534-0.09c0.485-0.059,0.842-0.127,1.071-0.209c0.002-0.08,0.004-0.135,0.004-0.156
			c0-0.244-0.059-0.418-0.17-0.516c-0.154-0.137-0.382-0.205-0.686-0.205c-0.283,0-0.491,0.049-0.627,0.146
			c-0.134,0.102-0.233,0.275-0.298,0.527l-0.587-0.08c0.053-0.252,0.142-0.455,0.264-0.609s0.299-0.273,0.53-0.355
			c0.232-0.084,0.5-0.127,0.805-0.127c0.304,0,0.549,0.037,0.738,0.107s0.329,0.16,0.417,0.27c0.089,0.105,0.151,0.244,0.188,0.41
			c0.02,0.1,0.029,0.285,0.029,0.553v0.801c0,0.559,0.014,0.912,0.039,1.063c0.026,0.145,0.076,0.287,0.152,0.424h-0.627
			C12.503,69.895,12.463,69.748,12.445,69.582z M12.396,68.24c-0.22,0.088-0.545,0.164-0.982,0.227
			c-0.247,0.035-0.422,0.076-0.522,0.121c-0.104,0.043-0.183,0.107-0.237,0.193c-0.056,0.086-0.083,0.182-0.083,0.287
			c0,0.16,0.06,0.291,0.182,0.398c0.121,0.107,0.299,0.16,0.532,0.16c0.231,0,0.438-0.051,0.618-0.15
			c0.18-0.104,0.313-0.24,0.396-0.416c0.064-0.135,0.098-0.336,0.098-0.602L12.396,68.24L12.396,68.24z"/>
		<path fill="#FFFFFF" stroke="#231F20" stroke-width="0.25" d="M13.935,70.02v-3.545h0.541v0.504
			c0.26-0.389,0.637-0.584,1.128-0.584c0.213,0,0.41,0.037,0.589,0.115c0.179,0.076,0.313,0.178,0.402,0.303
			c0.089,0.123,0.15,0.271,0.187,0.441c0.021,0.111,0.033,0.309,0.033,0.586v2.18h-0.602v-2.156c0-0.246-0.022-0.428-0.07-0.551
			c-0.046-0.119-0.129-0.217-0.248-0.289s-0.26-0.107-0.419-0.107c-0.255,0-0.478,0.08-0.662,0.242
			c-0.188,0.162-0.279,0.473-0.279,0.926v1.936H13.935L13.935,70.02z"/>
		<path fill="#FFFFFF" stroke="#231F20" stroke-width="0.25" d="M18.29,70.02h-0.558v-4.895h0.601v1.746
			c0.254-0.316,0.577-0.479,0.973-0.479c0.218,0,0.424,0.045,0.618,0.133c0.195,0.088,0.354,0.211,0.48,0.371
			c0.126,0.158,0.225,0.35,0.296,0.576c0.071,0.223,0.107,0.465,0.107,0.721c0,0.605-0.151,1.076-0.451,1.41
			c-0.3,0.33-0.661,0.496-1.081,0.496c-0.418,0-0.747-0.176-0.985-0.525V70.02z M18.284,68.221c0,0.424,0.058,0.73,0.173,0.922
			c0.189,0.309,0.445,0.463,0.769,0.463c0.263,0,0.488-0.113,0.681-0.342s0.288-0.568,0.288-1.021c0-0.463-0.091-0.805-0.275-1.025
			c-0.184-0.219-0.405-0.328-0.667-0.328c-0.263,0-0.489,0.111-0.681,0.342C18.379,67.459,18.284,67.787,18.284,68.221z"/>
		<path fill="#FFFFFF" stroke="#231F20" stroke-width="0.25" d="M23.853,69.582c-0.223,0.189-0.438,0.322-0.645,0.4
			S22.782,70.1,22.545,70.1c-0.389,0-0.688-0.098-0.896-0.285c-0.209-0.191-0.314-0.436-0.314-0.73c0-0.174,0.04-0.332,0.119-0.475
			c0.079-0.145,0.183-0.26,0.312-0.348c0.128-0.086,0.271-0.152,0.432-0.195c0.118-0.031,0.296-0.063,0.534-0.09
			c0.484-0.059,0.843-0.127,1.071-0.209c0.003-0.08,0.004-0.135,0.004-0.156c0-0.244-0.057-0.418-0.171-0.516
			c-0.152-0.137-0.382-0.205-0.685-0.205c-0.283,0-0.491,0.049-0.625,0.146c-0.135,0.102-0.234,0.275-0.299,0.527l-0.588-0.08
			c0.053-0.252,0.142-0.455,0.263-0.609c0.123-0.154,0.3-0.273,0.532-0.355c0.23-0.084,0.499-0.127,0.804-0.127
			c0.303,0,0.549,0.037,0.738,0.107c0.188,0.07,0.329,0.16,0.417,0.27c0.089,0.105,0.151,0.244,0.188,0.41
			c0.021,0.1,0.03,0.285,0.03,0.553v0.801c0,0.559,0.013,0.912,0.039,1.063c0.025,0.145,0.076,0.287,0.152,0.424h-0.628
			C23.91,69.895,23.87,69.748,23.853,69.582z M23.802,68.24c-0.218,0.088-0.545,0.164-0.98,0.227
			c-0.247,0.035-0.422,0.076-0.524,0.121c-0.103,0.043-0.182,0.107-0.236,0.193c-0.057,0.086-0.084,0.182-0.084,0.287
			c0,0.16,0.062,0.291,0.183,0.398c0.122,0.107,0.299,0.16,0.533,0.16c0.23,0,0.437-0.051,0.618-0.15
			c0.18-0.104,0.312-0.24,0.396-0.416c0.065-0.135,0.097-0.336,0.097-0.602L23.802,68.24L23.802,68.24z"/>
		<path fill="#FFFFFF" stroke="#231F20" stroke-width="0.25" d="M27.654,69.582c-0.223,0.189-0.438,0.322-0.644,0.4
			c-0.206,0.078-0.427,0.117-0.663,0.117c-0.39,0-0.688-0.098-0.897-0.285c-0.209-0.191-0.313-0.436-0.313-0.73
			c0-0.174,0.038-0.332,0.117-0.475c0.079-0.145,0.184-0.26,0.312-0.348c0.127-0.086,0.271-0.152,0.432-0.195
			c0.118-0.031,0.296-0.063,0.534-0.09c0.485-0.059,0.843-0.127,1.072-0.209c0.002-0.08,0.003-0.135,0.003-0.156
			c0-0.244-0.058-0.418-0.17-0.516c-0.153-0.137-0.381-0.205-0.685-0.205c-0.283,0-0.492,0.049-0.626,0.146
			c-0.135,0.102-0.233,0.275-0.298,0.527l-0.588-0.08c0.053-0.252,0.141-0.455,0.264-0.609s0.301-0.273,0.531-0.355
			c0.231-0.084,0.5-0.127,0.805-0.127c0.303,0,0.549,0.037,0.737,0.107s0.328,0.16,0.417,0.27c0.088,0.105,0.151,0.244,0.187,0.41
			c0.02,0.1,0.029,0.285,0.029,0.553v0.801c0,0.559,0.014,0.912,0.039,1.063c0.025,0.145,0.077,0.287,0.152,0.424h-0.628
			C27.711,69.895,27.672,69.748,27.654,69.582z M27.604,68.24c-0.219,0.088-0.545,0.164-0.981,0.227
			c-0.247,0.035-0.422,0.076-0.524,0.121c-0.102,0.043-0.182,0.107-0.236,0.193c-0.056,0.086-0.084,0.182-0.084,0.287
			c0,0.16,0.062,0.291,0.182,0.398c0.122,0.107,0.299,0.16,0.533,0.16c0.231,0,0.437-0.051,0.617-0.15
			c0.18-0.104,0.312-0.24,0.396-0.416c0.065-0.135,0.098-0.336,0.098-0.602V68.24z"/>
		<path fill="#FFFFFF" stroke="#231F20" stroke-width="0.25" d="M30.455,69.482l0.086,0.529c-0.169,0.035-0.319,0.055-0.454,0.055
			c-0.218,0-0.388-0.035-0.507-0.105c-0.12-0.066-0.205-0.158-0.253-0.27c-0.049-0.113-0.074-0.352-0.074-0.709v-2.041h-0.439
			v-0.467h0.439v-0.879l0.599-0.359v1.238h0.604v0.467h-0.604v2.074c0,0.172,0.011,0.279,0.03,0.33
			c0.021,0.049,0.057,0.088,0.104,0.115c0.048,0.029,0.116,0.045,0.205,0.045C30.257,69.506,30.347,69.498,30.455,69.482z"/>
		<path fill="#FFFFFF" stroke="#231F20" stroke-width="0.25" d="M33.356,69.582c-0.224,0.189-0.438,0.322-0.644,0.4
			c-0.206,0.078-0.427,0.117-0.663,0.117c-0.389,0-0.688-0.098-0.896-0.285c-0.21-0.191-0.314-0.436-0.314-0.73
			c0-0.174,0.039-0.332,0.118-0.475c0.08-0.145,0.184-0.26,0.312-0.348c0.129-0.086,0.272-0.152,0.432-0.195
			c0.119-0.031,0.296-0.063,0.535-0.09c0.483-0.059,0.842-0.127,1.072-0.209c0.001-0.08,0.003-0.135,0.003-0.156
			c0-0.244-0.059-0.418-0.17-0.516c-0.154-0.137-0.383-0.205-0.686-0.205c-0.283,0-0.491,0.049-0.626,0.146
			c-0.135,0.102-0.234,0.275-0.298,0.527l-0.588-0.08c0.054-0.252,0.142-0.455,0.264-0.609c0.123-0.154,0.299-0.273,0.531-0.355
			c0.23-0.084,0.5-0.127,0.805-0.127c0.304,0,0.548,0.037,0.738,0.107c0.188,0.07,0.328,0.16,0.417,0.27
			c0.089,0.105,0.152,0.244,0.187,0.41c0.021,0.1,0.03,0.285,0.03,0.553v0.801c0,0.559,0.015,0.912,0.039,1.063
			c0.025,0.145,0.076,0.287,0.152,0.424h-0.628C33.414,69.895,33.374,69.748,33.356,69.582z M33.307,68.24
			c-0.22,0.088-0.546,0.164-0.982,0.227c-0.248,0.035-0.422,0.076-0.523,0.121c-0.103,0.043-0.182,0.107-0.236,0.193
			c-0.057,0.086-0.083,0.182-0.083,0.287c0,0.16,0.061,0.291,0.182,0.398s0.298,0.16,0.533,0.16c0.229,0,0.437-0.051,0.617-0.15
			c0.18-0.104,0.313-0.24,0.396-0.416c0.065-0.135,0.099-0.336,0.099-0.602L33.307,68.24L33.307,68.24z"/>
		<path fill="#FFFFFF" stroke="#231F20" stroke-width="0.25" d="M34.838,70.02v-3.545h0.542v0.537
			c0.138-0.252,0.266-0.418,0.381-0.496c0.117-0.082,0.245-0.121,0.387-0.121c0.202,0,0.409,0.063,0.617,0.193l-0.207,0.559
			c-0.147-0.088-0.294-0.131-0.44-0.131c-0.132,0-0.249,0.041-0.354,0.117c-0.104,0.08-0.18,0.189-0.225,0.328
			c-0.065,0.215-0.1,0.449-0.1,0.703v1.855H34.838z"/>
		<path fill="#FFFFFF" stroke="#231F20" stroke-width="0.25" d="M39.071,70.02v-4.895h1.836c0.373,0,0.674,0.051,0.899,0.148
			c0.227,0.1,0.402,0.252,0.531,0.457c0.127,0.205,0.191,0.422,0.191,0.645c0,0.211-0.056,0.406-0.169,0.592
			c-0.114,0.186-0.285,0.334-0.514,0.447c0.295,0.086,0.522,0.234,0.683,0.443c0.16,0.211,0.238,0.457,0.238,0.742
			c0,0.229-0.049,0.441-0.146,0.639s-0.216,0.35-0.358,0.457c-0.143,0.104-0.322,0.186-0.536,0.242
			c-0.215,0.053-0.479,0.08-0.79,0.08h-1.866V70.02z M39.717,67.184h1.06c0.288,0,0.492-0.021,0.618-0.059
			c0.165-0.049,0.288-0.131,0.373-0.244c0.083-0.113,0.125-0.256,0.125-0.428c0-0.162-0.039-0.305-0.118-0.43
			c-0.078-0.123-0.188-0.207-0.333-0.252c-0.146-0.047-0.394-0.068-0.744-0.068h-0.979L39.717,67.184L39.717,67.184z M39.717,69.441
			h1.22c0.209,0,0.355-0.008,0.439-0.023c0.149-0.027,0.273-0.07,0.375-0.133c0.101-0.063,0.183-0.152,0.247-0.271
			s0.097-0.258,0.097-0.412c0-0.184-0.047-0.344-0.14-0.477c-0.093-0.135-0.223-0.229-0.389-0.285
			c-0.166-0.053-0.405-0.082-0.716-0.082h-1.134V69.441z"/>
		<path fill="#FFFFFF" stroke="#231F20" stroke-width="0.25" d="M43.574,70.02v-3.545h0.54v0.537
			c0.139-0.252,0.266-0.418,0.382-0.496c0.117-0.082,0.246-0.121,0.385-0.121c0.203,0,0.408,0.063,0.618,0.193l-0.207,0.559
			c-0.146-0.088-0.293-0.131-0.439-0.131c-0.131,0-0.249,0.041-0.354,0.117c-0.104,0.08-0.179,0.189-0.224,0.328
			c-0.066,0.215-0.101,0.449-0.101,0.703v1.855H43.574z"/>
		<path fill="#FFFFFF" stroke="#231F20" stroke-width="0.25" d="M45.633,68.246c0-0.656,0.183-1.143,0.549-1.459
			c0.305-0.262,0.676-0.395,1.114-0.395c0.487,0,0.887,0.16,1.195,0.479c0.31,0.32,0.465,0.762,0.465,1.322
			c0,0.459-0.068,0.816-0.206,1.078c-0.137,0.262-0.336,0.465-0.598,0.609c-0.261,0.146-0.546,0.217-0.855,0.217
			c-0.497,0-0.896-0.158-1.204-0.479C45.786,69.299,45.633,68.846,45.633,68.246z M46.251,68.246c0,0.455,0.099,0.793,0.297,1.021
			c0.198,0.227,0.447,0.338,0.748,0.338c0.298,0,0.545-0.113,0.744-0.34c0.199-0.229,0.297-0.574,0.297-1.039
			c0-0.438-0.099-0.771-0.299-0.996c-0.2-0.227-0.447-0.338-0.742-0.338c-0.3,0-0.549,0.109-0.748,0.336
			C46.351,67.453,46.251,67.793,46.251,68.246z"/>
		<path fill="#FFFFFF" stroke="#231F20" stroke-width="0.25" d="M51.974,69.582c-0.224,0.189-0.438,0.322-0.644,0.4
			c-0.205,0.078-0.427,0.117-0.664,0.117c-0.388,0-0.688-0.098-0.896-0.285c-0.209-0.191-0.313-0.436-0.313-0.73
			c0-0.174,0.039-0.332,0.117-0.475c0.08-0.145,0.183-0.26,0.312-0.348c0.129-0.086,0.272-0.152,0.434-0.195
			c0.117-0.031,0.295-0.063,0.531-0.09c0.487-0.059,0.844-0.127,1.072-0.209c0.003-0.08,0.004-0.135,0.004-0.156
			c0-0.244-0.058-0.418-0.171-0.516c-0.151-0.137-0.381-0.205-0.685-0.205c-0.282,0-0.491,0.049-0.625,0.146
			c-0.135,0.102-0.235,0.275-0.301,0.527l-0.585-0.08c0.053-0.252,0.141-0.455,0.263-0.609c0.124-0.154,0.3-0.273,0.531-0.355
			c0.231-0.084,0.498-0.127,0.804-0.127c0.304,0,0.549,0.037,0.737,0.107c0.189,0.07,0.328,0.16,0.418,0.27
			c0.09,0.105,0.151,0.244,0.188,0.41c0.02,0.1,0.031,0.285,0.031,0.553v0.801c0,0.559,0.012,0.912,0.037,1.063
			c0.027,0.145,0.076,0.287,0.152,0.424h-0.629C52.03,69.895,51.989,69.748,51.974,69.582z M51.922,68.24
			c-0.217,0.088-0.544,0.164-0.981,0.227c-0.246,0.035-0.42,0.076-0.522,0.121c-0.103,0.043-0.183,0.107-0.237,0.193
			c-0.056,0.086-0.082,0.182-0.082,0.287c0,0.16,0.061,0.291,0.182,0.398s0.3,0.16,0.533,0.16c0.229,0,0.436-0.051,0.615-0.15
			c0.182-0.104,0.313-0.24,0.397-0.416c0.065-0.135,0.097-0.336,0.097-0.602L51.922,68.24L51.922,68.24z"/>
		<path fill="#FFFFFF" stroke="#231F20" stroke-width="0.25" d="M55.761,70.02v-0.445c-0.224,0.35-0.556,0.525-0.99,0.525
			c-0.281,0-0.543-0.078-0.777-0.232c-0.239-0.156-0.422-0.373-0.553-0.654c-0.131-0.277-0.196-0.6-0.196-0.963
			c0-0.354,0.06-0.674,0.179-0.963c0.118-0.287,0.295-0.51,0.53-0.662s0.5-0.23,0.791-0.23c0.214,0,0.403,0.047,0.569,0.137
			c0.168,0.09,0.306,0.207,0.408,0.352v-1.756h0.598v4.895h-0.559V70.02z M53.86,68.25c0,0.453,0.098,0.793,0.289,1.018
			c0.19,0.227,0.416,0.338,0.677,0.338c0.263,0,0.485-0.107,0.67-0.322s0.274-0.541,0.274-0.984c0-0.482-0.094-0.84-0.279-1.064
			c-0.188-0.229-0.416-0.342-0.691-0.342c-0.267,0-0.488,0.107-0.669,0.326C53.951,67.438,53.86,67.779,53.86,68.25z"/>
		<path fill="#FFFFFF" stroke="#231F20" stroke-width="0.25" d="M59.578,68.721l0.589,0.076c-0.063,0.408-0.229,0.727-0.494,0.957
			c-0.268,0.229-0.592,0.346-0.979,0.346c-0.487,0-0.877-0.158-1.172-0.477c-0.295-0.316-0.441-0.771-0.441-1.363
			c0-0.383,0.063-0.717,0.189-1.006c0.127-0.287,0.32-0.502,0.578-0.645c0.262-0.145,0.543-0.217,0.848-0.217
			c0.386,0,0.699,0.098,0.945,0.293c0.244,0.193,0.401,0.473,0.471,0.83l-0.584,0.092c-0.057-0.24-0.155-0.42-0.297-0.539
			c-0.141-0.121-0.313-0.18-0.512-0.18c-0.303,0-0.549,0.107-0.738,0.324c-0.188,0.217-0.283,0.561-0.283,1.029
			c0,0.475,0.092,0.822,0.273,1.037c0.184,0.217,0.422,0.324,0.715,0.324c0.235,0,0.433-0.07,0.59-0.217
			C59.435,69.24,59.535,69.021,59.578,68.721z"/>
		<path fill="#FFFFFF" stroke="#231F20" stroke-width="0.25" d="M62.996,69.582c-0.224,0.189-0.438,0.322-0.644,0.4
			S61.925,70.1,61.69,70.1c-0.392,0-0.688-0.098-0.898-0.285c-0.208-0.191-0.314-0.436-0.314-0.73c0-0.174,0.041-0.332,0.121-0.475
			c0.077-0.145,0.182-0.26,0.31-0.348c0.128-0.086,0.272-0.152,0.433-0.195c0.118-0.031,0.297-0.063,0.533-0.09
			c0.484-0.059,0.843-0.127,1.072-0.209c0.002-0.08,0.004-0.135,0.004-0.156c0-0.244-0.059-0.418-0.172-0.516
			c-0.152-0.137-0.381-0.205-0.684-0.205c-0.283,0-0.49,0.049-0.626,0.146c-0.135,0.102-0.233,0.275-0.299,0.527l-0.588-0.08
			c0.053-0.252,0.142-0.455,0.263-0.609c0.123-0.154,0.301-0.273,0.531-0.355c0.232-0.084,0.5-0.127,0.805-0.127
			c0.303,0,0.549,0.037,0.739,0.107c0.188,0.07,0.327,0.16,0.416,0.27c0.09,0.105,0.151,0.244,0.188,0.41
			c0.019,0.1,0.028,0.285,0.028,0.553v0.801c0,0.559,0.015,0.912,0.039,1.063c0.025,0.145,0.076,0.287,0.151,0.424h-0.627
			C63.054,69.895,63.015,69.748,62.996,69.582z M62.944,68.24c-0.217,0.088-0.545,0.164-0.98,0.227
			c-0.247,0.035-0.422,0.076-0.523,0.121c-0.104,0.043-0.183,0.107-0.237,0.193c-0.056,0.086-0.083,0.182-0.083,0.287
			c0,0.16,0.061,0.291,0.182,0.398c0.122,0.107,0.301,0.16,0.532,0.16s0.438-0.051,0.618-0.15c0.181-0.104,0.313-0.24,0.396-0.416
			c0.064-0.135,0.098-0.336,0.098-0.602V68.24H62.944z"/>
		<path fill="#FFFFFF" stroke="#231F20" stroke-width="0.25" d="M64.243,68.961l0.594-0.094c0.034,0.238,0.127,0.42,0.28,0.547
			c0.151,0.129,0.366,0.191,0.64,0.191c0.275,0,0.479-0.057,0.613-0.17c0.134-0.113,0.199-0.242,0.199-0.396
			c0-0.135-0.059-0.242-0.176-0.32c-0.084-0.053-0.287-0.119-0.615-0.201c-0.438-0.111-0.743-0.209-0.916-0.291
			c-0.17-0.08-0.299-0.193-0.387-0.336c-0.089-0.145-0.133-0.303-0.133-0.477c0-0.158,0.036-0.305,0.11-0.438
			c0.069-0.135,0.169-0.248,0.293-0.336c0.094-0.068,0.222-0.127,0.384-0.176c0.159-0.049,0.335-0.072,0.52-0.072
			c0.277,0,0.521,0.041,0.731,0.121c0.211,0.078,0.366,0.188,0.466,0.324c0.1,0.139,0.17,0.32,0.209,0.551l-0.589,0.078
			c-0.026-0.182-0.104-0.322-0.233-0.428c-0.125-0.102-0.309-0.15-0.541-0.15c-0.275,0-0.475,0.045-0.592,0.137
			s-0.177,0.197-0.177,0.318c0,0.078,0.024,0.148,0.074,0.211c0.049,0.064,0.126,0.117,0.229,0.158
			c0.061,0.023,0.237,0.074,0.531,0.154c0.426,0.113,0.721,0.207,0.891,0.279c0.168,0.072,0.299,0.178,0.396,0.314
			c0.097,0.139,0.144,0.311,0.144,0.516c0,0.199-0.058,0.389-0.176,0.564c-0.115,0.178-0.285,0.314-0.506,0.412
			c-0.22,0.096-0.47,0.145-0.747,0.145c-0.461,0-0.813-0.096-1.054-0.287C64.465,69.619,64.312,69.336,64.243,68.961z"/>
		<path fill="#FFFFFF" stroke="#231F20" stroke-width="0.25" d="M69.214,69.482l0.086,0.529c-0.167,0.035-0.318,0.055-0.453,0.055
			c-0.218,0-0.386-0.035-0.507-0.105c-0.12-0.066-0.205-0.158-0.253-0.27c-0.049-0.113-0.074-0.352-0.074-0.709v-2.041h-0.439
			v-0.467h0.439v-0.879l0.598-0.359v1.238h0.604v0.467H68.61v2.074c0,0.172,0.012,0.279,0.033,0.33
			c0.021,0.049,0.055,0.088,0.103,0.115c0.048,0.029,0.116,0.045,0.205,0.045C69.019,69.506,69.106,69.498,69.214,69.482z"/>
		<path fill="#FFFFFF" stroke="#231F20" stroke-width="0.25" d="M69.806,65.816v-0.691h0.602v0.691H69.806z M69.806,70.02v-3.545
			h0.602v3.545H69.806z"/>
		<path fill="#FFFFFF" stroke="#231F20" stroke-width="0.25" d="M71.319,70.02v-3.545h0.541v0.504
			c0.262-0.389,0.638-0.584,1.129-0.584c0.214,0,0.41,0.037,0.591,0.115c0.178,0.076,0.313,0.178,0.401,0.303
			c0.088,0.123,0.151,0.271,0.188,0.441c0.021,0.111,0.032,0.309,0.032,0.586v2.18h-0.601v-2.156c0-0.246-0.022-0.428-0.07-0.551
			c-0.045-0.119-0.129-0.217-0.248-0.289c-0.118-0.072-0.258-0.107-0.42-0.107c-0.256,0-0.475,0.08-0.66,0.242
			c-0.188,0.162-0.279,0.473-0.279,0.926v1.936H71.319L71.319,70.02z"/>
		<path fill="#FFFFFF" stroke="#231F20" stroke-width="0.25" d="M76.88,68.445l0.609-0.053c0.029,0.246,0.097,0.445,0.203,0.602
			c0.104,0.158,0.27,0.285,0.492,0.381c0.221,0.1,0.473,0.146,0.75,0.146c0.248,0,0.465-0.035,0.654-0.109
			c0.188-0.074,0.329-0.174,0.422-0.301c0.094-0.129,0.139-0.27,0.139-0.42c0-0.154-0.043-0.287-0.133-0.404
			c-0.09-0.113-0.236-0.209-0.441-0.287c-0.131-0.051-0.42-0.131-0.87-0.238c-0.451-0.107-0.767-0.209-0.945-0.307
			c-0.231-0.121-0.407-0.271-0.521-0.455c-0.115-0.182-0.174-0.385-0.174-0.609c0-0.246,0.071-0.477,0.211-0.691
			c0.141-0.215,0.347-0.379,0.613-0.488c0.271-0.111,0.569-0.168,0.899-0.168c0.362,0,0.683,0.061,0.958,0.178
			c0.277,0.115,0.492,0.287,0.641,0.514c0.149,0.227,0.229,0.484,0.24,0.771l-0.621,0.047c-0.033-0.309-0.146-0.541-0.339-0.701
			c-0.192-0.158-0.476-0.236-0.853-0.236c-0.393,0-0.678,0.072-0.856,0.217c-0.181,0.143-0.269,0.314-0.269,0.518
			c0,0.178,0.063,0.32,0.189,0.436c0.124,0.113,0.449,0.229,0.977,0.35c0.525,0.117,0.889,0.223,1.082,0.313
			c0.287,0.131,0.496,0.297,0.633,0.498c0.136,0.201,0.203,0.434,0.203,0.695s-0.075,0.508-0.225,0.736
			c-0.148,0.23-0.361,0.41-0.645,0.537c-0.277,0.127-0.592,0.191-0.941,0.191c-0.441,0-0.813-0.064-1.113-0.191
			c-0.3-0.131-0.533-0.324-0.703-0.584C76.978,69.066,76.888,68.773,76.88,68.445z"/>
		<path fill="#FFFFFF" stroke="#231F20" stroke-width="0.25" d="M81.556,71.383l-0.066-0.563c0.132,0.037,0.246,0.055,0.345,0.055
			c0.133,0,0.24-0.021,0.319-0.066c0.082-0.045,0.146-0.105,0.197-0.188c0.037-0.061,0.099-0.211,0.186-0.447
			c0.01-0.031,0.027-0.082,0.054-0.146l-1.346-3.551h0.646l0.737,2.053c0.097,0.26,0.183,0.533,0.258,0.82
			c0.067-0.275,0.151-0.545,0.247-0.809l0.758-2.064h0.602l-1.35,3.604c-0.146,0.389-0.257,0.658-0.338,0.807
			c-0.105,0.195-0.229,0.342-0.365,0.434c-0.141,0.094-0.303,0.139-0.496,0.139C81.827,71.457,81.698,71.434,81.556,71.383z"/>
		<path fill="#FFFFFF" stroke="#231F20" stroke-width="0.25" d="M84.763,68.961l0.592-0.094c0.033,0.238,0.127,0.42,0.278,0.547
			c0.152,0.129,0.365,0.191,0.64,0.191c0.276,0,0.481-0.057,0.615-0.17c0.133-0.113,0.2-0.242,0.2-0.396
			c0-0.135-0.06-0.242-0.177-0.32c-0.084-0.053-0.288-0.119-0.615-0.201c-0.441-0.111-0.746-0.209-0.916-0.291
			c-0.17-0.08-0.3-0.193-0.388-0.336c-0.087-0.145-0.132-0.303-0.132-0.477c0-0.158,0.035-0.305,0.106-0.438
			c0.073-0.135,0.173-0.248,0.298-0.336c0.092-0.068,0.221-0.127,0.381-0.176c0.162-0.049,0.334-0.072,0.521-0.072
			c0.277,0,0.521,0.041,0.732,0.121c0.209,0.078,0.365,0.188,0.463,0.324c0.103,0.139,0.171,0.32,0.209,0.551l-0.588,0.078
			c-0.027-0.182-0.104-0.322-0.231-0.428c-0.129-0.102-0.31-0.15-0.542-0.15c-0.275,0-0.475,0.045-0.592,0.137
			s-0.178,0.197-0.178,0.32c0,0.078,0.024,0.148,0.074,0.211c0.049,0.063,0.125,0.117,0.23,0.158
			c0.059,0.021,0.236,0.074,0.527,0.154c0.429,0.113,0.725,0.205,0.893,0.279c0.168,0.072,0.3,0.176,0.396,0.314
			c0.096,0.139,0.144,0.309,0.144,0.514c0,0.201-0.06,0.389-0.175,0.564c-0.118,0.18-0.285,0.314-0.508,0.412
			c-0.221,0.096-0.47,0.146-0.748,0.146c-0.461,0-0.812-0.098-1.051-0.287C84.981,69.621,84.827,69.336,84.763,68.961z"/>
		<path fill="#FFFFFF" stroke="#231F20" stroke-width="0.25" d="M89.731,69.482l0.086,0.529c-0.17,0.035-0.32,0.055-0.455,0.055
			c-0.217,0-0.387-0.035-0.506-0.105c-0.121-0.066-0.205-0.158-0.254-0.27c-0.05-0.113-0.072-0.352-0.072-0.709v-2.041h-0.441
			v-0.467h0.441v-0.879l0.597-0.359v1.238h0.604v0.467h-0.604v2.074c0,0.172,0.011,0.279,0.031,0.33
			c0.022,0.049,0.057,0.088,0.104,0.115c0.046,0.029,0.114,0.045,0.205,0.045C89.534,69.506,89.622,69.498,89.731,69.482z"/>
		<path fill="#FFFFFF" stroke="#231F20" stroke-width="0.25" d="M92.745,68.877l0.62,0.076c-0.097,0.363-0.278,0.646-0.544,0.846
			C92.558,70,92.219,70.1,91.808,70.1c-0.519,0-0.931-0.158-1.234-0.479c-0.303-0.32-0.455-0.768-0.455-1.344
			c0-0.596,0.154-1.061,0.462-1.389s0.704-0.494,1.194-0.494c0.475,0,0.86,0.162,1.16,0.482c0.301,0.322,0.45,0.777,0.45,1.363
			c0,0.035-0.001,0.088-0.003,0.16h-2.645c0.022,0.389,0.133,0.688,0.332,0.895c0.197,0.207,0.443,0.311,0.74,0.311
			c0.221,0,0.408-0.059,0.563-0.174C92.53,69.314,92.653,69.131,92.745,68.877z M90.772,67.906h1.979
			c-0.026-0.299-0.103-0.523-0.228-0.672c-0.191-0.232-0.438-0.346-0.744-0.346c-0.274,0-0.508,0.09-0.695,0.275
			S90.793,67.598,90.772,67.906z"/>
		<path fill="#FFFFFF" stroke="#231F20" stroke-width="0.25" d="M94.12,70.02v-3.545h0.539v0.496
			c0.109-0.174,0.258-0.313,0.441-0.418c0.188-0.105,0.396-0.158,0.631-0.158c0.264,0,0.479,0.055,0.646,0.164
			c0.168,0.107,0.286,0.26,0.355,0.457c0.279-0.414,0.646-0.621,1.094-0.621c0.354,0,0.623,0.098,0.813,0.291
			c0.188,0.193,0.283,0.496,0.283,0.9v2.434h-0.598v-2.232c0-0.24-0.02-0.414-0.059-0.521c-0.039-0.104-0.109-0.188-0.213-0.254
			c-0.103-0.064-0.224-0.098-0.359-0.098c-0.25,0-0.457,0.082-0.621,0.25c-0.166,0.164-0.248,0.432-0.248,0.795v2.061h-0.6v-2.305
			c0-0.266-0.051-0.467-0.147-0.6c-0.099-0.135-0.259-0.201-0.479-0.201c-0.17,0-0.324,0.045-0.471,0.135
			c-0.143,0.09-0.246,0.219-0.313,0.391c-0.063,0.172-0.096,0.418-0.096,0.742v1.838H94.12z"/>
	</g>
	<g>
		<g>
			<rect x="-0.065" y="28.541" fill="#DB2727" width="30.454" height="34.805"/>
			<g>
				
					<linearGradient id="SVGID_1_" gradientUnits="userSpaceOnUse" x1="271.1621" y1="-292.0405" x2="271.1621" y2="-317.709" gradientTransform="matrix(1 0 0 -1 -256 -263.5)">
					<stop  offset="0" style="stop-color:#67100C"/>
					<stop  offset="1" style="stop-color:#CD2027"/>
				</linearGradient>
				<path fill="url(#SVGID_1_)" d="M15.16,48.74c5.786,0,11.09,2.053,15.229,5.469V28.541H-0.065v25.668
					C4.071,50.793,9.376,48.74,15.16,48.74z"/>
			</g>
		</g>
		<g>
			<rect x="34.272" y="28.541" fill="#7EC142" width="30.453" height="34.805"/>
			<g>
				
					<linearGradient id="SVGID_2_" gradientUnits="userSpaceOnUse" x1="305.499" y1="-292.0405" x2="305.499" y2="-317.709" gradientTransform="matrix(1 0 0 -1 -256 -263.5)">
					<stop  offset="0" style="stop-color:#0E1027"/>
					<stop  offset="1" style="stop-color:#0AA54A"/>
				</linearGradient>
				<path fill="url(#SVGID_2_)" d="M49.499,48.74c5.785,0,11.091,2.053,15.227,5.469V28.541H34.272v25.668
					C38.409,50.793,43.715,48.74,49.499,48.74z"/>
			</g>
		</g>
		<g>
			<rect x="68.61" y="28.541" fill="#309BD6" width="30.453" height="34.805"/>
			<g>
				
					<linearGradient id="SVGID_3_" gradientUnits="userSpaceOnUse" x1="339.8379" y1="-292.0405" x2="339.8379" y2="-317.709" gradientTransform="matrix(1 0 0 -1 -256 -263.5)">
					<stop  offset="0" style="stop-color:#150F29"/>
					<stop  offset="1" style="stop-color:#2E499D"/>
				</linearGradient>
				<path fill="url(#SVGID_3_)" d="M83.837,48.74c5.785,0,11.091,2.053,15.229,5.469V28.541H68.61v25.668
					C72.748,50.793,78.053,48.74,83.837,48.74z"/>
			</g>
		</g>
		<g>
			<g>
				
					<linearGradient id="SVGID_4_" gradientUnits="userSpaceOnUse" x1="270.9883" y1="-296.5464" x2="270.9883" y2="-322.0605" gradientTransform="matrix(1 0 0 -1 -256 -263.5)">
					<stop  offset="0" style="stop-color:#FCEB06"/>
					<stop  offset="1" style="stop-color:#FDCB07"/>
				</linearGradient>
				<path fill="url(#SVGID_4_)" d="M15.237,58.561c-1.475,0-2.79-0.244-3.908-0.73c-1.1-0.475-1.923-1.092-2.452-1.836
					c-0.538-0.75-0.858-1.549-0.956-2.373c-0.103-0.893-0.155-2.813-0.155-5.709V33.046h5.753V52.02c0,1.607,0.125,2.113,0.22,2.354
					c0.195,0.51,0.626,0.791,1.21,0.791c0.641,0,1.102-0.303,1.297-0.85c0.091-0.268,0.212-0.822,0.212-2.635V33.046h5.753V49.9
					c0,1.932-0.062,3.301-0.185,4.071c-0.115,0.709-0.467,1.461-1.044,2.229c-0.575,0.764-1.346,1.354-2.29,1.75
					C17.728,58.355,16.565,58.561,15.237,58.561L15.237,58.561z"/>
				<path fill="#FAF39A" d="M22.711,32.545V49.9c0,1.967-0.063,3.35-0.191,4.147s-0.509,1.613-1.14,2.453s-1.462,1.477-2.495,1.91
					c-1.03,0.432-2.247,0.648-3.646,0.648c-1.551,0-2.919-0.258-4.107-0.771c-1.187-0.512-2.073-1.18-2.662-2.004
					c-0.588-0.822-0.935-1.691-1.043-2.607c-0.105-0.912-0.159-2.836-0.159-5.765V32.545h6.753v19.472
					c0,1.133,0.062,1.857,0.184,2.174c0.123,0.314,0.372,0.473,0.746,0.473c0.428,0,0.703-0.174,0.827-0.52
					c0.121-0.35,0.183-1.17,0.183-2.465V32.545H22.711 M21.711,33.545h-4.753v18.136c0,1.865-0.127,2.473-0.238,2.791
					c-0.271,0.762-0.917,1.191-1.771,1.191c-0.793,0-1.405-0.404-1.679-1.111c-0.125-0.32-0.251-0.873-0.251-2.533V33.545H8.267
					v14.365c0,2.878,0.051,4.781,0.152,5.65c0.089,0.754,0.371,1.453,0.863,2.143c0.479,0.67,1.234,1.23,2.245,1.668
					c1.058,0.457,2.307,0.689,3.711,0.689c1.26,0,2.356-0.193,3.261-0.572c0.873-0.367,1.554-0.887,2.083-1.588
					c0.529-0.707,0.85-1.383,0.95-2.012c0.119-0.74,0.18-2.082,0.18-3.989L21.711,33.545L21.711,33.545z"/>
			</g>
			<g>
				
					<linearGradient id="SVGID_5_" gradientUnits="userSpaceOnUse" x1="306.165" y1="-296.5464" x2="306.165" y2="-321.5137" gradientTransform="matrix(1 0 0 -1 -256 -263.5)">
					<stop  offset="0" style="stop-color:#FCEB06"/>
					<stop  offset="1" style="stop-color:#FDCB07"/>
				</linearGradient>
				<path fill="url(#SVGID_5_)" d="M50.114,58.014h-7.309V33.046h6.233c2.071,0,3.651,0.158,4.692,0.474
					c0.99,0.3,1.771,0.891,2.385,1.812c0.615,0.92,0.927,2.471,0.927,4.604c0,1.734-0.33,2.514-0.604,2.862
					c-0.401,0.504-1.254,0.908-2.535,1.202l0.002,0.976c1.423,0.321,2.391,0.842,2.871,1.55c0.498,0.731,0.748,1.904,0.748,3.482
					v2.406c0,1.672-0.186,2.912-0.551,3.688c-0.349,0.727-0.882,1.211-1.634,1.479C54.521,57.867,52.763,58.014,50.114,58.014
					L50.114,58.014z M48.557,46.288v0.517v7.268v0.518l0.517-0.016c1.109-0.039,1.795-0.229,2.16-0.6
					c0.373-0.385,0.537-1.102,0.537-2.326v-2.422c0-1.313-0.15-2.023-0.498-2.375c-0.34-0.34-1.021-0.508-2.199-0.548L48.557,46.288
					L48.557,46.288z M48.557,36.48v0.506v5.775v0.519l0.519-0.019c0.28-0.01,0.498-0.016,0.657-0.016
					c0.854,0,1.427-0.251,1.702-0.746c0.156-0.282,0.336-0.881,0.336-3.043c0-0.892-0.088-1.52-0.269-1.915
					c-0.21-0.455-0.504-0.75-0.875-0.881c-0.301-0.107-0.797-0.163-1.563-0.175L48.557,36.48L48.557,36.48z"/>
				<path fill="#FAF39A" d="M49.04,32.545c2.127,0,3.74,0.165,4.836,0.496c1.098,0.332,1.98,1.001,2.654,2.012
					c0.675,1.01,1.012,2.637,1.012,4.881c0,1.517-0.238,2.574-0.714,3.173c-0.476,0.6-1.413,1.058-2.813,1.379
					c1.561,0.352,2.618,0.938,3.174,1.757c0.557,0.819,0.836,2.072,0.836,3.764v2.407c0,1.756-0.201,3.057-0.602,3.9
					c-0.402,0.848-1.041,1.424-1.917,1.732c-0.877,0.311-2.675,0.465-5.392,0.465h-7.81V32.545H49.04 M49.058,42.763
					c0.287-0.01,0.513-0.016,0.674-0.016c0.662,0,1.086-0.163,1.268-0.489c0.182-0.326,0.271-1.258,0.271-2.799
					c0-0.811-0.076-1.381-0.224-1.708c-0.149-0.326-0.347-0.531-0.586-0.617c-0.241-0.086-0.709-0.135-1.403-0.145V42.763
					 M49.058,54.072c0.952-0.033,1.559-0.184,1.819-0.449c0.263-0.27,0.394-0.926,0.394-1.977v-2.42
					c0-1.111-0.117-1.787-0.354-2.021c-0.234-0.235-0.855-0.369-1.859-0.401V54.072 M49.04,33.545h-5.734v23.968h6.809
					c3.229,0,4.533-0.223,5.06-0.406c0.629-0.225,1.058-0.611,1.347-1.221c0.23-0.486,0.506-1.484,0.506-3.473v-2.407
					c0-1.456-0.229-2.563-0.664-3.202c-0.406-0.599-1.271-1.051-2.566-1.343l-0.004-1.95c1.532-0.351,2.07-0.793,2.255-1.026
					c0.187-0.234,0.497-0.876,0.497-2.552c0-2.532-0.458-3.75-0.843-4.326c-0.546-0.818-1.237-1.345-2.113-1.61
					C52.593,33.699,51.063,33.545,49.04,33.545L49.04,33.545z M48.058,43.796v-1.034v-5.774v-1.015l1.015,0.015
					c0.834,0.012,1.366,0.075,1.726,0.203c0.346,0.124,0.826,0.421,1.158,1.139c0.216,0.481,0.314,1.154,0.314,2.127
					c0,2.256-0.19,2.912-0.397,3.284c-0.371,0.667-1.093,1.004-2.142,1.004c-0.153,0-0.367,0.006-0.641,0.016L48.058,43.796
					L48.058,43.796z M48.058,55.107v-1.035v-7.268v-1.033l1.031,0.033c1.335,0.043,2.094,0.25,2.536,0.694
					c0.458,0.456,0.646,1.247,0.646,2.728v2.42c0,1.369-0.209,2.191-0.678,2.674c-0.469,0.477-1.238,0.707-2.501,0.75L48.058,55.107
					L48.058,55.107z"/>
			</g>
			<g>
				
					<linearGradient id="SVGID_6_" gradientUnits="userSpaceOnUse" x1="339.4785" y1="-296.1357" x2="339.4785" y2="-322.1953" gradientTransform="matrix(1 0 0 -1 -256 -263.5)">
					<stop  offset="0" style="stop-color:#FCEB06"/>
					<stop  offset="1" style="stop-color:#FDCB07"/>
				</linearGradient>
				<path fill="url(#SVGID_6_)" d="M83.705,58.695c-1.718,0-3.195-0.324-4.394-0.967c-1.162-0.621-1.928-1.41-2.276-2.35
					c-0.374-1-0.562-2.457-0.562-4.332v-1.2h5.271v2.659c0,1.113,0.105,1.773,0.343,2.146c0.188,0.297,0.577,0.648,1.36,0.648
					c0.621,0,1.115-0.264,1.426-0.768c0.271-0.434,0.404-1.035,0.404-1.834c0-1.668-0.245-2.758-0.75-3.331
					c-0.469-0.516-1.533-1.313-3.262-2.445c-1.65-1.096-2.752-1.894-3.271-2.373c-0.489-0.453-0.905-1.093-1.23-1.901
					c-0.332-0.827-0.5-1.91-0.5-3.216c0-1.895,0.234-3.28,0.699-4.119c0.457-0.831,1.188-1.467,2.232-1.945
					c1.063-0.488,2.377-0.734,3.897-0.734c1.675,0,3.11,0.271,4.274,0.806c1.117,0.513,1.861,1.151,2.209,1.897
					c0.367,0.79,0.554,2.195,0.554,4.175v0.525h-5.272v-1.424c0-1.325-0.168-1.759-0.317-1.986
					c-0.181-0.275-0.535-0.599-1.224-0.599c-0.578,0-1.041,0.252-1.346,0.731c-0.263,0.422-0.389,1.002-0.389,1.775
					c0,0.957,0.134,1.674,0.409,2.193c0.271,0.531,0.936,1.1,2.094,1.784c2.933,1.74,4.791,3.166,5.522,4.243
					c0.719,1.056,1.084,2.823,1.084,5.254c0,1.758-0.199,3.059-0.598,3.871c-0.38,0.768-1.146,1.432-2.277,1.973
					C86.649,58.412,85.267,58.695,83.705,58.695L83.705,58.695z"/>
				<path fill="#FAF39A" d="M83.097,32.137c1.752,0,3.245,0.284,4.481,0.851c1.233,0.567,2.053,1.281,2.454,2.141
					c0.4,0.861,0.602,2.323,0.602,4.387v1.026H84.36v-1.924c0-0.899-0.08-1.47-0.238-1.716c-0.161-0.246-0.43-0.369-0.803-0.369
					c-0.406,0-0.715,0.167-0.924,0.498c-0.207,0.332-0.312,0.834-0.312,1.509c0,0.867,0.117,1.519,0.351,1.958
					c0.226,0.439,0.859,0.969,1.907,1.587c3.007,1.786,4.902,3.249,5.683,4.394c0.779,1.145,1.17,2.99,1.17,5.535
					c0,1.85-0.217,3.213-0.648,4.09c-0.434,0.877-1.27,1.611-2.511,2.205s-2.685,0.891-4.33,0.891c-1.81,0-3.351-0.342-4.629-1.027
					c-1.277-0.684-2.114-1.555-2.511-2.613c-0.395-1.059-0.592-2.563-0.592-4.506v-1.702h6.271v3.161
					c0,0.973,0.087,1.598,0.265,1.877c0.178,0.275,0.488,0.418,0.938,0.418s0.785-0.18,1.003-0.531
					c0.22-0.354,0.329-0.877,0.329-1.572c0-1.527-0.209-2.528-0.625-3c-0.428-0.47-1.481-1.256-3.161-2.357
					c-1.679-1.112-2.79-1.919-3.335-2.422c-0.545-0.503-0.998-1.198-1.357-2.084c-0.357-0.888-0.537-2.021-0.537-3.401
					c0-1.988,0.256-3.443,0.764-4.362c0.509-0.92,1.328-1.639,2.461-2.158C80.123,32.396,81.491,32.137,83.097,32.137
					 M83.097,33.137c-1.451,0-2.693,0.231-3.691,0.688c-0.941,0.431-1.598,0.998-2.002,1.731c-0.291,0.527-0.639,1.627-0.639,3.879
					c0,1.243,0.155,2.262,0.465,3.028c0.301,0.742,0.674,1.322,1.107,1.723c0.501,0.463,1.581,1.245,3.209,2.323
					c2.346,1.537,3.034,2.173,3.348,2.517c0.608,0.688,0.887,1.852,0.887,3.674c0,0.895-0.157,1.582-0.479,2.102
					c-0.397,0.646-1.057,1.002-1.852,1.002c-1.062,0-1.572-0.553-1.781-0.881c-0.296-0.463-0.422-1.186-0.422-2.414v-2.161h-4.271
					v0.702c0,1.814,0.178,3.215,0.529,4.156c0.311,0.832,0.979,1.512,2.044,2.082c1.125,0.604,2.522,0.908,4.157,0.908
					c1.486,0,2.799-0.266,3.898-0.793c1.027-0.49,1.715-1.078,2.045-1.744c0.248-0.506,0.547-1.551,0.547-3.646
					c0-2.329-0.336-4.001-0.997-4.971c-0.476-0.697-1.79-1.973-5.366-4.097c-1.238-0.73-1.966-1.364-2.287-1.991
					c-0.307-0.579-0.46-1.373-0.46-2.414c0-0.873,0.151-1.54,0.463-2.039c0.396-0.626,1.022-0.968,1.771-0.968
					c0.957,0,1.438,0.514,1.64,0.82c0.284,0.439,0.403,1.115,0.403,2.265v0.924h4.271v-0.026c0-2.376-0.275-3.467-0.508-3.964
					c-0.297-0.635-0.958-1.192-1.965-1.655C86.062,33.393,84.694,33.137,83.097,33.137L83.097,33.137z"/>
			</g>
		</g>
	</g>
</g>
</svg>
