<?xml version="1.0" encoding="utf-8"?>
<!-- Generator: Adobe Illustrator 13.0.0, SVG Export Plug-In . SVG Version: 6.00 Build 14948)  -->
<!DOCTYPE svg PUBLIC "-//W3C//DTD SVG 1.1//EN" "http://www.w3.org/Graphics/SVG/1.1/DTD/svg11.dtd">
<svg version="1.1" id="Layer_1" xmlns="http://www.w3.org/2000/svg" xmlns:xlink="http://www.w3.org/1999/xlink" x="0px" y="0px"
	 width="100px" height="100px" viewBox="0 0 100 100" enable-background="new 0 0 100 100" xml:space="preserve">
<g>
	<g>
		<g>
			<rect x="0.336" y="23.602" fill="#DB2727" width="30.207" height="34.522"/>
			<g>
				
					<linearGradient id="SVGID_1_" gradientUnits="userSpaceOnUse" x1="271.4404" y1="-287.1016" x2="271.4403" y2="-312.563" gradientTransform="matrix(1 0 0 -1 -256 -263.5)">
					<stop  offset="0" style="stop-color:#67100C"/>
					<stop  offset="1" style="stop-color:#CD2027"/>
				</linearGradient>
				<path fill="url(#SVGID_1_)" d="M15.439,43.637c5.739,0,11,2.036,15.104,5.426V23.602H0.336v25.461
					C4.439,45.672,9.703,43.637,15.439,43.637z"/>
			</g>
		</g>
		<g>
			<rect x="34.396" y="23.602" fill="#7EC142" width="30.207" height="34.522"/>
			<g>
				
					<linearGradient id="SVGID_2_" gradientUnits="userSpaceOnUse" x1="305.5" y1="-287.1016" x2="305.5" y2="-312.5625" gradientTransform="matrix(1 0 0 -1 -256 -263.5)">
					<stop  offset="0" style="stop-color:#0E1027"/>
					<stop  offset="1" style="stop-color:#0AA54A"/>
				</linearGradient>
				<path fill="url(#SVGID_2_)" d="M49.5,43.637c5.737,0,11,2.036,15.104,5.426V23.602H34.396v25.461
					C38.5,45.672,43.761,43.637,49.5,43.637z"/>
			</g>
		</g>
		<g>
			<rect x="68.457" y="23.602" fill="#309BD6" width="30.207" height="34.522"/>
			<g>
				
					<linearGradient id="SVGID_3_" gradientUnits="userSpaceOnUse" x1="339.5605" y1="-287.1016" x2="339.5605" y2="-312.5625" gradientTransform="matrix(1 0 0 -1 -256 -263.5)">
					<stop  offset="0" style="stop-color:#150F29"/>
					<stop  offset="1" style="stop-color:#2E499D"/>
				</linearGradient>
				<path fill="url(#SVGID_3_)" d="M83.559,43.637c5.74,0,11.002,2.036,15.105,5.426V23.602H68.457v25.461
					C72.561,45.672,77.822,43.637,83.559,43.637z"/>
			</g>
		</g>
		<g>
			<g>
				
					<linearGradient id="SVGID_4_" gradientUnits="userSpaceOnUse" x1="271.2695" y1="-291.5747" x2="271.2695" y2="-316.8721" gradientTransform="matrix(1 0 0 -1 -256 -263.5)">
					<stop  offset="0" style="stop-color:#FCEB06"/>
					<stop  offset="1" style="stop-color:#FDCB07"/>
				</linearGradient>
				<path fill="url(#SVGID_4_)" d="M15.514,53.372c-1.461,0-2.766-0.242-3.875-0.721c-1.084-0.472-1.903-1.085-2.43-1.82
					c-0.539-0.754-0.848-1.522-0.947-2.354c-0.103-0.889-0.154-2.794-0.154-5.661V28.075h5.698v18.813
					c0,1.595,0.124,2.097,0.216,2.338c0.197,0.508,0.627,0.788,1.208,0.788c0.636,0,1.095-0.304,1.291-0.851
					c0.09-0.264,0.209-0.813,0.209-2.609V28.075h5.7V44.79c0,1.917-0.062,3.273-0.186,4.031c-0.113,0.706-0.463,1.451-1.035,2.214
					c-0.568,0.756-1.332,1.338-2.268,1.732C17.985,53.167,16.833,53.372,15.514,53.372L15.514,53.372z"/>
				<path fill="#FAF39A" d="M22.929,27.574v17.214c0,1.95-0.063,3.324-0.191,4.112c-0.127,0.79-0.503,1.602-1.129,2.434
					c-0.626,0.834-1.451,1.465-2.474,1.895c-1.024,0.43-2.23,0.645-3.62,0.645c-1.537,0-2.895-0.254-4.072-0.763
					c-1.178-0.51-2.058-1.174-2.641-1.989c-0.584-0.815-0.928-1.678-1.035-2.585c-0.106-0.907-0.159-2.813-0.159-5.719V27.574h6.697
					v19.314c0,1.125,0.062,1.844,0.184,2.156c0.121,0.313,0.368,0.469,0.74,0.469c0.425,0,0.697-0.172,0.819-0.518
					c0.121-0.345,0.183-1.159,0.183-2.441v-18.98H22.929 M21.929,28.574H17.23v17.98c0,1.856-0.128,2.457-0.239,2.773
					c-0.266,0.754-0.908,1.186-1.762,1.186c-0.79,0-1.399-0.403-1.672-1.107c-0.124-0.318-0.251-0.868-0.251-2.518V28.574H8.608
					v14.241c0,2.859,0.051,4.744,0.152,5.602c0.087,0.747,0.367,1.439,0.854,2.122c0.475,0.664,1.223,1.22,2.225,1.652
					c1.044,0.452,2.281,0.682,3.675,0.682c1.25,0,2.337-0.19,3.233-0.566c0.866-0.363,1.54-0.878,2.062-1.572
					c0.524-0.697,0.84-1.367,0.941-1.992c0.119-0.732,0.179-2.062,0.179-3.954V28.574L21.929,28.574z"/>
			</g>
			<g>
				
					<linearGradient id="SVGID_5_" gradientUnits="userSpaceOnUse" x1="306.1592" y1="-291.5747" x2="306.1592" y2="-316.3291" gradientTransform="matrix(1 0 0 -1 -256 -263.5)">
					<stop  offset="0" style="stop-color:#FCEB06"/>
					<stop  offset="1" style="stop-color:#FDCB07"/>
				</linearGradient>
				<path fill="url(#SVGID_5_)" d="M50.111,52.829h-7.248V28.075h6.182c2.058,0,3.621,0.159,4.652,0.469
					c0.979,0.299,1.754,0.885,2.363,1.795c0.605,0.914,0.916,2.45,0.916,4.563c0,1.721-0.326,2.493-0.6,2.839
					c-0.396,0.498-1.24,0.897-2.512,1.189v0.976c1.414,0.319,2.371,0.836,2.846,1.536c0.494,0.727,0.744,1.888,0.744,3.452v2.388
					c0,1.653-0.186,2.883-0.553,3.656c-0.338,0.72-0.867,1.196-1.613,1.459C54.482,52.683,52.738,52.829,50.111,52.829
					L50.111,52.829z M48.56,41.202v0.517v7.207v0.517l0.517-0.017c1.104-0.037,1.787-0.228,2.15-0.597
					c0.365-0.373,0.529-1.085,0.529-2.308v-2.4c0-1.309-0.146-2.013-0.498-2.361c-0.338-0.337-1.012-0.504-2.182-0.541L48.56,41.202
					L48.56,41.202z M48.56,31.472v0.508v5.729v0.519l0.519-0.019c0.278-0.01,0.496-0.015,0.65-0.015c0.85,0,1.42-0.251,1.693-0.745
					c0.158-0.28,0.334-0.875,0.334-3.018c0-0.887-0.088-1.509-0.268-1.902c-0.205-0.449-0.496-0.745-0.867-0.877
					c-0.295-0.105-0.79-0.159-1.554-0.173L48.56,31.472L48.56,31.472z"/>
				<path fill="#FAF39A" d="M49.044,27.574c2.112,0,3.709,0.164,4.797,0.493c1.086,0.329,1.963,0.994,2.635,1.996
					c0.666,1.001,1.002,2.615,1.002,4.841c0,1.505-0.238,2.554-0.709,3.148c-0.471,0.593-1.402,1.049-2.791,1.367
					c1.549,0.35,2.598,0.931,3.148,1.742c0.553,0.813,0.828,2.058,0.828,3.734v2.388c0,1.741-0.199,3.03-0.598,3.869
					c-0.396,0.838-1.031,1.41-1.9,1.717c-0.869,0.31-2.654,0.463-5.347,0.463h-7.748V27.574H49.044 M49.061,37.708
					c0.286-0.009,0.51-0.015,0.669-0.015c0.657,0,1.075-0.162,1.257-0.486c0.18-0.324,0.27-1.249,0.27-2.776
					c0-0.805-0.072-1.371-0.221-1.694c-0.148-0.324-0.344-0.528-0.582-0.612c-0.239-0.085-0.704-0.133-1.393-0.145V37.708
					 M49.061,48.925c0.946-0.032,1.547-0.181,1.807-0.446c0.258-0.264,0.389-0.917,0.389-1.958V44.12
					c0-1.104-0.115-1.772-0.35-2.005c-0.232-0.233-0.849-0.366-1.846-0.397V48.925 M49.044,28.574h-5.681v23.755h6.748
					c3.201,0,4.492-0.22,5.014-0.403c0.623-0.22,1.045-0.603,1.328-1.202c0.23-0.482,0.504-1.473,0.504-3.441v-2.388
					c0-1.444-0.227-2.541-0.656-3.172c-0.4-0.591-1.258-1.039-2.543-1.329l-0.004-1.95c1.52-0.348,2.051-0.785,2.232-1.014
					c0.184-0.231,0.492-0.868,0.492-2.526c0-2.508-0.455-3.716-0.834-4.287c-0.541-0.81-1.227-1.331-2.094-1.593
					C52.566,28.726,51.049,28.574,49.044,28.574L49.044,28.574z M48.061,38.739v-1.031v-5.728v-1.017l1.017,0.017
					c0.829,0.014,1.355,0.077,1.711,0.202c0.346,0.123,0.826,0.42,1.154,1.138c0.213,0.467,0.313,1.138,0.313,2.111
					c0,2.24-0.189,2.891-0.396,3.261c-0.369,0.665-1.086,1.001-2.13,1.001c-0.152,0-0.365,0.006-0.638,0.014L48.061,38.739
					L48.061,38.739z M48.061,49.96v-1.035v-7.207v-1.031l1.031,0.032c1.326,0.041,2.081,0.248,2.522,0.69
					c0.455,0.453,0.643,1.239,0.643,2.712v2.401c0,1.363-0.209,2.182-0.676,2.658c-0.461,0.473-1.229,0.703-2.486,0.745
					L48.061,49.96L48.061,49.96z"/>
			</g>
			<g>
				
					<linearGradient id="SVGID_6_" gradientUnits="userSpaceOnUse" x1="339.2051" y1="-291.1685" x2="339.2051" y2="-317.0078" gradientTransform="matrix(1 0 0 -1 -256 -263.5)">
					<stop  offset="0" style="stop-color:#FCEB06"/>
					<stop  offset="1" style="stop-color:#FDCB07"/>
				</linearGradient>
				<path fill="url(#SVGID_6_)" d="M83.428,53.508c-1.701,0-3.168-0.322-4.354-0.959c-1.15-0.615-1.912-1.398-2.258-2.329
					c-0.369-0.987-0.559-2.432-0.559-4.294V44.74h5.225v2.635c0,1.1,0.104,1.755,0.336,2.126c0.188,0.299,0.574,0.648,1.354,0.648
					c0.619,0,1.107-0.262,1.42-0.758c0.271-0.439,0.402-1.038,0.402-1.827c0-1.682-0.236-2.732-0.748-3.307
					c-0.455-0.504-1.514-1.296-3.234-2.424c-1.639-1.087-2.73-1.878-3.24-2.352c-0.484-0.447-0.896-1.083-1.223-1.889
					c-0.328-0.816-0.496-1.889-0.496-3.187c0-1.877,0.234-3.251,0.695-4.086c0.447-0.812,1.191-1.461,2.211-1.926
					c1.051-0.481,2.354-0.725,3.863-0.725c1.662,0,3.088,0.269,4.24,0.797c1.105,0.509,1.846,1.141,2.189,1.881
					c0.363,0.785,0.549,2.178,0.549,4.14v0.517H84.58v-1.408c0-1.316-0.17-1.746-0.32-1.976c-0.178-0.271-0.529-0.593-1.213-0.593
					c-0.574,0-1.037,0.252-1.338,0.726c-0.262,0.419-0.387,0.994-0.387,1.765c0,0.955,0.131,1.667,0.406,2.178
					c0.266,0.525,0.928,1.089,2.08,1.767c2.9,1.726,4.744,3.142,5.477,4.212c0.711,1.044,1.072,2.796,1.072,5.206
					c0,1.75-0.199,3.041-0.594,3.835c-0.377,0.763-1.137,1.422-2.258,1.959C86.354,53.227,84.98,53.508,83.428,53.508L83.428,53.508
					z"/>
				<path fill="#FAF39A" d="M82.822,27.167c1.738,0,3.223,0.281,4.447,0.844c1.225,0.562,2.035,1.27,2.436,2.124
					c0.396,0.854,0.596,2.304,0.596,4.351v1.018H84.08v-1.909c0-0.892-0.08-1.458-0.24-1.702c-0.156-0.243-0.424-0.366-0.793-0.366
					c-0.402,0-0.709,0.165-0.916,0.494c-0.205,0.328-0.311,0.827-0.311,1.496c0,0.859,0.115,1.506,0.348,1.942
					c0.225,0.436,0.854,0.96,1.895,1.574c2.98,1.771,4.859,3.223,5.635,4.357c0.773,1.136,1.16,2.965,1.16,5.489
					c0,1.836-0.215,3.189-0.645,4.057c-0.43,0.871-1.26,1.6-2.488,2.188c-1.23,0.59-2.662,0.884-4.297,0.884
					c-1.793,0-3.322-0.339-4.59-1.019c-1.268-0.679-2.098-1.543-2.488-2.594c-0.395-1.05-0.592-2.541-0.592-4.472v-1.686h6.223
					v3.134c0,0.965,0.088,1.584,0.262,1.861c0.176,0.276,0.486,0.415,0.93,0.415c0.449,0,0.777-0.176,0.996-0.523
					c0.219-0.353,0.326-0.872,0.326-1.562c0-1.517-0.207-2.507-0.621-2.974c-0.424-0.467-1.471-1.247-3.135-2.339
					c-1.664-1.104-2.768-1.904-3.309-2.402c-0.541-0.5-0.988-1.188-1.346-2.068c-0.354-0.88-0.531-2.005-0.531-3.374
					c0-1.972,0.252-3.415,0.756-4.328c0.506-0.912,1.316-1.625,2.441-2.14S81.232,27.167,82.822,27.167 M82.822,28.167
					c-1.438,0-2.668,0.229-3.656,0.681c-0.932,0.425-1.58,0.986-1.982,1.714c-0.287,0.521-0.631,1.611-0.631,3.843
					c0,1.233,0.154,2.242,0.459,3c0.299,0.736,0.666,1.311,1.098,1.707c0.498,0.459,1.568,1.234,3.182,2.303
					c2.336,1.533,3.016,2.162,3.322,2.5c0.604,0.681,0.881,1.837,0.881,3.646c0,0.888-0.154,1.571-0.475,2.087
					c-0.406,0.646-1.061,0.998-1.848,0.998c-1.061,0-1.566-0.552-1.773-0.881c-0.293-0.465-0.418-1.181-0.418-2.395v-2.134h-4.223
					v0.686c0,1.799,0.178,3.186,0.527,4.122c0.307,0.822,0.969,1.498,2.023,2.063c1.113,0.598,2.5,0.898,4.117,0.898
					c1.477,0,2.777-0.264,3.865-0.784c1.018-0.487,1.697-1.068,2.023-1.729c0.248-0.5,0.541-1.531,0.541-3.615
					c0-2.307-0.332-3.964-0.986-4.926c-0.473-0.69-1.779-1.957-5.318-4.061c-1.23-0.725-1.955-1.354-2.273-1.979
					c-0.305-0.569-0.457-1.359-0.457-2.397c0-0.866,0.15-1.529,0.463-2.026c0.393-0.624,1.02-0.964,1.764-0.964
					c0.707,0,1.287,0.291,1.631,0.82c0.283,0.431,0.402,1.104,0.402,2.248V34.5h4.221v-0.018c0-2.354-0.273-3.436-0.504-3.93
					c-0.293-0.628-0.947-1.18-1.943-1.636C85.768,28.42,84.41,28.167,82.822,28.167L82.822,28.167z"/>
			</g>
		</g>
	</g>
	
		<linearGradient id="SVGID_7_" gradientUnits="userSpaceOnUse" x1="262.2246" y1="-339.5947" x2="262.2246" y2="-325.1143" gradientTransform="matrix(1 0 0 -1 -256 -263.5)">
		<stop  offset="0" style="stop-color:#FCEB06"/>
		<stop  offset="1" style="stop-color:#FDCB07"/>
	</linearGradient>
	<path fill="url(#SVGID_7_)" stroke="#FAF39A" d="M12.033,61.614v14.48h-3.29l-0.004-9.776l-1.311,9.776H5.093l-1.381-9.553
		l-0.004,9.553H0.417v-14.48h4.872c0.145,0.871,0.293,1.897,0.447,3.077l0.535,3.685l0.865-6.762H12.033z"/>
	
		<linearGradient id="SVGID_8_" gradientUnits="userSpaceOnUse" x1="284.124" y1="-339.8984" x2="284.124" y2="-325.1143" gradientTransform="matrix(1 0 0 -1 -256 -263.5)">
		<stop  offset="0" style="stop-color:#FCEB06"/>
		<stop  offset="1" style="stop-color:#FDCB07"/>
	</linearGradient>
	<path fill="url(#SVGID_8_)" stroke="#FAF39A" d="M32.43,61.614v9.678c0,1.098-0.036,1.867-0.108,2.313
		c-0.072,0.443-0.283,0.9-0.634,1.368c-0.352,0.468-0.815,0.823-1.391,1.063c-0.575,0.241-1.254,0.362-2.035,0.362
		c-0.865,0-1.628-0.144-2.289-0.43c-0.663-0.286-1.157-0.66-1.485-1.117c-0.328-0.46-0.522-0.944-0.582-1.454
		c-0.06-0.511-0.089-1.581-0.089-3.215v-8.568h3.765v10.857c0,0.633,0.035,1.036,0.103,1.213c0.069,0.176,0.208,0.266,0.417,0.266
		c0.238,0,0.392-0.1,0.46-0.293s0.103-0.65,0.103-1.373v-10.67H32.43z"/>
	
		<linearGradient id="SVGID_9_" gradientUnits="userSpaceOnUse" x1="306.0215" y1="-339.8984" x2="306.0215" y2="-324.8105" gradientTransform="matrix(1 0 0 -1 -256 -263.5)">
		<stop  offset="0" style="stop-color:#FCEB06"/>
		<stop  offset="1" style="stop-color:#FDCB07"/>
	</linearGradient>
	<path fill="url(#SVGID_9_)" stroke="#FAF39A" d="M54.012,65.997h-3.498v-1.072c0-0.501-0.044-0.821-0.134-0.958
		c-0.09-0.136-0.238-0.205-0.447-0.205c-0.227,0-0.398,0.092-0.514,0.278c-0.116,0.185-0.174,0.465-0.174,0.84
		c0,0.482,0.064,0.849,0.195,1.092c0.125,0.245,0.479,0.541,1.064,0.886c1.676,0.996,2.732,1.812,3.166,2.45
		c0.436,0.637,0.654,1.665,0.654,3.085c0,1.031-0.123,1.791-0.363,2.28c-0.242,0.488-0.709,0.898-1.4,1.229
		c-0.691,0.331-1.494,0.497-2.413,0.497c-1.009,0-1.869-0.19-2.581-0.571c-0.713-0.384-1.179-0.867-1.399-1.459
		c-0.221-0.59-0.331-1.428-0.331-2.514v-0.947h3.497v1.762c0,0.543,0.049,0.893,0.147,1.047c0.098,0.156,0.273,0.234,0.523,0.234
		s0.438-0.102,0.559-0.298c0.123-0.196,0.184-0.487,0.184-0.877c0-0.853-0.115-1.409-0.348-1.672
		c-0.239-0.263-0.828-0.7-1.764-1.313c-0.936-0.621-1.556-1.07-1.86-1.352c-0.305-0.279-0.556-0.668-0.755-1.162
		c-0.2-0.496-0.3-1.127-0.3-1.896c0-1.108,0.141-1.92,0.425-2.432c0.284-0.514,0.741-0.914,1.373-1.203
		c0.633-0.289,1.395-0.435,2.29-0.435c0.978,0,1.812,0.159,2.501,0.474c0.688,0.316,1.145,0.717,1.367,1.194
		c0.225,0.479,0.336,1.295,0.336,2.446V65.997z"/>
	
		<linearGradient id="SVGID_10_" gradientUnits="userSpaceOnUse" x1="327.9199" y1="-339.5947" x2="327.9199" y2="-325.1143" gradientTransform="matrix(1 0 0 -1 -256 -263.5)">
		<stop  offset="0" style="stop-color:#FCEB06"/>
		<stop  offset="1" style="stop-color:#FDCB07"/>
	</linearGradient>
	<path fill="url(#SVGID_10_)" stroke="#FAF39A" d="M73.803,61.614v14.48h-3.766v-14.48H73.803z"/>
	
		<linearGradient id="SVGID_11_" gradientUnits="userSpaceOnUse" x1="349.8193" y1="-339.8975" x2="349.8193" y2="-324.8086" gradientTransform="matrix(1 0 0 -1 -256 -263.5)">
		<stop  offset="0" style="stop-color:#FCEB06"/>
		<stop  offset="1" style="stop-color:#FDCB07"/>
	</linearGradient>
	<path fill="url(#SVGID_11_)" stroke="#FAF39A" d="M98.27,67.919h-3.766v-2.518c0-0.73-0.041-1.188-0.121-1.369
		c-0.08-0.183-0.258-0.271-0.533-0.271c-0.309,0-0.506,0.111-0.59,0.331s-0.125,0.696-0.125,1.432v6.726
		c0,0.705,0.041,1.162,0.125,1.377c0.084,0.216,0.271,0.324,0.564,0.324c0.279,0,0.465-0.108,0.549-0.324
		c0.086-0.215,0.131-0.721,0.131-1.517V70.29h3.766v0.564c0,1.497-0.105,2.563-0.316,3.188c-0.213,0.627-0.68,1.177-1.404,1.647
		c-0.725,0.474-1.619,0.708-2.68,0.708c-1.104,0-2.012-0.199-2.727-0.6c-0.717-0.399-1.191-0.953-1.424-1.659
		s-0.35-1.769-0.35-3.188v-4.229c0-1.044,0.037-1.825,0.107-2.349c0.07-0.522,0.285-1.022,0.641-1.508
		c0.354-0.482,0.846-0.863,1.475-1.14s1.354-0.416,2.168-0.416c1.111,0,2.025,0.213,2.748,0.644
		c0.723,0.428,1.193,0.963,1.422,1.604c0.227,0.641,0.34,1.636,0.34,2.986V67.919z"/>
</g>
</svg>
