<?xml version="1.0" encoding="utf-8"?>
<!-- Generator: Adobe Illustrator 13.0.0, SVG Export Plug-In . SVG Version: 6.00 Build 14948)  -->
<!DOCTYPE svg PUBLIC "-//W3C//DTD SVG 1.1//EN" "http://www.w3.org/Graphics/SVG/1.1/DTD/svg11.dtd">
<svg version="1.1" id="Layer_1" xmlns="http://www.w3.org/2000/svg" xmlns:xlink="http://www.w3.org/1999/xlink" x="0px" y="0px"
	 width="100px" height="100px" viewBox="0 0 100 100" enable-background="new 0 0 100 100" xml:space="preserve">
<g>
	<g>
		
			<linearGradient id="SVGID_1_" gradientUnits="userSpaceOnUse" x1="257.9863" y1="-332.0166" x2="266.2754" y2="-332.0166" gradientTransform="matrix(1 0 0 -1 -256 -263.5)">
			<stop  offset="0" style="stop-color:#FCEB06"/>
			<stop  offset="1" style="stop-color:#FDCB07"/>
		</linearGradient>
		<path fill="url(#SVGID_1_)" stroke="#FAF39A" d="M10.274,66.707H6.707v-1.246c0-0.785-0.034-1.275-0.103-1.475
			c-0.067-0.197-0.228-0.297-0.482-0.297c-0.22,0-0.37,0.086-0.449,0.256c-0.079,0.168-0.119,0.604-0.119,1.305v6.584
			c0,0.615,0.04,1.021,0.119,1.215c0.08,0.195,0.237,0.293,0.475,0.293c0.26,0,0.437-0.109,0.529-0.332
			c0.094-0.219,0.14-0.648,0.14-1.285v-1.629h-0.72v-2.084h4.178v7.363H8.032l-0.33-0.982c-0.243,0.424-0.549,0.742-0.92,0.951
			c-0.37,0.215-0.807,0.32-1.31,0.32c-0.6,0-1.161-0.146-1.684-0.438s-0.92-0.65-1.191-1.08s-0.441-0.879-0.509-1.352
			c-0.068-0.471-0.102-1.18-0.102-2.123v-4.076c0-1.311,0.071-2.262,0.212-2.854c0.141-0.594,0.546-1.139,1.215-1.631
			c0.67-0.496,1.536-0.742,2.597-0.742c1.045,0,1.912,0.215,2.602,0.643c0.688,0.432,1.138,0.939,1.347,1.531
			c0.209,0.59,0.314,1.447,0.314,2.57L10.274,66.707L10.274,66.707z"/>
		
			<linearGradient id="SVGID_2_" gradientUnits="userSpaceOnUse" x1="276.8652" y1="-332.0156" x2="282.6006" y2="-332.0156" gradientTransform="matrix(1 0 0 -1 -256 -263.5)">
			<stop  offset="0" style="stop-color:#FCEB06"/>
			<stop  offset="1" style="stop-color:#FDCB07"/>
		</linearGradient>
		<path fill="url(#SVGID_2_)" stroke="#FAF39A" d="M24.432,61.656v10.975h2.169v2.744h-5.736V61.656H24.432z"/>
		
			<linearGradient id="SVGID_3_" gradientUnits="userSpaceOnUse" x1="293.209" y1="-332.0166" x2="301.4629" y2="-332.0166" gradientTransform="matrix(1 0 0 -1 -256 -263.5)">
			<stop  offset="0" style="stop-color:#FCEB06"/>
			<stop  offset="1" style="stop-color:#FDCB07"/>
		</linearGradient>
		<path fill="url(#SVGID_3_)" stroke="#FAF39A" d="M45.463,69.689c0,1.379-0.032,2.354-0.098,2.928
			c-0.064,0.574-0.269,1.098-0.61,1.572c-0.342,0.475-0.803,0.84-1.385,1.094s-1.26,0.381-2.034,0.381
			c-0.734,0-1.394-0.119-1.979-0.361c-0.584-0.238-1.055-0.6-1.411-1.078c-0.356-0.48-0.567-1.004-0.635-1.568
			c-0.068-0.564-0.102-1.553-0.102-2.967v-2.346c0-1.379,0.032-2.354,0.097-2.928c0.064-0.572,0.268-1.098,0.61-1.57
			c0.341-0.477,0.803-0.84,1.385-1.094s1.26-0.383,2.034-0.383c0.734,0,1.394,0.121,1.979,0.361c0.584,0.238,1.055,0.6,1.411,1.078
			c0.356,0.48,0.567,1.004,0.636,1.568c0.068,0.564,0.102,1.555,0.102,2.965V69.689L45.463,69.689z M41.895,65.182
			c0-0.639-0.035-1.047-0.106-1.225c-0.07-0.178-0.216-0.268-0.436-0.268c-0.187,0-0.329,0.072-0.428,0.217
			s-0.148,0.568-0.148,1.273v6.408c0,0.795,0.032,1.287,0.098,1.475c0.065,0.186,0.216,0.277,0.454,0.277
			c0.242,0,0.397-0.105,0.466-0.32c0.067-0.217,0.101-0.727,0.101-1.533L41.895,65.182L41.895,65.182z"/>
		
			<linearGradient id="SVGID_4_" gradientUnits="userSpaceOnUse" x1="310.7861" y1="-332.0156" x2="319.0908" y2="-332.0156" gradientTransform="matrix(1 0 0 -1 -256 -263.5)">
			<stop  offset="0" style="stop-color:#FCEB06"/>
			<stop  offset="1" style="stop-color:#FDCB07"/>
		</linearGradient>
		<path fill="url(#SVGID_4_)" stroke="#FAF39A" d="M54.786,61.656h3.559c1.124,0,1.977,0.088,2.555,0.262
			c0.579,0.176,1.047,0.531,1.403,1.064s0.533,1.393,0.533,2.578c0,0.803-0.126,1.359-0.378,1.678
			c-0.25,0.314-0.745,0.557-1.486,0.727c0.825,0.188,1.385,0.496,1.68,0.93c0.293,0.432,0.439,1.096,0.439,1.986v1.273
			c0,0.926-0.105,1.613-0.319,2.059c-0.211,0.447-0.548,0.752-1.01,0.918c-0.465,0.162-1.414,0.244-2.851,0.244h-4.125V61.656z
			 M58.354,64.004v3.051c0.152-0.006,0.27-0.01,0.355-0.01c0.35,0,0.572-0.084,0.669-0.258c0.096-0.172,0.144-0.666,0.144-1.479
			c0-0.43-0.039-0.729-0.117-0.902c-0.08-0.172-0.183-0.281-0.31-0.326C58.968,64.035,58.721,64.01,58.354,64.004z M58.354,69.189
			v3.84c0.502-0.02,0.822-0.098,0.961-0.238s0.207-0.488,0.207-1.041v-1.279c0-0.588-0.063-0.943-0.186-1.066
			C59.213,69.277,58.885,69.207,58.354,69.189z"/>
		
			<linearGradient id="SVGID_5_" gradientUnits="userSpaceOnUse" x1="328.0322" y1="-332.0156" x2="337.0498" y2="-332.0156" gradientTransform="matrix(1 0 0 -1 -256 -263.5)">
			<stop  offset="0" style="stop-color:#FCEB06"/>
			<stop  offset="1" style="stop-color:#FDCB07"/>
		</linearGradient>
		<path fill="url(#SVGID_5_)" stroke="#FAF39A" d="M79.009,61.656l2.041,13.719h-3.645l-0.194-2.467h-1.274l-0.216,2.467h-3.688
			l1.82-13.719H79.009z M77.118,70.479c-0.182-1.555-0.362-3.477-0.543-5.764c-0.362,2.627-0.592,4.549-0.686,5.764H77.118z"/>
		
			<linearGradient id="SVGID_6_" gradientUnits="userSpaceOnUse" x1="347.2764" y1="-332.0156" x2="353.0117" y2="-332.0156" gradientTransform="matrix(1 0 0 -1 -256 -263.5)">
			<stop  offset="0" style="stop-color:#FCEB06"/>
			<stop  offset="1" style="stop-color:#FDCB07"/>
		</linearGradient>
		<path fill="url(#SVGID_6_)" stroke="#FAF39A" d="M94.844,61.656v10.975h2.168v2.744h-5.735V61.656H94.844z"/>
	</g>
	<g>
		<g>
			<rect x="1.218" y="24.335" fill="#DB2727" width="29.666" height="33.903"/>
			<g>
				
					<linearGradient id="SVGID_7_" gradientUnits="userSpaceOnUse" x1="272.0508" y1="-287.8354" x2="272.0508" y2="-312.8394" gradientTransform="matrix(1 0 0 -1 -256 -263.5)">
					<stop  offset="0" style="stop-color:#67100C"/>
					<stop  offset="1" style="stop-color:#CD2027"/>
				</linearGradient>
				<path fill="url(#SVGID_7_)" d="M16.051,44.011c5.635,0,10.803,2,14.833,5.328V24.335H1.218v25.004
					C5.247,46.011,10.416,44.011,16.051,44.011z"/>
			</g>
		</g>
		<g>
			<rect x="34.667" y="24.335" fill="#7EC142" width="29.667" height="33.903"/>
			<g>
				
					<linearGradient id="SVGID_8_" gradientUnits="userSpaceOnUse" x1="305.498" y1="-287.8354" x2="305.498" y2="-312.8394" gradientTransform="matrix(1 0 0 -1 -256 -263.5)">
					<stop  offset="0" style="stop-color:#0E1027"/>
					<stop  offset="1" style="stop-color:#0AA54A"/>
				</linearGradient>
				<path fill="url(#SVGID_8_)" d="M49.5,44.011c5.634,0,10.804,2,14.832,5.328V24.335H34.667v25.004
					C38.697,46.011,43.865,44.011,49.5,44.011z"/>
			</g>
		</g>
		<g>
			<rect x="68.116" y="24.335" fill="#309BD6" width="29.664" height="33.903"/>
			<g>
				
					<linearGradient id="SVGID_9_" gradientUnits="userSpaceOnUse" x1="338.9492" y1="-287.8354" x2="338.9492" y2="-312.8394" gradientTransform="matrix(1 0 0 -1 -256 -263.5)">
					<stop  offset="0" style="stop-color:#150F29"/>
					<stop  offset="1" style="stop-color:#2E499D"/>
				</linearGradient>
				<path fill="url(#SVGID_9_)" d="M82.948,44.011c5.638,0,10.805,2,14.834,5.328V24.335H68.116v25.004
					C72.146,46.011,77.315,44.011,82.948,44.011z"/>
			</g>
		</g>
		<g>
			<g>
				
					<linearGradient id="SVGID_10_" gradientUnits="userSpaceOnUse" x1="271.8828" y1="-292.2373" x2="271.8828" y2="-317.0645" gradientTransform="matrix(1 0 0 -1 -256 -263.5)">
					<stop  offset="0" style="stop-color:#FCEB06"/>
					<stop  offset="1" style="stop-color:#FDCB07"/>
				</linearGradient>
				<path fill="url(#SVGID_10_)" d="M16.124,53.564c-1.436,0-2.714-0.238-3.799-0.709c-1.066-0.459-1.868-1.059-2.389-1.785
					c-0.521-0.73-0.831-1.506-0.924-2.305c-0.101-0.862-0.152-2.733-0.152-5.561V28.737h5.577v18.468
					c0,1.562,0.122,2.058,0.212,2.296c0.199,0.507,0.624,0.782,1.195,0.782c0.628,0,1.081-0.298,1.276-0.843
					c0.088-0.252,0.208-0.793,0.208-2.563v-18.14h5.579v16.405c0,1.875-0.062,3.208-0.184,3.958
					c-0.109,0.692-0.451,1.422-1.014,2.17c-0.566,0.752-1.292,1.307-2.225,1.697C18.545,53.365,17.415,53.564,16.124,53.564
					L16.124,53.564z"/>
				<path fill="#FAF39A" d="M23.407,28.236v16.906c0,1.917-0.063,3.263-0.188,4.039c-0.125,0.776-0.495,1.573-1.109,2.391
					c-0.615,0.818-1.425,1.438-2.431,1.859c-1.004,0.422-2.189,0.633-3.554,0.633c-1.511,0-2.843-0.25-4-0.752
					c-1.156-0.498-2.021-1.148-2.594-1.951c-0.572-0.803-0.911-1.648-1.015-2.54c-0.104-0.89-0.156-2.763-0.156-5.618V28.236h6.578
					v18.968c0,1.104,0.061,1.813,0.179,2.117c0.12,0.307,0.362,0.461,0.727,0.461c0.417,0,0.685-0.17,0.805-0.51
					c0.119-0.338,0.179-1.137,0.179-2.396v-18.64H23.407 M22.407,29.236h-4.579v17.64c0,1.826-0.126,2.417-0.236,2.729
					c-0.265,0.748-0.901,1.178-1.748,1.178c-0.781,0-1.385-0.4-1.658-1.096c-0.123-0.318-0.248-0.858-0.248-2.482V29.236H9.36
					v13.967c0,2.804,0.05,4.655,0.149,5.502c0.085,0.728,0.359,1.405,0.836,2.074c0.462,0.646,1.195,1.189,2.176,1.615
					c1.025,0.443,2.237,0.67,3.604,0.67c1.223,0,2.289-0.188,3.167-0.557c0.847-0.355,1.507-0.857,2.019-1.539
					c0.512-0.681,0.822-1.336,0.92-1.948c0.116-0.72,0.175-2.024,0.175-3.879L22.407,29.236L22.407,29.236z"/>
			</g>
			<g>
				
					<linearGradient id="SVGID_11_" gradientUnits="userSpaceOnUse" x1="306.1475" y1="-292.2373" x2="306.1475" y2="-316.5332" gradientTransform="matrix(1 0 0 -1 -256 -263.5)">
					<stop  offset="0" style="stop-color:#FCEB06"/>
					<stop  offset="1" style="stop-color:#FDCB07"/>
				</linearGradient>
				<path fill="url(#SVGID_11_)" d="M50.099,53.033h-7.107V28.737h6.062c2.018,0,3.553,0.154,4.568,0.461
					c0.961,0.292,1.719,0.869,2.313,1.76c0.598,0.897,0.898,2.404,0.898,4.477c0,1.688-0.317,2.443-0.586,2.781
					c-0.383,0.484-1.232,0.885-2.461,1.165v0.976c1.387,0.313,2.324,0.819,2.791,1.504c0.48,0.71,0.727,1.851,0.727,3.386v2.345
					c0,1.628-0.182,2.833-0.537,3.583c-0.336,0.705-0.854,1.174-1.583,1.434C54.391,52.893,52.681,53.033,50.099,53.033
					L50.099,53.033z M48.568,41.61v0.517v7.077v0.517l0.517-0.017c1.085-0.037,1.756-0.223,2.113-0.586
					c0.364-0.373,0.527-1.073,0.527-2.273v-2.359c0-1.283-0.146-1.977-0.488-2.322c-0.34-0.335-1.002-0.5-2.152-0.537L48.568,41.61
					L48.568,41.61z M48.568,32.06v0.506v5.624v0.519l0.519-0.019c0.273-0.01,0.488-0.015,0.64-0.015
					c0.841,0,1.401-0.247,1.671-0.737c0.15-0.271,0.328-0.856,0.328-2.968c0-0.869-0.087-1.48-0.264-1.871
					c-0.206-0.447-0.494-0.737-0.86-0.865c-0.293-0.105-0.778-0.158-1.528-0.168L48.568,32.06L48.568,32.06z"/>
				<path fill="#FAF39A" d="M49.053,28.236c2.074,0,3.644,0.162,4.711,0.484c1.065,0.323,1.929,0.976,2.585,1.96
					c0.656,0.984,0.984,2.568,0.984,4.754c0,1.478-0.23,2.508-0.695,3.092c-0.462,0.583-1.377,1.031-2.741,1.342
					c1.521,0.345,2.552,0.915,3.095,1.712c0.541,0.797,0.813,2.019,0.813,3.667v2.345c0,1.71-0.195,2.978-0.587,3.8
					s-1.013,1.387-1.866,1.688c-0.854,0.303-2.605,0.453-5.251,0.453h-7.608V28.236H49.053 M49.069,38.189
					c0.282-0.011,0.501-0.016,0.657-0.016c0.645,0,1.059-0.159,1.232-0.477c0.179-0.318,0.268-1.227,0.268-2.727
					c0-0.792-0.074-1.347-0.219-1.665c-0.146-0.317-0.336-0.518-0.569-0.602c-0.235-0.083-0.69-0.13-1.369-0.14V38.189
					 M49.069,49.205c0.928-0.031,1.519-0.178,1.773-0.436c0.255-0.263,0.384-0.904,0.384-1.924v-2.359
					c0-1.083-0.115-1.74-0.345-1.969s-0.833-0.359-1.813-0.39L49.069,49.205 M49.053,29.236h-5.562v23.297h6.608
					c3.141,0,4.408-0.215,4.918-0.396c0.605-0.215,1.018-0.588,1.296-1.174c0.224-0.473,0.49-1.438,0.49-3.372v-2.345
					c0-1.415-0.222-2.488-0.64-3.105c-0.393-0.576-1.229-1.013-2.488-1.299l-0.001-1.95c1.483-0.338,2.003-0.764,2.181-0.988
					c0.18-0.226,0.479-0.844,0.479-2.471c0-2.459-0.443-3.641-0.815-4.2c-0.528-0.792-1.196-1.301-2.043-1.558
					C52.505,29.385,51.018,29.236,49.053,29.236L49.053,29.236z M48.069,39.229v-1.039v-5.624V31.55l1.015,0.015
					c0.813,0.012,1.333,0.072,1.686,0.196c0.347,0.123,0.819,0.417,1.146,1.126c0.214,0.468,0.312,1.128,0.312,2.083
					c0,2.206-0.188,2.849-0.394,3.214c-0.247,0.448-0.815,0.989-2.106,0.989c-0.147,0-0.354,0.005-0.619,0.015L48.069,39.229
					L48.069,39.229z M48.069,50.238v-1.033v-7.077v-1.032l1.032,0.033c1.307,0.042,2.051,0.246,2.487,0.682
					c0.454,0.455,0.639,1.23,0.639,2.677v2.359c0,1.338-0.206,2.147-0.667,2.621c-0.465,0.472-1.221,0.696-2.457,0.737
					L48.069,50.238L48.069,50.238z"/>
			</g>
			<g>
				
					<linearGradient id="SVGID_12_" gradientUnits="userSpaceOnUse" x1="338.6016" y1="-291.8374" x2="338.6016" y2="-317.1953" gradientTransform="matrix(1 0 0 -1 -256 -263.5)">
					<stop  offset="0" style="stop-color:#FCEB06"/>
					<stop  offset="1" style="stop-color:#FDCB07"/>
				</linearGradient>
				<path fill="url(#SVGID_12_)" d="M82.819,53.695c-1.674,0-3.108-0.316-4.271-0.938c-1.128-0.605-1.872-1.373-2.211-2.284
					c-0.364-0.968-0.548-2.385-0.548-4.214v-1.157h5.107v2.579c0,1.088,0.105,1.735,0.34,2.098c0.181,0.287,0.563,0.636,1.332,0.636
					c0.612,0,1.099-0.261,1.401-0.754c0.265-0.425,0.396-1.011,0.396-1.792c0-1.655-0.233-2.691-0.733-3.255
					c-0.459-0.502-1.496-1.281-3.179-2.383c-1.611-1.068-2.686-1.844-3.188-2.309c-0.477-0.438-0.876-1.06-1.195-1.852
					c-0.322-0.802-0.485-1.854-0.485-3.125c0-1.841,0.229-3.191,0.68-4.007c0.446-0.81,1.157-1.428,2.168-1.889
					c1.033-0.474,2.31-0.713,3.792-0.713c1.628,0,3.027,0.262,4.16,0.783c1.085,0.498,1.807,1.118,2.146,1.843
					c0.355,0.765,0.537,2.133,0.537,4.061v0.5h-5.107v-1.376c0-1.296-0.17-1.719-0.318-1.947c-0.172-0.265-0.523-0.583-1.199-0.583
					c-0.567,0-1.023,0.248-1.32,0.717c-0.258,0.414-0.381,0.979-0.381,1.736c0,0.938,0.131,1.639,0.401,2.143
					c0.267,0.521,0.918,1.077,2.046,1.742c2.85,1.695,4.658,3.083,5.373,4.129c0.699,1.027,1.055,2.747,1.055,5.111
					c0,1.711-0.196,2.978-0.58,3.761c-0.37,0.748-1.116,1.395-2.215,1.92C85.69,53.42,84.343,53.695,82.819,53.695L82.819,53.695z"
					/>
				<path fill="#FAF39A" d="M82.226,27.838c1.708,0,3.164,0.276,4.368,0.829c1.201,0.552,1.997,1.248,2.39,2.086
					c0.391,0.838,0.586,2.263,0.586,4.273v1H83.46v-1.875c0-0.875-0.079-1.432-0.234-1.672c-0.156-0.239-0.416-0.359-0.781-0.359
					c-0.396,0-0.695,0.162-0.897,0.485c-0.202,0.323-0.306,0.813-0.306,1.47c0,0.844,0.113,1.479,0.342,1.907
					c0.221,0.428,0.838,0.943,1.861,1.546c2.928,1.739,4.771,3.165,5.532,4.279c0.759,1.114,1.14,2.912,1.14,5.391
					c0,1.802-0.211,3.13-0.631,3.983c-0.424,0.854-1.238,1.57-2.447,2.148s-2.614,0.867-4.219,0.867c-1.76,0-3.263-0.332-4.508-1
					c-1.244-0.666-2.06-1.516-2.443-2.547c-0.387-1.03-0.58-2.494-0.58-4.391v-1.656h6.109v3.079c0,0.947,0.086,1.557,0.26,1.827
					c0.17,0.271,0.476,0.407,0.912,0.407c0.438,0,0.764-0.172,0.978-0.517c0.214-0.344,0.319-0.854,0.319-1.53
					c0-1.49-0.201-2.463-0.608-2.922c-0.417-0.458-1.442-1.225-3.079-2.297c-1.634-1.083-2.718-1.869-3.25-2.359
					c-0.529-0.49-0.971-1.166-1.32-2.032c-0.348-0.864-0.521-1.969-0.521-3.312c0-1.937,0.248-3.354,0.742-4.25
					s1.293-1.597,2.397-2.102C79.329,28.09,80.663,27.838,82.226,27.838 M82.226,28.838c-1.41,0-2.615,0.225-3.584,0.667
					c-0.912,0.417-1.547,0.965-1.939,1.676c-0.28,0.511-0.616,1.579-0.616,3.766c0,1.208,0.151,2.197,0.45,2.938
					c0.291,0.721,0.65,1.283,1.07,1.671c0.483,0.445,1.535,1.206,3.124,2.26c2.287,1.499,2.96,2.121,3.267,2.458
					c0.597,0.671,0.869,1.811,0.869,3.595c0,0.877-0.153,1.551-0.472,2.06c-0.393,0.637-1.041,0.987-1.825,0.987
					c-1.052,0-1.554-0.547-1.76-0.875c-0.287-0.448-0.412-1.156-0.412-2.359v-2.079h-4.109v0.656c0,1.768,0.175,3.126,0.517,4.04
					c0.301,0.806,0.947,1.464,1.979,2.017c1.09,0.584,2.447,0.881,4.035,0.881c1.447,0,2.721-0.258,3.787-0.77
					c0.996-0.477,1.663-1.045,1.981-1.689c0.239-0.488,0.528-1.502,0.528-3.54c0-2.262-0.326-3.886-0.967-4.828
					c-0.463-0.677-1.744-1.919-5.218-3.982c-1.21-0.713-1.923-1.333-2.239-1.949c-0.302-0.565-0.451-1.343-0.451-2.364
					c0-0.854,0.148-1.508,0.457-2c0.387-0.616,1.006-0.955,1.744-0.955c0.947,0,1.422,0.509,1.619,0.813
					c0.279,0.431,0.396,1.094,0.396,2.219v0.875h4.109c0-2.309-0.268-3.369-0.492-3.851c-0.287-0.614-0.926-1.152-1.899-1.6
					C85.11,29.086,83.78,28.838,82.226,28.838L82.226,28.838z"/>
			</g>
		</g>
	</g>
</g>
</svg>
