<?xml version="1.0" encoding="utf-8"?>
<!-- Generator: Adobe Illustrator 13.0.0, SVG Export Plug-In . SVG Version: 6.00 Build 14948)  -->
<!DOCTYPE svg PUBLIC "-//W3C//DTD SVG 1.1//EN" "http://www.w3.org/Graphics/SVG/1.1/DTD/svg11.dtd">
<svg version="1.1" id="Layer_1" xmlns="http://www.w3.org/2000/svg" xmlns:xlink="http://www.w3.org/1999/xlink" x="0px" y="0px"
	 width="100px" height="100px" viewBox="0 0 100 100" enable-background="new 0 0 100 100" xml:space="preserve">
<g>
	<g>
		<g>
			<g>
				<path fill="#E6E6E6" d="M71.176,23.195c-14.803,0-26.803,12-26.803,26.805s12,26.805,26.803,26.805
					c14.807,0,26.807-12,26.807-26.805S85.982,23.195,71.176,23.195z M71.176,68.304c-10.107,0-18.303-8.194-18.303-18.304
					c0-10.11,8.193-18.305,18.303-18.305c10.111,0,18.307,8.195,18.307,18.305C89.482,60.108,81.287,68.304,71.176,68.304z"/>
			</g>
		</g>
		<path fill="#E6E6E6" d="M71.359,36.943c0,0,1.232,0.206,1.646,1.028c0.41,0.822,10.625,20.702,11.105,21.731
			c0.479,1.027-0.141,2.536-1.029,3.018c-0.891,0.479-2.193,0.548-2.742-0.48c-0.551-1.027-3.084-5.621-3.084-5.621H66.697
			l2.396-4.389h5.828l-3.838-7.54c0,0-8.773,16.864-9.324,17.618c-0.549,0.752-1.781,0.686-2.533,0.273
			c-0.758-0.412-1.51-1.576-0.963-2.742c0.549-1.166,10.422-20.977,10.422-20.977S69.508,36.943,71.359,36.943z"/>
	</g>
	<g>
		<g>
			<g>
				<path fill="#15A2EA" d="M27.822,23.195c-14.804,0-26.804,12-26.804,26.805s12,26.805,26.804,26.805
					c14.804,0,26.803-12,26.803-26.805C54.627,35.195,42.627,23.195,27.822,23.195z M27.822,68.304
					C17.713,68.304,9.518,60.109,9.518,50c0-10.11,8.195-18.305,18.304-18.305c10.11,0,18.304,8.195,18.304,18.305
					C46.126,60.108,37.932,68.304,27.822,68.304z"/>
			</g>
		</g>
		<g>
			<g>
				<path fill="#15A2EA" d="M27.822,32.52c-9.654,0-17.48,7.826-17.48,17.48c0,9.653,7.826,17.479,17.48,17.479
					c9.655,0,17.482-7.826,17.482-17.479C45.304,40.346,37.477,32.52,27.822,32.52z M15.826,62.049
					c-1.578-1.577,0.067-3.018,0.067-3.018l17.071-17.619l-15.905-0.067c0,0-1.569-0.069-1.508-1.987
					c0.068-2.193,2.057-2.125,2.057-2.125s19.538,0,20.498,0c0.959,0,3.222,1.301,1.782,2.879
					c-1.44,1.577-20.841,22.005-20.841,22.005S17.403,63.625,15.826,62.049z M38.481,62.496H21.105l3.907-4.287
					c0,0,12.682,0,13.711,0c1.028,0,1.782,1.234,1.782,2.264C40.504,60.472,40.23,62.496,38.481,62.496z"/>
			</g>
		</g>
	</g>
</g>
</svg>
